<?xml version="1.0" encoding="UTF-8" standalone="no"?><!-- Generator: Gravit.io --><svg xmlns="http://www.w3.org/2000/svg" xmlns:xlink="http://www.w3.org/1999/xlink" style="isolation:isolate" viewBox="489.5 576.5 101.868 33" width="101.868pt" height="33pt"><path d=" M 529.23 600.32 L 529.23 587.202 L 532.55 587.202 L 532.55 587.202 Q 534.25 587.202 535.206 587.623 L 535.206 587.623 L 535.206 587.623 Q 536.161 588.045 536.558 588.943 L 536.558 588.943 L 536.558 588.943 Q 536.955 589.842 536.955 591.348 L 536.955 591.348 L 536.955 596.109 L 536.955 596.109 Q 536.955 597.632 536.558 598.538 L 536.558 598.538 L 536.558 598.538 Q 536.161 599.445 535.214 599.883 L 535.214 599.883 L 535.214 599.883 Q 534.266 600.32 532.582 600.32 L 532.582 600.32 L 529.23 600.32 L 529.23 600.32 Z  M 532.129 598.312 L 532.582 598.312 L 532.582 598.312 Q 533.214 598.312 533.513 598.126 L 533.513 598.126 L 533.513 598.126 Q 533.813 597.939 533.894 597.591 L 533.894 597.591 L 533.894 597.591 Q 533.975 597.243 533.975 596.563 L 533.975 596.563 L 533.975 590.846 L 533.975 590.846 Q 533.975 590.215 533.886 589.883 L 533.886 589.883 L 533.886 589.883 Q 533.797 589.551 533.497 589.389 L 533.497 589.389 L 533.497 589.389 Q 533.197 589.227 532.566 589.227 L 532.566 589.227 L 532.129 589.227 L 532.129 598.312 L 532.129 598.312 Z  M 544.309 600.514 L 544.309 600.514 Q 542.835 600.514 541.977 600.036 L 541.977 600.036 L 541.977 600.036 Q 541.118 599.559 540.77 598.628 L 540.77 598.628 L 540.77 598.628 Q 540.422 597.696 540.422 596.255 L 540.422 596.255 L 540.422 587.202 L 543.288 587.202 L 543.288 596.692 L 543.288 596.692 Q 543.288 597.486 543.491 597.955 L 543.491 597.955 L 543.491 597.955 Q 543.693 598.425 544.309 598.425 L 544.309 598.425 L 544.309 598.425 Q 544.924 598.425 545.118 597.955 L 545.118 597.955 L 545.118 597.955 Q 545.313 597.486 545.313 596.692 L 545.313 596.692 L 545.313 587.202 L 548.195 587.202 L 548.195 596.255 L 548.195 596.255 Q 548.195 597.696 547.839 598.628 L 547.839 598.628 L 547.839 598.628 Q 547.483 599.559 546.632 600.036 L 546.632 600.036 L 546.632 600.036 Q 545.782 600.514 544.309 600.514 L 544.309 600.514 L 544.309 600.514 Z  M 551.841 600.32 L 551.841 587.202 L 555.452 587.202 L 555.452 587.202 Q 557.606 587.202 558.707 587.964 L 558.707 587.964 L 558.707 587.964 Q 559.808 588.725 559.808 590.668 L 559.808 590.668 L 559.808 590.668 Q 559.808 591.98 559.468 592.757 L 559.468 592.757 L 559.468 592.757 Q 559.128 593.534 558.205 593.972 L 558.205 593.972 L 560.003 600.32 L 557.007 600.32 L 555.565 594.441 L 554.74 594.441 L 554.74 600.32 L 551.841 600.32 L 551.841 600.32 Z  M 554.74 592.773 L 555.549 592.773 L 555.549 592.773 Q 556.424 592.773 556.772 592.312 L 556.772 592.312 L 556.772 592.312 Q 557.12 591.85 557.12 590.927 L 557.12 590.927 L 557.12 590.927 Q 557.12 590.036 556.796 589.591 L 556.796 589.591 L 556.796 589.591 Q 556.472 589.146 555.679 589.146 L 555.679 589.146 L 554.74 589.146 L 554.74 592.773 L 554.74 592.773 Z  M 566.644 600.514 L 566.644 600.514 Q 564.701 600.514 563.875 599.332 L 563.875 599.332 L 563.875 599.332 Q 563.049 598.15 563.049 595.98 L 563.049 595.98 L 563.049 591.575 L 563.049 591.575 Q 563.049 589.356 563.948 588.19 L 563.948 588.19 L 563.948 588.19 Q 564.847 587.024 566.984 587.024 L 566.984 587.024 L 566.984 587.024 Q 569.041 587.024 569.932 588.028 L 569.932 588.028 L 569.932 588.028 Q 570.822 589.032 570.822 590.862 L 570.822 590.862 L 570.822 591.704 L 567.988 591.704 L 567.988 590.636 L 567.988 590.636 Q 567.988 589.858 567.81 589.462 L 567.81 589.462 L 567.81 589.462 Q 567.632 589.065 567.017 589.065 L 567.017 589.065 L 567.017 589.065 Q 566.385 589.065 566.199 589.502 L 566.199 589.502 L 566.199 589.502 Q 566.013 589.939 566.013 590.717 L 566.013 590.717 L 566.013 596.789 L 566.013 596.789 Q 566.013 597.567 566.247 598.012 L 566.247 598.012 L 566.247 598.012 Q 566.482 598.457 567.098 598.457 L 567.098 598.457 L 567.098 598.457 Q 568.231 598.457 568.231 596.757 L 568.231 596.757 L 568.231 595.219 L 567.049 595.219 L 567.049 593.518 L 570.839 593.518 L 570.839 600.32 L 568.928 600.32 L 568.766 599.235 L 568.766 599.235 Q 568.15 600.514 566.644 600.514 L 566.644 600.514 L 566.644 600.514 Z  M 573.82 600.32 L 576.298 587.202 L 579.601 587.202 L 582.047 600.32 L 579.375 600.32 L 578.937 597.551 L 577.01 597.551 L 576.557 600.32 L 573.82 600.32 L 573.82 600.32 Z  M 577.269 595.818 L 578.662 595.818 L 577.966 590.7 L 577.269 595.818 L 577.269 595.818 Z  M 498.453 600.514 L 498.453 600.514 Q 496.575 600.514 495.66 599.518 L 495.66 599.518 L 495.66 599.518 Q 494.745 598.522 494.68 596.352 L 494.68 596.352 L 497.158 595.98 L 497.158 595.98 Q 497.174 597.227 497.457 597.769 L 497.457 597.769 L 497.457 597.769 Q 497.741 598.312 498.308 598.312 L 498.308 598.312 L 498.308 598.312 Q 499.036 598.312 499.036 597.356 L 499.036 597.356 L 499.036 597.356 Q 499.036 596.595 498.688 596.045 L 498.688 596.045 L 498.688 596.045 Q 498.34 595.494 497.595 594.862 L 497.595 594.862 L 496.462 593.874 L 496.462 593.874 Q 495.619 593.162 495.158 592.36 L 495.158 592.36 L 495.158 592.36 Q 494.696 591.559 494.696 590.457 L 494.696 590.457 L 494.696 590.457 Q 494.696 588.806 495.676 587.915 L 495.676 587.915 L 495.676 587.915 Q 496.656 587.024 498.372 587.024 L 498.372 587.024 L 498.372 587.024 Q 500.235 587.024 500.907 588.109 L 500.907 588.109 L 500.907 588.109 Q 501.579 589.194 501.628 590.749 L 501.628 590.749 L 499.134 591.057 L 499.134 591.057 Q 499.101 590.036 498.947 589.591 L 498.947 589.591 L 498.947 589.591 Q 498.794 589.146 498.275 589.146 L 498.275 589.146 L 498.275 589.146 Q 497.903 589.146 497.7 589.462 L 497.7 589.462 L 497.7 589.462 Q 497.498 589.777 497.498 590.166 L 497.498 590.166 L 497.498 590.166 Q 497.498 590.83 497.798 591.283 L 497.798 591.283 L 497.798 591.283 Q 498.097 591.737 498.761 592.32 L 498.761 592.32 L 499.846 593.275 L 499.846 593.275 Q 500.818 594.101 501.352 595.024 L 501.352 595.024 L 501.352 595.024 Q 501.887 595.947 501.887 597.211 L 501.887 597.211 L 501.887 597.211 Q 501.887 598.134 501.457 598.887 L 501.457 598.887 L 501.457 598.887 Q 501.028 599.64 500.251 600.077 L 500.251 600.077 L 500.251 600.077 Q 499.474 600.514 498.453 600.514 L 498.453 600.514 L 498.453 600.514 Z  M 505.095 600.32 L 505.095 587.202 L 508.706 587.202 L 508.706 587.202 Q 510.86 587.202 511.961 587.964 L 511.961 587.964 L 511.961 587.964 Q 513.063 588.725 513.063 590.668 L 513.063 590.668 L 513.063 590.668 Q 513.063 591.98 512.722 592.757 L 512.722 592.757 L 512.722 592.757 Q 512.382 593.534 511.459 593.972 L 511.459 593.972 L 513.257 600.32 L 510.261 600.32 L 508.82 594.441 L 507.994 594.441 L 507.994 600.32 L 505.095 600.32 L 505.095 600.32 Z  M 507.994 592.773 L 508.803 592.773 L 508.803 592.773 Q 509.678 592.773 510.026 592.312 L 510.026 592.312 L 510.026 592.312 Q 510.374 591.85 510.374 590.927 L 510.374 590.927 L 510.374 590.927 Q 510.374 590.036 510.05 589.591 L 510.05 589.591 L 510.05 589.591 Q 509.726 589.146 508.933 589.146 L 508.933 589.146 L 507.994 589.146 L 507.994 592.773 L 507.994 592.773 Z  M 516.627 600.32 L 516.627 587.202 L 519.526 587.202 L 519.526 600.32 L 516.627 600.32 L 516.627 600.32 Z " fill="rgb(255,255,255)" vector-effect="non-scaling-stroke" stroke-width="1" stroke="rgb(152,0,0)" stroke-linejoin="miter" stroke-linecap="square" stroke-miterlimit="3"/></svg>