<?xml version="1.0" encoding="UTF-8" standalone="no"?><!-- Generator: Gravit.io --><svg xmlns="http://www.w3.org/2000/svg" xmlns:xlink="http://www.w3.org/1999/xlink" style="isolation:isolate" viewBox="489.5 486.595 141.454 33" width="141.454pt" height="33pt"><path d=" M 529.23 510.415 L 529.23 497.298 L 531.27 497.298 L 533.959 503.614 L 533.959 497.298 L 536.355 497.298 L 536.355 510.415 L 534.396 510.415 L 531.708 503.614 L 531.708 510.415 L 529.23 510.415 L 529.23 510.415 Z  M 539.483 510.415 L 541.96 497.298 L 545.264 497.298 L 547.709 510.415 L 545.037 510.415 L 544.6 507.646 L 542.673 507.646 L 542.22 510.415 L 539.483 510.415 L 539.483 510.415 Z  M 542.932 505.913 L 544.325 505.913 L 543.628 500.796 L 542.932 505.913 L 542.932 505.913 Z  M 550.837 510.415 L 550.837 497.298 L 554.448 497.298 L 554.448 497.298 Q 556.602 497.298 557.703 498.059 L 557.703 498.059 L 557.703 498.059 Q 558.804 498.82 558.804 500.764 L 558.804 500.764 L 558.804 500.764 Q 558.804 502.075 558.464 502.853 L 558.464 502.853 L 558.464 502.853 Q 558.124 503.63 557.201 504.067 L 557.201 504.067 L 558.999 510.415 L 556.003 510.415 L 554.561 504.537 L 553.735 504.537 L 553.735 510.415 L 550.837 510.415 L 550.837 510.415 Z  M 553.735 502.869 L 554.545 502.869 L 554.545 502.869 Q 555.42 502.869 555.768 502.407 L 555.768 502.407 L 555.768 502.407 Q 556.116 501.946 556.116 501.023 L 556.116 501.023 L 556.116 501.023 Q 556.116 500.132 555.792 499.687 L 555.792 499.687 L 555.792 499.687 Q 555.468 499.241 554.675 499.241 L 554.675 499.241 L 553.735 499.241 L 553.735 502.869 L 553.735 502.869 Z  M 561.721 510.415 L 564.199 497.298 L 567.502 497.298 L 569.948 510.415 L 567.276 510.415 L 566.839 507.646 L 564.911 507.646 L 564.458 510.415 L 561.721 510.415 L 561.721 510.415 Z  M 565.17 505.913 L 566.563 505.913 L 565.867 500.796 L 565.17 505.913 L 565.17 505.913 Z  M 576.427 510.61 L 576.427 510.61 Q 574.549 510.61 573.634 509.614 L 573.634 509.614 L 573.634 509.614 Q 572.719 508.618 572.654 506.448 L 572.654 506.448 L 575.132 506.075 L 575.132 506.075 Q 575.148 507.322 575.431 507.865 L 575.431 507.865 L 575.431 507.865 Q 575.715 508.407 576.282 508.407 L 576.282 508.407 L 576.282 508.407 Q 577.01 508.407 577.01 507.452 L 577.01 507.452 L 577.01 507.452 Q 577.01 506.691 576.662 506.14 L 576.662 506.14 L 576.662 506.14 Q 576.314 505.589 575.569 504.958 L 575.569 504.958 L 574.435 503.97 L 574.435 503.97 Q 573.593 503.257 573.132 502.456 L 573.132 502.456 L 573.132 502.456 Q 572.67 501.654 572.67 500.553 L 572.67 500.553 L 572.67 500.553 Q 572.67 498.901 573.65 498.01 L 573.65 498.01 L 573.65 498.01 Q 574.63 497.12 576.346 497.12 L 576.346 497.12 L 576.346 497.12 Q 578.209 497.12 578.881 498.205 L 578.881 498.205 L 578.881 498.205 Q 579.553 499.29 579.601 500.844 L 579.601 500.844 L 577.108 501.152 L 577.108 501.152 Q 577.075 500.132 576.921 499.687 L 576.921 499.687 L 576.921 499.687 Q 576.767 499.241 576.249 499.241 L 576.249 499.241 L 576.249 499.241 Q 575.877 499.241 575.674 499.557 L 575.674 499.557 L 575.674 499.557 Q 575.472 499.873 575.472 500.261 L 575.472 500.261 L 575.472 500.261 Q 575.472 500.925 575.771 501.379 L 575.771 501.379 L 575.771 501.379 Q 576.071 501.832 576.735 502.415 L 576.735 502.415 L 577.82 503.371 L 577.82 503.371 Q 578.792 504.197 579.326 505.12 L 579.326 505.12 L 579.326 505.12 Q 579.861 506.043 579.861 507.306 L 579.861 507.306 L 579.861 507.306 Q 579.861 508.229 579.431 508.982 L 579.431 508.982 L 579.431 508.982 Q 579.002 509.735 578.225 510.172 L 578.225 510.172 L 578.225 510.172 Q 577.448 510.61 576.427 510.61 L 576.427 510.61 L 576.427 510.61 Z  M 583.085 510.415 L 583.085 497.298 L 585.984 497.298 L 585.984 510.415 L 583.085 510.415 L 583.085 510.415 Z  M 589.694 510.415 L 589.921 497.298 L 593.03 497.298 L 594.471 504.925 L 596.026 497.298 L 599.022 497.298 L 599.249 510.415 L 597.192 510.415 L 596.949 501.687 L 595.427 510.415 L 593.597 510.415 L 591.978 501.622 L 591.783 510.415 L 589.694 510.415 L 589.694 510.415 Z  M 602.991 510.415 L 602.991 497.298 L 605.89 497.298 L 605.89 502.61 L 607.915 502.61 L 607.915 497.298 L 610.83 497.298 L 610.83 510.415 L 607.915 510.415 L 607.915 504.683 L 605.89 504.683 L 605.89 510.415 L 602.991 510.415 L 602.991 510.415 Z  M 613.989 510.415 L 616.467 497.298 L 619.771 497.298 L 622.216 510.415 L 619.544 510.415 L 619.107 507.646 L 617.179 507.646 L 616.726 510.415 L 613.989 510.415 L 613.989 510.415 Z  M 617.439 505.913 L 618.831 505.913 L 618.135 500.796 L 617.439 505.913 L 617.439 505.913 Z  M 498.453 510.61 L 498.453 510.61 Q 496.575 510.61 495.66 509.614 L 495.66 509.614 L 495.66 509.614 Q 494.745 508.618 494.68 506.448 L 494.68 506.448 L 497.158 506.075 L 497.158 506.075 Q 497.174 507.322 497.457 507.865 L 497.457 507.865 L 497.457 507.865 Q 497.741 508.407 498.308 508.407 L 498.308 508.407 L 498.308 508.407 Q 499.036 508.407 499.036 507.452 L 499.036 507.452 L 499.036 507.452 Q 499.036 506.691 498.688 506.14 L 498.688 506.14 L 498.688 506.14 Q 498.34 505.589 497.595 504.958 L 497.595 504.958 L 496.462 503.97 L 496.462 503.97 Q 495.619 503.257 495.158 502.456 L 495.158 502.456 L 495.158 502.456 Q 494.696 501.654 494.696 500.553 L 494.696 500.553 L 494.696 500.553 Q 494.696 498.901 495.676 498.01 L 495.676 498.01 L 495.676 498.01 Q 496.656 497.12 498.372 497.12 L 498.372 497.12 L 498.372 497.12 Q 500.235 497.12 500.907 498.205 L 500.907 498.205 L 500.907 498.205 Q 501.579 499.29 501.628 500.844 L 501.628 500.844 L 499.134 501.152 L 499.134 501.152 Q 499.101 500.132 498.947 499.687 L 498.947 499.687 L 498.947 499.687 Q 498.794 499.241 498.275 499.241 L 498.275 499.241 L 498.275 499.241 Q 497.903 499.241 497.7 499.557 L 497.7 499.557 L 497.7 499.557 Q 497.498 499.873 497.498 500.261 L 497.498 500.261 L 497.498 500.261 Q 497.498 500.925 497.798 501.379 L 497.798 501.379 L 497.798 501.379 Q 498.097 501.832 498.761 502.415 L 498.761 502.415 L 499.846 503.371 L 499.846 503.371 Q 500.818 504.197 501.352 505.12 L 501.352 505.12 L 501.352 505.12 Q 501.887 506.043 501.887 507.306 L 501.887 507.306 L 501.887 507.306 Q 501.887 508.229 501.457 508.982 L 501.457 508.982 L 501.457 508.982 Q 501.028 509.735 500.251 510.172 L 500.251 510.172 L 500.251 510.172 Q 499.474 510.61 498.453 510.61 L 498.453 510.61 L 498.453 510.61 Z  M 505.095 510.415 L 505.095 497.298 L 508.706 497.298 L 508.706 497.298 Q 510.86 497.298 511.961 498.059 L 511.961 498.059 L 511.961 498.059 Q 513.063 498.82 513.063 500.764 L 513.063 500.764 L 513.063 500.764 Q 513.063 502.075 512.722 502.853 L 512.722 502.853 L 512.722 502.853 Q 512.382 503.63 511.459 504.067 L 511.459 504.067 L 513.257 510.415 L 510.261 510.415 L 508.82 504.537 L 507.994 504.537 L 507.994 510.415 L 505.095 510.415 L 505.095 510.415 Z  M 507.994 502.869 L 508.803 502.869 L 508.803 502.869 Q 509.678 502.869 510.026 502.407 L 510.026 502.407 L 510.026 502.407 Q 510.374 501.946 510.374 501.023 L 510.374 501.023 L 510.374 501.023 Q 510.374 500.132 510.05 499.687 L 510.05 499.687 L 510.05 499.687 Q 509.726 499.241 508.933 499.241 L 508.933 499.241 L 507.994 499.241 L 507.994 502.869 L 507.994 502.869 Z  M 516.627 510.415 L 516.627 497.298 L 519.526 497.298 L 519.526 510.415 L 516.627 510.415 L 516.627 510.415 Z " fill="rgb(255,255,255)" vector-effect="non-scaling-stroke" stroke-width="1" stroke="rgb(152,0,0)" stroke-linejoin="miter" stroke-linecap="square" stroke-miterlimit="3"/></svg>