<?xml version="1.0" encoding="UTF-8" standalone="no"?><!-- Generator: Gravit.io --><svg xmlns="http://www.w3.org/2000/svg" xmlns:xlink="http://www.w3.org/1999/xlink" style="isolation:isolate" viewBox="717.3 405.44 190.86 23.28" width="190.86pt" height="23.28pt"><path d=" M 826.92 412.74 L 829.24 412.74 L 829.24 423 L 817.7 423 L 817.7 412.74 L 820.02 412.64 L 820.02 421.18 L 826.92 421.18 L 826.92 412.74 L 826.92 412.74 Z  M 841.6 416.78 L 841.6 416.78 Q 843.6 416.78 844.76 417.69 L 844.76 417.69 L 844.76 417.69 Q 845.92 418.6 845.92 420.08 L 845.92 420.08 L 845.92 420.08 Q 845.92 421.04 845.37 421.78 L 845.37 421.78 L 845.37 421.78 Q 844.82 422.52 843.79 422.94 L 843.79 422.94 L 843.79 422.94 Q 842.76 423.36 841.38 423.36 L 841.38 423.36 L 841.38 421.52 L 841.38 421.52 Q 842.46 421.52 842.98 421.14 L 842.98 421.14 L 842.98 421.14 Q 843.5 420.76 843.5 420.08 L 843.5 420.08 L 843.5 420.08 Q 843.5 418.62 841.62 418.62 L 841.62 418.62 L 841.06 418.62 L 841.06 418.9 L 841.06 418.9 Q 841.06 420.18 840.44 421.2 L 840.44 421.2 L 840.44 421.2 Q 839.82 422.22 838.69 422.79 L 838.69 422.79 L 838.69 422.79 Q 837.56 423.36 836.04 423.36 L 836.04 423.36 L 836.04 423.36 Q 834.72 423.36 833.74 422.93 L 833.74 422.93 L 833.74 422.93 Q 832.76 422.5 832.23 421.75 L 832.23 421.75 L 832.23 421.75 Q 831.7 421 831.7 420.02 L 831.7 420.02 L 831.7 420.02 Q 831.7 419.02 832.29 418.24 L 832.29 418.24 L 832.29 418.24 Q 832.88 417.46 833.96 417.08 L 833.96 417.08 L 833.96 412.74 L 844.4 412.74 L 844.76 414.56 L 841.06 414.56 L 841.06 416.78 L 841.6 416.78 L 841.6 416.78 Z  M 838.72 416.78 L 838.72 414.56 L 836.28 414.56 L 836.28 416.78 L 838.72 416.78 L 838.72 416.78 Z  M 838.72 418.9 L 838.72 418.62 L 835.98 418.62 L 835.98 418.62 Q 835.1 418.62 834.61 419 L 834.61 419 L 834.61 419 Q 834.12 419.38 834.12 420.02 L 834.12 420.02 L 834.12 420.02 Q 834.12 420.66 834.63 421.05 L 834.63 421.05 L 834.63 421.05 Q 835.14 421.44 836.04 421.44 L 836.04 421.44 L 836.04 421.44 Q 837.32 421.44 838.02 420.74 L 838.02 420.74 L 838.02 420.74 Q 838.72 420.04 838.72 418.9 L 838.72 418.9 L 838.72 418.9 Z  M 863.88 412.74 L 866.2 412.74 L 866.2 423 L 857.7 423 L 857.7 421.18 L 857.7 421.18 Q 858.62 419.64 858.62 417.9 L 858.62 417.9 L 858.62 417.9 Q 858.62 416.28 857.46 415.29 L 857.46 415.29 L 857.46 415.29 Q 856.3 414.3 854.02 414.3 L 854.02 414.3 L 854.02 414.3 Q 852.6 414.3 851.53 414.82 L 851.53 414.82 L 851.53 414.82 Q 850.46 415.34 849.89 416.24 L 849.89 416.24 L 849.89 416.24 Q 849.32 417.14 849.32 418.26 L 849.32 418.26 L 849.32 418.26 Q 849.32 419.12 849.68 419.78 L 849.68 419.78 L 849.68 419.78 Q 849.78 418.48 850.75 417.64 L 850.75 417.64 L 850.75 417.64 Q 851.72 416.8 853.08 416.8 L 853.08 416.8 L 853.08 416.8 Q 854.14 416.8 854.99 417.23 L 854.99 417.23 L 854.99 417.23 Q 855.84 417.66 856.32 418.41 L 856.32 418.41 L 856.32 418.41 Q 856.8 419.16 856.8 420.1 L 856.8 420.1 L 856.8 420.1 Q 856.8 421.04 856.29 421.78 L 856.29 421.78 L 856.29 421.78 Q 855.78 422.52 854.87 422.94 L 854.87 422.94 L 854.87 422.94 Q 853.96 423.36 852.82 423.36 L 852.82 423.36 L 852.82 423.36 Q 851.12 423.36 849.77 422.7 L 849.77 422.7 L 849.77 422.7 Q 848.42 422.04 847.66 420.88 L 847.66 420.88 L 847.66 420.88 Q 846.9 419.72 846.9 418.26 L 846.9 418.26 L 846.9 418.26 Q 846.9 416.56 847.8 415.22 L 847.8 415.22 L 847.8 415.22 Q 848.7 413.88 850.32 413.13 L 850.32 413.13 L 850.32 413.13 Q 851.94 412.38 854.02 412.38 L 854.02 412.38 L 854.02 412.38 Q 856.04 412.38 857.64 413.09 L 857.64 413.09 L 857.64 413.09 Q 859.24 413.8 860.15 415.06 L 860.15 415.06 L 860.15 415.06 Q 861.06 416.32 861.06 417.9 L 861.06 417.9 L 861.06 417.9 Q 861.06 419.58 860.26 421.18 L 860.26 421.18 L 863.88 421.18 L 863.88 412.74 L 863.88 412.74 Z  M 853.12 418.64 L 853.12 418.64 Q 852.5 418.64 852.1 419.05 L 852.1 419.05 L 852.1 419.05 Q 851.7 419.46 851.7 420.1 L 851.7 420.1 L 851.7 420.1 Q 851.7 420.72 852.1 421.12 L 852.1 421.12 L 852.1 421.12 Q 852.5 421.52 853.12 421.52 L 853.12 421.52 L 853.12 421.52 Q 853.74 421.52 854.15 421.12 L 854.15 421.12 L 854.15 421.12 Q 854.56 420.72 854.56 420.1 L 854.56 420.1 L 854.56 420.1 Q 854.56 419.48 854.15 419.06 L 854.15 419.06 L 854.15 419.06 Q 853.74 418.64 853.12 418.64 L 853.12 418.64 L 853.12 418.64 Z  M 881.78 414.56 L 878.16 414.56 L 878.16 423 L 875.84 423 L 875.84 414.56 L 872.02 414.56 L 872.02 423 L 869.7 423 L 869.7 412.74 L 881.42 412.74 L 881.78 414.56 L 881.78 414.56 Z  M 907.8 412.74 L 908.16 414.56 L 904.54 414.56 L 904.54 423 L 902.22 423 L 902.22 414.56 L 900.44 414.56 L 900.44 414.56 Q 899.16 414.56 898 415 L 898 415 L 898 415 Q 899.06 415.92 899.65 417.05 L 899.65 417.05 L 899.65 417.05 Q 900.24 418.18 900.24 419.4 L 900.24 419.4 L 900.24 419.4 Q 900.24 420.54 899.74 421.44 L 899.74 421.44 L 899.74 421.44 Q 899.24 422.34 898.36 422.85 L 898.36 422.85 L 898.36 422.85 Q 897.48 423.36 896.34 423.36 L 896.34 423.36 L 896.34 423.36 Q 895.2 423.36 894.32 422.85 L 894.32 422.85 L 894.32 422.85 Q 893.44 422.34 892.95 421.44 L 892.95 421.44 L 892.95 421.44 Q 892.46 420.54 892.46 419.4 L 892.46 419.4 L 892.46 419.4 Q 892.46 418.18 892.95 417.07 L 892.95 417.07 L 892.95 417.07 Q 893.44 415.96 894.34 415.08 L 894.34 415.08 L 894.34 415.08 Q 892.54 414.3 890.4 414.3 L 890.4 414.3 L 890.4 414.3 Q 888.54 414.3 887.16 414.82 L 887.16 414.82 L 887.16 414.82 Q 885.78 415.34 885.05 416.26 L 885.05 416.26 L 885.05 416.26 Q 884.32 417.18 884.32 418.34 L 884.32 418.34 L 884.32 418.34 Q 884.32 419.14 884.66 419.82 L 884.66 419.82 L 884.66 419.82 Q 884.76 418.5 885.72 417.65 L 885.72 417.65 L 885.72 417.65 Q 886.68 416.8 888.08 416.8 L 888.08 416.8 L 888.08 416.8 Q 889.14 416.8 889.99 417.23 L 889.99 417.23 L 889.99 417.23 Q 890.84 417.66 891.32 418.41 L 891.32 418.41 L 891.32 418.41 Q 891.8 419.16 891.8 420.1 L 891.8 420.1 L 891.8 420.1 Q 891.8 421.04 891.29 421.78 L 891.29 421.78 L 891.29 421.78 Q 890.78 422.52 889.87 422.94 L 889.87 422.94 L 889.87 422.94 Q 888.96 423.36 887.82 423.36 L 887.82 423.36 L 887.82 423.36 Q 886.12 423.36 884.77 422.72 L 884.77 422.72 L 884.77 422.72 Q 883.42 422.08 882.66 420.94 L 882.66 420.94 L 882.66 420.94 Q 881.9 419.8 881.9 418.34 L 881.9 418.34 L 881.9 418.34 Q 881.9 416.64 882.94 415.28 L 882.94 415.28 L 882.94 415.28 Q 883.98 413.92 885.91 413.15 L 885.91 413.15 L 885.91 413.15 Q 887.84 412.38 890.4 412.38 L 890.4 412.38 L 890.4 412.38 Q 891.98 412.38 893.45 412.74 L 893.45 412.74 L 893.45 412.74 Q 894.92 413.1 896.18 413.76 L 896.18 413.76 L 896.18 413.76 Q 898.1 412.74 900.44 412.74 L 900.44 412.74 L 907.8 412.74 L 907.8 412.74 Z  M 896.34 421.44 L 896.34 421.44 Q 897.04 421.44 897.42 420.87 L 897.42 420.87 L 897.42 420.87 Q 897.8 420.3 897.8 419.4 L 897.8 419.4 L 897.8 419.4 Q 897.8 418.5 897.38 417.68 L 897.38 417.68 L 897.38 417.68 Q 896.96 416.86 896.18 416.2 L 896.18 416.2 L 896.18 416.2 Q 895.56 416.84 895.22 417.65 L 895.22 417.65 L 895.22 417.65 Q 894.88 418.46 894.88 419.4 L 894.88 419.4 L 894.88 419.4 Q 894.88 420.28 895.27 420.86 L 895.27 420.86 L 895.27 420.86 Q 895.66 421.44 896.34 421.44 L 896.34 421.44 L 896.34 421.44 Z  M 888.12 418.64 L 888.12 418.64 Q 887.5 418.64 887.1 419.05 L 887.1 419.05 L 887.1 419.05 Q 886.7 419.46 886.7 420.1 L 886.7 420.1 L 886.7 420.1 Q 886.7 420.72 887.1 421.12 L 887.1 421.12 L 887.1 421.12 Q 887.5 421.52 888.12 421.52 L 888.12 421.52 L 888.12 421.52 Q 888.74 421.52 889.15 421.12 L 889.15 421.12 L 889.15 421.12 Q 889.56 420.72 889.56 420.1 L 889.56 420.1 L 889.56 420.1 Q 889.56 419.48 889.15 419.06 L 889.15 419.06 L 889.15 419.06 Q 888.74 418.64 888.12 418.64 L 888.12 418.64 L 888.12 418.64 Z  M 896 410.6 L 896 410.6 Q 896.62 410.6 897.02 410.2 L 897.02 410.2 L 897.02 410.2 Q 897.42 409.8 897.42 409.2 L 897.42 409.2 L 897.42 409.2 Q 897.42 408.58 897.02 408.18 L 897.02 408.18 L 897.02 408.18 Q 896.62 407.78 896 407.78 L 896 407.78 L 896 407.78 Q 895.4 407.78 895.01 408.18 L 895.01 408.18 L 895.01 408.18 Q 894.62 408.58 894.62 409.2 L 894.62 409.2 L 894.62 409.2 Q 894.62 409.8 895.01 410.2 L 895.01 410.2 L 895.01 410.2 Q 895.4 410.6 896 410.6 L 896 410.6 L 896 410.6 Z  M 769.1 416.78 L 769.1 416.78 Q 771.1 416.78 772.26 417.69 L 772.26 417.69 L 772.26 417.69 Q 773.42 418.6 773.42 420.08 L 773.42 420.08 L 773.42 420.08 Q 773.42 421.04 772.87 421.78 L 772.87 421.78 L 772.87 421.78 Q 772.32 422.52 771.29 422.94 L 771.29 422.94 L 771.29 422.94 Q 770.26 423.36 768.88 423.36 L 768.88 423.36 L 768.88 421.52 L 768.88 421.52 Q 769.96 421.52 770.48 421.14 L 770.48 421.14 L 770.48 421.14 Q 771 420.76 771 420.08 L 771 420.08 L 771 420.08 Q 771 418.62 769.12 418.62 L 769.12 418.62 L 768.56 418.62 L 768.56 418.9 L 768.56 418.9 Q 768.56 420.18 767.94 421.2 L 767.94 421.2 L 767.94 421.2 Q 767.32 422.22 766.19 422.79 L 766.19 422.79 L 766.19 422.79 Q 765.06 423.36 763.54 423.36 L 763.54 423.36 L 763.54 423.36 Q 762.22 423.36 761.24 422.93 L 761.24 422.93 L 761.24 422.93 Q 760.26 422.5 759.73 421.75 L 759.73 421.75 L 759.73 421.75 Q 759.2 421 759.2 420.02 L 759.2 420.02 L 759.2 420.02 Q 759.2 419.02 759.79 418.24 L 759.79 418.24 L 759.79 418.24 Q 760.38 417.46 761.46 417.08 L 761.46 417.08 L 761.46 412.74 L 771.9 412.74 L 772.26 414.56 L 768.56 414.56 L 768.56 416.78 L 769.1 416.78 L 769.1 416.78 Z  M 766.22 416.78 L 766.22 414.56 L 763.78 414.56 L 763.78 416.78 L 766.22 416.78 L 766.22 416.78 Z  M 766.22 418.9 L 766.22 418.62 L 763.48 418.62 L 763.48 418.62 Q 762.6 418.62 762.11 419 L 762.11 419 L 762.11 419 Q 761.62 419.38 761.62 420.02 L 761.62 420.02 L 761.62 420.02 Q 761.62 420.66 762.13 421.05 L 762.13 421.05 L 762.13 421.05 Q 762.64 421.44 763.54 421.44 L 763.54 421.44 L 763.54 421.44 Q 764.82 421.44 765.52 420.74 L 765.52 420.74 L 765.52 420.74 Q 766.22 420.04 766.22 418.9 L 766.22 418.9 L 766.22 418.9 Z  M 791.8 416.08 L 791.8 416.08 Q 793 416.08 793.92 416.73 L 793.92 416.73 L 793.92 416.73 Q 794.84 417.38 795.34 418.53 L 795.34 418.53 L 795.34 418.53 Q 795.84 419.68 795.84 421.12 L 795.84 421.12 L 795.84 421.12 Q 795.84 423.44 794.6 425.1 L 794.6 425.1 L 794.6 425.1 Q 793.36 426.76 791.03 427.64 L 791.03 427.64 L 791.03 427.64 Q 788.7 428.52 785.48 428.52 L 785.48 428.52 L 785.48 428.52 Q 782.36 428.52 779.93 427.44 L 779.93 427.44 L 779.93 427.44 Q 777.5 426.36 776.15 424.34 L 776.15 424.34 L 776.15 424.34 Q 774.8 422.32 774.8 419.6 L 774.8 419.6 L 774.8 419.6 Q 774.8 417.7 775.62 415.7 L 775.62 415.7 L 775.62 415.7 Q 776.44 413.7 777.7 412.54 L 777.7 412.54 L 780.08 412.74 L 780.08 412.74 Q 778.84 413.78 778.03 415.71 L 778.03 415.71 L 778.03 415.71 Q 777.22 417.64 777.22 419.64 L 777.22 419.64 L 777.22 419.64 Q 777.22 421.78 778.26 423.33 L 778.26 423.33 L 778.26 423.33 Q 779.3 424.88 781.17 425.7 L 781.17 425.7 L 781.17 425.7 Q 783.04 426.52 785.48 426.52 L 785.48 426.52 L 785.48 426.52 Q 789.3 426.52 791.35 425.12 L 791.35 425.12 L 791.35 425.12 Q 793.4 423.72 793.4 421.12 L 793.4 421.12 L 793.4 421.12 Q 793.4 419.76 792.9 418.92 L 792.9 418.92 L 792.9 418.92 Q 792.4 418.08 791.54 418.08 L 791.54 418.08 L 791.54 418.08 Q 790.8 418.08 790.33 418.52 L 790.33 418.52 L 790.33 418.52 Q 789.86 418.96 789.86 419.62 L 789.86 419.62 L 789.86 423 L 787.54 423 L 787.54 414.56 L 784.02 414.56 L 784.02 423 L 781.7 423 L 781.7 412.74 L 793.12 412.74 L 793.48 414.56 L 789.86 414.56 L 789.86 416.58 L 789.86 416.58 Q 790.7 416.08 791.8 416.08 L 791.8 416.08 L 791.8 416.08 Z  M 810.9 423 L 810.54 421.18 L 800.52 421.18 L 800.52 412.64 L 798.2 412.74 L 798.2 423 L 810.9 423 L 810.9 423 Z  M 749.44 416.08 L 749.44 416.08 Q 750.64 416.08 751.56 416.73 L 751.56 416.73 L 751.56 416.73 Q 752.48 417.38 752.98 418.53 L 752.98 418.53 L 752.98 418.53 Q 753.48 419.68 753.48 421.12 L 753.48 421.12 L 753.48 421.12 Q 753.48 423.44 752.19 425.15 L 752.19 425.15 L 752.19 425.15 Q 750.9 426.86 748.52 427.79 L 748.52 427.79 L 748.52 427.79 Q 746.14 428.72 742.92 428.72 L 742.92 428.72 L 727.78 428.72 L 727.78 428.72 Q 724.68 428.72 722.3 427.59 L 722.3 427.59 L 722.3 427.59 Q 719.92 426.46 718.61 424.39 L 718.61 424.39 L 718.61 424.39 Q 717.3 422.32 717.3 419.6 L 717.3 419.6 L 717.3 419.6 Q 717.3 417.7 718.12 415.7 L 718.12 415.7 L 718.12 415.7 Q 718.94 413.7 720.2 412.54 L 720.2 412.54 L 722.58 412.74 L 722.58 412.74 Q 721.34 413.78 720.53 415.71 L 720.53 415.71 L 720.53 415.71 Q 719.72 417.64 719.72 419.64 L 719.72 419.64 L 719.72 419.64 Q 719.72 421.78 720.72 423.41 L 720.72 423.41 L 720.72 423.41 Q 721.72 425.04 723.54 425.95 L 723.54 425.95 L 723.54 425.95 Q 725.36 426.86 727.78 426.88 L 727.78 426.88 L 742.92 426.88 L 742.92 426.88 Q 745.42 426.88 747.26 426.17 L 747.26 426.17 L 747.26 426.17 Q 749.1 425.46 750.07 424.16 L 750.07 424.16 L 750.07 424.16 Q 751.04 422.86 751.04 421.12 L 751.04 421.12 L 751.04 421.12 Q 751.04 419.76 750.54 418.92 L 750.54 418.92 L 750.54 418.92 Q 750.04 418.08 749.16 418.08 L 749.16 418.08 L 749.16 418.08 Q 748.44 418.08 747.97 418.52 L 747.97 418.52 L 747.97 418.52 Q 747.5 418.96 747.5 419.62 L 747.5 419.62 L 747.5 423 L 745.18 423 L 745.18 414.56 L 740.94 414.56 L 740.94 423 L 738.62 423 L 738.62 417.56 L 738.62 417.56 Q 738.62 416.06 738.03 415.18 L 738.03 415.18 L 738.03 415.18 Q 737.44 414.3 736.22 414.3 L 736.22 414.3 L 736.22 414.3 Q 735.14 414.3 734.68 415 L 734.68 415 L 734.68 415 Q 734.22 415.7 734.22 416.96 L 734.22 416.96 L 734.22 423 L 723.76 423 L 723.76 412.74 L 726.08 412.64 L 726.08 421.18 L 731.9 421.18 L 731.9 416.86 L 731.9 416.86 Q 731.9 414.82 732.96 413.6 L 732.96 413.6 L 732.96 413.6 Q 734.02 412.38 736.1 412.38 L 736.1 412.38 L 736.1 412.38 Q 737.56 412.38 738.62 413.38 L 738.62 413.38 L 738.62 412.74 L 743.7 412.74 L 743.7 412.74 Q 742.8 411.62 742.8 410.1 L 742.8 410.1 L 742.8 410.1 Q 742.8 408.76 743.49 407.7 L 743.49 407.7 L 743.49 407.7 Q 744.18 406.64 745.45 406.04 L 745.45 406.04 L 745.45 406.04 Q 746.72 405.44 748.4 405.44 L 748.4 405.44 L 748.4 405.44 Q 749.76 405.44 750.9 405.95 L 750.9 405.95 L 750.9 405.95 Q 752.04 406.46 752.71 407.35 L 752.71 407.35 L 752.71 407.35 Q 753.38 408.24 753.38 409.34 L 753.38 409.34 L 753.38 409.34 Q 753.38 410.48 752.58 411.22 L 752.58 411.22 L 752.58 411.22 Q 751.78 411.96 750.56 411.96 L 750.56 411.96 L 750.56 411.96 Q 749.36 411.96 748.56 411.23 L 748.56 411.23 L 748.56 411.23 Q 747.76 410.5 747.76 409.4 L 747.76 409.4 L 747.76 409.4 Q 747.76 408.76 748.02 408.25 L 748.02 408.25 L 748.02 408.25 Q 748.28 407.74 748.74 407.38 L 748.74 407.38 L 748.4 407.38 L 748.4 407.38 Q 746.92 407.38 746.07 408.13 L 746.07 408.13 L 746.07 408.13 Q 745.22 408.88 745.22 410.1 L 745.22 410.1 L 745.22 410.1 Q 745.22 411.28 745.96 412.01 L 745.96 412.01 L 745.96 412.01 Q 746.7 412.74 747.84 412.74 L 747.84 412.74 L 750.76 412.74 L 751.12 414.56 L 747.5 414.56 L 747.5 416.56 L 747.5 416.56 Q 748.4 416.08 749.44 416.08 L 749.44 416.08 L 749.44 416.08 Z  M 750.56 410.42 L 750.56 410.42 Q 751 410.42 751.29 410.13 L 751.29 410.13 L 751.29 410.13 Q 751.58 409.84 751.58 409.4 L 751.58 409.4 L 751.58 409.4 Q 751.58 408.98 751.29 408.69 L 751.29 408.69 L 751.29 408.69 Q 751 408.4 750.56 408.4 L 750.56 408.4 L 750.56 408.4 Q 750.12 408.4 749.83 408.69 L 749.83 408.69 L 749.83 408.69 Q 749.54 408.98 749.54 409.4 L 749.54 409.4 L 749.54 409.4 Q 749.54 409.84 749.83 410.13 L 749.83 410.13 L 749.83 410.13 Q 750.12 410.42 750.56 410.42 L 750.56 410.42 L 750.56 410.42 Z " fill="rgb(255,255,255)"/></svg>