<?xml version="1.0" encoding="UTF-8" standalone="no"?><!-- Generator: Gravit.io --><svg xmlns="http://www.w3.org/2000/svg" xmlns:xlink="http://www.w3.org/1999/xlink" style="isolation:isolate" viewBox="1066.637 389 130.363 92" width="130.363pt" height="92pt"><path d=" M 1195.99 425.885 L 1195.772 425.885 C 1195.772 424.627 1195.798 423.381 1195.759 422.123 C 1195.721 420.891 1195.631 419.659 1195.541 418.426 C 1195.426 416.899 1195.272 415.371 1195.13 413.844 C 1194.989 412.316 1194.963 410.763 1194.655 409.274 C 1194.193 407.028 1193.616 404.807 1192.948 402.625 C 1192.345 400.661 1191.446 398.799 1190.086 397.233 C 1187.095 393.78 1183.244 391.945 1178.738 391.47 C 1176.363 391.226 1173.963 391.072 1171.575 390.931 C 1169.38 390.789 1167.185 390.687 1164.977 390.61 C 1161.665 390.481 1158.354 390.366 1155.042 390.276 C 1151.794 390.186 1148.546 390.096 1145.312 390.07 C 1138.945 390.032 1132.578 389.968 1126.211 390.019 C 1119.754 390.07 1113.31 390.237 1106.853 390.366 C 1104.132 390.417 1101.41 390.507 1098.689 390.584 C 1097.829 390.61 1096.969 390.648 1096.109 390.699 C 1093.285 390.866 1090.461 390.995 1087.65 391.239 C 1085.763 391.405 1083.837 391.572 1082.002 392.022 C 1077.958 392.997 1074.698 395.218 1072.451 398.748 C 1070.821 401.341 1069.922 404.242 1069.37 407.22 C 1068.921 409.646 1068.652 412.111 1068.395 414.575 C 1068.138 417.066 1067.997 419.569 1067.856 422.059 C 1067.727 424.1 1067.637 426.141 1067.637 428.182 C 1067.637 433.972 1067.676 439.774 1067.74 445.563 C 1067.753 447.014 1067.856 448.464 1067.958 449.902 C 1068.112 451.968 1068.292 454.035 1068.472 456.089 C 1068.6 457.617 1068.69 459.157 1068.934 460.672 C 1069.345 463.277 1070.038 465.806 1070.975 468.271 C 1072.695 472.828 1075.917 475.819 1080.5 477.359 C 1083.414 478.335 1086.456 478.604 1089.472 478.887 C 1091.911 479.118 1094.363 479.195 1096.815 479.31 C 1098.83 479.4 1100.859 479.477 1102.887 479.529 C 1106.057 479.618 1109.228 479.695 1112.399 479.747 C 1115.338 479.798 1118.278 479.862 1121.217 479.888 C 1126.378 479.939 1131.551 480.029 1136.698 479.991 C 1143.168 479.939 1149.637 479.772 1156.107 479.644 C 1158.764 479.593 1161.409 479.503 1164.066 479.426 C 1164.939 479.4 1165.824 479.362 1166.697 479.31 C 1169.611 479.143 1172.525 479.002 1175.426 478.771 C 1177.249 478.63 1179.097 478.502 1180.882 478.117 C 1186.543 476.897 1190.548 473.637 1192.666 468.155 C 1194.116 464.42 1194.797 460.53 1195.117 456.564 C 1195.297 454.318 1195.515 452.071 1195.631 449.838 C 1195.785 446.962 1195.926 444.074 1195.952 441.199 C 1196.029 436.102 1195.99 430.993 1195.99 425.885 Z  M 1118.547 451.66 L 1118.547 415.628 C 1130.113 421.648 1141.615 427.643 1153.219 433.702 C 1141.64 439.697 1130.139 445.653 1118.547 451.66 Z " fill="none" vector-effect="non-scaling-stroke" stroke-width="2" stroke="rgb(255,255,255)" stroke-linejoin="miter" stroke-linecap="butt" stroke-miterlimit="4"/></svg>