<?xml version="1.0" encoding="UTF-8" standalone="no"?><!-- Generator: Gravit.io --><svg xmlns="http://www.w3.org/2000/svg" xmlns:xlink="http://www.w3.org/1999/xlink" style="isolation:isolate" viewBox="717.3 409.44 147.38 23.28" width="147.38pt" height="23.28pt"><path d=" M 776.38 416.74 L 778.7 416.74 L 778.7 427 L 770.2 427 L 770.2 425.18 L 770.2 425.18 Q 771.12 423.64 771.12 421.9 L 771.12 421.9 L 771.12 421.9 Q 771.12 420.28 769.96 419.29 L 769.96 419.29 L 769.96 419.29 Q 768.8 418.3 766.52 418.3 L 766.52 418.3 L 766.52 418.3 Q 765.1 418.3 764.03 418.82 L 764.03 418.82 L 764.03 418.82 Q 762.96 419.34 762.39 420.24 L 762.39 420.24 L 762.39 420.24 Q 761.82 421.14 761.82 422.26 L 761.82 422.26 L 761.82 422.26 Q 761.82 423.12 762.18 423.78 L 762.18 423.78 L 762.18 423.78 Q 762.28 422.48 763.25 421.64 L 763.25 421.64 L 763.25 421.64 Q 764.22 420.8 765.58 420.8 L 765.58 420.8 L 765.58 420.8 Q 766.64 420.8 767.49 421.23 L 767.49 421.23 L 767.49 421.23 Q 768.34 421.66 768.82 422.41 L 768.82 422.41 L 768.82 422.41 Q 769.3 423.16 769.3 424.1 L 769.3 424.1 L 769.3 424.1 Q 769.3 425.04 768.79 425.78 L 768.79 425.78 L 768.79 425.78 Q 768.28 426.52 767.37 426.94 L 767.37 426.94 L 767.37 426.94 Q 766.46 427.36 765.32 427.36 L 765.32 427.36 L 765.32 427.36 Q 763.62 427.36 762.27 426.7 L 762.27 426.7 L 762.27 426.7 Q 760.92 426.04 760.16 424.88 L 760.16 424.88 L 760.16 424.88 Q 759.4 423.72 759.4 422.26 L 759.4 422.26 L 759.4 422.26 Q 759.4 420.56 760.3 419.22 L 760.3 419.22 L 760.3 419.22 Q 761.2 417.88 762.82 417.13 L 762.82 417.13 L 762.82 417.13 Q 764.44 416.38 766.52 416.38 L 766.52 416.38 L 766.52 416.38 Q 768.54 416.38 770.14 417.09 L 770.14 417.09 L 770.14 417.09 Q 771.74 417.8 772.65 419.06 L 772.65 419.06 L 772.65 419.06 Q 773.56 420.32 773.56 421.9 L 773.56 421.9 L 773.56 421.9 Q 773.56 423.58 772.76 425.18 L 772.76 425.18 L 776.38 425.18 L 776.38 416.74 L 776.38 416.74 Z  M 765.62 422.64 L 765.62 422.64 Q 765 422.64 764.6 423.05 L 764.6 423.05 L 764.6 423.05 Q 764.2 423.46 764.2 424.1 L 764.2 424.1 L 764.2 424.1 Q 764.2 424.72 764.6 425.12 L 764.6 425.12 L 764.6 425.12 Q 765 425.52 765.62 425.52 L 765.62 425.52 L 765.62 425.52 Q 766.24 425.52 766.65 425.12 L 766.65 425.12 L 766.65 425.12 Q 767.06 424.72 767.06 424.1 L 767.06 424.1 L 767.06 424.1 Q 767.06 423.48 766.65 423.06 L 766.65 423.06 L 766.65 423.06 Q 766.24 422.64 765.62 422.64 L 765.62 422.64 L 765.62 422.64 Z  M 778.1 411.06 L 778.1 411.06 Q 780.02 411.06 781.48 411.81 L 781.48 411.81 L 781.48 411.81 Q 782.94 412.56 783.73 413.9 L 783.73 413.9 L 783.73 413.9 Q 784.52 415.24 784.52 416.94 L 784.52 416.94 L 784.52 427 L 782.2 427 L 782.2 416.94 L 782.2 416.94 Q 782.2 415.14 781.1 414.06 L 781.1 414.06 L 781.1 414.06 Q 780 412.98 778.1 412.98 L 778.1 412.98 L 778.1 412.98 Q 776.74 412.98 775.99 413.49 L 775.99 413.49 L 775.99 413.49 Q 775.24 414 775.24 414.88 L 775.24 414.88 L 775.24 414.88 Q 775.24 415.74 775.66 416.24 L 775.66 416.24 L 775.66 416.24 Q 776.08 416.74 776.94 416.74 L 776.94 416.74 L 776.94 418.36 L 776.94 418.36 Q 775.1 418.36 774.03 417.39 L 774.03 417.39 L 774.03 417.39 Q 772.96 416.42 772.94 414.88 L 772.94 414.88 L 772.94 414.88 Q 772.94 413.78 773.57 412.91 L 773.57 412.91 L 773.57 412.91 Q 774.2 412.04 775.37 411.55 L 775.37 411.55 L 775.37 411.55 Q 776.54 411.06 778.1 411.06 L 778.1 411.06 L 778.1 411.06 Z  M 797.68 420.08 L 797.68 420.08 Q 798.88 420.08 799.8 420.73 L 799.8 420.73 L 799.8 420.73 Q 800.72 421.38 801.21 422.53 L 801.21 422.53 L 801.21 422.53 Q 801.7 423.68 801.7 425.12 L 801.7 425.12 L 801.7 425.12 Q 801.7 426.76 801.07 428.03 L 801.07 428.03 L 801.07 428.03 Q 800.44 429.3 799.25 430.02 L 799.25 430.02 L 799.25 430.02 Q 798.06 430.74 796.42 430.74 L 796.42 430.74 L 793.58 430.74 L 793.58 430.74 Q 790.86 430.74 790.08 431.86 L 790.08 431.86 L 788.2 430.68 L 788.2 430.68 Q 788.66 429.76 789.83 429.34 L 789.83 429.34 L 789.83 429.34 Q 791 428.92 793.3 428.92 L 793.3 428.92 L 796.42 428.92 L 796.42 428.92 Q 797.82 428.92 798.55 427.88 L 798.55 427.88 L 798.55 427.88 Q 799.28 426.84 799.28 425.12 L 799.28 425.12 L 799.28 425.12 Q 799.28 423.76 798.78 422.92 L 798.78 422.92 L 798.78 422.92 Q 798.28 422.08 797.4 422.08 L 797.4 422.08 L 797.4 422.08 Q 796.68 422.08 796.21 422.52 L 796.21 422.52 L 796.21 422.52 Q 795.74 422.96 795.74 423.62 L 795.74 423.62 L 795.74 427 L 793.42 427 L 793.42 418.56 L 790.52 418.56 L 790.52 427 L 788.2 427 L 788.2 416.74 L 799 416.74 L 799.36 418.58 L 795.74 418.58 L 795.74 420.58 L 795.74 420.58 Q 796.58 420.08 797.68 420.08 L 797.68 420.08 L 797.68 420.08 Z  M 816.28 418.56 L 812.66 418.56 L 812.66 427 L 810.34 427 L 810.34 418.56 L 806.52 418.56 L 806.52 427 L 804.2 427 L 804.2 416.74 L 815.92 416.74 L 816.28 418.56 L 816.28 418.56 Z  M 831.86 416.74 L 834.2 416.74 L 834.2 427 L 824.7 427 L 824.7 426.38 L 824.7 426.38 Q 823.62 427.36 822.18 427.36 L 822.18 427.36 L 822.18 427.36 Q 820.1 427.36 819.05 426.14 L 819.05 426.14 L 819.05 426.14 Q 818 424.92 818 422.88 L 818 422.88 L 818 416.74 L 820.32 416.64 L 820.32 422.76 L 820.32 422.76 Q 820.32 424.04 820.77 424.74 L 820.77 424.74 L 820.77 424.74 Q 821.22 425.44 822.32 425.44 L 822.32 425.44 L 822.32 425.44 Q 823.52 425.44 824.11 424.56 L 824.11 424.56 L 824.11 424.56 Q 824.7 423.68 824.7 422.18 L 824.7 422.18 L 824.7 416.74 L 827.02 416.74 L 827.02 425.18 L 831.86 425.18 L 831.86 416.74 L 831.86 416.74 Z  M 846.1 420.78 L 846.1 420.78 Q 848.1 420.78 849.26 421.69 L 849.26 421.69 L 849.26 421.69 Q 850.42 422.6 850.42 424.08 L 850.42 424.08 L 850.42 424.08 Q 850.42 425.04 849.87 425.78 L 849.87 425.78 L 849.87 425.78 Q 849.32 426.52 848.29 426.94 L 848.29 426.94 L 848.29 426.94 Q 847.26 427.36 845.88 427.36 L 845.88 427.36 L 845.88 425.52 L 845.88 425.52 Q 846.96 425.52 847.48 425.14 L 847.48 425.14 L 847.48 425.14 Q 848 424.76 848 424.08 L 848 424.08 L 848 424.08 Q 848 422.62 846.12 422.62 L 846.12 422.62 L 845.56 422.62 L 845.56 422.9 L 845.56 422.9 Q 845.56 424.18 844.94 425.2 L 844.94 425.2 L 844.94 425.2 Q 844.32 426.22 843.19 426.79 L 843.19 426.79 L 843.19 426.79 Q 842.06 427.36 840.54 427.36 L 840.54 427.36 L 840.54 427.36 Q 839.22 427.36 838.24 426.93 L 838.24 426.93 L 838.24 426.93 Q 837.26 426.5 836.73 425.75 L 836.73 425.75 L 836.73 425.75 Q 836.2 425 836.2 424.02 L 836.2 424.02 L 836.2 424.02 Q 836.2 423.02 836.79 422.24 L 836.79 422.24 L 836.79 422.24 Q 837.38 421.46 838.46 421.08 L 838.46 421.08 L 838.46 416.74 L 848.9 416.74 L 849.26 418.56 L 845.56 418.56 L 845.56 420.78 L 846.1 420.78 L 846.1 420.78 Z  M 843.22 420.78 L 843.22 418.56 L 840.78 418.56 L 840.78 420.78 L 843.22 420.78 L 843.22 420.78 Z  M 843.22 422.9 L 843.22 422.62 L 840.48 422.62 L 840.48 422.62 Q 839.6 422.62 839.11 423 L 839.11 423 L 839.11 423 Q 838.62 423.38 838.62 424.02 L 838.62 424.02 L 838.62 424.02 Q 838.62 424.66 839.13 425.05 L 839.13 425.05 L 839.13 425.05 Q 839.64 425.44 840.54 425.44 L 840.54 425.44 L 840.54 425.44 Q 841.82 425.44 842.52 424.74 L 842.52 424.74 L 842.52 424.74 Q 843.22 424.04 843.22 422.9 L 843.22 422.9 L 843.22 422.9 Z  M 864.68 418.58 L 861.06 418.58 L 861.06 426.66 L 861.06 426.66 Q 861.06 427.5 860.98 428.04 L 860.98 428.04 L 860.98 428.04 Q 860.9 428.58 860.61 429 L 860.61 429 L 860.61 429 Q 860.32 429.42 859.7 429.66 L 859.7 429.66 L 853.72 432 L 852.84 430.04 L 857.72 428.12 L 857.72 428.12 Q 858.18 427.94 858.4 427.67 L 858.4 427.67 L 858.4 427.67 Q 858.62 427.4 858.68 427.02 L 858.68 427.02 L 858.68 427.02 Q 858.74 426.64 858.74 425.9 L 858.74 425.9 L 858.74 418.56 L 854.52 418.56 L 854.52 427 L 852.2 427 L 852.2 416.74 L 864.32 416.74 L 864.68 418.58 L 864.68 418.58 Z  M 857.5 414.6 L 857.5 414.6 Q 858.12 414.6 858.52 414.2 L 858.52 414.2 L 858.52 414.2 Q 858.92 413.8 858.92 413.2 L 858.92 413.2 L 858.92 413.2 Q 858.92 412.58 858.52 412.18 L 858.52 412.18 L 858.52 412.18 Q 858.12 411.78 857.5 411.78 L 857.5 411.78 L 857.5 411.78 Q 856.9 411.78 856.51 412.18 L 856.51 412.18 L 856.51 412.18 Q 856.12 412.58 856.12 413.2 L 856.12 413.2 L 856.12 413.2 Q 856.12 413.8 856.51 414.2 L 856.51 414.2 L 856.51 414.2 Q 856.9 414.6 857.5 414.6 L 857.5 414.6 L 857.5 414.6 Z  M 749.44 420.08 L 749.44 420.08 Q 750.64 420.08 751.56 420.73 L 751.56 420.73 L 751.56 420.73 Q 752.48 421.38 752.98 422.53 L 752.98 422.53 L 752.98 422.53 Q 753.48 423.68 753.48 425.12 L 753.48 425.12 L 753.48 425.12 Q 753.48 427.44 752.19 429.15 L 752.19 429.15 L 752.19 429.15 Q 750.9 430.86 748.52 431.79 L 748.52 431.79 L 748.52 431.79 Q 746.14 432.72 742.92 432.72 L 742.92 432.72 L 727.78 432.72 L 727.78 432.72 Q 724.68 432.72 722.3 431.59 L 722.3 431.59 L 722.3 431.59 Q 719.92 430.46 718.61 428.39 L 718.61 428.39 L 718.61 428.39 Q 717.3 426.32 717.3 423.6 L 717.3 423.6 L 717.3 423.6 Q 717.3 421.7 718.12 419.7 L 718.12 419.7 L 718.12 419.7 Q 718.94 417.7 720.2 416.54 L 720.2 416.54 L 722.58 416.74 L 722.58 416.74 Q 721.34 417.78 720.53 419.71 L 720.53 419.71 L 720.53 419.71 Q 719.72 421.64 719.72 423.64 L 719.72 423.64 L 719.72 423.64 Q 719.72 425.78 720.72 427.41 L 720.72 427.41 L 720.72 427.41 Q 721.72 429.04 723.54 429.95 L 723.54 429.95 L 723.54 429.95 Q 725.36 430.86 727.78 430.88 L 727.78 430.88 L 742.92 430.88 L 742.92 430.88 Q 745.42 430.88 747.26 430.17 L 747.26 430.17 L 747.26 430.17 Q 749.1 429.46 750.07 428.16 L 750.07 428.16 L 750.07 428.16 Q 751.04 426.86 751.04 425.12 L 751.04 425.12 L 751.04 425.12 Q 751.04 423.76 750.54 422.92 L 750.54 422.92 L 750.54 422.92 Q 750.04 422.08 749.16 422.08 L 749.16 422.08 L 749.16 422.08 Q 748.44 422.08 747.97 422.52 L 747.97 422.52 L 747.97 422.52 Q 747.5 422.96 747.5 423.62 L 747.5 423.62 L 747.5 427 L 745.18 427 L 745.18 418.56 L 740.94 418.56 L 740.94 427 L 738.62 427 L 738.62 421.56 L 738.62 421.56 Q 738.62 420.06 738.03 419.18 L 738.03 419.18 L 738.03 419.18 Q 737.44 418.3 736.22 418.3 L 736.22 418.3 L 736.22 418.3 Q 735.14 418.3 734.68 419 L 734.68 419 L 734.68 419 Q 734.22 419.7 734.22 420.96 L 734.22 420.96 L 734.22 427 L 723.76 427 L 723.76 416.74 L 726.08 416.64 L 726.08 425.18 L 731.9 425.18 L 731.9 420.86 L 731.9 420.86 Q 731.9 418.82 732.96 417.6 L 732.96 417.6 L 732.96 417.6 Q 734.02 416.38 736.1 416.38 L 736.1 416.38 L 736.1 416.38 Q 737.56 416.38 738.62 417.38 L 738.62 417.38 L 738.62 416.74 L 743.7 416.74 L 743.7 416.74 Q 742.8 415.62 742.8 414.1 L 742.8 414.1 L 742.8 414.1 Q 742.8 412.76 743.49 411.7 L 743.49 411.7 L 743.49 411.7 Q 744.18 410.64 745.45 410.04 L 745.45 410.04 L 745.45 410.04 Q 746.72 409.44 748.4 409.44 L 748.4 409.44 L 748.4 409.44 Q 749.76 409.44 750.9 409.95 L 750.9 409.95 L 750.9 409.95 Q 752.04 410.46 752.71 411.35 L 752.71 411.35 L 752.71 411.35 Q 753.38 412.24 753.38 413.34 L 753.38 413.34 L 753.38 413.34 Q 753.38 414.48 752.58 415.22 L 752.58 415.22 L 752.58 415.22 Q 751.78 415.96 750.56 415.96 L 750.56 415.96 L 750.56 415.96 Q 749.36 415.96 748.56 415.23 L 748.56 415.23 L 748.56 415.23 Q 747.76 414.5 747.76 413.4 L 747.76 413.4 L 747.76 413.4 Q 747.76 412.76 748.02 412.25 L 748.02 412.25 L 748.02 412.25 Q 748.28 411.74 748.74 411.38 L 748.74 411.38 L 748.4 411.38 L 748.4 411.38 Q 746.92 411.38 746.07 412.13 L 746.07 412.13 L 746.07 412.13 Q 745.22 412.88 745.22 414.1 L 745.22 414.1 L 745.22 414.1 Q 745.22 415.28 745.96 416.01 L 745.96 416.01 L 745.96 416.01 Q 746.7 416.74 747.84 416.74 L 747.84 416.74 L 750.76 416.74 L 751.12 418.56 L 747.5 418.56 L 747.5 420.56 L 747.5 420.56 Q 748.4 420.08 749.44 420.08 L 749.44 420.08 L 749.44 420.08 Z  M 750.56 414.42 L 750.56 414.42 Q 751 414.42 751.29 414.13 L 751.29 414.13 L 751.29 414.13 Q 751.58 413.84 751.58 413.4 L 751.58 413.4 L 751.58 413.4 Q 751.58 412.98 751.29 412.69 L 751.29 412.69 L 751.29 412.69 Q 751 412.4 750.56 412.4 L 750.56 412.4 L 750.56 412.4 Q 750.12 412.4 749.83 412.69 L 749.83 412.69 L 749.83 412.69 Q 749.54 412.98 749.54 413.4 L 749.54 413.4 L 749.54 413.4 Q 749.54 413.84 749.83 414.13 L 749.83 414.13 L 749.83 414.13 Q 750.12 414.42 750.56 414.42 L 750.56 414.42 L 750.56 414.42 Z " fill="rgb(255,255,255)"/></svg>