<?xml version="1.0" encoding="UTF-8" standalone="no"?><!-- Generator: Gravit.io --><svg xmlns="http://www.w3.org/2000/svg" xmlns:xlink="http://www.w3.org/1999/xlink" style="isolation:isolate" viewBox="655.7 355.44 145.82 63.56" width="145.82pt" height="63.56pt"><path d=" M 665.24 407.78 L 665.24 407.78 Q 666.64 407.78 667.75 408.39 L 667.75 408.39 L 667.75 408.39 Q 668.86 409 669.48 410.08 L 669.48 410.08 L 669.48 410.08 Q 670.1 411.16 670.1 412.52 L 670.1 412.52 L 670.1 412.52 Q 670.1 414.02 669.34 415.21 L 669.34 415.21 L 669.34 415.21 Q 668.58 416.4 667.23 417.07 L 667.23 417.07 L 667.23 417.07 Q 665.88 417.74 664.2 417.74 L 664.2 417.74 L 661.08 417.74 L 661.08 417.74 Q 658.34 417.74 657.6 418.86 L 657.6 418.86 L 655.7 417.68 L 655.7 417.68 Q 656.08 416.88 657.41 416.4 L 657.41 416.4 L 657.41 416.4 Q 658.74 415.92 660.82 415.92 L 660.82 415.92 L 664.2 415.92 L 664.2 415.92 Q 665.2 415.92 665.99 415.48 L 665.99 415.48 L 665.99 415.48 Q 666.78 415.04 667.23 414.27 L 667.23 414.27 L 667.23 414.27 Q 667.68 413.5 667.68 412.52 L 667.68 412.52 L 667.68 412.52 Q 667.68 411.26 667 410.44 L 667 410.44 L 667 410.44 Q 666.32 409.62 665.26 409.62 L 665.26 409.62 L 665.06 409.62 L 665.06 409.9 L 665.06 409.9 Q 665.06 411.18 664.44 412.2 L 664.44 412.2 L 664.44 412.2 Q 663.82 413.22 662.69 413.79 L 662.69 413.79 L 662.69 413.79 Q 661.56 414.36 660.04 414.36 L 660.04 414.36 L 660.04 414.36 Q 658.72 414.36 657.74 413.93 L 657.74 413.93 L 657.74 413.93 Q 656.76 413.5 656.23 412.75 L 656.23 412.75 L 656.23 412.75 Q 655.7 412 655.7 411.02 L 655.7 411.02 L 655.7 411.02 Q 655.7 410.02 656.29 409.24 L 656.29 409.24 L 656.29 409.24 Q 656.88 408.46 657.96 408.08 L 657.96 408.08 L 657.96 403.74 L 668.4 403.74 L 668.76 405.56 L 665.06 405.56 L 665.06 407.78 L 665.24 407.78 L 665.24 407.78 Z  M 662.72 407.78 L 662.72 405.56 L 660.28 405.56 L 660.28 407.78 L 662.72 407.78 L 662.72 407.78 Z  M 662.72 409.9 L 662.72 409.62 L 659.98 409.62 L 659.98 409.62 Q 659.1 409.62 658.61 410 L 658.61 410 L 658.61 410 Q 658.12 410.38 658.12 411.02 L 658.12 411.02 L 658.12 411.02 Q 658.12 411.66 658.63 412.05 L 658.63 412.05 L 658.63 412.05 Q 659.14 412.44 660.04 412.44 L 660.04 412.44 L 660.04 412.44 Q 661.32 412.44 662.02 411.74 L 662.02 411.74 L 662.02 411.74 Q 662.72 411.04 662.72 409.9 L 662.72 409.9 L 662.72 409.9 Z  M 684.78 405.56 L 681.16 405.56 L 681.16 414 L 678.84 414 L 678.84 405.56 L 675.02 405.56 L 675.02 414 L 672.7 414 L 672.7 403.74 L 684.42 403.74 L 684.78 405.56 L 684.78 405.56 Z  M 700.36 403.74 L 702.7 403.74 L 702.7 414 L 693.2 414 L 693.2 413.38 L 693.2 413.38 Q 692.12 414.36 690.68 414.36 L 690.68 414.36 L 690.68 414.36 Q 688.6 414.36 687.55 413.14 L 687.55 413.14 L 687.55 413.14 Q 686.5 411.92 686.5 409.88 L 686.5 409.88 L 686.5 403.74 L 688.82 403.64 L 688.82 409.76 L 688.82 409.76 Q 688.82 411.04 689.27 411.74 L 689.27 411.74 L 689.27 411.74 Q 689.72 412.44 690.82 412.44 L 690.82 412.44 L 690.82 412.44 Q 692.02 412.44 692.61 411.56 L 692.61 411.56 L 692.61 411.56 Q 693.2 410.68 693.2 409.18 L 693.2 409.18 L 693.2 403.74 L 695.52 403.74 L 695.52 412.18 L 700.36 412.18 L 700.36 403.74 L 700.36 403.74 Z  M 717.78 405.56 L 714.16 405.56 L 714.16 414 L 711.84 414 L 711.84 405.56 L 708.02 405.56 L 708.02 414 L 705.7 414 L 705.7 403.74 L 717.42 403.74 L 717.78 405.56 L 717.78 405.56 Z  M 732.18 405.58 L 728.56 405.58 L 728.56 413.66 L 728.56 413.66 Q 728.56 414.5 728.48 415.04 L 728.48 415.04 L 728.48 415.04 Q 728.4 415.58 728.11 416 L 728.11 416 L 728.11 416 Q 727.82 416.42 727.2 416.66 L 727.2 416.66 L 721.22 419 L 720.34 417.04 L 725.22 415.12 L 725.22 415.12 Q 725.68 414.94 725.9 414.67 L 725.9 414.67 L 725.9 414.67 Q 726.12 414.4 726.18 414.02 L 726.18 414.02 L 726.18 414.02 Q 726.24 413.64 726.24 412.9 L 726.24 412.9 L 726.24 405.56 L 722.02 405.56 L 722.02 414 L 719.7 414 L 719.7 403.74 L 731.82 403.74 L 732.18 405.58 L 732.18 405.58 Z  M 725 401.6 L 725 401.6 Q 725.62 401.6 726.02 401.2 L 726.02 401.2 L 726.02 401.2 Q 726.42 400.8 726.42 400.2 L 726.42 400.2 L 726.42 400.2 Q 726.42 399.58 726.02 399.18 L 726.02 399.18 L 726.02 399.18 Q 725.62 398.78 725 398.78 L 725 398.78 L 725 398.78 Q 724.4 398.78 724.01 399.18 L 724.01 399.18 L 724.01 399.18 Q 723.62 399.58 723.62 400.2 L 723.62 400.2 L 723.62 400.2 Q 723.62 400.8 724.01 401.2 L 724.01 401.2 L 724.01 401.2 Q 724.4 401.6 725 401.6 L 725 401.6 L 725 401.6 Z  M 708.42 362.74 L 710.74 362.74 L 710.74 373 L 699.2 373 L 699.2 362.74 L 701.52 362.64 L 701.52 371.18 L 708.42 371.18 L 708.42 362.74 L 708.42 362.74 Z  M 722.74 366.78 L 722.74 366.78 Q 724.14 366.78 725.25 367.39 L 725.25 367.39 L 725.25 367.39 Q 726.36 368 726.98 369.08 L 726.98 369.08 L 726.98 369.08 Q 727.6 370.16 727.6 371.52 L 727.6 371.52 L 727.6 371.52 Q 727.6 373.02 726.84 374.21 L 726.84 374.21 L 726.84 374.21 Q 726.08 375.4 724.73 376.07 L 724.73 376.07 L 724.73 376.07 Q 723.38 376.74 721.7 376.74 L 721.7 376.74 L 718.58 376.74 L 718.58 376.74 Q 715.84 376.74 715.1 377.86 L 715.1 377.86 L 713.2 376.68 L 713.2 376.68 Q 713.58 375.88 714.91 375.4 L 714.91 375.4 L 714.91 375.4 Q 716.24 374.92 718.32 374.92 L 718.32 374.92 L 721.7 374.92 L 721.7 374.92 Q 722.7 374.92 723.49 374.48 L 723.49 374.48 L 723.49 374.48 Q 724.28 374.04 724.73 373.27 L 724.73 373.27 L 724.73 373.27 Q 725.18 372.5 725.18 371.52 L 725.18 371.52 L 725.18 371.52 Q 725.18 370.26 724.5 369.44 L 724.5 369.44 L 724.5 369.44 Q 723.82 368.62 722.76 368.62 L 722.76 368.62 L 722.56 368.62 L 722.56 368.9 L 722.56 368.9 Q 722.56 370.18 721.94 371.2 L 721.94 371.2 L 721.94 371.2 Q 721.32 372.22 720.19 372.79 L 720.19 372.79 L 720.19 372.79 Q 719.06 373.36 717.54 373.36 L 717.54 373.36 L 717.54 373.36 Q 716.22 373.36 715.24 372.93 L 715.24 372.93 L 715.24 372.93 Q 714.26 372.5 713.73 371.75 L 713.73 371.75 L 713.73 371.75 Q 713.2 371 713.2 370.02 L 713.2 370.02 L 713.2 370.02 Q 713.2 369.02 713.79 368.24 L 713.79 368.24 L 713.79 368.24 Q 714.38 367.46 715.46 367.08 L 715.46 367.08 L 715.46 362.74 L 725.9 362.74 L 726.26 364.56 L 722.56 364.56 L 722.56 366.78 L 722.74 366.78 L 722.74 366.78 Z  M 720.22 366.78 L 720.22 364.56 L 717.78 364.56 L 717.78 366.78 L 720.22 366.78 L 720.22 366.78 Z  M 720.22 368.9 L 720.22 368.62 L 717.48 368.62 L 717.48 368.62 Q 716.6 368.62 716.11 369 L 716.11 369 L 716.11 369 Q 715.62 369.38 715.62 370.02 L 715.62 370.02 L 715.62 370.02 Q 715.62 370.66 716.13 371.05 L 716.13 371.05 L 716.13 371.05 Q 716.64 371.44 717.54 371.44 L 717.54 371.44 L 717.54 371.44 Q 718.82 371.44 719.52 370.74 L 719.52 370.74 L 719.52 370.74 Q 720.22 370.04 720.22 368.9 L 720.22 368.9 L 720.22 368.9 Z  M 720.5 360.6 L 720.5 360.6 Q 721.12 360.6 721.52 360.2 L 721.52 360.2 L 721.52 360.2 Q 721.92 359.8 721.92 359.2 L 721.92 359.2 L 721.92 359.2 Q 721.92 358.58 721.52 358.18 L 721.52 358.18 L 721.52 358.18 Q 721.12 357.78 720.5 357.78 L 720.5 357.78 L 720.5 357.78 Q 719.9 357.78 719.51 358.18 L 719.51 358.18 L 719.51 358.18 Q 719.12 358.58 719.12 359.2 L 719.12 359.2 L 719.12 359.2 Q 719.12 359.8 719.51 360.2 L 719.51 360.2 L 719.51 360.2 Q 719.9 360.6 720.5 360.6 L 720.5 360.6 L 720.5 360.6 Z  M 740.56 362.38 L 740.56 362.38 Q 742.04 362.38 743.16 363.13 L 743.16 363.13 L 743.16 363.13 Q 744.28 363.88 744.89 365.21 L 744.89 365.21 L 744.89 365.21 Q 745.5 366.54 745.5 368.22 L 745.5 368.22 L 745.5 368.22 Q 745.5 370.42 744.37 371.71 L 744.37 371.71 L 744.37 371.71 Q 743.24 373 740.98 373 L 740.98 373 L 730.2 373 L 730.2 362.74 L 732.52 362.64 L 732.52 371.18 L 736.24 371.18 L 736.24 367.16 L 736.24 367.16 Q 736.24 365.02 737.36 363.7 L 737.36 363.7 L 737.36 363.7 Q 738.48 362.38 740.56 362.38 L 740.56 362.38 L 740.56 362.38 Z  M 740.98 371.18 L 740.98 371.18 Q 742.22 371.18 742.65 370.44 L 742.65 370.44 L 742.65 370.44 Q 743.08 369.7 743.08 368.22 L 743.08 368.22 L 743.08 368.22 Q 743.08 366.48 742.4 365.39 L 742.4 365.39 L 742.4 365.39 Q 741.72 364.3 740.56 364.3 L 740.56 364.3 L 740.56 364.3 Q 738.56 364.3 738.56 367.32 L 738.56 367.32 L 738.56 371.18 L 740.98 371.18 L 740.98 371.18 Z  M 760.28 364.56 L 756.66 364.56 L 756.66 373 L 754.34 373 L 754.34 364.56 L 750.52 364.56 L 750.52 373 L 748.2 373 L 748.2 362.74 L 759.92 362.74 L 760.28 364.56 L 760.28 364.56 Z  M 777.38 362.74 L 779.7 362.74 L 779.7 373 L 771.2 373 L 771.2 371.18 L 771.2 371.18 Q 772.12 369.64 772.12 367.9 L 772.12 367.9 L 772.12 367.9 Q 772.12 366.28 770.96 365.29 L 770.96 365.29 L 770.96 365.29 Q 769.8 364.3 767.52 364.3 L 767.52 364.3 L 767.52 364.3 Q 766.1 364.3 765.03 364.82 L 765.03 364.82 L 765.03 364.82 Q 763.96 365.34 763.39 366.24 L 763.39 366.24 L 763.39 366.24 Q 762.82 367.14 762.82 368.26 L 762.82 368.26 L 762.82 368.26 Q 762.82 369.12 763.18 369.78 L 763.18 369.78 L 763.18 369.78 Q 763.28 368.48 764.25 367.64 L 764.25 367.64 L 764.25 367.64 Q 765.22 366.8 766.58 366.8 L 766.58 366.8 L 766.58 366.8 Q 767.64 366.8 768.49 367.23 L 768.49 367.23 L 768.49 367.23 Q 769.34 367.66 769.82 368.41 L 769.82 368.41 L 769.82 368.41 Q 770.3 369.16 770.3 370.1 L 770.3 370.1 L 770.3 370.1 Q 770.3 371.04 769.79 371.78 L 769.79 371.78 L 769.79 371.78 Q 769.28 372.52 768.37 372.94 L 768.37 372.94 L 768.37 372.94 Q 767.46 373.36 766.32 373.36 L 766.32 373.36 L 766.32 373.36 Q 764.62 373.36 763.27 372.7 L 763.27 372.7 L 763.27 372.7 Q 761.92 372.04 761.16 370.88 L 761.16 370.88 L 761.16 370.88 Q 760.4 369.72 760.4 368.26 L 760.4 368.26 L 760.4 368.26 Q 760.4 366.56 761.3 365.22 L 761.3 365.22 L 761.3 365.22 Q 762.2 363.88 763.82 363.13 L 763.82 363.13 L 763.82 363.13 Q 765.44 362.38 767.52 362.38 L 767.52 362.38 L 767.52 362.38 Q 769.54 362.38 771.14 363.09 L 771.14 363.09 L 771.14 363.09 Q 772.74 363.8 773.65 365.06 L 773.65 365.06 L 773.65 365.06 Q 774.56 366.32 774.56 367.9 L 774.56 367.9 L 774.56 367.9 Q 774.56 369.58 773.76 371.18 L 773.76 371.18 L 777.38 371.18 L 777.38 362.74 L 777.38 362.74 Z  M 766.62 368.64 L 766.62 368.64 Q 766 368.64 765.6 369.05 L 765.6 369.05 L 765.6 369.05 Q 765.2 369.46 765.2 370.1 L 765.2 370.1 L 765.2 370.1 Q 765.2 370.72 765.6 371.12 L 765.6 371.12 L 765.6 371.12 Q 766 371.52 766.62 371.52 L 766.62 371.52 L 766.62 371.52 Q 767.24 371.52 767.65 371.12 L 767.65 371.12 L 767.65 371.12 Q 768.06 370.72 768.06 370.1 L 768.06 370.1 L 768.06 370.1 Q 768.06 369.48 767.65 369.06 L 767.65 369.06 L 767.65 369.06 Q 767.24 368.64 766.62 368.64 L 766.62 368.64 L 766.62 368.64 Z  M 791.74 366.78 L 791.74 366.78 Q 793.14 366.78 794.25 367.39 L 794.25 367.39 L 794.25 367.39 Q 795.36 368 795.98 369.08 L 795.98 369.08 L 795.98 369.08 Q 796.6 370.16 796.6 371.52 L 796.6 371.52 L 796.6 371.52 Q 796.6 373.02 795.84 374.21 L 795.84 374.21 L 795.84 374.21 Q 795.08 375.4 793.73 376.07 L 793.73 376.07 L 793.73 376.07 Q 792.38 376.74 790.7 376.74 L 790.7 376.74 L 787.58 376.74 L 787.58 376.74 Q 784.84 376.74 784.1 377.86 L 784.1 377.86 L 782.2 376.68 L 782.2 376.68 Q 782.58 375.88 783.91 375.4 L 783.91 375.4 L 783.91 375.4 Q 785.24 374.92 787.32 374.92 L 787.32 374.92 L 790.7 374.92 L 790.7 374.92 Q 791.7 374.92 792.49 374.48 L 792.49 374.48 L 792.49 374.48 Q 793.28 374.04 793.73 373.27 L 793.73 373.27 L 793.73 373.27 Q 794.18 372.5 794.18 371.52 L 794.18 371.52 L 794.18 371.52 Q 794.18 370.26 793.5 369.44 L 793.5 369.44 L 793.5 369.44 Q 792.82 368.62 791.76 368.62 L 791.76 368.62 L 791.56 368.62 L 791.56 368.9 L 791.56 368.9 Q 791.56 370.18 790.94 371.2 L 790.94 371.2 L 790.94 371.2 Q 790.32 372.22 789.19 372.79 L 789.19 372.79 L 789.19 372.79 Q 788.06 373.36 786.54 373.36 L 786.54 373.36 L 786.54 373.36 Q 785.22 373.36 784.24 372.93 L 784.24 372.93 L 784.24 372.93 Q 783.26 372.5 782.73 371.75 L 782.73 371.75 L 782.73 371.75 Q 782.2 371 782.2 370.02 L 782.2 370.02 L 782.2 370.02 Q 782.2 369.02 782.79 368.24 L 782.79 368.24 L 782.79 368.24 Q 783.38 367.46 784.46 367.08 L 784.46 367.08 L 784.46 362.74 L 794.9 362.74 L 795.26 364.56 L 791.56 364.56 L 791.56 366.78 L 791.74 366.78 L 791.74 366.78 Z  M 789.22 366.78 L 789.22 364.56 L 786.78 364.56 L 786.78 366.78 L 789.22 366.78 L 789.22 366.78 Z  M 789.22 368.9 L 789.22 368.62 L 786.48 368.62 L 786.48 368.62 Q 785.6 368.62 785.11 369 L 785.11 369 L 785.11 369 Q 784.62 369.38 784.62 370.02 L 784.62 370.02 L 784.62 370.02 Q 784.62 370.66 785.13 371.05 L 785.13 371.05 L 785.13 371.05 Q 785.64 371.44 786.54 371.44 L 786.54 371.44 L 786.54 371.44 Q 787.82 371.44 788.52 370.74 L 788.52 370.74 L 788.52 370.74 Q 789.22 370.04 789.22 368.9 L 789.22 368.9 L 789.22 368.9 Z  M 794.2 357.06 L 794.2 357.06 Q 796.46 357.06 798.11 357.81 L 798.11 357.81 L 798.11 357.81 Q 799.76 358.56 800.64 359.89 L 800.64 359.89 L 800.64 359.89 Q 801.52 361.22 801.52 362.94 L 801.52 362.94 L 801.52 373 L 799.2 373 L 799.2 362.94 L 799.2 362.94 Q 799.2 361.12 797.9 360.05 L 797.9 360.05 L 797.9 360.05 Q 796.6 358.98 794.2 358.98 L 794.2 358.98 L 794.2 358.98 Q 792.84 358.98 792.09 359.49 L 792.09 359.49 L 792.09 359.49 Q 791.34 360 791.34 360.88 L 791.34 360.88 L 791.34 360.88 Q 791.34 361.74 791.76 362.24 L 791.76 362.24 L 791.76 362.24 Q 792.18 362.74 793.04 362.74 L 793.04 362.74 L 793.04 364.36 L 793.04 364.36 Q 791.2 364.36 790.13 363.39 L 790.13 363.39 L 790.13 363.39 Q 789.06 362.42 789.04 360.88 L 789.04 360.88 L 789.04 360.88 Q 789.04 359.78 789.67 358.91 L 789.67 358.91 L 789.67 358.91 Q 790.3 358.04 791.47 357.55 L 791.47 357.55 L 791.47 357.55 Q 792.64 357.06 794.2 357.06 L 794.2 357.06 L 794.2 357.06 Z  M 688.44 366.08 L 688.44 366.08 Q 689.64 366.08 690.56 366.73 L 690.56 366.73 L 690.56 366.73 Q 691.48 367.38 691.98 368.53 L 691.98 368.53 L 691.98 368.53 Q 692.48 369.68 692.48 371.12 L 692.48 371.12 L 692.48 371.12 Q 692.48 373.44 691.19 375.15 L 691.19 375.15 L 691.19 375.15 Q 689.9 376.86 687.52 377.79 L 687.52 377.79 L 687.52 377.79 Q 685.14 378.72 681.92 378.72 L 681.92 378.72 L 666.78 378.72 L 666.78 378.72 Q 663.68 378.72 661.3 377.59 L 661.3 377.59 L 661.3 377.59 Q 658.92 376.46 657.61 374.39 L 657.61 374.39 L 657.61 374.39 Q 656.3 372.32 656.3 369.6 L 656.3 369.6 L 656.3 369.6 Q 656.3 367.7 657.12 365.7 L 657.12 365.7 L 657.12 365.7 Q 657.94 363.7 659.2 362.54 L 659.2 362.54 L 661.58 362.74 L 661.58 362.74 Q 660.34 363.78 659.53 365.71 L 659.53 365.71 L 659.53 365.71 Q 658.72 367.64 658.72 369.64 L 658.72 369.64 L 658.72 369.64 Q 658.72 371.78 659.72 373.41 L 659.72 373.41 L 659.72 373.41 Q 660.72 375.04 662.54 375.95 L 662.54 375.95 L 662.54 375.95 Q 664.36 376.86 666.78 376.88 L 666.78 376.88 L 681.92 376.88 L 681.92 376.88 Q 684.42 376.88 686.26 376.17 L 686.26 376.17 L 686.26 376.17 Q 688.1 375.46 689.07 374.16 L 689.07 374.16 L 689.07 374.16 Q 690.04 372.86 690.04 371.12 L 690.04 371.12 L 690.04 371.12 Q 690.04 369.76 689.54 368.92 L 689.54 368.92 L 689.54 368.92 Q 689.04 368.08 688.16 368.08 L 688.16 368.08 L 688.16 368.08 Q 687.44 368.08 686.97 368.52 L 686.97 368.52 L 686.97 368.52 Q 686.5 368.96 686.5 369.62 L 686.5 369.62 L 686.5 373 L 684.18 373 L 684.18 364.56 L 679.94 364.56 L 679.94 373 L 677.62 373 L 677.62 367.56 L 677.62 367.56 Q 677.62 366.06 677.03 365.18 L 677.03 365.18 L 677.03 365.18 Q 676.44 364.3 675.22 364.3 L 675.22 364.3 L 675.22 364.3 Q 674.14 364.3 673.68 365 L 673.68 365 L 673.68 365 Q 673.22 365.7 673.22 366.96 L 673.22 366.96 L 673.22 373 L 662.76 373 L 662.76 362.74 L 665.08 362.64 L 665.08 371.18 L 670.9 371.18 L 670.9 366.86 L 670.9 366.86 Q 670.9 364.82 671.96 363.6 L 671.96 363.6 L 671.96 363.6 Q 673.02 362.38 675.1 362.38 L 675.1 362.38 L 675.1 362.38 Q 676.56 362.38 677.62 363.38 L 677.62 363.38 L 677.62 362.74 L 682.7 362.74 L 682.7 362.74 Q 681.8 361.62 681.8 360.1 L 681.8 360.1 L 681.8 360.1 Q 681.8 358.76 682.49 357.7 L 682.49 357.7 L 682.49 357.7 Q 683.18 356.64 684.45 356.04 L 684.45 356.04 L 684.45 356.04 Q 685.72 355.44 687.4 355.44 L 687.4 355.44 L 687.4 355.44 Q 688.76 355.44 689.9 355.95 L 689.9 355.95 L 689.9 355.95 Q 691.04 356.46 691.71 357.35 L 691.71 357.35 L 691.71 357.35 Q 692.38 358.24 692.38 359.34 L 692.38 359.34 L 692.38 359.34 Q 692.38 360.48 691.58 361.22 L 691.58 361.22 L 691.58 361.22 Q 690.78 361.96 689.56 361.96 L 689.56 361.96 L 689.56 361.96 Q 688.36 361.96 687.56 361.23 L 687.56 361.23 L 687.56 361.23 Q 686.76 360.5 686.76 359.4 L 686.76 359.4 L 686.76 359.4 Q 686.76 358.76 687.02 358.25 L 687.02 358.25 L 687.02 358.25 Q 687.28 357.74 687.74 357.38 L 687.74 357.38 L 687.4 357.38 L 687.4 357.38 Q 685.92 357.38 685.07 358.13 L 685.07 358.13 L 685.07 358.13 Q 684.22 358.88 684.22 360.1 L 684.22 360.1 L 684.22 360.1 Q 684.22 361.28 684.96 362.01 L 684.96 362.01 L 684.96 362.01 Q 685.7 362.74 686.84 362.74 L 686.84 362.74 L 689.76 362.74 L 690.12 364.56 L 686.5 364.56 L 686.5 366.56 L 686.5 366.56 Q 687.4 366.08 688.44 366.08 L 688.44 366.08 L 688.44 366.08 Z  M 689.56 360.42 L 689.56 360.42 Q 690 360.42 690.29 360.13 L 690.29 360.13 L 690.29 360.13 Q 690.58 359.84 690.58 359.4 L 690.58 359.4 L 690.58 359.4 Q 690.58 358.98 690.29 358.69 L 690.29 358.69 L 690.29 358.69 Q 690 358.4 689.56 358.4 L 689.56 358.4 L 689.56 358.4 Q 689.12 358.4 688.83 358.69 L 688.83 358.69 L 688.83 358.69 Q 688.54 358.98 688.54 359.4 L 688.54 359.4 L 688.54 359.4 Q 688.54 359.84 688.83 360.13 L 688.83 360.13 L 688.83 360.13 Q 689.12 360.42 689.56 360.42 L 689.56 360.42 L 689.56 360.42 Z " fill="rgb(255,255,255)"/></svg>