<?xml version="1.0" encoding="UTF-8" standalone="no"?><!-- Generator: Gravit.io --><svg xmlns="http://www.w3.org/2000/svg" xmlns:xlink="http://www.w3.org/1999/xlink" style="isolation:isolate" viewBox="717.3 406.44 170.38 25.1" width="170.38pt" height="25.1pt"><path d=" M 780.68 421.78 L 780.68 421.78 Q 782.3 421.78 783.29 422.77 L 783.29 422.77 L 783.29 422.77 Q 784.28 423.76 784.28 425.4 L 784.28 425.4 L 784.28 425.4 Q 784.28 427.16 783.24 428.56 L 783.24 428.56 L 783.24 428.56 Q 782.2 429.96 780.36 430.75 L 780.36 430.75 L 780.36 430.75 Q 778.52 431.54 776.22 431.54 L 776.22 431.54 L 776.22 431.54 Q 774.68 431.54 773.52 431.13 L 773.52 431.13 L 773.52 431.13 Q 772.36 430.72 771.74 429.99 L 771.74 429.99 L 771.74 429.99 Q 771.12 429.26 771.12 428.34 L 771.12 428.34 L 771.12 428.34 Q 771.12 427.14 771.99 426.39 L 771.99 426.39 L 771.99 426.39 Q 772.86 425.64 774.38 425.64 L 774.38 425.64 L 774.8 425.64 L 774.8 427.46 L 774.38 427.46 L 774.38 427.46 Q 773.94 427.46 773.65 427.71 L 773.65 427.71 L 773.65 427.71 Q 773.36 427.96 773.36 428.34 L 773.36 428.34 L 773.36 428.34 Q 773.36 428.88 774.18 429.25 L 774.18 429.25 L 774.18 429.25 Q 775 429.62 776.22 429.62 L 776.22 429.62 L 776.22 429.62 Q 777.84 429.62 779.13 429.08 L 779.13 429.08 L 779.13 429.08 Q 780.42 428.54 781.14 427.58 L 781.14 427.58 L 781.14 427.58 Q 781.86 426.62 781.86 425.4 L 781.86 425.4 L 781.86 425.4 Q 781.86 424.68 781.47 424.2 L 781.47 424.2 L 781.47 424.2 Q 781.08 423.72 780.42 423.72 L 780.42 423.72 L 780.42 423.72 Q 779.7 423.72 779.22 424.19 L 779.22 424.19 L 779.22 424.19 Q 778.74 424.66 778.74 425.32 L 778.74 425.32 L 778.74 426.52 L 776.42 426.52 L 776.42 422.98 L 772.56 422.98 L 772.56 422.98 Q 771.6 424.82 769.62 425.85 L 769.62 425.85 L 769.62 425.85 Q 767.64 426.88 764.92 426.88 L 764.92 426.88 L 764.92 426.88 Q 763.22 426.88 761.87 426.44 L 761.87 426.44 L 761.87 426.44 Q 760.52 426 759.76 425.23 L 759.76 425.23 L 759.76 425.23 Q 759 424.46 759 423.48 L 759 423.48 L 759 423.48 Q 759 422.4 759.77 421.78 L 759.77 421.78 L 759.77 421.78 Q 760.54 421.16 762.18 421.16 L 762.18 421.16 L 770.74 421.16 L 770.74 421.16 Q 770.94 420.3 770.94 419.52 L 770.94 419.52 L 770.94 419.52 Q 770.94 417.64 769.94 416.47 L 769.94 416.47 L 769.94 416.47 Q 768.94 415.3 767.26 415.3 L 767.26 415.3 L 767.26 415.3 Q 767.02 415.3 766.92 415.32 L 766.92 415.32 L 766.92 415.32 Q 767.46 415.66 767.77 416.18 L 767.77 416.18 L 767.77 416.18 Q 768.08 416.7 768.08 417.36 L 768.08 417.36 L 768.08 417.36 Q 768.08 418.6 767.26 419.39 L 767.26 419.39 L 767.26 419.39 Q 766.44 420.18 765.16 420.18 L 765.16 420.18 L 765.16 420.18 Q 763.86 420.18 763.02 419.4 L 763.02 419.4 L 763.02 419.4 Q 762.18 418.62 762.18 417.42 L 762.18 417.42 L 762.18 417.42 Q 762.18 416.26 762.83 415.34 L 762.83 415.34 L 762.83 415.34 Q 763.48 414.42 764.64 413.9 L 764.64 413.9 L 764.64 413.9 Q 765.8 413.38 767.26 413.38 L 767.26 413.38 L 767.26 413.38 Q 769.04 413.38 770.43 414.18 L 770.43 414.18 L 770.43 414.18 Q 771.82 414.98 772.6 416.38 L 772.6 416.38 L 772.6 416.38 Q 773.38 417.78 773.38 419.52 L 773.38 419.52 L 773.38 419.52 Q 773.38 420.32 773.22 421.16 L 773.22 421.16 L 776.42 421.16 L 776.42 413.74 L 778.74 413.74 L 778.74 422.28 L 778.74 422.28 Q 779.62 421.78 780.68 421.78 L 780.68 421.78 L 780.68 421.78 Z  M 765.12 418.32 L 765.12 418.32 Q 765.52 418.32 765.77 418.07 L 765.77 418.07 L 765.77 418.07 Q 766.02 417.82 766.02 417.42 L 766.02 417.42 L 766.02 417.42 Q 766.02 417.04 765.77 416.8 L 765.77 416.8 L 765.77 416.8 Q 765.52 416.56 765.14 416.56 L 765.14 416.56 L 765.14 416.56 Q 764.74 416.56 764.48 416.8 L 764.48 416.8 L 764.48 416.8 Q 764.22 417.04 764.22 417.42 L 764.22 417.42 L 764.22 417.42 Q 764.22 417.8 764.48 418.06 L 764.48 418.06 L 764.48 418.06 Q 764.74 418.32 765.12 418.32 L 765.12 418.32 L 765.12 418.32 Z  M 764.92 424.96 L 764.92 424.96 Q 766.56 424.96 767.81 424.44 L 767.81 424.44 L 767.81 424.44 Q 769.06 423.92 769.82 422.98 L 769.82 422.98 L 762.08 422.98 L 762.08 422.98 Q 761.42 422.98 761.42 423.48 L 761.42 423.48 L 761.42 423.48 Q 761.42 424.1 762.39 424.53 L 762.39 424.53 L 762.39 424.53 Q 763.36 424.96 764.92 424.96 L 764.92 424.96 L 764.92 424.96 Z  M 805.6 417.08 L 805.6 417.08 Q 807.54 417.08 808.59 418.37 L 808.59 418.37 L 808.59 418.37 Q 809.64 419.66 809.64 421.76 L 809.64 421.76 L 809.64 421.76 Q 809.64 424.1 808.23 425.85 L 808.23 425.85 L 808.23 425.85 Q 806.82 427.6 804.16 428.56 L 804.16 428.56 L 804.16 428.56 Q 801.5 429.52 797.86 429.52 L 797.86 429.52 L 797.86 429.52 Q 794.28 429.52 791.55 428.44 L 791.55 428.44 L 791.55 428.44 Q 788.82 427.36 787.31 425.34 L 787.31 425.34 L 787.31 425.34 Q 785.8 423.32 785.8 420.6 L 785.8 420.6 L 785.8 420.6 Q 785.8 418.7 786.62 416.7 L 786.62 416.7 L 786.62 416.7 Q 787.44 414.7 788.7 413.54 L 788.7 413.54 L 791.08 413.74 L 791.08 413.74 Q 789.84 414.78 789.03 416.71 L 789.03 416.71 L 789.03 416.71 Q 788.22 418.64 788.22 420.64 L 788.22 420.64 L 788.22 420.64 Q 788.22 422.78 789.48 424.35 L 789.48 424.35 L 789.48 424.35 Q 790.74 425.92 792.94 426.76 L 792.94 426.76 L 792.94 426.76 Q 795.14 427.6 797.86 427.6 L 797.86 427.6 L 797.86 427.6 Q 800.66 427.6 802.77 426.91 L 802.77 426.91 L 802.77 426.91 Q 804.88 426.22 806.05 424.91 L 806.05 424.91 L 806.05 424.91 Q 807.22 423.6 807.22 421.76 L 807.22 421.76 L 807.22 421.76 Q 807.22 420.52 806.78 419.77 L 806.78 419.77 L 806.78 419.77 Q 806.34 419.02 805.48 419.02 L 805.48 419.02 L 805.48 419.02 Q 804.74 419.02 804.24 419.57 L 804.24 419.57 L 804.24 419.57 Q 803.74 420.12 803.74 420.8 L 803.74 420.8 L 803.74 424 L 801.42 424 L 801.42 415.56 L 797.86 415.56 L 797.86 415.56 Q 795.42 415.56 794.26 416.56 L 794.26 416.56 L 794.26 416.56 Q 793.1 417.56 793.1 419.26 L 793.1 419.26 L 793.1 419.26 Q 793.1 420.12 793.46 420.78 L 793.46 420.78 L 793.46 420.78 Q 793.56 419.46 794.51 418.63 L 794.51 418.63 L 794.51 418.63 Q 795.46 417.8 796.86 417.8 L 796.86 417.8 L 796.86 417.8 Q 797.92 417.8 798.76 418.23 L 798.76 418.23 L 798.76 418.23 Q 799.6 418.66 800.08 419.41 L 800.08 419.41 L 800.08 419.41 Q 800.56 420.16 800.56 421.1 L 800.56 421.1 L 800.56 421.1 Q 800.56 422.04 800.05 422.78 L 800.05 422.78 L 800.05 422.78 Q 799.54 423.52 798.64 423.94 L 798.64 423.94 L 798.64 423.94 Q 797.74 424.36 796.6 424.36 L 796.6 424.36 L 796.6 424.36 Q 794.9 424.36 793.55 423.7 L 793.55 423.7 L 793.55 423.7 Q 792.2 423.04 791.43 421.88 L 791.43 421.88 L 791.43 421.88 Q 790.66 420.72 790.66 419.26 L 790.66 419.26 L 790.66 419.26 Q 790.66 417.64 791.46 416.39 L 791.46 416.39 L 791.46 416.39 Q 792.26 415.14 793.83 414.44 L 793.83 414.44 L 793.83 414.44 Q 795.4 413.74 797.68 413.74 L 797.68 413.74 L 807 413.74 L 807.36 415.58 L 803.74 415.58 L 803.74 417.62 L 803.74 417.62 Q 804.6 417.08 805.6 417.08 L 805.6 417.08 L 805.6 417.08 Z  M 796.9 419.64 L 796.9 419.64 Q 796.28 419.64 795.88 420.05 L 795.88 420.05 L 795.88 420.05 Q 795.48 420.46 795.48 421.1 L 795.48 421.1 L 795.48 421.1 Q 795.48 421.72 795.88 422.12 L 795.88 422.12 L 795.88 422.12 Q 796.28 422.52 796.9 422.52 L 796.9 422.52 L 796.9 422.52 Q 797.52 422.52 797.93 422.12 L 797.93 422.12 L 797.93 422.12 Q 798.34 421.72 798.34 421.1 L 798.34 421.1 L 798.34 421.1 Q 798.34 420.48 797.93 420.06 L 797.93 420.06 L 797.93 420.06 Q 797.52 419.64 796.9 419.64 L 796.9 419.64 L 796.9 419.64 Z  M 799.5 411.6 L 799.5 411.6 Q 800.12 411.6 800.52 411.2 L 800.52 411.2 L 800.52 411.2 Q 800.92 410.8 800.92 410.2 L 800.92 410.2 L 800.92 410.2 Q 800.92 409.58 800.52 409.18 L 800.52 409.18 L 800.52 409.18 Q 800.12 408.78 799.5 408.78 L 799.5 408.78 L 799.5 408.78 Q 798.9 408.78 798.51 409.18 L 798.51 409.18 L 798.51 409.18 Q 798.12 409.58 798.12 410.2 L 798.12 410.2 L 798.12 410.2 Q 798.12 410.8 798.51 411.2 L 798.51 411.2 L 798.51 411.2 Q 798.9 411.6 799.5 411.6 L 799.5 411.6 L 799.5 411.6 Z  M 823.9 417.78 L 824.26 419.62 L 820.56 419.62 L 820.56 419.9 L 820.56 419.9 Q 820.56 421.18 819.94 422.2 L 819.94 422.2 L 819.94 422.2 Q 819.32 423.22 818.19 423.79 L 818.19 423.79 L 818.19 423.79 Q 817.06 424.36 815.54 424.36 L 815.54 424.36 L 815.54 424.36 Q 814.22 424.36 813.24 423.93 L 813.24 423.93 L 813.24 423.93 Q 812.26 423.5 811.73 422.75 L 811.73 422.75 L 811.73 422.75 Q 811.2 422 811.2 421.02 L 811.2 421.02 L 811.2 421.02 Q 811.2 420.02 811.79 419.24 L 811.79 419.24 L 811.79 419.24 Q 812.38 418.46 813.46 418.08 L 813.46 418.08 L 813.46 413.74 L 823.9 413.74 L 824.26 415.56 L 820.56 415.56 L 820.56 417.78 L 823.9 417.78 L 823.9 417.78 Z  M 818.22 417.78 L 818.22 415.56 L 815.78 415.56 L 815.78 417.78 L 818.22 417.78 L 818.22 417.78 Z  M 818.22 419.9 L 818.22 419.62 L 815.48 419.62 L 815.48 419.62 Q 814.6 419.62 814.11 420 L 814.11 420 L 814.11 420 Q 813.62 420.38 813.62 421.02 L 813.62 421.02 L 813.62 421.02 Q 813.62 421.66 814.13 422.05 L 814.13 422.05 L 814.13 422.05 Q 814.64 422.44 815.54 422.44 L 815.54 422.44 L 815.54 422.44 Q 816.82 422.44 817.52 421.74 L 817.52 421.74 L 817.52 421.74 Q 818.22 421.04 818.22 419.9 L 818.22 419.9 L 818.22 419.9 Z  M 834.22 418.06 L 834.22 418.06 Q 835.14 418.06 835.88 418.43 L 835.88 418.43 L 835.88 418.43 Q 836.62 418.8 837.04 419.47 L 837.04 419.47 L 837.04 419.47 Q 837.46 420.14 837.46 420.96 L 837.46 420.96 L 837.46 420.96 Q 837.46 421.92 836.87 422.7 L 836.87 422.7 L 836.87 422.7 Q 836.28 423.48 835.2 423.92 L 835.2 423.92 L 835.2 423.92 Q 834.12 424.36 832.72 424.36 L 832.72 424.36 L 832.72 424.36 Q 830.62 424.36 828.95 423.47 L 828.95 423.47 L 828.95 423.47 Q 827.28 422.58 826.34 420.99 L 826.34 420.99 L 826.34 420.99 Q 825.4 419.4 825.4 417.42 L 825.4 417.42 L 825.4 417.42 Q 825.4 415.44 826.34 413.86 L 826.34 413.86 L 826.34 413.86 Q 827.28 412.28 828.95 411.39 L 828.95 411.39 L 828.95 411.39 Q 830.62 410.5 832.72 410.5 L 832.72 410.5 L 832.72 410.5 Q 834.12 410.5 835.2 410.94 L 835.2 410.94 L 835.2 410.94 Q 836.28 411.38 836.87 412.16 L 836.87 412.16 L 836.87 412.16 Q 837.46 412.94 837.46 413.9 L 837.46 413.9 L 837.46 413.9 Q 837.46 414.72 837.04 415.39 L 837.04 415.39 L 837.04 415.39 Q 836.62 416.06 835.88 416.43 L 835.88 416.43 L 835.88 416.43 Q 835.14 416.8 834.22 416.8 L 834.22 416.8 L 834.22 416.8 Q 832.88 416.8 832.03 415.98 L 832.03 415.98 L 832.03 415.98 Q 831.18 415.16 831.18 413.86 L 831.18 413.86 L 831.18 413.86 Q 831.18 413.04 831.64 412.46 L 831.64 412.46 L 831.64 412.46 Q 829.94 412.68 828.9 414.03 L 828.9 414.03 L 828.9 414.03 Q 827.86 415.38 827.82 417.42 L 827.82 417.42 L 827.82 417.42 Q 827.86 419.46 828.9 420.82 L 828.9 420.82 L 828.9 420.82 Q 829.94 422.18 831.64 422.4 L 831.64 422.4 L 831.64 422.4 Q 831.18 421.82 831.18 421 L 831.18 421 L 831.18 421 Q 831.18 419.7 832.03 418.88 L 832.03 418.88 L 832.03 418.88 Q 832.88 418.06 834.22 418.06 L 834.22 418.06 L 834.22 418.06 Z  M 834.26 414.96 L 834.26 414.96 Q 834.76 414.96 835.08 414.65 L 835.08 414.65 L 835.08 414.65 Q 835.4 414.34 835.4 413.84 L 835.4 413.84 L 835.4 413.84 Q 835.4 413.34 835.09 413.03 L 835.09 413.03 L 835.09 413.03 Q 834.78 412.72 834.32 412.72 L 834.32 412.72 L 834.32 412.72 Q 833.82 412.72 833.5 413.03 L 833.5 413.03 L 833.5 413.03 Q 833.18 413.34 833.18 413.82 L 833.18 413.82 L 833.18 413.82 Q 833.18 414.32 833.49 414.64 L 833.49 414.64 L 833.49 414.64 Q 833.8 414.96 834.26 414.96 L 834.26 414.96 L 834.26 414.96 Z  M 834.26 419.9 L 834.26 419.9 Q 833.8 419.9 833.49 420.22 L 833.49 420.22 L 833.49 420.22 Q 833.18 420.54 833.18 421.04 L 833.18 421.04 L 833.18 421.04 Q 833.18 421.52 833.5 421.83 L 833.5 421.83 L 833.5 421.83 Q 833.82 422.14 834.32 422.14 L 834.32 422.14 L 834.32 422.14 Q 834.78 422.14 835.09 421.83 L 835.09 421.83 L 835.09 421.83 Q 835.4 421.52 835.4 421.02 L 835.4 421.02 L 835.4 421.02 Q 835.4 420.52 835.08 420.21 L 835.08 420.21 L 835.08 420.21 Q 834.76 419.9 834.26 419.9 L 834.26 419.9 L 834.26 419.9 Z  M 849.68 417.08 L 849.68 417.08 Q 850.88 417.08 851.8 417.73 L 851.8 417.73 L 851.8 417.73 Q 852.72 418.38 853.21 419.53 L 853.21 419.53 L 853.21 419.53 Q 853.7 420.68 853.7 422.12 L 853.7 422.12 L 853.7 422.12 Q 853.7 423.76 853.07 425.03 L 853.07 425.03 L 853.07 425.03 Q 852.44 426.3 851.25 427.02 L 851.25 427.02 L 851.25 427.02 Q 850.06 427.74 848.42 427.74 L 848.42 427.74 L 845.58 427.74 L 845.58 427.74 Q 842.86 427.74 842.08 428.86 L 842.08 428.86 L 840.2 427.68 L 840.2 427.68 Q 840.66 426.76 841.83 426.34 L 841.83 426.34 L 841.83 426.34 Q 843 425.92 845.3 425.92 L 845.3 425.92 L 848.42 425.92 L 848.42 425.92 Q 849.82 425.92 850.55 424.88 L 850.55 424.88 L 850.55 424.88 Q 851.28 423.84 851.28 422.12 L 851.28 422.12 L 851.28 422.12 Q 851.28 420.76 850.78 419.92 L 850.78 419.92 L 850.78 419.92 Q 850.28 419.08 849.4 419.08 L 849.4 419.08 L 849.4 419.08 Q 848.68 419.08 848.21 419.52 L 848.21 419.52 L 848.21 419.52 Q 847.74 419.96 847.74 420.62 L 847.74 420.62 L 847.74 424 L 845.42 424 L 845.42 415.56 L 842.52 415.56 L 842.52 424 L 840.2 424 L 840.2 413.74 L 851 413.74 L 851.36 415.58 L 847.74 415.58 L 847.74 417.58 L 847.74 417.58 Q 848.58 417.08 849.68 417.08 L 849.68 417.08 L 849.68 417.08 Z  M 869.86 413.74 L 872.2 413.74 L 872.2 424 L 862.7 424 L 862.7 423.38 L 862.7 423.38 Q 861.62 424.36 860.18 424.36 L 860.18 424.36 L 860.18 424.36 Q 858.1 424.36 857.05 423.14 L 857.05 423.14 L 857.05 423.14 Q 856 421.92 856 419.88 L 856 419.88 L 856 413.74 L 858.32 413.64 L 858.32 419.76 L 858.32 419.76 Q 858.32 421.04 858.77 421.74 L 858.77 421.74 L 858.77 421.74 Q 859.22 422.44 860.32 422.44 L 860.32 422.44 L 860.32 422.44 Q 861.52 422.44 862.11 421.56 L 862.11 421.56 L 862.11 421.56 Q 862.7 420.68 862.7 419.18 L 862.7 419.18 L 862.7 413.74 L 865.02 413.74 L 865.02 422.18 L 869.86 422.18 L 869.86 413.74 L 869.86 413.74 Z  M 887.68 415.58 L 884.06 415.58 L 884.06 423.66 L 884.06 423.66 Q 884.06 424.5 883.98 425.04 L 883.98 425.04 L 883.98 425.04 Q 883.9 425.58 883.61 426 L 883.61 426 L 883.61 426 Q 883.32 426.42 882.7 426.66 L 882.7 426.66 L 876.72 429 L 875.84 427.04 L 880.72 425.12 L 880.72 425.12 Q 881.18 424.94 881.4 424.67 L 881.4 424.67 L 881.4 424.67 Q 881.62 424.4 881.68 424.02 L 881.68 424.02 L 881.68 424.02 Q 881.74 423.64 881.74 422.9 L 881.74 422.9 L 881.74 415.56 L 877.52 415.56 L 877.52 424 L 875.2 424 L 875.2 413.74 L 887.32 413.74 L 887.68 415.58 L 887.68 415.58 Z  M 880.5 411.6 L 880.5 411.6 Q 881.12 411.6 881.52 411.2 L 881.52 411.2 L 881.52 411.2 Q 881.92 410.8 881.92 410.2 L 881.92 410.2 L 881.92 410.2 Q 881.92 409.58 881.52 409.18 L 881.52 409.18 L 881.52 409.18 Q 881.12 408.78 880.5 408.78 L 880.5 408.78 L 880.5 408.78 Q 879.9 408.78 879.51 409.18 L 879.51 409.18 L 879.51 409.18 Q 879.12 409.58 879.12 410.2 L 879.12 410.2 L 879.12 410.2 Q 879.12 410.8 879.51 411.2 L 879.51 411.2 L 879.51 411.2 Q 879.9 411.6 880.5 411.6 L 880.5 411.6 L 880.5 411.6 Z  M 749.44 417.08 L 749.44 417.08 Q 750.64 417.08 751.56 417.73 L 751.56 417.73 L 751.56 417.73 Q 752.48 418.38 752.98 419.53 L 752.98 419.53 L 752.98 419.53 Q 753.48 420.68 753.48 422.12 L 753.48 422.12 L 753.48 422.12 Q 753.48 424.44 752.19 426.15 L 752.19 426.15 L 752.19 426.15 Q 750.9 427.86 748.52 428.79 L 748.52 428.79 L 748.52 428.79 Q 746.14 429.72 742.92 429.72 L 742.92 429.72 L 727.78 429.72 L 727.78 429.72 Q 724.68 429.72 722.3 428.59 L 722.3 428.59 L 722.3 428.59 Q 719.92 427.46 718.61 425.39 L 718.61 425.39 L 718.61 425.39 Q 717.3 423.32 717.3 420.6 L 717.3 420.6 L 717.3 420.6 Q 717.3 418.7 718.12 416.7 L 718.12 416.7 L 718.12 416.7 Q 718.94 414.7 720.2 413.54 L 720.2 413.54 L 722.58 413.74 L 722.58 413.74 Q 721.34 414.78 720.53 416.71 L 720.53 416.71 L 720.53 416.71 Q 719.72 418.64 719.72 420.64 L 719.72 420.64 L 719.72 420.64 Q 719.72 422.78 720.72 424.41 L 720.72 424.41 L 720.72 424.41 Q 721.72 426.04 723.54 426.95 L 723.54 426.95 L 723.54 426.95 Q 725.36 427.86 727.78 427.88 L 727.78 427.88 L 742.92 427.88 L 742.92 427.88 Q 745.42 427.88 747.26 427.17 L 747.26 427.17 L 747.26 427.17 Q 749.1 426.46 750.07 425.16 L 750.07 425.16 L 750.07 425.16 Q 751.04 423.86 751.04 422.12 L 751.04 422.12 L 751.04 422.12 Q 751.04 420.76 750.54 419.92 L 750.54 419.92 L 750.54 419.92 Q 750.04 419.08 749.16 419.08 L 749.16 419.08 L 749.16 419.08 Q 748.44 419.08 747.97 419.52 L 747.97 419.52 L 747.97 419.52 Q 747.5 419.96 747.5 420.62 L 747.5 420.62 L 747.5 424 L 745.18 424 L 745.18 415.56 L 740.94 415.56 L 740.94 424 L 738.62 424 L 738.62 418.56 L 738.62 418.56 Q 738.62 417.06 738.03 416.18 L 738.03 416.18 L 738.03 416.18 Q 737.44 415.3 736.22 415.3 L 736.22 415.3 L 736.22 415.3 Q 735.14 415.3 734.68 416 L 734.68 416 L 734.68 416 Q 734.22 416.7 734.22 417.96 L 734.22 417.96 L 734.22 424 L 723.76 424 L 723.76 413.74 L 726.08 413.64 L 726.08 422.18 L 731.9 422.18 L 731.9 417.86 L 731.9 417.86 Q 731.9 415.82 732.96 414.6 L 732.96 414.6 L 732.96 414.6 Q 734.02 413.38 736.1 413.38 L 736.1 413.38 L 736.1 413.38 Q 737.56 413.38 738.62 414.38 L 738.62 414.38 L 738.62 413.74 L 743.7 413.74 L 743.7 413.74 Q 742.8 412.62 742.8 411.1 L 742.8 411.1 L 742.8 411.1 Q 742.8 409.76 743.49 408.7 L 743.49 408.7 L 743.49 408.7 Q 744.18 407.64 745.45 407.04 L 745.45 407.04 L 745.45 407.04 Q 746.72 406.44 748.4 406.44 L 748.4 406.44 L 748.4 406.44 Q 749.76 406.44 750.9 406.95 L 750.9 406.95 L 750.9 406.95 Q 752.04 407.46 752.71 408.35 L 752.71 408.35 L 752.71 408.35 Q 753.38 409.24 753.38 410.34 L 753.38 410.34 L 753.38 410.34 Q 753.38 411.48 752.58 412.22 L 752.58 412.22 L 752.58 412.22 Q 751.78 412.96 750.56 412.96 L 750.56 412.96 L 750.56 412.96 Q 749.36 412.96 748.56 412.23 L 748.56 412.23 L 748.56 412.23 Q 747.76 411.5 747.76 410.4 L 747.76 410.4 L 747.76 410.4 Q 747.76 409.76 748.02 409.25 L 748.02 409.25 L 748.02 409.25 Q 748.28 408.74 748.74 408.38 L 748.74 408.38 L 748.4 408.38 L 748.4 408.38 Q 746.92 408.38 746.07 409.13 L 746.07 409.13 L 746.07 409.13 Q 745.22 409.88 745.22 411.1 L 745.22 411.1 L 745.22 411.1 Q 745.22 412.28 745.96 413.01 L 745.96 413.01 L 745.96 413.01 Q 746.7 413.74 747.84 413.74 L 747.84 413.74 L 750.76 413.74 L 751.12 415.56 L 747.5 415.56 L 747.5 417.56 L 747.5 417.56 Q 748.4 417.08 749.44 417.08 L 749.44 417.08 L 749.44 417.08 Z  M 750.56 411.42 L 750.56 411.42 Q 751 411.42 751.29 411.13 L 751.29 411.13 L 751.29 411.13 Q 751.58 410.84 751.58 410.4 L 751.58 410.4 L 751.58 410.4 Q 751.58 409.98 751.29 409.69 L 751.29 409.69 L 751.29 409.69 Q 751 409.4 750.56 409.4 L 750.56 409.4 L 750.56 409.4 Q 750.12 409.4 749.83 409.69 L 749.83 409.69 L 749.83 409.69 Q 749.54 409.98 749.54 410.4 L 749.54 410.4 L 749.54 410.4 Q 749.54 410.84 749.83 411.13 L 749.83 411.13 L 749.83 411.13 Q 750.12 411.42 750.56 411.42 L 750.56 411.42 L 750.56 411.42 Z " fill="rgb(255,255,255)"/></svg>