<?xml version="1.0" encoding="UTF-8" standalone="no"?><!-- Generator: Gravit.io --><svg xmlns="http://www.w3.org/2000/svg" xmlns:xlink="http://www.w3.org/1999/xlink" style="isolation:isolate" viewBox="655.9 373.44 173.12 63.42" width="173.12pt" height="63.42pt"><path d=" M 663.16 418.5 L 663.16 418.5 Q 665.2 418.5 666.73 419.35 L 666.73 419.35 L 666.73 419.35 Q 668.26 420.2 669.1 421.74 L 669.1 421.74 L 669.1 421.74 Q 669.94 423.28 669.94 425.28 L 669.94 425.28 L 669.94 432 L 667.62 432 L 667.62 425.28 L 667.62 425.28 Q 667.62 423.08 666.42 421.75 L 666.42 421.75 L 666.42 421.75 Q 665.22 420.42 663.16 420.42 L 663.16 420.42 L 663.16 420.42 Q 661.7 420.42 660.6 421.07 L 660.6 421.07 L 660.6 421.07 Q 659.5 421.72 658.91 422.86 L 658.91 422.86 L 658.91 422.86 Q 658.32 424 658.32 425.46 L 658.32 425.46 L 658.32 425.46 Q 658.32 427.1 658.86 428.3 L 658.86 428.3 L 658.86 428.3 Q 659.12 427.18 660.03 426.49 L 660.03 426.49 L 660.03 426.49 Q 660.94 425.8 662.2 425.8 L 662.2 425.8 L 662.2 425.8 Q 663.26 425.8 664.08 426.23 L 664.08 426.23 L 664.08 426.23 Q 664.9 426.66 665.35 427.41 L 665.35 427.41 L 665.35 427.41 Q 665.8 428.16 665.8 429.1 L 665.8 429.1 L 665.8 429.1 Q 665.8 430.04 665.29 430.78 L 665.29 430.78 L 665.29 430.78 Q 664.78 431.52 663.87 431.94 L 663.87 431.94 L 663.87 431.94 Q 662.96 432.36 661.82 432.36 L 661.82 432.36 L 661.82 432.36 Q 660.12 432.36 658.77 431.47 L 658.77 431.47 L 658.77 431.47 Q 657.42 430.58 656.66 429.01 L 656.66 429.01 L 656.66 429.01 Q 655.9 427.44 655.9 425.46 L 655.9 425.46 L 655.9 425.46 Q 655.9 423.46 656.8 421.88 L 656.8 421.88 L 656.8 421.88 Q 657.7 420.3 659.35 419.4 L 659.35 419.4 L 659.35 419.4 Q 661 418.5 663.16 418.5 L 663.16 418.5 L 663.16 418.5 Z  M 662.12 427.64 L 662.12 427.64 Q 661.5 427.64 661.1 428.05 L 661.1 428.05 L 661.1 428.05 Q 660.7 428.46 660.7 429.1 L 660.7 429.1 L 660.7 429.1 Q 660.7 429.72 661.1 430.12 L 661.1 430.12 L 661.1 430.12 Q 661.5 430.52 662.12 430.52 L 662.12 430.52 L 662.12 430.52 Q 662.74 430.52 663.15 430.12 L 663.15 430.12 L 663.15 430.12 Q 663.56 429.72 663.56 429.1 L 663.56 429.1 L 663.56 429.1 Q 663.56 428.48 663.15 428.06 L 663.15 428.06 L 663.15 428.06 Q 662.74 427.64 662.12 427.64 L 662.12 427.64 L 662.12 427.64 Z  M 689.88 421.74 L 692.2 421.74 L 692.2 432 L 683.7 432 L 683.7 430.18 L 683.7 430.18 Q 684.62 428.64 684.62 426.9 L 684.62 426.9 L 684.62 426.9 Q 684.62 425.28 683.46 424.29 L 683.46 424.29 L 683.46 424.29 Q 682.3 423.3 680.02 423.3 L 680.02 423.3 L 680.02 423.3 Q 678.6 423.3 677.53 423.82 L 677.53 423.82 L 677.53 423.82 Q 676.46 424.34 675.89 425.24 L 675.89 425.24 L 675.89 425.24 Q 675.32 426.14 675.32 427.26 L 675.32 427.26 L 675.32 427.26 Q 675.32 428.12 675.68 428.78 L 675.68 428.78 L 675.68 428.78 Q 675.78 427.48 676.75 426.64 L 676.75 426.64 L 676.75 426.64 Q 677.72 425.8 679.08 425.8 L 679.08 425.8 L 679.08 425.8 Q 680.14 425.8 680.99 426.23 L 680.99 426.23 L 680.99 426.23 Q 681.84 426.66 682.32 427.41 L 682.32 427.41 L 682.32 427.41 Q 682.8 428.16 682.8 429.1 L 682.8 429.1 L 682.8 429.1 Q 682.8 430.04 682.29 430.78 L 682.29 430.78 L 682.29 430.78 Q 681.78 431.52 680.87 431.94 L 680.87 431.94 L 680.87 431.94 Q 679.96 432.36 678.82 432.36 L 678.82 432.36 L 678.82 432.36 Q 677.12 432.36 675.77 431.7 L 675.77 431.7 L 675.77 431.7 Q 674.42 431.04 673.66 429.88 L 673.66 429.88 L 673.66 429.88 Q 672.9 428.72 672.9 427.26 L 672.9 427.26 L 672.9 427.26 Q 672.9 425.56 673.8 424.22 L 673.8 424.22 L 673.8 424.22 Q 674.7 422.88 676.32 422.13 L 676.32 422.13 L 676.32 422.13 Q 677.94 421.38 680.02 421.38 L 680.02 421.38 L 680.02 421.38 Q 682.04 421.38 683.64 422.09 L 683.64 422.09 L 683.64 422.09 Q 685.24 422.8 686.15 424.06 L 686.15 424.06 L 686.15 424.06 Q 687.06 425.32 687.06 426.9 L 687.06 426.9 L 687.06 426.9 Q 687.06 428.58 686.26 430.18 L 686.26 430.18 L 689.88 430.18 L 689.88 421.74 L 689.88 421.74 Z  M 679.12 427.64 L 679.12 427.64 Q 678.5 427.64 678.1 428.05 L 678.1 428.05 L 678.1 428.05 Q 677.7 428.46 677.7 429.1 L 677.7 429.1 L 677.7 429.1 Q 677.7 429.72 678.1 430.12 L 678.1 430.12 L 678.1 430.12 Q 678.5 430.52 679.12 430.52 L 679.12 430.52 L 679.12 430.52 Q 679.74 430.52 680.15 430.12 L 680.15 430.12 L 680.15 430.12 Q 680.56 429.72 680.56 429.1 L 680.56 429.1 L 680.56 429.1 Q 680.56 428.48 680.15 428.06 L 680.15 428.06 L 680.15 428.06 Q 679.74 427.64 679.12 427.64 L 679.12 427.64 L 679.12 427.64 Z  M 710.76 421.74 L 713.08 421.74 L 713.08 432 L 700.92 432 L 700.92 430.18 L 703.94 430.18 L 703.94 430.18 Q 705.12 430.18 705.73 429.63 L 705.73 429.63 L 705.73 429.63 Q 706.34 429.08 706.34 428.16 L 706.34 428.16 L 706.34 428.16 Q 706.34 427.44 705.95 426.96 L 705.95 426.96 L 705.95 426.96 Q 705.56 426.48 704.9 426.48 L 704.9 426.48 L 704.9 426.48 Q 704.18 426.48 703.71 426.95 L 703.71 426.95 L 703.71 426.95 Q 703.24 427.42 703.24 428.08 L 703.24 428.08 L 703.24 428.8 L 700.92 428.8 L 700.92 423.56 L 698.02 423.56 L 698.02 432 L 695.7 432 L 695.7 421.74 L 706.5 421.74 L 706.86 423.58 L 703.24 423.58 L 703.24 425.02 L 703.24 425.02 Q 704.14 424.54 705.18 424.54 L 705.18 424.54 L 705.18 424.54 Q 706.8 424.54 707.79 425.53 L 707.79 425.53 L 707.79 425.53 Q 708.78 426.52 708.78 428.16 L 708.78 428.16 L 708.78 428.16 Q 708.78 429.3 708.18 430.18 L 708.18 430.18 L 710.76 430.18 L 710.76 421.74 L 710.76 421.74 Z  M 704 419.6 L 704 419.6 Q 704.62 419.6 705.02 419.2 L 705.02 419.2 L 705.02 419.2 Q 705.42 418.8 705.42 418.2 L 705.42 418.2 L 705.42 418.2 Q 705.42 417.58 705.02 417.18 L 705.02 417.18 L 705.02 417.18 Q 704.62 416.78 704 416.78 L 704 416.78 L 704 416.78 Q 703.4 416.78 703.01 417.18 L 703.01 417.18 L 703.01 417.18 Q 702.62 417.58 702.62 418.2 L 702.62 418.2 L 702.62 418.2 Q 702.62 418.8 703.01 419.2 L 703.01 419.2 L 703.01 419.2 Q 703.4 419.6 704 419.6 L 704 419.6 L 704 419.6 Z  M 725.6 425.78 L 725.6 425.78 Q 727.6 425.78 728.76 426.69 L 728.76 426.69 L 728.76 426.69 Q 729.92 427.6 729.92 429.08 L 729.92 429.08 L 729.92 429.08 Q 729.92 430.04 729.37 430.78 L 729.37 430.78 L 729.37 430.78 Q 728.82 431.52 727.79 431.94 L 727.79 431.94 L 727.79 431.94 Q 726.76 432.36 725.38 432.36 L 725.38 432.36 L 725.38 430.52 L 725.38 430.52 Q 726.46 430.52 726.98 430.14 L 726.98 430.14 L 726.98 430.14 Q 727.5 429.76 727.5 429.08 L 727.5 429.08 L 727.5 429.08 Q 727.5 427.62 725.62 427.62 L 725.62 427.62 L 725.06 427.62 L 725.06 427.9 L 725.06 427.9 Q 725.06 429.18 724.44 430.2 L 724.44 430.2 L 724.44 430.2 Q 723.82 431.22 722.69 431.79 L 722.69 431.79 L 722.69 431.79 Q 721.56 432.36 720.04 432.36 L 720.04 432.36 L 720.04 432.36 Q 718.72 432.36 717.74 431.93 L 717.74 431.93 L 717.74 431.93 Q 716.76 431.5 716.23 430.75 L 716.23 430.75 L 716.23 430.75 Q 715.7 430 715.7 429.02 L 715.7 429.02 L 715.7 429.02 Q 715.7 428.02 716.29 427.24 L 716.29 427.24 L 716.29 427.24 Q 716.88 426.46 717.96 426.08 L 717.96 426.08 L 717.96 421.74 L 728.4 421.74 L 728.76 423.56 L 725.06 423.56 L 725.06 425.78 L 725.6 425.78 L 725.6 425.78 Z  M 722.72 425.78 L 722.72 423.56 L 720.28 423.56 L 720.28 425.78 L 722.72 425.78 L 722.72 425.78 Z  M 722.72 427.9 L 722.72 427.62 L 719.98 427.62 L 719.98 427.62 Q 719.1 427.62 718.61 428 L 718.61 428 L 718.61 428 Q 718.12 428.38 718.12 429.02 L 718.12 429.02 L 718.12 429.02 Q 718.12 429.66 718.63 430.05 L 718.63 430.05 L 718.63 430.05 Q 719.14 430.44 720.04 430.44 L 720.04 430.44 L 720.04 430.44 Q 721.32 430.44 722.02 429.74 L 722.02 429.74 L 722.02 429.74 Q 722.72 429.04 722.72 427.9 L 722.72 427.9 L 722.72 427.9 Z  M 744.4 432 L 744.04 430.18 L 734.02 430.18 L 734.02 421.64 L 731.7 421.74 L 731.7 432 L 744.4 432 L 744.4 432 Z  M 758.78 423.56 L 755.16 423.56 L 755.16 432 L 752.84 432 L 752.84 423.56 L 749.02 423.56 L 749.02 432 L 746.7 432 L 746.7 421.74 L 758.42 421.74 L 758.78 423.56 L 758.78 423.56 Z  M 771.4 425.78 L 771.76 427.62 L 768.06 427.62 L 768.06 427.9 L 768.06 427.9 Q 768.06 429.18 767.44 430.2 L 767.44 430.2 L 767.44 430.2 Q 766.82 431.22 765.69 431.79 L 765.69 431.79 L 765.69 431.79 Q 764.56 432.36 763.04 432.36 L 763.04 432.36 L 763.04 432.36 Q 761.72 432.36 760.74 431.93 L 760.74 431.93 L 760.74 431.93 Q 759.76 431.5 759.23 430.75 L 759.23 430.75 L 759.23 430.75 Q 758.7 430 758.7 429.02 L 758.7 429.02 L 758.7 429.02 Q 758.7 428.02 759.29 427.24 L 759.29 427.24 L 759.29 427.24 Q 759.88 426.46 760.96 426.08 L 760.96 426.08 L 760.96 421.74 L 771.4 421.74 L 771.76 423.56 L 768.06 423.56 L 768.06 425.78 L 771.4 425.78 L 771.4 425.78 Z  M 765.72 425.78 L 765.72 423.56 L 763.28 423.56 L 763.28 425.78 L 765.72 425.78 L 765.72 425.78 Z  M 765.72 427.9 L 765.72 427.62 L 762.98 427.62 L 762.98 427.62 Q 762.1 427.62 761.61 428 L 761.61 428 L 761.61 428 Q 761.12 428.38 761.12 429.02 L 761.12 429.02 L 761.12 429.02 Q 761.12 429.66 761.63 430.05 L 761.63 430.05 L 761.63 430.05 Q 762.14 430.44 763.04 430.44 L 763.04 430.44 L 763.04 430.44 Q 764.32 430.44 765.02 429.74 L 765.02 429.74 L 765.02 429.74 Q 765.72 429.04 765.72 427.9 L 765.72 427.9 L 765.72 427.9 Z  M 791.26 421.46 L 791.26 421.46 Q 792.12 422.84 792.54 424.37 L 792.54 424.37 L 792.54 424.37 Q 792.96 425.9 792.96 427.16 L 792.96 427.16 L 792.96 427.16 Q 792.96 429.54 791.81 430.95 L 791.81 430.95 L 791.81 430.95 Q 790.66 432.36 788.38 432.36 L 788.38 432.36 L 788.38 432.36 Q 786.34 432.36 785.21 431.15 L 785.21 431.15 L 785.21 431.15 Q 784.08 429.94 784.08 427.82 L 784.08 427.82 L 784.08 426.9 L 784.08 426.9 Q 784.08 425.26 782.97 424.28 L 782.97 424.28 L 782.97 424.28 Q 781.86 423.3 779.92 423.3 L 779.92 423.3 L 779.92 423.3 Q 778.5 423.3 777.46 423.82 L 777.46 423.82 L 777.46 423.82 Q 776.42 424.34 775.87 425.24 L 775.87 425.24 L 775.87 425.24 Q 775.32 426.14 775.32 427.26 L 775.32 427.26 L 775.32 427.26 Q 775.32 428.12 775.68 428.78 L 775.68 428.78 L 775.68 428.78 Q 775.78 427.46 776.73 426.63 L 776.73 426.63 L 776.73 426.63 Q 777.68 425.8 779.08 425.8 L 779.08 425.8 L 779.08 425.8 Q 780.14 425.8 780.99 426.23 L 780.99 426.23 L 780.99 426.23 Q 781.84 426.66 782.32 427.41 L 782.32 427.41 L 782.32 427.41 Q 782.8 428.16 782.8 429.1 L 782.8 429.1 L 782.8 429.1 Q 782.8 430.04 782.29 430.78 L 782.29 430.78 L 782.29 430.78 Q 781.78 431.52 780.87 431.94 L 780.87 431.94 L 780.87 431.94 Q 779.96 432.36 778.82 432.36 L 778.82 432.36 L 778.82 432.36 Q 777.12 432.36 775.77 431.7 L 775.77 431.7 L 775.77 431.7 Q 774.42 431.04 773.66 429.88 L 773.66 429.88 L 773.66 429.88 Q 772.9 428.72 772.9 427.26 L 772.9 427.26 L 772.9 427.26 Q 772.9 425.56 773.77 424.22 L 773.77 424.22 L 773.77 424.22 Q 774.64 422.88 776.23 422.13 L 776.23 422.13 L 776.23 422.13 Q 777.82 421.38 779.92 421.38 L 779.92 421.38 L 779.92 421.38 Q 781.86 421.38 783.33 422.07 L 783.33 422.07 L 783.33 422.07 Q 784.8 422.76 785.6 424.02 L 785.6 424.02 L 785.6 424.02 Q 786.4 425.28 786.4 426.9 L 786.4 426.9 L 786.4 427.82 L 786.4 427.82 Q 786.4 429.08 786.93 429.76 L 786.93 429.76 L 786.93 429.76 Q 787.46 430.44 788.42 430.44 L 788.42 430.44 L 788.42 430.44 Q 789.54 430.44 790.04 429.56 L 790.04 429.56 L 790.04 429.56 Q 790.54 428.68 790.54 427.16 L 790.54 427.16 L 790.54 427.16 Q 790.54 425.92 790.11 424.4 L 790.11 424.4 L 790.11 424.4 Q 789.68 422.88 788.9 421.74 L 788.9 421.74 L 791.26 421.46 L 791.26 421.46 Z  M 779.12 427.64 L 779.12 427.64 Q 778.5 427.64 778.1 428.05 L 778.1 428.05 L 778.1 428.05 Q 777.7 428.46 777.7 429.1 L 777.7 429.1 L 777.7 429.1 Q 777.7 429.72 778.1 430.12 L 778.1 430.12 L 778.1 430.12 Q 778.5 430.52 779.12 430.52 L 779.12 430.52 L 779.12 430.52 Q 779.74 430.52 780.15 430.12 L 780.15 430.12 L 780.15 430.12 Q 780.56 429.72 780.56 429.1 L 780.56 429.1 L 780.56 429.1 Q 780.56 428.48 780.15 428.06 L 780.15 428.06 L 780.15 428.06 Q 779.74 427.64 779.12 427.64 L 779.12 427.64 L 779.12 427.64 Z  M 804.92 421.74 L 807.24 421.74 L 807.24 432 L 795.7 432 L 795.7 421.74 L 798.02 421.64 L 798.02 430.18 L 804.92 430.18 L 804.92 421.74 L 804.92 421.74 Z  M 819.24 425.78 L 819.24 425.78 Q 820.64 425.78 821.75 426.39 L 821.75 426.39 L 821.75 426.39 Q 822.86 427 823.48 428.08 L 823.48 428.08 L 823.48 428.08 Q 824.1 429.16 824.1 430.52 L 824.1 430.52 L 824.1 430.52 Q 824.1 432.02 823.34 433.21 L 823.34 433.21 L 823.34 433.21 Q 822.58 434.4 821.23 435.07 L 821.23 435.07 L 821.23 435.07 Q 819.88 435.74 818.2 435.74 L 818.2 435.74 L 815.08 435.74 L 815.08 435.74 Q 812.34 435.74 811.6 436.86 L 811.6 436.86 L 809.7 435.68 L 809.7 435.68 Q 810.08 434.88 811.41 434.4 L 811.41 434.4 L 811.41 434.4 Q 812.74 433.92 814.82 433.92 L 814.82 433.92 L 818.2 433.92 L 818.2 433.92 Q 819.2 433.92 819.99 433.48 L 819.99 433.48 L 819.99 433.48 Q 820.78 433.04 821.23 432.27 L 821.23 432.27 L 821.23 432.27 Q 821.68 431.5 821.68 430.52 L 821.68 430.52 L 821.68 430.52 Q 821.68 429.26 821 428.44 L 821 428.44 L 821 428.44 Q 820.32 427.62 819.26 427.62 L 819.26 427.62 L 819.06 427.62 L 819.06 427.9 L 819.06 427.9 Q 819.06 429.18 818.44 430.2 L 818.44 430.2 L 818.44 430.2 Q 817.82 431.22 816.69 431.79 L 816.69 431.79 L 816.69 431.79 Q 815.56 432.36 814.04 432.36 L 814.04 432.36 L 814.04 432.36 Q 812.72 432.36 811.74 431.93 L 811.74 431.93 L 811.74 431.93 Q 810.76 431.5 810.23 430.75 L 810.23 430.75 L 810.23 430.75 Q 809.7 430 809.7 429.02 L 809.7 429.02 L 809.7 429.02 Q 809.7 428.02 810.29 427.24 L 810.29 427.24 L 810.29 427.24 Q 810.88 426.46 811.96 426.08 L 811.96 426.08 L 811.96 421.74 L 822.4 421.74 L 822.76 423.56 L 819.06 423.56 L 819.06 425.78 L 819.24 425.78 L 819.24 425.78 Z  M 816.72 425.78 L 816.72 423.56 L 814.28 423.56 L 814.28 425.78 L 816.72 425.78 L 816.72 425.78 Z  M 816.72 427.9 L 816.72 427.62 L 813.98 427.62 L 813.98 427.62 Q 813.1 427.62 812.61 428 L 812.61 428 L 812.61 428 Q 812.12 428.38 812.12 429.02 L 812.12 429.02 L 812.12 429.02 Q 812.12 429.66 812.63 430.05 L 812.63 430.05 L 812.63 430.05 Q 813.14 430.44 814.04 430.44 L 814.04 430.44 L 814.04 430.44 Q 815.32 430.44 816.02 429.74 L 816.02 429.74 L 816.02 429.74 Q 816.72 429.04 816.72 427.9 L 816.72 427.9 L 816.72 427.9 Z  M 821.7 416.06 L 821.7 416.06 Q 823.96 416.06 825.61 416.81 L 825.61 416.81 L 825.61 416.81 Q 827.26 417.56 828.14 418.89 L 828.14 418.89 L 828.14 418.89 Q 829.02 420.22 829.02 421.94 L 829.02 421.94 L 829.02 432 L 826.7 432 L 826.7 421.94 L 826.7 421.94 Q 826.7 420.12 825.4 419.05 L 825.4 419.05 L 825.4 419.05 Q 824.1 417.98 821.7 417.98 L 821.7 417.98 L 821.7 417.98 Q 820.34 417.98 819.59 418.49 L 819.59 418.49 L 819.59 418.49 Q 818.84 419 818.84 419.88 L 818.84 419.88 L 818.84 419.88 Q 818.84 420.74 819.26 421.24 L 819.26 421.24 L 819.26 421.24 Q 819.68 421.74 820.54 421.74 L 820.54 421.74 L 820.54 423.36 L 820.54 423.36 Q 818.7 423.36 817.63 422.39 L 817.63 422.39 L 817.63 422.39 Q 816.56 421.42 816.54 419.88 L 816.54 419.88 L 816.54 419.88 Q 816.54 418.78 817.17 417.91 L 817.17 417.91 L 817.17 417.91 Q 817.8 417.04 818.97 416.55 L 818.97 416.55 L 818.97 416.55 Q 820.14 416.06 821.7 416.06 L 821.7 416.06 L 821.7 416.06 Z  M 713.62 384.78 L 713.62 384.78 Q 715.06 384.8 716.21 385.49 L 716.21 385.49 L 716.21 385.49 Q 717.36 386.18 718.01 387.36 L 718.01 387.36 L 718.01 387.36 Q 718.66 388.54 718.66 390.02 L 718.66 390.02 L 718.66 390.02 Q 718.66 391.88 717.49 393.36 L 717.49 393.36 L 717.49 393.36 Q 716.32 394.84 714.19 395.68 L 714.19 395.68 L 714.19 395.68 Q 712.06 396.52 709.28 396.52 L 709.28 396.52 L 709.28 396.52 Q 706.16 396.52 703.79 395.44 L 703.79 395.44 L 703.79 395.44 Q 701.42 394.36 700.11 392.34 L 700.11 392.34 L 700.11 392.34 Q 698.8 390.32 698.8 387.6 L 698.8 387.6 L 698.8 387.6 Q 698.8 385.7 699.62 383.7 L 699.62 383.7 L 699.62 383.7 Q 700.44 381.7 701.7 380.54 L 701.7 380.54 L 704.08 380.74 L 704.08 380.74 Q 702.84 381.78 702.03 383.71 L 702.03 383.71 L 702.03 383.71 Q 701.22 385.64 701.22 387.64 L 701.22 387.64 L 701.22 387.64 Q 701.22 389.78 702.22 391.33 L 702.22 391.33 L 702.22 391.33 Q 703.22 392.88 705.04 393.7 L 705.04 393.7 L 705.04 393.7 Q 706.86 394.52 709.28 394.52 L 709.28 394.52 L 709.28 394.52 Q 711.36 394.52 712.94 393.94 L 712.94 393.94 L 712.94 393.94 Q 714.52 393.36 715.38 392.34 L 715.38 392.34 L 715.38 392.34 Q 716.24 391.32 716.24 390.02 L 716.24 390.02 L 716.24 390.02 Q 716.24 388.56 715.5 387.61 L 715.5 387.61 L 715.5 387.61 Q 714.76 386.66 713.62 386.62 L 713.62 386.62 L 713.62 386.9 L 713.62 386.9 Q 713.62 388.18 713.01 389.2 L 713.01 389.2 L 713.01 389.2 Q 712.4 390.22 711.27 390.79 L 711.27 390.79 L 711.27 390.79 Q 710.14 391.36 708.62 391.36 L 708.62 391.36 L 708.62 391.36 Q 707.3 391.36 706.31 390.93 L 706.31 390.93 L 706.31 390.93 Q 705.32 390.5 704.79 389.74 L 704.79 389.74 L 704.79 389.74 Q 704.26 388.98 704.26 388.02 L 704.26 388.02 L 704.26 388.02 Q 704.26 387 704.85 386.23 L 704.85 386.23 L 704.85 386.23 Q 705.44 385.46 706.54 385.08 L 706.54 385.08 L 706.54 380.74 L 716.98 380.74 L 717.34 382.56 L 713.62 382.56 L 713.62 384.78 L 713.62 384.78 Z  M 711.3 384.78 L 711.3 382.56 L 708.86 382.56 L 708.86 384.78 L 711.3 384.78 L 711.3 384.78 Z  M 708.62 389.44 L 708.62 389.44 Q 709.88 389.44 710.59 388.74 L 710.59 388.74 L 710.59 388.74 Q 711.3 388.04 711.3 386.9 L 711.3 386.9 L 711.3 386.62 L 708.54 386.62 L 708.54 386.62 Q 707.68 386.62 707.19 387.01 L 707.19 387.01 L 707.19 387.01 Q 706.7 387.4 706.7 388.02 L 706.7 388.02 L 706.7 388.02 Q 706.7 388.66 707.21 389.05 L 707.21 389.05 L 707.21 389.05 Q 707.72 389.44 708.62 389.44 L 708.62 389.44 L 708.62 389.44 Z  M 729.22 385.06 L 729.22 385.06 Q 730.14 385.06 730.88 385.43 L 730.88 385.43 L 730.88 385.43 Q 731.62 385.8 732.04 386.47 L 732.04 386.47 L 732.04 386.47 Q 732.46 387.14 732.46 387.96 L 732.46 387.96 L 732.46 387.96 Q 732.46 388.92 731.87 389.7 L 731.87 389.7 L 731.87 389.7 Q 731.28 390.48 730.2 390.92 L 730.2 390.92 L 730.2 390.92 Q 729.12 391.36 727.72 391.36 L 727.72 391.36 L 727.72 391.36 Q 725.62 391.36 723.95 390.47 L 723.95 390.47 L 723.95 390.47 Q 722.28 389.58 721.34 387.99 L 721.34 387.99 L 721.34 387.99 Q 720.4 386.4 720.4 384.42 L 720.4 384.42 L 720.4 384.42 Q 720.4 382.44 721.34 380.86 L 721.34 380.86 L 721.34 380.86 Q 722.28 379.28 723.95 378.39 L 723.95 378.39 L 723.95 378.39 Q 725.62 377.5 727.72 377.5 L 727.72 377.5 L 727.72 377.5 Q 729.12 377.5 730.2 377.94 L 730.2 377.94 L 730.2 377.94 Q 731.28 378.38 731.87 379.16 L 731.87 379.16 L 731.87 379.16 Q 732.46 379.94 732.46 380.9 L 732.46 380.9 L 732.46 380.9 Q 732.46 381.72 732.04 382.39 L 732.04 382.39 L 732.04 382.39 Q 731.62 383.06 730.88 383.43 L 730.88 383.43 L 730.88 383.43 Q 730.14 383.8 729.22 383.8 L 729.22 383.8 L 729.22 383.8 Q 727.88 383.8 727.03 382.98 L 727.03 382.98 L 727.03 382.98 Q 726.18 382.16 726.18 380.86 L 726.18 380.86 L 726.18 380.86 Q 726.18 380.04 726.64 379.46 L 726.64 379.46 L 726.64 379.46 Q 724.94 379.68 723.9 381.03 L 723.9 381.03 L 723.9 381.03 Q 722.86 382.38 722.82 384.42 L 722.82 384.42 L 722.82 384.42 Q 722.86 386.46 723.9 387.82 L 723.9 387.82 L 723.9 387.82 Q 724.94 389.18 726.64 389.4 L 726.64 389.4 L 726.64 389.4 Q 726.18 388.82 726.18 388 L 726.18 388 L 726.18 388 Q 726.18 386.7 727.03 385.88 L 727.03 385.88 L 727.03 385.88 Q 727.88 385.06 729.22 385.06 L 729.22 385.06 L 729.22 385.06 Z  M 729.26 381.96 L 729.26 381.96 Q 729.76 381.96 730.08 381.65 L 730.08 381.65 L 730.08 381.65 Q 730.4 381.34 730.4 380.84 L 730.4 380.84 L 730.4 380.84 Q 730.4 380.34 730.09 380.03 L 730.09 380.03 L 730.09 380.03 Q 729.78 379.72 729.32 379.72 L 729.32 379.72 L 729.32 379.72 Q 728.82 379.72 728.5 380.03 L 728.5 380.03 L 728.5 380.03 Q 728.18 380.34 728.18 380.82 L 728.18 380.82 L 728.18 380.82 Q 728.18 381.32 728.49 381.64 L 728.49 381.64 L 728.49 381.64 Q 728.8 381.96 729.26 381.96 L 729.26 381.96 L 729.26 381.96 Z  M 729.26 386.9 L 729.26 386.9 Q 728.8 386.9 728.49 387.22 L 728.49 387.22 L 728.49 387.22 Q 728.18 387.54 728.18 388.04 L 728.18 388.04 L 728.18 388.04 Q 728.18 388.52 728.5 388.83 L 728.5 388.83 L 728.5 388.83 Q 728.82 389.14 729.32 389.14 L 729.32 389.14 L 729.32 389.14 Q 729.78 389.14 730.09 388.83 L 730.09 388.83 L 730.09 388.83 Q 730.4 388.52 730.4 388.02 L 730.4 388.02 L 730.4 388.02 Q 730.4 387.52 730.08 387.21 L 730.08 387.21 L 730.08 387.21 Q 729.76 386.9 729.26 386.9 L 729.26 386.9 L 729.26 386.9 Z  M 744.42 380.74 L 746.74 380.74 L 746.74 391 L 735.2 391 L 735.2 380.74 L 737.52 380.64 L 737.52 389.18 L 744.42 389.18 L 744.42 380.74 L 744.42 380.74 Z  M 762.68 382.58 L 759.06 382.58 L 759.06 390.66 L 759.06 390.66 Q 759.06 391.5 758.98 392.04 L 758.98 392.04 L 758.98 392.04 Q 758.9 392.58 758.61 393 L 758.61 393 L 758.61 393 Q 758.32 393.42 757.7 393.66 L 757.7 393.66 L 751.72 396 L 750.84 394.04 L 755.72 392.12 L 755.72 392.12 Q 756.18 391.94 756.4 391.67 L 756.4 391.67 L 756.4 391.67 Q 756.62 391.4 756.68 391.02 L 756.68 391.02 L 756.68 391.02 Q 756.74 390.64 756.74 389.9 L 756.74 389.9 L 756.74 382.56 L 752.52 382.56 L 752.52 391 L 750.2 391 L 750.2 380.74 L 762.32 380.74 L 762.68 382.58 L 762.68 382.58 Z  M 688.44 384.08 L 688.44 384.08 Q 689.64 384.08 690.56 384.73 L 690.56 384.73 L 690.56 384.73 Q 691.48 385.38 691.98 386.53 L 691.98 386.53 L 691.98 386.53 Q 692.48 387.68 692.48 389.12 L 692.48 389.12 L 692.48 389.12 Q 692.48 391.44 691.19 393.15 L 691.19 393.15 L 691.19 393.15 Q 689.9 394.86 687.52 395.79 L 687.52 395.79 L 687.52 395.79 Q 685.14 396.72 681.92 396.72 L 681.92 396.72 L 666.78 396.72 L 666.78 396.72 Q 663.68 396.72 661.3 395.59 L 661.3 395.59 L 661.3 395.59 Q 658.92 394.46 657.61 392.39 L 657.61 392.39 L 657.61 392.39 Q 656.3 390.32 656.3 387.6 L 656.3 387.6 L 656.3 387.6 Q 656.3 385.7 657.12 383.7 L 657.12 383.7 L 657.12 383.7 Q 657.94 381.7 659.2 380.54 L 659.2 380.54 L 661.58 380.74 L 661.58 380.74 Q 660.34 381.78 659.53 383.71 L 659.53 383.71 L 659.53 383.71 Q 658.72 385.64 658.72 387.64 L 658.72 387.64 L 658.72 387.64 Q 658.72 389.78 659.72 391.41 L 659.72 391.41 L 659.72 391.41 Q 660.72 393.04 662.54 393.95 L 662.54 393.95 L 662.54 393.95 Q 664.36 394.86 666.78 394.88 L 666.78 394.88 L 681.92 394.88 L 681.92 394.88 Q 684.42 394.88 686.26 394.17 L 686.26 394.17 L 686.26 394.17 Q 688.1 393.46 689.07 392.16 L 689.07 392.16 L 689.07 392.16 Q 690.04 390.86 690.04 389.12 L 690.04 389.12 L 690.04 389.12 Q 690.04 387.76 689.54 386.92 L 689.54 386.92 L 689.54 386.92 Q 689.04 386.08 688.16 386.08 L 688.16 386.08 L 688.16 386.08 Q 687.44 386.08 686.97 386.52 L 686.97 386.52 L 686.97 386.52 Q 686.5 386.96 686.5 387.62 L 686.5 387.62 L 686.5 391 L 684.18 391 L 684.18 382.56 L 679.94 382.56 L 679.94 391 L 677.62 391 L 677.62 385.56 L 677.62 385.56 Q 677.62 384.06 677.03 383.18 L 677.03 383.18 L 677.03 383.18 Q 676.44 382.3 675.22 382.3 L 675.22 382.3 L 675.22 382.3 Q 674.14 382.3 673.68 383 L 673.68 383 L 673.68 383 Q 673.22 383.7 673.22 384.96 L 673.22 384.96 L 673.22 391 L 662.76 391 L 662.76 380.74 L 665.08 380.64 L 665.08 389.18 L 670.9 389.18 L 670.9 384.86 L 670.9 384.86 Q 670.9 382.82 671.96 381.6 L 671.96 381.6 L 671.96 381.6 Q 673.02 380.38 675.1 380.38 L 675.1 380.38 L 675.1 380.38 Q 676.56 380.38 677.62 381.38 L 677.62 381.38 L 677.62 380.74 L 682.7 380.74 L 682.7 380.74 Q 681.8 379.62 681.8 378.1 L 681.8 378.1 L 681.8 378.1 Q 681.8 376.76 682.49 375.7 L 682.49 375.7 L 682.49 375.7 Q 683.18 374.64 684.45 374.04 L 684.45 374.04 L 684.45 374.04 Q 685.72 373.44 687.4 373.44 L 687.4 373.44 L 687.4 373.44 Q 688.76 373.44 689.9 373.95 L 689.9 373.95 L 689.9 373.95 Q 691.04 374.46 691.71 375.35 L 691.71 375.35 L 691.71 375.35 Q 692.38 376.24 692.38 377.34 L 692.38 377.34 L 692.38 377.34 Q 692.38 378.48 691.58 379.22 L 691.58 379.22 L 691.58 379.22 Q 690.78 379.96 689.56 379.96 L 689.56 379.96 L 689.56 379.96 Q 688.36 379.96 687.56 379.23 L 687.56 379.23 L 687.56 379.23 Q 686.76 378.5 686.76 377.4 L 686.76 377.4 L 686.76 377.4 Q 686.76 376.76 687.02 376.25 L 687.02 376.25 L 687.02 376.25 Q 687.28 375.74 687.74 375.38 L 687.74 375.38 L 687.4 375.38 L 687.4 375.38 Q 685.92 375.38 685.07 376.13 L 685.07 376.13 L 685.07 376.13 Q 684.22 376.88 684.22 378.1 L 684.22 378.1 L 684.22 378.1 Q 684.22 379.28 684.96 380.01 L 684.96 380.01 L 684.96 380.01 Q 685.7 380.74 686.84 380.74 L 686.84 380.74 L 689.76 380.74 L 690.12 382.56 L 686.5 382.56 L 686.5 384.56 L 686.5 384.56 Q 687.4 384.08 688.44 384.08 L 688.44 384.08 L 688.44 384.08 Z  M 689.56 378.42 L 689.56 378.42 Q 690 378.42 690.29 378.13 L 690.29 378.13 L 690.29 378.13 Q 690.58 377.84 690.58 377.4 L 690.58 377.4 L 690.58 377.4 Q 690.58 376.98 690.29 376.69 L 690.29 376.69 L 690.29 376.69 Q 690 376.4 689.56 376.4 L 689.56 376.4 L 689.56 376.4 Q 689.12 376.4 688.83 376.69 L 688.83 376.69 L 688.83 376.69 Q 688.54 376.98 688.54 377.4 L 688.54 377.4 L 688.54 377.4 Q 688.54 377.84 688.83 378.13 L 688.83 378.13 L 688.83 378.13 Q 689.12 378.42 689.56 378.42 L 689.56 378.42 L 689.56 378.42 Z " fill="rgb(255,255,255)"/></svg>