<?xml version="1.0" encoding="UTF-8" standalone="no"?><!-- Generator: Gravit.io --><svg xmlns="http://www.w3.org/2000/svg" xmlns:xlink="http://www.w3.org/1999/xlink" style="isolation:isolate" viewBox="717.3 387.44 109.22 23.28" width="109.22pt" height="23.28pt"><path d=" M 776.38 394.74 L 778.7 394.74 L 778.7 405 L 770.2 405 L 770.2 403.18 L 770.2 403.18 Q 771.12 401.64 771.12 399.9 L 771.12 399.9 L 771.12 399.9 Q 771.12 398.28 769.96 397.29 L 769.96 397.29 L 769.96 397.29 Q 768.8 396.3 766.52 396.3 L 766.52 396.3 L 766.52 396.3 Q 765.1 396.3 764.03 396.82 L 764.03 396.82 L 764.03 396.82 Q 762.96 397.34 762.39 398.24 L 762.39 398.24 L 762.39 398.24 Q 761.82 399.14 761.82 400.26 L 761.82 400.26 L 761.82 400.26 Q 761.82 401.12 762.18 401.78 L 762.18 401.78 L 762.18 401.78 Q 762.28 400.48 763.25 399.64 L 763.25 399.64 L 763.25 399.64 Q 764.22 398.8 765.58 398.8 L 765.58 398.8 L 765.58 398.8 Q 766.64 398.8 767.49 399.23 L 767.49 399.23 L 767.49 399.23 Q 768.34 399.66 768.82 400.41 L 768.82 400.41 L 768.82 400.41 Q 769.3 401.16 769.3 402.1 L 769.3 402.1 L 769.3 402.1 Q 769.3 403.04 768.79 403.78 L 768.79 403.78 L 768.79 403.78 Q 768.28 404.52 767.37 404.94 L 767.37 404.94 L 767.37 404.94 Q 766.46 405.36 765.32 405.36 L 765.32 405.36 L 765.32 405.36 Q 763.62 405.36 762.27 404.7 L 762.27 404.7 L 762.27 404.7 Q 760.92 404.04 760.16 402.88 L 760.16 402.88 L 760.16 402.88 Q 759.4 401.72 759.4 400.26 L 759.4 400.26 L 759.4 400.26 Q 759.4 398.56 760.3 397.22 L 760.3 397.22 L 760.3 397.22 Q 761.2 395.88 762.82 395.13 L 762.82 395.13 L 762.82 395.13 Q 764.44 394.38 766.52 394.38 L 766.52 394.38 L 766.52 394.38 Q 768.54 394.38 770.14 395.09 L 770.14 395.09 L 770.14 395.09 Q 771.74 395.8 772.65 397.06 L 772.65 397.06 L 772.65 397.06 Q 773.56 398.32 773.56 399.9 L 773.56 399.9 L 773.56 399.9 Q 773.56 401.58 772.76 403.18 L 772.76 403.18 L 776.38 403.18 L 776.38 394.74 L 776.38 394.74 Z  M 765.62 400.64 L 765.62 400.64 Q 765 400.64 764.6 401.05 L 764.6 401.05 L 764.6 401.05 Q 764.2 401.46 764.2 402.1 L 764.2 402.1 L 764.2 402.1 Q 764.2 402.72 764.6 403.12 L 764.6 403.12 L 764.6 403.12 Q 765 403.52 765.62 403.52 L 765.62 403.52 L 765.62 403.52 Q 766.24 403.52 766.65 403.12 L 766.65 403.12 L 766.65 403.12 Q 767.06 402.72 767.06 402.1 L 767.06 402.1 L 767.06 402.1 Q 767.06 401.48 766.65 401.06 L 766.65 401.06 L 766.65 401.06 Q 766.24 400.64 765.62 400.64 L 765.62 400.64 L 765.62 400.64 Z  M 794.68 396.58 L 791.06 396.58 L 791.06 404.66 L 791.06 404.66 Q 791.06 405.5 790.98 406.04 L 790.98 406.04 L 790.98 406.04 Q 790.9 406.58 790.61 407 L 790.61 407 L 790.61 407 Q 790.32 407.42 789.7 407.66 L 789.7 407.66 L 783.72 410 L 782.84 408.04 L 787.72 406.12 L 787.72 406.12 Q 788.18 405.94 788.4 405.67 L 788.4 405.67 L 788.4 405.67 Q 788.62 405.4 788.68 405.02 L 788.68 405.02 L 788.68 405.02 Q 788.74 404.64 788.74 403.9 L 788.74 403.9 L 788.74 396.56 L 784.52 396.56 L 784.52 405 L 782.2 405 L 782.2 394.74 L 794.32 394.74 L 794.68 396.58 L 794.68 396.58 Z  M 808.28 396.56 L 804.66 396.56 L 804.66 405 L 802.34 405 L 802.34 396.56 L 798.52 396.56 L 798.52 405 L 796.2 405 L 796.2 394.74 L 807.92 394.74 L 808.28 396.56 L 808.28 396.56 Z  M 818.1 398.78 L 818.1 398.78 Q 820.1 398.78 821.26 399.69 L 821.26 399.69 L 821.26 399.69 Q 822.42 400.6 822.42 402.08 L 822.42 402.08 L 822.42 402.08 Q 822.42 403.04 821.87 403.78 L 821.87 403.78 L 821.87 403.78 Q 821.32 404.52 820.29 404.94 L 820.29 404.94 L 820.29 404.94 Q 819.26 405.36 817.88 405.36 L 817.88 405.36 L 817.88 403.52 L 817.88 403.52 Q 818.96 403.52 819.48 403.14 L 819.48 403.14 L 819.48 403.14 Q 820 402.76 820 402.08 L 820 402.08 L 820 402.08 Q 820 400.62 818.12 400.62 L 818.12 400.62 L 817.56 400.62 L 817.56 400.9 L 817.56 400.9 Q 817.56 402.18 816.94 403.2 L 816.94 403.2 L 816.94 403.2 Q 816.32 404.22 815.19 404.79 L 815.19 404.79 L 815.19 404.79 Q 814.06 405.36 812.54 405.36 L 812.54 405.36 L 812.54 405.36 Q 811.22 405.36 810.24 404.93 L 810.24 404.93 L 810.24 404.93 Q 809.26 404.5 808.73 403.75 L 808.73 403.75 L 808.73 403.75 Q 808.2 403 808.2 402.02 L 808.2 402.02 L 808.2 402.02 Q 808.2 401.02 808.79 400.24 L 808.79 400.24 L 808.79 400.24 Q 809.38 399.46 810.46 399.08 L 810.46 399.08 L 810.46 394.74 L 820.9 394.74 L 821.26 396.56 L 817.56 396.56 L 817.56 398.78 L 818.1 398.78 L 818.1 398.78 Z  M 815.22 398.78 L 815.22 396.56 L 812.78 396.56 L 812.78 398.78 L 815.22 398.78 L 815.22 398.78 Z  M 815.22 400.9 L 815.22 400.62 L 812.48 400.62 L 812.48 400.62 Q 811.6 400.62 811.11 401 L 811.11 401 L 811.11 401 Q 810.62 401.38 810.62 402.02 L 810.62 402.02 L 810.62 402.02 Q 810.62 402.66 811.13 403.05 L 811.13 403.05 L 811.13 403.05 Q 811.64 403.44 812.54 403.44 L 812.54 403.44 L 812.54 403.44 Q 813.82 403.44 814.52 402.74 L 814.52 402.74 L 814.52 402.74 Q 815.22 402.04 815.22 400.9 L 815.22 400.9 L 815.22 400.9 Z  M 819.2 389.06 L 819.2 389.06 Q 821.46 389.06 823.11 389.81 L 823.11 389.81 L 823.11 389.81 Q 824.76 390.56 825.64 391.89 L 825.64 391.89 L 825.64 391.89 Q 826.52 393.22 826.52 394.94 L 826.52 394.94 L 826.52 405 L 824.2 405 L 824.2 394.94 L 824.2 394.94 Q 824.2 393.12 822.9 392.05 L 822.9 392.05 L 822.9 392.05 Q 821.6 390.98 819.2 390.98 L 819.2 390.98 L 819.2 390.98 Q 817.84 390.98 817.09 391.49 L 817.09 391.49 L 817.09 391.49 Q 816.34 392 816.34 392.88 L 816.34 392.88 L 816.34 392.88 Q 816.34 393.74 816.76 394.24 L 816.76 394.24 L 816.76 394.24 Q 817.18 394.74 818.04 394.74 L 818.04 394.74 L 818.04 396.36 L 818.04 396.36 Q 816.2 396.36 815.13 395.39 L 815.13 395.39 L 815.13 395.39 Q 814.06 394.42 814.04 392.88 L 814.04 392.88 L 814.04 392.88 Q 814.04 391.78 814.67 390.91 L 814.67 390.91 L 814.67 390.91 Q 815.3 390.04 816.47 389.55 L 816.47 389.55 L 816.47 389.55 Q 817.64 389.06 819.2 389.06 L 819.2 389.06 L 819.2 389.06 Z  M 749.44 398.08 L 749.44 398.08 Q 750.64 398.08 751.56 398.73 L 751.56 398.73 L 751.56 398.73 Q 752.48 399.38 752.98 400.53 L 752.98 400.53 L 752.98 400.53 Q 753.48 401.68 753.48 403.12 L 753.48 403.12 L 753.48 403.12 Q 753.48 405.44 752.19 407.15 L 752.19 407.15 L 752.19 407.15 Q 750.9 408.86 748.52 409.79 L 748.52 409.79 L 748.52 409.79 Q 746.14 410.72 742.92 410.72 L 742.92 410.72 L 727.78 410.72 L 727.78 410.72 Q 724.68 410.72 722.3 409.59 L 722.3 409.59 L 722.3 409.59 Q 719.92 408.46 718.61 406.39 L 718.61 406.39 L 718.61 406.39 Q 717.3 404.32 717.3 401.6 L 717.3 401.6 L 717.3 401.6 Q 717.3 399.7 718.12 397.7 L 718.12 397.7 L 718.12 397.7 Q 718.94 395.7 720.2 394.54 L 720.2 394.54 L 722.58 394.74 L 722.58 394.74 Q 721.34 395.78 720.53 397.71 L 720.53 397.71 L 720.53 397.71 Q 719.72 399.64 719.72 401.64 L 719.72 401.64 L 719.72 401.64 Q 719.72 403.78 720.72 405.41 L 720.72 405.41 L 720.72 405.41 Q 721.72 407.04 723.54 407.95 L 723.54 407.95 L 723.54 407.95 Q 725.36 408.86 727.78 408.88 L 727.78 408.88 L 742.92 408.88 L 742.92 408.88 Q 745.42 408.88 747.26 408.17 L 747.26 408.17 L 747.26 408.17 Q 749.1 407.46 750.07 406.16 L 750.07 406.16 L 750.07 406.16 Q 751.04 404.86 751.04 403.12 L 751.04 403.12 L 751.04 403.12 Q 751.04 401.76 750.54 400.92 L 750.54 400.92 L 750.54 400.92 Q 750.04 400.08 749.16 400.08 L 749.16 400.08 L 749.16 400.08 Q 748.44 400.08 747.97 400.52 L 747.97 400.52 L 747.97 400.52 Q 747.5 400.96 747.5 401.62 L 747.5 401.62 L 747.5 405 L 745.18 405 L 745.18 396.56 L 740.94 396.56 L 740.94 405 L 738.62 405 L 738.62 399.56 L 738.62 399.56 Q 738.62 398.06 738.03 397.18 L 738.03 397.18 L 738.03 397.18 Q 737.44 396.3 736.22 396.3 L 736.22 396.3 L 736.22 396.3 Q 735.14 396.3 734.68 397 L 734.68 397 L 734.68 397 Q 734.22 397.7 734.22 398.96 L 734.22 398.96 L 734.22 405 L 723.76 405 L 723.76 394.74 L 726.08 394.64 L 726.08 403.18 L 731.9 403.18 L 731.9 398.86 L 731.9 398.86 Q 731.9 396.82 732.96 395.6 L 732.96 395.6 L 732.96 395.6 Q 734.02 394.38 736.1 394.38 L 736.1 394.38 L 736.1 394.38 Q 737.56 394.38 738.62 395.38 L 738.62 395.38 L 738.62 394.74 L 743.7 394.74 L 743.7 394.74 Q 742.8 393.62 742.8 392.1 L 742.8 392.1 L 742.8 392.1 Q 742.8 390.76 743.49 389.7 L 743.49 389.7 L 743.49 389.7 Q 744.18 388.64 745.45 388.04 L 745.45 388.04 L 745.45 388.04 Q 746.72 387.44 748.4 387.44 L 748.4 387.44 L 748.4 387.44 Q 749.76 387.44 750.9 387.95 L 750.9 387.95 L 750.9 387.95 Q 752.04 388.46 752.71 389.35 L 752.71 389.35 L 752.71 389.35 Q 753.38 390.24 753.38 391.34 L 753.38 391.34 L 753.38 391.34 Q 753.38 392.48 752.58 393.22 L 752.58 393.22 L 752.58 393.22 Q 751.78 393.96 750.56 393.96 L 750.56 393.96 L 750.56 393.96 Q 749.36 393.96 748.56 393.23 L 748.56 393.23 L 748.56 393.23 Q 747.76 392.5 747.76 391.4 L 747.76 391.4 L 747.76 391.4 Q 747.76 390.76 748.02 390.25 L 748.02 390.25 L 748.02 390.25 Q 748.28 389.74 748.74 389.38 L 748.74 389.38 L 748.4 389.38 L 748.4 389.38 Q 746.92 389.38 746.07 390.13 L 746.07 390.13 L 746.07 390.13 Q 745.22 390.88 745.22 392.1 L 745.22 392.1 L 745.22 392.1 Q 745.22 393.28 745.96 394.01 L 745.96 394.01 L 745.96 394.01 Q 746.7 394.74 747.84 394.74 L 747.84 394.74 L 750.76 394.74 L 751.12 396.56 L 747.5 396.56 L 747.5 398.56 L 747.5 398.56 Q 748.4 398.08 749.44 398.08 L 749.44 398.08 L 749.44 398.08 Z  M 750.56 392.42 L 750.56 392.42 Q 751 392.42 751.29 392.13 L 751.29 392.13 L 751.29 392.13 Q 751.58 391.84 751.58 391.4 L 751.58 391.4 L 751.58 391.4 Q 751.58 390.98 751.29 390.69 L 751.29 390.69 L 751.29 390.69 Q 751 390.4 750.56 390.4 L 750.56 390.4 L 750.56 390.4 Q 750.12 390.4 749.83 390.69 L 749.83 390.69 L 749.83 390.69 Q 749.54 390.98 749.54 391.4 L 749.54 391.4 L 749.54 391.4 Q 749.54 391.84 749.83 392.13 L 749.83 392.13 L 749.83 392.13 Q 750.12 392.42 750.56 392.42 L 750.56 392.42 L 750.56 392.42 Z " fill="rgb(255,255,255)"/></svg>