<?xml version="1.0" encoding="UTF-8" standalone="no"?><!-- Generator: Gravit.io --><svg xmlns="http://www.w3.org/2000/svg" xmlns:xlink="http://www.w3.org/1999/xlink" style="isolation:isolate" viewBox="689.609 390 117.391 90" width="117.391pt" height="90pt"><g><path d=" M 801.13 390 L 695.478 390 C 692.237 390 689.609 392.628 689.609 395.87 L 689.609 474.13 C 689.609 477.372 692.236 480 695.478 480 L 801.13 480 C 804.372 480 807 477.372 807 474.13 L 807 395.87 C 807 392.628 804.372 390 801.13 390 Z  M 803.087 474.131 C 803.087 475.211 802.211 476.087 801.13 476.087 L 695.478 476.087 C 694.398 476.087 693.522 475.211 693.522 474.131 L 693.522 395.87 C 693.522 394.789 694.398 393.913 695.478 393.913 L 801.13 393.913 C 802.211 393.913 803.087 394.789 803.087 395.87 L 803.087 474.131 L 803.087 474.131 Z " fill="rgb(255,255,255)"/><path d=" M 797.388 397.833 C 796.871 397.788 796.357 397.95 795.959 398.284 L 750.822 436.201 C 749.367 437.425 747.242 437.425 745.786 436.201 L 700.649 398.284 C 700.114 397.835 699.379 397.705 698.722 397.944 C 698.066 398.183 697.586 398.754 697.464 399.442 C 697.343 400.131 697.598 400.832 698.133 401.281 L 743.27 439.197 C 746.179 441.646 750.429 441.646 753.339 439.197 L 798.475 401.281 C 798.873 400.948 799.121 400.47 799.167 399.953 C 799.212 399.436 799.05 398.922 798.716 398.525 C 798.383 398.127 797.905 397.879 797.388 397.833 Z " fill="rgb(255,255,255)"/><path d=" M 727.239 438.928 C 726.546 438.773 725.825 439.006 725.352 439.535 L 697.961 468.883 C 697.465 469.391 697.283 470.127 697.485 470.807 C 697.688 471.488 698.242 472.005 698.935 472.159 C 699.627 472.314 700.349 472.081 700.821 471.552 L 728.213 442.204 C 728.708 441.696 728.89 440.96 728.688 440.28 C 728.486 439.6 727.932 439.082 727.239 438.928 Z " fill="rgb(255,255,255)"/><path d=" M 771.256 439.535 C 770.784 439.006 770.062 438.773 769.37 438.928 C 768.677 439.082 768.123 439.6 767.92 440.28 C 767.718 440.96 767.9 441.696 768.396 442.204 L 795.787 471.552 C 796.53 472.312 797.744 472.341 798.522 471.615 C 799.299 470.89 799.355 469.677 798.648 468.883 L 771.256 439.535 Z " fill="rgb(255,255,255)"/></g></svg>