<?xml version="1.0" encoding="UTF-8" standalone="no"?><!-- Generator: Gravit.io --><svg xmlns="http://www.w3.org/2000/svg" xmlns:xlink="http://www.w3.org/1999/xlink" style="isolation:isolate" viewBox="717.3 380.44 133.12 24.64" width="133.12pt" height="24.64pt"><path d=" M 778.58 387.74 L 778.58 401.3 L 772.9 401.3 L 772.9 401.3 Q 771.88 403.1 769.77 404.09 L 769.77 404.09 L 769.77 404.09 Q 767.66 405.08 764.62 405.08 L 764.62 405.08 L 764.62 405.08 Q 762.98 405.08 761.75 404.71 L 761.75 404.71 L 761.75 404.71 Q 760.52 404.34 759.86 403.66 L 759.86 403.66 L 759.86 403.66 Q 759.2 402.98 759.2 402.1 L 759.2 402.1 L 759.2 402.1 Q 759.2 400.9 760.09 400.19 L 760.09 400.19 L 760.09 400.19 Q 760.98 399.48 762.6 399.48 L 762.6 399.48 L 771.12 399.48 L 771.12 399.48 Q 771.42 398.56 771.42 397.46 L 771.42 397.46 L 771.42 397.46 Q 771.42 396.38 771.07 395.51 L 771.07 395.51 L 771.07 395.51 Q 770.72 394.64 770.11 394.14 L 770.11 394.14 L 770.11 394.14 Q 769.5 393.64 768.72 393.62 L 768.72 393.62 L 768.72 393.9 L 768.72 393.9 Q 768.72 395.18 768.1 396.2 L 768.1 396.2 L 768.1 396.2 Q 767.48 397.22 766.35 397.79 L 766.35 397.79 L 766.35 397.79 Q 765.22 398.36 763.7 398.36 L 763.7 398.36 L 763.7 398.36 Q 762.38 398.36 761.4 397.93 L 761.4 397.93 L 761.4 397.93 Q 760.42 397.5 759.89 396.75 L 759.89 396.75 L 759.89 396.75 Q 759.36 396 759.36 395.02 L 759.36 395.02 L 759.36 395.02 Q 759.36 394.02 759.95 393.24 L 759.95 393.24 L 759.95 393.24 Q 760.54 392.46 761.62 392.08 L 761.62 392.08 L 761.62 387.74 L 772.06 387.74 L 772.42 389.56 L 768.72 389.56 L 768.72 391.78 L 768.72 391.78 Q 770.2 391.8 771.37 392.54 L 771.37 392.54 L 771.37 392.54 Q 772.54 393.28 773.2 394.57 L 773.2 394.57 L 773.2 394.57 Q 773.86 395.86 773.86 397.46 L 773.86 397.46 L 773.86 397.46 Q 773.86 398.52 773.62 399.48 L 773.62 399.48 L 776.26 399.48 L 776.26 387.74 L 778.58 387.74 L 778.58 387.74 Z  M 766.38 391.78 L 766.38 389.56 L 763.94 389.56 L 763.94 391.78 L 766.38 391.78 L 766.38 391.78 Z  M 763.7 396.44 L 763.7 396.44 Q 764.98 396.44 765.68 395.74 L 765.68 395.74 L 765.68 395.74 Q 766.38 395.04 766.38 393.9 L 766.38 393.9 L 766.38 393.62 L 763.64 393.62 L 763.64 393.62 Q 762.76 393.62 762.27 394 L 762.27 394 L 762.27 394 Q 761.78 394.38 761.78 395.02 L 761.78 395.02 L 761.78 395.02 Q 761.78 395.66 762.29 396.05 L 762.29 396.05 L 762.29 396.05 Q 762.8 396.44 763.7 396.44 L 763.7 396.44 L 763.7 396.44 Z  M 764.62 403.14 L 764.62 403.14 Q 768.32 403.14 770.06 401.3 L 770.06 401.3 L 762.66 401.3 L 762.66 401.3 Q 762.08 401.3 761.76 401.51 L 761.76 401.51 L 761.76 401.51 Q 761.44 401.72 761.44 402.1 L 761.44 402.1 L 761.44 402.1 Q 761.44 402.6 762.27 402.87 L 762.27 402.87 L 762.27 402.87 Q 763.1 403.14 764.62 403.14 L 764.62 403.14 L 764.62 403.14 Z  M 794.68 389.58 L 791.06 389.58 L 791.06 397.66 L 791.06 397.66 Q 791.06 398.5 790.98 399.04 L 790.98 399.04 L 790.98 399.04 Q 790.9 399.58 790.61 400 L 790.61 400 L 790.61 400 Q 790.32 400.42 789.7 400.66 L 789.7 400.66 L 783.72 403 L 782.84 401.04 L 787.72 399.12 L 787.72 399.12 Q 788.18 398.94 788.4 398.67 L 788.4 398.67 L 788.4 398.67 Q 788.62 398.4 788.68 398.02 L 788.68 398.02 L 788.68 398.02 Q 788.74 397.64 788.74 396.9 L 788.74 396.9 L 788.74 389.56 L 784.52 389.56 L 784.52 398 L 782.2 398 L 782.2 387.74 L 794.32 387.74 L 794.68 389.58 L 794.68 389.58 Z  M 787.5 385.6 L 787.5 385.6 Q 788.12 385.6 788.52 385.2 L 788.52 385.2 L 788.52 385.2 Q 788.92 384.8 788.92 384.2 L 788.92 384.2 L 788.92 384.2 Q 788.92 383.58 788.52 383.18 L 788.52 383.18 L 788.52 383.18 Q 788.12 382.78 787.5 382.78 L 787.5 382.78 L 787.5 382.78 Q 786.9 382.78 786.51 383.18 L 786.51 383.18 L 786.51 383.18 Q 786.12 383.58 786.12 384.2 L 786.12 384.2 L 786.12 384.2 Q 786.12 384.8 786.51 385.2 L 786.51 385.2 L 786.51 385.2 Q 786.9 385.6 787.5 385.6 L 787.5 385.6 L 787.5 385.6 Z  M 805.1 391.78 L 805.1 391.78 Q 807.1 391.78 808.26 392.69 L 808.26 392.69 L 808.26 392.69 Q 809.42 393.6 809.42 395.08 L 809.42 395.08 L 809.42 395.08 Q 809.42 396.04 808.87 396.78 L 808.87 396.78 L 808.87 396.78 Q 808.32 397.52 807.29 397.94 L 807.29 397.94 L 807.29 397.94 Q 806.26 398.36 804.88 398.36 L 804.88 398.36 L 804.88 396.52 L 804.88 396.52 Q 805.96 396.52 806.48 396.14 L 806.48 396.14 L 806.48 396.14 Q 807 395.76 807 395.08 L 807 395.08 L 807 395.08 Q 807 393.62 805.12 393.62 L 805.12 393.62 L 804.56 393.62 L 804.56 393.9 L 804.56 393.9 Q 804.56 395.18 803.94 396.2 L 803.94 396.2 L 803.94 396.2 Q 803.32 397.22 802.19 397.79 L 802.19 397.79 L 802.19 397.79 Q 801.06 398.36 799.54 398.36 L 799.54 398.36 L 799.54 398.36 Q 798.22 398.36 797.24 397.93 L 797.24 397.93 L 797.24 397.93 Q 796.26 397.5 795.73 396.75 L 795.73 396.75 L 795.73 396.75 Q 795.2 396 795.2 395.02 L 795.2 395.02 L 795.2 395.02 Q 795.2 394.02 795.79 393.24 L 795.79 393.24 L 795.79 393.24 Q 796.38 392.46 797.46 392.08 L 797.46 392.08 L 797.46 387.74 L 807.9 387.74 L 808.26 389.56 L 804.56 389.56 L 804.56 391.78 L 805.1 391.78 L 805.1 391.78 Z  M 802.22 391.78 L 802.22 389.56 L 799.78 389.56 L 799.78 391.78 L 802.22 391.78 L 802.22 391.78 Z  M 802.22 393.9 L 802.22 393.62 L 799.48 393.62 L 799.48 393.62 Q 798.6 393.62 798.11 394 L 798.11 394 L 798.11 394 Q 797.62 394.38 797.62 395.02 L 797.62 395.02 L 797.62 395.02 Q 797.62 395.66 798.13 396.05 L 798.13 396.05 L 798.13 396.05 Q 798.64 396.44 799.54 396.44 L 799.54 396.44 L 799.54 396.44 Q 800.82 396.44 801.52 395.74 L 801.52 395.74 L 801.52 395.74 Q 802.22 395.04 802.22 393.9 L 802.22 393.9 L 802.22 393.9 Z  M 802.5 385.6 L 802.5 385.6 Q 803.12 385.6 803.52 385.2 L 803.52 385.2 L 803.52 385.2 Q 803.92 384.8 803.92 384.2 L 803.92 384.2 L 803.92 384.2 Q 803.92 383.58 803.52 383.18 L 803.52 383.18 L 803.52 383.18 Q 803.12 382.78 802.5 382.78 L 802.5 382.78 L 802.5 382.78 Q 801.9 382.78 801.51 383.18 L 801.51 383.18 L 801.51 383.18 Q 801.12 383.58 801.12 384.2 L 801.12 384.2 L 801.12 384.2 Q 801.12 384.8 801.51 385.2 L 801.51 385.2 L 801.51 385.2 Q 801.9 385.6 802.5 385.6 L 802.5 385.6 L 802.5 385.6 Z  M 828.58 387.38 L 828.58 387.38 Q 830.34 387.38 831.6 388.04 L 831.6 388.04 L 831.6 388.04 Q 832.86 388.7 833.52 389.88 L 833.52 389.88 L 833.52 389.88 Q 834.18 391.06 834.18 392.58 L 834.18 392.58 L 834.18 392.58 Q 834.18 393.84 833.76 395.36 L 833.76 395.36 L 833.76 395.36 Q 833.34 396.88 832.5 398.28 L 832.5 398.28 L 830.12 398 L 830.12 398 Q 830.92 396.86 831.34 395.35 L 831.34 395.35 L 831.34 395.35 Q 831.76 393.84 831.76 392.58 L 831.76 392.58 L 831.76 392.58 Q 831.76 391.08 830.96 390.19 L 830.96 390.19 L 830.96 390.19 Q 830.16 389.3 828.58 389.3 L 828.58 389.3 L 828.58 389.3 Q 827.44 389.3 826.32 389.84 L 826.32 389.84 L 826.32 389.84 Q 827.46 390.78 828.1 391.96 L 828.1 391.96 L 828.1 391.96 Q 828.74 393.14 828.74 394.4 L 828.74 394.4 L 828.74 394.4 Q 828.74 395.54 828.24 396.44 L 828.24 396.44 L 828.24 396.44 Q 827.74 397.34 826.86 397.85 L 826.86 397.85 L 826.86 397.85 Q 825.98 398.36 824.84 398.36 L 824.84 398.36 L 824.84 398.36 Q 823.7 398.36 822.82 397.85 L 822.82 397.85 L 822.82 397.85 Q 821.94 397.34 821.45 396.44 L 821.45 396.44 L 821.45 396.44 Q 820.96 395.54 820.96 394.4 L 820.96 394.4 L 820.96 394.4 Q 820.96 393.24 821.43 392.11 L 821.43 392.11 L 821.43 392.11 Q 821.9 390.98 822.76 390.04 L 822.76 390.04 L 822.76 390.04 Q 821 389.3 818.9 389.3 L 818.9 389.3 L 818.9 389.3 Q 817.04 389.3 815.66 389.82 L 815.66 389.82 L 815.66 389.82 Q 814.28 390.34 813.55 391.26 L 813.55 391.26 L 813.55 391.26 Q 812.82 392.18 812.82 393.34 L 812.82 393.34 L 812.82 393.34 Q 812.82 394.14 813.16 394.82 L 813.16 394.82 L 813.16 394.82 Q 813.26 393.5 814.22 392.65 L 814.22 392.65 L 814.22 392.65 Q 815.18 391.8 816.58 391.8 L 816.58 391.8 L 816.58 391.8 Q 817.64 391.8 818.49 392.23 L 818.49 392.23 L 818.49 392.23 Q 819.34 392.66 819.82 393.41 L 819.82 393.41 L 819.82 393.41 Q 820.3 394.16 820.3 395.1 L 820.3 395.1 L 820.3 395.1 Q 820.3 396.04 819.79 396.78 L 819.79 396.78 L 819.79 396.78 Q 819.28 397.52 818.37 397.94 L 818.37 397.94 L 818.37 397.94 Q 817.46 398.36 816.32 398.36 L 816.32 398.36 L 816.32 398.36 Q 814.62 398.36 813.27 397.72 L 813.27 397.72 L 813.27 397.72 Q 811.92 397.08 811.16 395.94 L 811.16 395.94 L 811.16 395.94 Q 810.4 394.8 810.4 393.34 L 810.4 393.34 L 810.4 393.34 Q 810.4 391.64 811.44 390.28 L 811.44 390.28 L 811.44 390.28 Q 812.48 388.92 814.41 388.15 L 814.41 388.15 L 814.41 388.15 Q 816.34 387.38 818.9 387.38 L 818.9 387.38 L 818.9 387.38 Q 821.9 387.38 824.44 388.62 L 824.44 388.62 L 824.44 388.62 Q 825.36 388.04 826.42 387.71 L 826.42 387.71 L 826.42 387.71 Q 827.48 387.38 828.58 387.38 L 828.58 387.38 L 828.58 387.38 Z  M 824.84 396.44 L 824.84 396.44 Q 825.54 396.44 825.92 395.87 L 825.92 395.87 L 825.92 395.87 Q 826.3 395.3 826.3 394.4 L 826.3 394.4 L 826.3 394.4 Q 826.3 393.48 825.86 392.65 L 825.86 392.65 L 825.86 392.65 Q 825.42 391.82 824.64 391.16 L 824.64 391.16 L 824.64 391.16 Q 824.04 391.84 823.71 392.67 L 823.71 392.67 L 823.71 392.67 Q 823.38 393.5 823.38 394.4 L 823.38 394.4 L 823.38 394.4 Q 823.38 395.28 823.77 395.86 L 823.77 395.86 L 823.77 395.86 Q 824.16 396.44 824.84 396.44 L 824.84 396.44 L 824.84 396.44 Z  M 816.62 393.64 L 816.62 393.64 Q 816 393.64 815.6 394.05 L 815.6 394.05 L 815.6 394.05 Q 815.2 394.46 815.2 395.1 L 815.2 395.1 L 815.2 395.1 Q 815.2 395.72 815.6 396.12 L 815.6 396.12 L 815.6 396.12 Q 816 396.52 816.62 396.52 L 816.62 396.52 L 816.62 396.52 Q 817.24 396.52 817.65 396.12 L 817.65 396.12 L 817.65 396.12 Q 818.06 395.72 818.06 395.1 L 818.06 395.1 L 818.06 395.1 Q 818.06 394.48 817.65 394.06 L 817.65 394.06 L 817.65 394.06 Q 817.24 393.64 816.62 393.64 L 816.62 393.64 L 816.62 393.64 Z  M 846.1 391.78 L 846.1 391.78 Q 848.1 391.78 849.26 392.69 L 849.26 392.69 L 849.26 392.69 Q 850.42 393.6 850.42 395.08 L 850.42 395.08 L 850.42 395.08 Q 850.42 396.04 849.87 396.78 L 849.87 396.78 L 849.87 396.78 Q 849.32 397.52 848.29 397.94 L 848.29 397.94 L 848.29 397.94 Q 847.26 398.36 845.88 398.36 L 845.88 398.36 L 845.88 396.52 L 845.88 396.52 Q 846.96 396.52 847.48 396.14 L 847.48 396.14 L 847.48 396.14 Q 848 395.76 848 395.08 L 848 395.08 L 848 395.08 Q 848 393.62 846.12 393.62 L 846.12 393.62 L 845.56 393.62 L 845.56 393.9 L 845.56 393.9 Q 845.56 395.18 844.94 396.2 L 844.94 396.2 L 844.94 396.2 Q 844.32 397.22 843.19 397.79 L 843.19 397.79 L 843.19 397.79 Q 842.06 398.36 840.54 398.36 L 840.54 398.36 L 840.54 398.36 Q 839.22 398.36 838.24 397.93 L 838.24 397.93 L 838.24 397.93 Q 837.26 397.5 836.73 396.75 L 836.73 396.75 L 836.73 396.75 Q 836.2 396 836.2 395.02 L 836.2 395.02 L 836.2 395.02 Q 836.2 394.02 836.79 393.24 L 836.79 393.24 L 836.79 393.24 Q 837.38 392.46 838.46 392.08 L 838.46 392.08 L 838.46 387.74 L 848.9 387.74 L 849.26 389.56 L 845.56 389.56 L 845.56 391.78 L 846.1 391.78 L 846.1 391.78 Z  M 843.22 391.78 L 843.22 389.56 L 840.78 389.56 L 840.78 391.78 L 843.22 391.78 L 843.22 391.78 Z  M 843.22 393.9 L 843.22 393.62 L 840.48 393.62 L 840.48 393.62 Q 839.6 393.62 839.11 394 L 839.11 394 L 839.11 394 Q 838.62 394.38 838.62 395.02 L 838.62 395.02 L 838.62 395.02 Q 838.62 395.66 839.13 396.05 L 839.13 396.05 L 839.13 396.05 Q 839.64 396.44 840.54 396.44 L 840.54 396.44 L 840.54 396.44 Q 841.82 396.44 842.52 395.74 L 842.52 395.74 L 842.52 395.74 Q 843.22 395.04 843.22 393.9 L 843.22 393.9 L 843.22 393.9 Z  M 749.44 391.08 L 749.44 391.08 Q 750.64 391.08 751.56 391.73 L 751.56 391.73 L 751.56 391.73 Q 752.48 392.38 752.98 393.53 L 752.98 393.53 L 752.98 393.53 Q 753.48 394.68 753.48 396.12 L 753.48 396.12 L 753.48 396.12 Q 753.48 398.44 752.19 400.15 L 752.19 400.15 L 752.19 400.15 Q 750.9 401.86 748.52 402.79 L 748.52 402.79 L 748.52 402.79 Q 746.14 403.72 742.92 403.72 L 742.92 403.72 L 727.78 403.72 L 727.78 403.72 Q 724.68 403.72 722.3 402.59 L 722.3 402.59 L 722.3 402.59 Q 719.92 401.46 718.61 399.39 L 718.61 399.39 L 718.61 399.39 Q 717.3 397.32 717.3 394.6 L 717.3 394.6 L 717.3 394.6 Q 717.3 392.7 718.12 390.7 L 718.12 390.7 L 718.12 390.7 Q 718.94 388.7 720.2 387.54 L 720.2 387.54 L 722.58 387.74 L 722.58 387.74 Q 721.34 388.78 720.53 390.71 L 720.53 390.71 L 720.53 390.71 Q 719.72 392.64 719.72 394.64 L 719.72 394.64 L 719.72 394.64 Q 719.72 396.78 720.72 398.41 L 720.72 398.41 L 720.72 398.41 Q 721.72 400.04 723.54 400.95 L 723.54 400.95 L 723.54 400.95 Q 725.36 401.86 727.78 401.88 L 727.78 401.88 L 742.92 401.88 L 742.92 401.88 Q 745.42 401.88 747.26 401.17 L 747.26 401.17 L 747.26 401.17 Q 749.1 400.46 750.07 399.16 L 750.07 399.16 L 750.07 399.16 Q 751.04 397.86 751.04 396.12 L 751.04 396.12 L 751.04 396.12 Q 751.04 394.76 750.54 393.92 L 750.54 393.92 L 750.54 393.92 Q 750.04 393.08 749.16 393.08 L 749.16 393.08 L 749.16 393.08 Q 748.44 393.08 747.97 393.52 L 747.97 393.52 L 747.97 393.52 Q 747.5 393.96 747.5 394.62 L 747.5 394.62 L 747.5 398 L 745.18 398 L 745.18 389.56 L 740.94 389.56 L 740.94 398 L 738.62 398 L 738.62 392.56 L 738.62 392.56 Q 738.62 391.06 738.03 390.18 L 738.03 390.18 L 738.03 390.18 Q 737.44 389.3 736.22 389.3 L 736.22 389.3 L 736.22 389.3 Q 735.14 389.3 734.68 390 L 734.68 390 L 734.68 390 Q 734.22 390.7 734.22 391.96 L 734.22 391.96 L 734.22 398 L 723.76 398 L 723.76 387.74 L 726.08 387.64 L 726.08 396.18 L 731.9 396.18 L 731.9 391.86 L 731.9 391.86 Q 731.9 389.82 732.96 388.6 L 732.96 388.6 L 732.96 388.6 Q 734.02 387.38 736.1 387.38 L 736.1 387.38 L 736.1 387.38 Q 737.56 387.38 738.62 388.38 L 738.62 388.38 L 738.62 387.74 L 743.7 387.74 L 743.7 387.74 Q 742.8 386.62 742.8 385.1 L 742.8 385.1 L 742.8 385.1 Q 742.8 383.76 743.49 382.7 L 743.49 382.7 L 743.49 382.7 Q 744.18 381.64 745.45 381.04 L 745.45 381.04 L 745.45 381.04 Q 746.72 380.44 748.4 380.44 L 748.4 380.44 L 748.4 380.44 Q 749.76 380.44 750.9 380.95 L 750.9 380.95 L 750.9 380.95 Q 752.04 381.46 752.71 382.35 L 752.71 382.35 L 752.71 382.35 Q 753.38 383.24 753.38 384.34 L 753.38 384.34 L 753.38 384.34 Q 753.38 385.48 752.58 386.22 L 752.58 386.22 L 752.58 386.22 Q 751.78 386.96 750.56 386.96 L 750.56 386.96 L 750.56 386.96 Q 749.36 386.96 748.56 386.23 L 748.56 386.23 L 748.56 386.23 Q 747.76 385.5 747.76 384.4 L 747.76 384.4 L 747.76 384.4 Q 747.76 383.76 748.02 383.25 L 748.02 383.25 L 748.02 383.25 Q 748.28 382.74 748.74 382.38 L 748.74 382.38 L 748.4 382.38 L 748.4 382.38 Q 746.92 382.38 746.07 383.13 L 746.07 383.13 L 746.07 383.13 Q 745.22 383.88 745.22 385.1 L 745.22 385.1 L 745.22 385.1 Q 745.22 386.28 745.96 387.01 L 745.96 387.01 L 745.96 387.01 Q 746.7 387.74 747.84 387.74 L 747.84 387.74 L 750.76 387.74 L 751.12 389.56 L 747.5 389.56 L 747.5 391.56 L 747.5 391.56 Q 748.4 391.08 749.44 391.08 L 749.44 391.08 L 749.44 391.08 Z  M 750.56 385.42 L 750.56 385.42 Q 751 385.42 751.29 385.13 L 751.29 385.13 L 751.29 385.13 Q 751.58 384.84 751.58 384.4 L 751.58 384.4 L 751.58 384.4 Q 751.58 383.98 751.29 383.69 L 751.29 383.69 L 751.29 383.69 Q 751 383.4 750.56 383.4 L 750.56 383.4 L 750.56 383.4 Q 750.12 383.4 749.83 383.69 L 749.83 383.69 L 749.83 383.69 Q 749.54 383.98 749.54 384.4 L 749.54 384.4 L 749.54 384.4 Q 749.54 384.84 749.83 385.13 L 749.83 385.13 L 749.83 385.13 Q 750.12 385.42 750.56 385.42 L 750.56 385.42 L 750.56 385.42 Z " fill="rgb(255,255,255)"/></svg>