<?xml version="1.0" encoding="UTF-8" standalone="no"?><!-- Generator: Gravit.io --><svg xmlns="http://www.w3.org/2000/svg" xmlns:xlink="http://www.w3.org/1999/xlink" style="isolation:isolate" viewBox="41 -120 93 135.813" width="93pt" height="135.813pt"><g><path d=" M 81.851 14.423 C 79.495 12.986 78.618 11.34 74.771 1.128 C 71.339 -7.984 69.431 -9.324 58.78 -10.106 C 54.776 -10.4 51.498 -10.847 51.495 -11.1 C 51.492 -11.353 49.129 -34.678 46.245 -62.934 C 43.36 -91.189 41 -114.561 41 -114.871 C 41 -115.181 48.227 -115.435 57.061 -115.435 L 73.122 -115.435 L 73.566 -109.997 C 74.08 -103.695 77.758 -27.938 77.753 -23.747 L 77.75 -20.935 L 88.25 -20.935 L 98.75 -20.935 L 98.744 -24.872 C 98.735 -30.747 101.692 -103.708 102.194 -109.997 L 102.628 -115.435 L 118.314 -115.435 C 132.418 -115.435 134 -115.309 134 -114.192 C 134 -113.508 132.672 -99.755 131.05 -83.629 C 129.427 -67.504 127.164 -44.649 126.021 -32.841 L 123.944 -11.373 L 117.159 -11.017 C 106.094 -10.435 102.214 -7.661 99.836 1.371 C 97.113 11.711 93.643 15.817 87.63 15.813 C 85.545 15.811 83.204 15.248 81.851 14.423 L 81.851 14.423 Z  M 92.47 12.183 C 94.72 10.302 96.086 7.298 97.638 0.815 C 98.712 -3.672 99.534 -5.363 101.7 -7.544 C 104.985 -10.85 110.538 -12.685 117.261 -12.685 C 120.89 -12.685 122 -12.938 122 -13.767 C 122 -15.458 131.691 -108.011 132.155 -110.747 L 132.568 -113.185 L 118.673 -113.185 C 104.862 -113.185 104.777 -113.173 104.449 -111.497 C 104.268 -110.569 103.41 -91.753 102.544 -69.685 C 101.677 -47.616 100.767 -27.113 100.521 -24.122 L 100.074 -18.685 L 88.521 -18.685 C 77.241 -18.685 76.952 -18.725 76.29 -20.372 C 75.918 -21.3 75.232 -32.86 74.767 -46.06 C 74.302 -59.26 73.434 -79.678 72.838 -91.435 C 72.242 -103.191 71.754 -112.894 71.752 -112.997 C 71.751 -113.1 65.334 -113.185 57.491 -113.185 L 43.232 -113.185 L 43.635 -110.372 C 44.617 -103.509 53 -16.033 53 -12.647 C 53 -12.255 55.008 -11.935 57.463 -11.935 C 59.918 -11.935 63.715 -11.552 65.901 -11.085 C 71.418 -9.906 73.698 -7.222 77.307 2.34 C 80.833 11.682 82.543 13.576 87.422 13.54 C 89.602 13.523 91.463 13.024 92.47 12.183 L 92.47 12.183 Z  M 84.999 -24.161 C 80.847 -25.935 80.871 -24.656 84.059 -73.961 C 85.68 -99.04 87.118 -119.7 87.253 -119.872 C 87.389 -120.044 87.642 -120.042 87.816 -119.869 C 88.416 -119.27 94.28 -27.885 93.799 -26.634 C 93.287 -25.298 89.722 -23.163 88.1 -23.22 C 87.564 -23.239 86.168 -23.662 84.999 -24.162 L 84.999 -24.161 Z " fill="rgb(255,255,255)"/></g></svg>