<?xml version="1.0" encoding="UTF-8" standalone="no"?><!-- Generator: Gravit.io --><svg xmlns="http://www.w3.org/2000/svg" xmlns:xlink="http://www.w3.org/1999/xlink" style="isolation:isolate" viewBox="808.5 637.5 185.539 57" width="185.539pt" height="57pt"><path d=" M 815.721 685.32 L 813.356 672.202 L 815.834 672.202 L 817.243 681.109 L 818.555 672.202 L 821.178 672.202 L 818.781 685.32 L 815.721 685.32 L 815.721 685.32 Z  M 824.289 685.32 L 824.289 672.202 L 830.184 672.202 L 830.184 674.178 L 827.188 674.178 L 827.188 677.433 L 829.471 677.433 L 829.471 679.441 L 827.188 679.441 L 827.188 683.36 L 830.216 683.36 L 830.216 685.32 L 824.289 685.32 L 824.289 685.32 Z  M 833.327 685.32 L 833.327 672.202 L 835.368 672.202 L 838.056 678.518 L 838.056 672.202 L 840.453 672.202 L 840.453 685.32 L 838.493 685.32 L 835.805 678.518 L 835.805 685.32 L 833.327 685.32 L 833.327 685.32 Z  M 844.212 685.32 L 844.212 672.202 L 847.111 672.202 L 847.111 677.563 L 849.313 672.202 L 852.147 672.202 L 849.718 678.13 L 852.26 685.32 L 849.313 685.32 L 847.418 679.522 L 847.111 680.04 L 847.111 685.32 L 844.212 685.32 L 844.212 685.32 Z  M 854.562 685.32 L 857.04 672.202 L 860.343 672.202 L 862.789 685.32 L 860.117 685.32 L 859.679 682.551 L 857.752 682.551 L 857.299 685.32 L 854.562 685.32 L 854.562 685.32 Z  M 858.011 680.818 L 859.404 680.818 L 858.708 675.7 L 858.011 680.818 L 858.011 680.818 Z  M 866.402 685.32 L 866.402 674.356 L 864.426 674.356 L 864.426 672.202 L 871.276 672.202 L 871.276 674.356 L 869.317 674.356 L 869.317 685.32 L 866.402 685.32 L 866.402 685.32 Z  M 873.011 685.32 L 875.489 672.202 L 878.792 672.202 L 881.238 685.32 L 878.565 685.32 L 878.128 682.551 L 876.201 682.551 L 875.748 685.32 L 873.011 685.32 L 873.011 685.32 Z  M 876.46 680.818 L 877.853 680.818 L 877.157 675.7 L 876.46 680.818 L 876.46 680.818 Z  M 887.911 685.514 L 887.911 685.514 Q 885.774 685.514 884.875 684.389 L 884.875 684.389 L 884.875 684.389 Q 883.976 683.263 883.976 681.142 L 883.976 681.142 L 883.976 676.413 L 883.976 676.413 Q 883.976 674.243 884.867 673.134 L 884.867 673.134 L 884.867 673.134 Q 885.758 672.024 887.911 672.024 L 887.911 672.024 L 887.911 672.024 Q 889.968 672.024 890.826 673.012 L 890.826 673.012 L 890.826 673.012 Q 891.685 674 891.685 675.814 L 891.685 675.814 L 891.685 676.947 L 888.851 676.947 L 888.851 675.636 L 888.851 675.636 Q 888.851 674.874 888.689 674.47 L 888.689 674.47 L 888.689 674.47 Q 888.527 674.065 887.911 674.065 L 887.911 674.065 L 887.911 674.065 Q 887.296 674.065 887.102 674.494 L 887.102 674.494 L 887.102 674.494 Q 886.907 674.923 886.907 675.684 L 886.907 675.684 L 886.907 681.854 L 886.907 681.854 Q 886.907 682.632 887.11 683.045 L 887.11 683.045 L 887.11 683.045 Q 887.312 683.457 887.911 683.457 L 887.911 683.457 L 887.911 683.457 Q 888.511 683.457 888.681 683.045 L 888.681 683.045 L 888.681 683.045 Q 888.851 682.632 888.851 681.854 L 888.851 681.854 L 888.851 680.478 L 891.685 680.478 L 891.685 681.611 L 891.685 681.611 Q 891.685 683.457 890.826 684.486 L 890.826 684.486 L 890.826 684.486 Q 889.968 685.514 887.911 685.514 L 887.911 685.514 L 887.911 685.514 Z  M 895.12 685.32 L 895.12 672.202 L 898.018 672.202 L 898.018 677.514 L 900.043 677.514 L 900.043 672.202 L 902.958 672.202 L 902.958 685.32 L 900.043 685.32 L 900.043 679.587 L 898.018 679.587 L 898.018 685.32 L 895.12 685.32 L 895.12 685.32 Z  M 906.117 685.32 L 908.595 672.202 L 911.899 672.202 L 914.344 685.32 L 911.672 685.32 L 911.235 682.551 L 909.308 682.551 L 908.854 685.32 L 906.117 685.32 L 906.117 685.32 Z  M 909.567 680.818 L 910.96 680.818 L 910.263 675.7 L 909.567 680.818 L 909.567 680.818 Z  M 917.471 685.32 L 917.471 672.202 L 920.37 672.202 L 920.37 683.36 L 923.382 683.36 L 923.382 685.32 L 917.471 685.32 L 917.471 685.32 Z  M 925.813 685.32 L 928.291 672.202 L 931.595 672.202 L 934.04 685.32 L 931.368 685.32 L 930.931 682.551 L 929.004 682.551 L 928.55 685.32 L 925.813 685.32 L 925.813 685.32 Z  M 929.263 680.818 L 930.655 680.818 L 929.959 675.7 L 929.263 680.818 L 929.263 680.818 Z  M 937.167 685.32 L 937.167 672.202 L 941.572 672.202 L 941.572 672.202 Q 943.305 672.202 944.163 673.182 L 944.163 673.182 L 944.163 673.182 Q 945.022 674.162 945.022 676.008 L 945.022 676.008 L 945.022 676.008 Q 945.022 678.113 944.026 678.931 L 944.026 678.931 L 944.026 678.931 Q 943.03 679.749 941.232 679.749 L 941.232 679.749 L 940.066 679.749 L 940.066 685.32 L 937.167 685.32 L 937.167 685.32 Z  M 940.066 677.725 L 941.038 677.725 L 941.038 677.725 Q 941.799 677.725 942.05 677.32 L 942.05 677.32 L 942.05 677.32 Q 942.301 676.915 942.301 675.96 L 942.301 675.96 L 942.301 675.96 Q 942.301 675.085 942.058 674.664 L 942.058 674.664 L 942.058 674.664 Q 941.815 674.243 941.022 674.243 L 941.022 674.243 L 940.066 674.243 L 940.066 677.725 L 940.066 677.725 Z  M 946.821 685.32 L 949.299 672.202 L 952.602 672.202 L 955.048 685.32 L 952.376 685.32 L 951.938 682.551 L 950.011 682.551 L 949.558 685.32 L 946.821 685.32 L 946.821 685.32 Z  M 950.27 680.818 L 951.663 680.818 L 950.967 675.7 L 950.27 680.818 L 950.27 680.818 Z  M 958.661 685.32 L 958.661 674.356 L 956.685 674.356 L 956.685 672.202 L 963.535 672.202 L 963.535 674.356 L 961.576 674.356 L 961.576 685.32 L 958.661 685.32 L 958.661 685.32 Z  M 966.533 685.32 L 966.533 672.202 L 969.432 672.202 L 969.432 677.514 L 971.456 677.514 L 971.456 672.202 L 974.371 672.202 L 974.371 685.32 L 971.456 685.32 L 971.456 679.587 L 969.432 679.587 L 969.432 685.32 L 966.533 685.32 L 966.533 685.32 Z  M 979.814 685.32 L 979.814 679.96 L 977.32 672.202 L 980.057 672.202 L 981.304 676.348 L 982.422 672.202 L 985.045 672.202 L 982.6 679.96 L 982.6 685.32 L 979.814 685.32 L 979.814 685.32 Z  M 848.23 661.32 L 848.23 648.202 L 851.129 648.202 L 851.129 653.563 L 853.331 648.202 L 856.165 648.202 L 853.736 654.13 L 856.278 661.32 L 853.331 661.32 L 851.436 655.522 L 851.129 656.04 L 851.129 661.32 L 848.23 661.32 L 848.23 661.32 Z  M 862.985 661.514 L 862.985 661.514 Q 861.511 661.514 860.653 661.036 L 860.653 661.036 L 860.653 661.036 Q 859.794 660.559 859.446 659.628 L 859.446 659.628 L 859.446 659.628 Q 859.098 658.696 859.098 657.255 L 859.098 657.255 L 859.098 648.202 L 861.964 648.202 L 861.964 657.692 L 861.964 657.692 Q 861.964 658.486 862.167 658.955 L 862.167 658.955 L 862.167 658.955 Q 862.369 659.425 862.985 659.425 L 862.985 659.425 L 862.985 659.425 Q 863.6 659.425 863.794 658.955 L 863.794 658.955 L 863.794 658.955 Q 863.989 658.486 863.989 657.692 L 863.989 657.692 L 863.989 648.202 L 866.871 648.202 L 866.871 657.255 L 866.871 657.255 Q 866.871 658.696 866.515 659.628 L 866.515 659.628 L 866.515 659.628 Q 866.159 660.559 865.309 661.036 L 865.309 661.036 L 865.309 661.036 Q 864.458 661.514 862.985 661.514 L 862.985 661.514 L 862.985 661.514 Z  M 870.517 661.32 L 870.517 648.202 L 873.934 648.202 L 873.934 648.202 Q 875.213 648.202 876.112 648.47 L 876.112 648.47 L 876.112 648.47 Q 877.011 648.737 877.561 649.498 L 877.561 649.498 L 877.561 649.498 Q 878.112 650.259 878.112 651.636 L 878.112 651.636 L 878.112 651.636 Q 878.112 652.802 877.61 653.449 L 877.61 653.449 L 877.61 653.449 Q 877.108 654.097 876.185 654.275 L 876.185 654.275 L 876.185 654.275 Q 877.318 654.421 877.918 655.231 L 877.918 655.231 L 877.918 655.231 Q 878.517 656.04 878.517 657.433 L 878.517 657.433 L 878.517 657.433 Q 878.517 661.32 874.549 661.32 L 874.549 661.32 L 870.517 661.32 L 870.517 661.32 Z  M 873.416 653.449 L 873.982 653.449 L 873.982 653.449 Q 874.906 653.449 875.238 653.028 L 875.238 653.028 L 875.238 653.028 Q 875.57 652.607 875.57 651.717 L 875.57 651.717 L 875.57 651.717 Q 875.57 650.939 875.148 650.543 L 875.148 650.543 L 875.148 650.543 Q 874.727 650.146 873.918 650.146 L 873.918 650.146 L 873.416 650.146 L 873.416 653.449 L 873.416 653.449 Z  M 873.416 659.296 L 874.031 659.296 L 874.031 659.296 Q 874.954 659.296 875.335 658.834 L 875.335 658.834 L 875.335 658.834 Q 875.715 658.372 875.715 657.385 L 875.715 657.385 L 875.715 657.385 Q 875.715 656.267 875.335 655.814 L 875.335 655.814 L 875.335 655.814 Q 874.954 655.36 874.015 655.36 L 874.015 655.36 L 873.416 655.36 L 873.416 659.296 L 873.416 659.296 Z  M 881.839 661.32 L 881.839 648.202 L 887.733 648.202 L 887.733 650.178 L 884.737 650.178 L 884.737 653.433 L 887.021 653.433 L 887.021 655.441 L 884.737 655.441 L 884.737 659.36 L 887.766 659.36 L 887.766 661.32 L 881.839 661.32 L 881.839 661.32 Z  M 890.877 661.32 L 890.877 648.202 L 894.488 648.202 L 894.488 648.202 Q 896.642 648.202 897.743 648.964 L 897.743 648.964 L 897.743 648.964 Q 898.844 649.725 898.844 651.668 L 898.844 651.668 L 898.844 651.668 Q 898.844 652.98 898.504 653.757 L 898.504 653.757 L 898.504 653.757 Q 898.164 654.534 897.241 654.972 L 897.241 654.972 L 899.039 661.32 L 896.043 661.32 L 894.601 655.441 L 893.776 655.441 L 893.776 661.32 L 890.877 661.32 L 890.877 661.32 Z  M 893.776 653.773 L 894.585 653.773 L 894.585 653.773 Q 895.46 653.773 895.808 653.312 L 895.808 653.312 L 895.808 653.312 Q 896.156 652.85 896.156 651.927 L 896.156 651.927 L 896.156 651.927 Q 896.156 651.036 895.832 650.591 L 895.832 650.591 L 895.832 650.591 Q 895.508 650.146 894.715 650.146 L 894.715 650.146 L 893.776 650.146 L 893.776 653.773 L 893.776 653.773 Z  M 901.761 661.32 L 904.239 648.202 L 907.543 648.202 L 909.988 661.32 L 907.316 661.32 L 906.879 658.551 L 904.951 658.551 L 904.498 661.32 L 901.761 661.32 L 901.761 661.32 Z  M 905.211 656.818 L 906.603 656.818 L 905.907 651.7 L 905.211 656.818 L 905.211 656.818 Z  M 817.453 661.514 L 817.453 661.514 Q 815.575 661.514 814.66 660.518 L 814.66 660.518 L 814.66 660.518 Q 813.745 659.522 813.68 657.352 L 813.68 657.352 L 816.158 656.98 L 816.158 656.98 Q 816.174 658.227 816.457 658.769 L 816.457 658.769 L 816.457 658.769 Q 816.741 659.312 817.308 659.312 L 817.308 659.312 L 817.308 659.312 Q 818.036 659.312 818.036 658.356 L 818.036 658.356 L 818.036 658.356 Q 818.036 657.595 817.688 657.045 L 817.688 657.045 L 817.688 657.045 Q 817.34 656.494 816.595 655.862 L 816.595 655.862 L 815.462 654.874 L 815.462 654.874 Q 814.619 654.162 814.158 653.36 L 814.158 653.36 L 814.158 653.36 Q 813.696 652.559 813.696 651.457 L 813.696 651.457 L 813.696 651.457 Q 813.696 649.806 814.676 648.915 L 814.676 648.915 L 814.676 648.915 Q 815.656 648.024 817.372 648.024 L 817.372 648.024 L 817.372 648.024 Q 819.235 648.024 819.907 649.109 L 819.907 649.109 L 819.907 649.109 Q 820.579 650.194 820.628 651.749 L 820.628 651.749 L 818.134 652.057 L 818.134 652.057 Q 818.101 651.036 817.947 650.591 L 817.947 650.591 L 817.947 650.591 Q 817.794 650.146 817.275 650.146 L 817.275 650.146 L 817.275 650.146 Q 816.903 650.146 816.7 650.462 L 816.7 650.462 L 816.7 650.462 Q 816.498 650.777 816.498 651.166 L 816.498 651.166 L 816.498 651.166 Q 816.498 651.83 816.798 652.283 L 816.798 652.283 L 816.798 652.283 Q 817.097 652.737 817.761 653.32 L 817.761 653.32 L 818.846 654.275 L 818.846 654.275 Q 819.818 655.101 820.352 656.024 L 820.352 656.024 L 820.352 656.024 Q 820.887 656.947 820.887 658.211 L 820.887 658.211 L 820.887 658.211 Q 820.887 659.134 820.457 659.887 L 820.457 659.887 L 820.457 659.887 Q 820.028 660.64 819.251 661.077 L 819.251 661.077 L 819.251 661.077 Q 818.474 661.514 817.453 661.514 L 817.453 661.514 L 817.453 661.514 Z  M 824.095 661.32 L 824.095 648.202 L 827.706 648.202 L 827.706 648.202 Q 829.86 648.202 830.961 648.964 L 830.961 648.964 L 830.961 648.964 Q 832.063 649.725 832.063 651.668 L 832.063 651.668 L 832.063 651.668 Q 832.063 652.98 831.722 653.757 L 831.722 653.757 L 831.722 653.757 Q 831.382 654.534 830.459 654.972 L 830.459 654.972 L 832.257 661.32 L 829.261 661.32 L 827.82 655.441 L 826.994 655.441 L 826.994 661.32 L 824.095 661.32 L 824.095 661.32 Z  M 826.994 653.773 L 827.803 653.773 L 827.803 653.773 Q 828.678 653.773 829.026 653.312 L 829.026 653.312 L 829.026 653.312 Q 829.374 652.85 829.374 651.927 L 829.374 651.927 L 829.374 651.927 Q 829.374 651.036 829.05 650.591 L 829.05 650.591 L 829.05 650.591 Q 828.726 650.146 827.933 650.146 L 827.933 650.146 L 826.994 650.146 L 826.994 653.773 L 826.994 653.773 Z  M 835.627 661.32 L 835.627 648.202 L 838.526 648.202 L 838.526 661.32 L 835.627 661.32 L 835.627 661.32 Z " fill="rgb(255,255,255)" vector-effect="non-scaling-stroke" stroke-width="1" stroke="rgb(152,0,0)" stroke-linejoin="miter" stroke-linecap="square" stroke-miterlimit="3"/></svg>