<?xml version="1.0" encoding="UTF-8" standalone="no"?><!-- Generator: Gravit.io --><svg xmlns="http://www.w3.org/2000/svg" xmlns:xlink="http://www.w3.org/1999/xlink" style="isolation:isolate" viewBox="581.7 390.7 289.302 134.6" width="289.302pt" height="134.6pt"><path d=" M 586.296 515.76 L 586.296 498.27 L 590.722 498.27 L 590.722 498.27 Q 592.989 498.27 594.263 498.831 L 594.263 498.831 L 594.263 498.831 Q 595.537 499.393 596.066 500.591 L 596.066 500.591 L 596.066 500.591 Q 596.595 501.789 596.595 503.798 L 596.595 503.798 L 596.595 510.146 L 596.595 510.146 Q 596.595 512.175 596.066 513.385 L 596.066 513.385 L 596.066 513.385 Q 595.537 514.594 594.274 515.177 L 594.274 515.177 L 594.274 515.177 Q 593.011 515.76 590.765 515.76 L 590.765 515.76 L 586.296 515.76 L 586.296 515.76 Z  M 590.161 513.082 L 590.765 513.082 L 590.765 513.082 Q 591.607 513.082 592.007 512.834 L 592.007 512.834 L 592.007 512.834 Q 592.406 512.586 592.514 512.121 L 592.514 512.121 L 592.514 512.121 Q 592.622 511.657 592.622 510.75 L 592.622 510.75 L 592.622 503.128 L 592.622 503.128 Q 592.622 502.286 592.503 501.843 L 592.503 501.843 L 592.503 501.843 Q 592.385 501.401 591.985 501.185 L 591.985 501.185 L 591.985 501.185 Q 591.586 500.969 590.744 500.969 L 590.744 500.969 L 590.161 500.969 L 590.161 513.082 L 590.161 513.082 Z  M 600.912 515.76 L 600.912 498.27 L 608.771 498.27 L 608.771 500.904 L 604.777 500.904 L 604.777 505.244 L 607.821 505.244 L 607.821 507.922 L 604.777 507.922 L 604.777 513.147 L 608.815 513.147 L 608.815 515.76 L 600.912 515.76 L 600.912 515.76 Z  M 614.858 515.76 L 611.706 498.27 L 615.01 498.27 L 616.888 510.146 L 618.637 498.27 L 622.135 498.27 L 618.939 515.76 L 614.858 515.76 L 614.858 515.76 Z  M 624.336 515.76 L 627.639 498.27 L 632.044 498.27 L 635.305 515.76 L 631.742 515.76 L 631.159 512.067 L 628.589 512.067 L 627.985 515.76 L 624.336 515.76 L 624.336 515.76 Z  M 628.935 509.757 L 630.792 509.757 L 629.863 502.934 L 628.935 509.757 L 628.935 509.757 Z  M 643.508 516.019 L 643.508 516.019 Q 641.003 516.019 639.783 514.691 L 639.783 514.691 L 639.783 514.691 Q 638.563 513.363 638.477 510.47 L 638.477 510.47 L 641.78 509.973 L 641.78 509.973 Q 641.802 511.636 642.18 512.359 L 642.18 512.359 L 642.18 512.359 Q 642.558 513.082 643.313 513.082 L 643.313 513.082 L 643.313 513.082 Q 644.285 513.082 644.285 511.808 L 644.285 511.808 L 644.285 511.808 Q 644.285 510.794 643.821 510.059 L 643.821 510.059 L 643.821 510.059 Q 643.357 509.325 642.363 508.483 L 642.363 508.483 L 640.852 507.166 L 640.852 507.166 Q 639.729 506.216 639.114 505.147 L 639.114 505.147 L 639.114 505.147 Q 638.498 504.078 638.498 502.61 L 638.498 502.61 L 638.498 502.61 Q 638.498 500.408 639.805 499.22 L 639.805 499.22 L 639.805 499.22 Q 641.111 498.032 643.4 498.032 L 643.4 498.032 L 643.4 498.032 Q 645.883 498.032 646.779 499.479 L 646.779 499.479 L 646.779 499.479 Q 647.675 500.926 647.74 502.999 L 647.74 502.999 L 644.415 503.409 L 644.415 503.409 Q 644.371 502.049 644.166 501.455 L 644.166 501.455 L 644.166 501.455 Q 643.961 500.861 643.27 500.861 L 643.27 500.861 L 643.27 500.861 Q 642.774 500.861 642.504 501.282 L 642.504 501.282 L 642.504 501.282 Q 642.234 501.703 642.234 502.221 L 642.234 502.221 L 642.234 502.221 Q 642.234 503.107 642.633 503.711 L 642.633 503.711 L 642.633 503.711 Q 643.033 504.316 643.918 505.093 L 643.918 505.093 L 645.365 506.367 L 645.365 506.367 Q 646.66 507.468 647.373 508.699 L 647.373 508.699 L 647.373 508.699 Q 648.085 509.93 648.085 511.614 L 648.085 511.614 L 648.085 511.614 Q 648.085 512.845 647.513 513.849 L 647.513 513.849 L 647.513 513.849 Q 646.941 514.853 645.904 515.436 L 645.904 515.436 L 645.904 515.436 Q 644.868 516.019 643.508 516.019 L 643.508 516.019 L 643.508 516.019 Z  M 653.503 515.76 L 653.503 501.142 L 650.869 501.142 L 650.869 498.27 L 660.002 498.27 L 660.002 501.142 L 657.39 501.142 L 657.39 515.76 L 653.503 515.76 L 653.503 515.76 Z  M 663.563 515.76 L 663.563 498.27 L 667.428 498.27 L 667.428 505.352 L 670.127 505.352 L 670.127 498.27 L 674.014 498.27 L 674.014 515.76 L 670.127 515.76 L 670.127 508.116 L 667.428 508.116 L 667.428 515.76 L 663.563 515.76 L 663.563 515.76 Z  M 677.791 515.76 L 681.094 498.27 L 685.499 498.27 L 688.76 515.76 L 685.197 515.76 L 684.614 512.067 L 682.044 512.067 L 681.44 515.76 L 677.791 515.76 L 677.791 515.76 Z  M 682.39 509.757 L 684.247 509.757 L 683.318 502.934 L 682.39 509.757 L 682.39 509.757 Z  M 692.493 515.76 L 692.493 498.27 L 695.214 498.27 L 698.798 506.691 L 698.798 498.27 L 701.994 498.27 L 701.994 515.76 L 699.381 515.76 L 695.797 506.691 L 695.797 515.76 L 692.493 515.76 L 692.493 515.76 Z  M 705.727 515.76 L 709.031 498.27 L 713.436 498.27 L 716.696 515.76 L 713.133 515.76 L 712.55 512.067 L 709.981 512.067 L 709.376 515.76 L 705.727 515.76 L 705.727 515.76 Z  M 710.326 509.757 L 712.183 509.757 L 711.255 502.934 L 710.326 509.757 L 710.326 509.757 Z  M 720.365 515.76 L 720.667 498.27 L 724.813 498.27 L 726.735 508.44 L 728.808 498.27 L 732.802 498.27 L 733.105 515.76 L 730.362 515.76 L 730.038 504.121 L 728.009 515.76 L 725.569 515.76 L 723.41 504.035 L 723.15 515.76 L 720.365 515.76 L 720.365 515.76 Z  M 588.628 483.76 L 585.475 466.27 L 588.779 466.27 L 590.657 478.146 L 592.406 466.27 L 595.904 466.27 L 592.709 483.76 L 588.628 483.76 L 588.628 483.76 Z  M 599.616 483.76 L 599.616 466.27 L 607.476 466.27 L 607.476 468.904 L 603.481 468.904 L 603.481 473.244 L 606.526 473.244 L 606.526 475.922 L 603.481 475.922 L 603.481 481.147 L 607.519 481.147 L 607.519 483.76 L 599.616 483.76 L 599.616 483.76 Z  M 611.231 483.76 L 611.231 466.27 L 613.952 466.27 L 617.536 474.691 L 617.536 466.27 L 620.732 466.27 L 620.732 483.76 L 618.119 483.76 L 614.535 474.691 L 614.535 483.76 L 611.231 483.76 L 611.231 483.76 Z  M 625.307 483.76 L 625.307 466.27 L 629.172 466.27 L 629.172 473.417 L 632.109 466.27 L 635.887 466.27 L 632.649 474.173 L 636.039 483.76 L 632.109 483.76 L 629.583 476.03 L 629.172 476.721 L 629.172 483.76 L 625.307 483.76 L 625.307 483.76 Z  M 638.671 483.76 L 641.975 466.27 L 646.379 466.27 L 649.64 483.76 L 646.077 483.76 L 645.494 480.067 L 642.925 480.067 L 642.32 483.76 L 638.671 483.76 L 638.671 483.76 Z  M 643.27 477.757 L 645.127 477.757 L 644.199 470.934 L 643.27 477.757 L 643.27 477.757 Z  M 654.021 483.76 L 654.021 469.142 L 651.387 469.142 L 651.387 466.27 L 660.521 466.27 L 660.521 469.142 L 657.908 469.142 L 657.908 483.76 L 654.021 483.76 L 654.021 483.76 Z  M 662.397 483.76 L 665.701 466.27 L 670.106 466.27 L 673.366 483.76 L 669.803 483.76 L 669.22 480.067 L 666.651 480.067 L 666.046 483.76 L 662.397 483.76 L 662.397 483.76 Z  M 666.996 477.757 L 668.853 477.757 L 667.925 470.934 L 666.996 477.757 L 666.996 477.757 Z  M 681.828 484.019 L 681.828 484.019 Q 678.978 484.019 677.78 482.518 L 677.78 482.518 L 677.78 482.518 Q 676.581 481.018 676.581 478.189 L 676.581 478.189 L 676.581 471.884 L 676.581 471.884 Q 676.581 468.991 677.769 467.511 L 677.769 467.511 L 677.769 467.511 Q 678.957 466.032 681.828 466.032 L 681.828 466.032 L 681.828 466.032 Q 684.571 466.032 685.715 467.35 L 685.715 467.35 L 685.715 467.35 Q 686.859 468.667 686.859 471.085 L 686.859 471.085 L 686.859 472.596 L 683.081 472.596 L 683.081 470.848 L 683.081 470.848 Q 683.081 469.833 682.865 469.293 L 682.865 469.293 L 682.865 469.293 Q 682.649 468.753 681.828 468.753 L 681.828 468.753 L 681.828 468.753 Q 681.008 468.753 680.749 469.325 L 680.749 469.325 L 680.749 469.325 Q 680.49 469.897 680.49 470.912 L 680.49 470.912 L 680.49 479.139 L 680.49 479.139 Q 680.49 480.175 680.76 480.726 L 680.76 480.726 L 680.76 480.726 Q 681.029 481.277 681.828 481.277 L 681.828 481.277 L 681.828 481.277 Q 682.627 481.277 682.854 480.726 L 682.854 480.726 L 682.854 480.726 Q 683.081 480.175 683.081 479.139 L 683.081 479.139 L 683.081 477.304 L 686.859 477.304 L 686.859 478.815 L 686.859 478.815 Q 686.859 481.277 685.715 482.648 L 685.715 482.648 L 685.715 482.648 Q 684.571 484.019 681.828 484.019 L 681.828 484.019 L 681.828 484.019 Z  M 691.003 483.76 L 691.003 466.27 L 694.868 466.27 L 694.868 473.352 L 697.567 473.352 L 697.567 466.27 L 701.454 466.27 L 701.454 483.76 L 697.567 483.76 L 697.567 476.116 L 694.868 476.116 L 694.868 483.76 L 691.003 483.76 L 691.003 483.76 Z  M 705.231 483.76 L 708.534 466.27 L 712.939 466.27 L 716.2 483.76 L 712.637 483.76 L 712.054 480.067 L 709.484 480.067 L 708.88 483.76 L 705.231 483.76 L 705.231 483.76 Z  M 709.83 477.757 L 711.687 477.757 L 710.758 470.934 L 709.83 477.757 L 709.83 477.757 Z  M 719.933 483.76 L 719.933 466.27 L 723.798 466.27 L 723.798 481.147 L 727.814 481.147 L 727.814 483.76 L 719.933 483.76 L 719.933 483.76 Z  M 730.619 483.76 L 733.923 466.27 L 738.328 466.27 L 741.588 483.76 L 738.026 483.76 L 737.443 480.067 L 734.873 480.067 L 734.269 483.76 L 730.619 483.76 L 730.619 483.76 Z  M 735.219 477.757 L 737.076 477.757 L 736.147 470.934 L 735.219 477.757 L 735.219 477.757 Z  M 745.322 483.76 L 745.322 466.27 L 751.195 466.27 L 751.195 466.27 Q 753.505 466.27 754.65 467.576 L 754.65 467.576 L 754.65 467.576 Q 755.794 468.883 755.794 471.344 L 755.794 471.344 L 755.794 471.344 Q 755.794 474.151 754.466 475.242 L 754.466 475.242 L 754.466 475.242 Q 753.138 476.332 750.742 476.332 L 750.742 476.332 L 749.187 476.332 L 749.187 483.76 L 745.322 483.76 L 745.322 483.76 Z  M 749.187 473.633 L 750.483 473.633 L 750.483 473.633 Q 751.497 473.633 751.832 473.093 L 751.832 473.093 L 751.832 473.093 Q 752.167 472.553 752.167 471.279 L 752.167 471.279 L 752.167 471.279 Q 752.167 470.113 751.843 469.552 L 751.843 469.552 L 751.843 469.552 Q 751.519 468.991 750.461 468.991 L 750.461 468.991 L 749.187 468.991 L 749.187 473.633 L 749.187 473.633 Z  M 757.757 483.76 L 761.061 466.27 L 765.466 466.27 L 768.726 483.76 L 765.163 483.76 L 764.58 480.067 L 762.011 480.067 L 761.406 483.76 L 757.757 483.76 L 757.757 483.76 Z  M 762.356 477.757 L 764.213 477.757 L 763.285 470.934 L 762.356 477.757 L 762.356 477.757 Z  M 773.107 483.76 L 773.107 469.142 L 770.473 469.142 L 770.473 466.27 L 779.607 466.27 L 779.607 469.142 L 776.994 469.142 L 776.994 483.76 L 773.107 483.76 L 773.107 483.76 Z  M 783.168 483.76 L 783.168 466.27 L 787.033 466.27 L 787.033 473.352 L 789.732 473.352 L 789.732 466.27 L 793.618 466.27 L 793.618 483.76 L 789.732 483.76 L 789.732 476.116 L 787.033 476.116 L 787.033 483.76 L 783.168 483.76 L 783.168 483.76 Z  M 800.44 483.76 L 800.44 476.613 L 797.114 466.27 L 800.763 466.27 L 802.426 471.798 L 803.916 466.27 L 807.414 466.27 L 804.153 476.613 L 804.153 483.76 L 800.44 483.76 L 800.44 483.76 Z  M 630.228 451.76 L 630.228 434.27 L 634.093 434.27 L 634.093 441.417 L 637.03 434.27 L 640.809 434.27 L 637.57 442.173 L 640.96 451.76 L 637.03 451.76 L 634.504 444.03 L 634.093 444.721 L 634.093 451.76 L 630.228 451.76 L 630.228 451.76 Z  M 649.465 452.019 L 649.465 452.019 Q 647.5 452.019 646.356 451.382 L 646.356 451.382 L 646.356 451.382 Q 645.212 450.745 644.747 449.503 L 644.747 449.503 L 644.747 449.503 Q 644.283 448.262 644.283 446.34 L 644.283 446.34 L 644.283 434.27 L 648.105 434.27 L 648.105 446.923 L 648.105 446.923 Q 648.105 447.981 648.375 448.607 L 648.375 448.607 L 648.375 448.607 Q 648.645 449.233 649.465 449.233 L 649.465 449.233 L 649.465 449.233 Q 650.286 449.233 650.545 448.607 L 650.545 448.607 L 650.545 448.607 Q 650.804 447.981 650.804 446.923 L 650.804 446.923 L 650.804 434.27 L 654.647 434.27 L 654.647 446.34 L 654.647 446.34 Q 654.647 448.262 654.172 449.503 L 654.172 449.503 L 654.172 449.503 Q 653.697 450.745 652.564 451.382 L 652.564 451.382 L 652.564 451.382 Q 651.43 452.019 649.465 452.019 L 649.465 452.019 L 649.465 452.019 Z  M 659.072 451.76 L 659.072 434.27 L 663.628 434.27 L 663.628 434.27 Q 665.334 434.27 666.532 434.626 L 666.532 434.626 L 666.532 434.626 Q 667.73 434.982 668.465 435.997 L 668.465 435.997 L 668.465 435.997 Q 669.199 437.012 669.199 438.848 L 669.199 438.848 L 669.199 438.848 Q 669.199 440.402 668.529 441.266 L 668.529 441.266 L 668.529 441.266 Q 667.86 442.13 666.629 442.367 L 666.629 442.367 L 666.629 442.367 Q 668.141 442.561 668.94 443.641 L 668.94 443.641 L 668.94 443.641 Q 669.739 444.721 669.739 446.578 L 669.739 446.578 L 669.739 446.578 Q 669.739 451.76 664.448 451.76 L 664.448 451.76 L 659.072 451.76 L 659.072 451.76 Z  M 662.937 441.266 L 663.693 441.266 L 663.693 441.266 Q 664.923 441.266 665.366 440.704 L 665.366 440.704 L 665.366 440.704 Q 665.809 440.143 665.809 438.955 L 665.809 438.955 L 665.809 438.955 Q 665.809 437.919 665.247 437.39 L 665.247 437.39 L 665.247 437.39 Q 664.686 436.861 663.606 436.861 L 663.606 436.861 L 662.937 436.861 L 662.937 441.266 L 662.937 441.266 Z  M 662.937 449.061 L 663.757 449.061 L 663.757 449.061 Q 664.988 449.061 665.496 448.445 L 665.496 448.445 L 665.496 448.445 Q 666.003 447.83 666.003 446.513 L 666.003 446.513 L 666.003 446.513 Q 666.003 445.023 665.496 444.418 L 665.496 444.418 L 665.496 444.418 Q 664.988 443.814 663.736 443.814 L 663.736 443.814 L 662.937 443.814 L 662.937 449.061 L 662.937 449.061 Z  M 673.731 451.76 L 673.731 434.27 L 681.591 434.27 L 681.591 436.904 L 677.596 436.904 L 677.596 441.244 L 680.641 441.244 L 680.641 443.922 L 677.596 443.922 L 677.596 449.147 L 681.634 449.147 L 681.634 451.76 L 673.731 451.76 L 673.731 451.76 Z  M 685.346 451.76 L 685.346 434.27 L 690.161 434.27 L 690.161 434.27 Q 693.033 434.27 694.501 435.285 L 694.501 435.285 L 694.501 435.285 Q 695.969 436.3 695.969 438.891 L 695.969 438.891 L 695.969 438.891 Q 695.969 440.64 695.516 441.676 L 695.516 441.676 L 695.516 441.676 Q 695.063 442.713 693.832 443.296 L 693.832 443.296 L 696.229 451.76 L 692.234 451.76 L 690.312 443.922 L 689.211 443.922 L 689.211 451.76 L 685.346 451.76 L 685.346 451.76 Z  M 689.211 441.698 L 690.291 441.698 L 690.291 441.698 Q 691.457 441.698 691.921 441.082 L 691.921 441.082 L 691.921 441.082 Q 692.385 440.467 692.385 439.236 L 692.385 439.236 L 692.385 439.236 Q 692.385 438.049 691.953 437.455 L 691.953 437.455 L 691.953 437.455 Q 691.521 436.861 690.463 436.861 L 690.463 436.861 L 689.211 436.861 L 689.211 441.698 L 689.211 441.698 Z  M 699.422 451.76 L 702.726 434.27 L 707.131 434.27 L 710.391 451.76 L 706.828 451.76 L 706.245 448.067 L 703.676 448.067 L 703.071 451.76 L 699.422 451.76 L 699.422 451.76 Z  M 704.021 445.757 L 705.878 445.757 L 704.95 438.934 L 704.021 445.757 L 704.021 445.757 Z  M 590.938 452.019 L 590.938 452.019 Q 588.433 452.019 587.213 450.691 L 587.213 450.691 L 587.213 450.691 Q 585.993 449.363 585.907 446.47 L 585.907 446.47 L 589.211 445.973 L 589.211 445.973 Q 589.232 447.636 589.61 448.359 L 589.61 448.359 L 589.61 448.359 Q 589.988 449.082 590.744 449.082 L 590.744 449.082 L 590.744 449.082 Q 591.715 449.082 591.715 447.808 L 591.715 447.808 L 591.715 447.808 Q 591.715 446.794 591.251 446.059 L 591.251 446.059 L 591.251 446.059 Q 590.787 445.325 589.794 444.483 L 589.794 444.483 L 588.282 443.166 L 588.282 443.166 Q 587.159 442.216 586.544 441.147 L 586.544 441.147 L 586.544 441.147 Q 585.928 440.078 585.928 438.61 L 585.928 438.61 L 585.928 438.61 Q 585.928 436.408 587.235 435.22 L 587.235 435.22 L 587.235 435.22 Q 588.541 434.032 590.83 434.032 L 590.83 434.032 L 590.83 434.032 Q 593.313 434.032 594.209 435.479 L 594.209 435.479 L 594.209 435.479 Q 595.105 436.926 595.17 438.999 L 595.17 438.999 L 591.845 439.409 L 591.845 439.409 Q 591.802 438.049 591.596 437.455 L 591.596 437.455 L 591.596 437.455 Q 591.391 436.861 590.7 436.861 L 590.7 436.861 L 590.7 436.861 Q 590.204 436.861 589.934 437.282 L 589.934 437.282 L 589.934 437.282 Q 589.664 437.703 589.664 438.221 L 589.664 438.221 L 589.664 438.221 Q 589.664 439.107 590.063 439.711 L 590.063 439.711 L 590.063 439.711 Q 590.463 440.316 591.348 441.093 L 591.348 441.093 L 592.795 442.367 L 592.795 442.367 Q 594.09 443.468 594.803 444.699 L 594.803 444.699 L 594.803 444.699 Q 595.516 445.93 595.516 447.614 L 595.516 447.614 L 595.516 447.614 Q 595.516 448.845 594.943 449.849 L 594.943 449.849 L 594.943 449.849 Q 594.371 450.853 593.335 451.436 L 593.335 451.436 L 593.335 451.436 Q 592.298 452.019 590.938 452.019 L 590.938 452.019 L 590.938 452.019 Z  M 599.357 451.76 L 599.357 434.27 L 604.172 434.27 L 604.172 434.27 Q 607.044 434.27 608.512 435.285 L 608.512 435.285 L 608.512 435.285 Q 609.98 436.3 609.98 438.891 L 609.98 438.891 L 609.98 438.891 Q 609.98 440.64 609.527 441.676 L 609.527 441.676 L 609.527 441.676 Q 609.074 442.713 607.843 443.296 L 607.843 443.296 L 610.24 451.76 L 606.245 451.76 L 604.323 443.922 L 603.222 443.922 L 603.222 451.76 L 599.357 451.76 L 599.357 451.76 Z  M 603.222 441.698 L 604.302 441.698 L 604.302 441.698 Q 605.468 441.698 605.932 441.082 L 605.932 441.082 L 605.932 441.082 Q 606.396 440.467 606.396 439.236 L 606.396 439.236 L 606.396 439.236 Q 606.396 438.049 605.964 437.455 L 605.964 437.455 L 605.964 437.455 Q 605.532 436.861 604.474 436.861 L 604.474 436.861 L 603.222 436.861 L 603.222 441.698 L 603.222 441.698 Z  M 614.297 451.76 L 614.297 434.27 L 618.162 434.27 L 618.162 451.76 L 614.297 451.76 L 614.297 451.76 Z  M 775.222 420.019 L 775.222 420.019 Q 772.717 420.019 771.497 418.691 L 771.497 418.691 L 771.497 418.691 Q 770.277 417.363 770.191 414.47 L 770.191 414.47 L 773.494 413.973 L 773.494 413.973 Q 773.516 415.636 773.894 416.359 L 773.894 416.359 L 773.894 416.359 Q 774.272 417.082 775.027 417.082 L 775.027 417.082 L 775.027 417.082 Q 775.999 417.082 775.999 415.808 L 775.999 415.808 L 775.999 415.808 Q 775.999 414.794 775.535 414.059 L 775.535 414.059 L 775.535 414.059 Q 775.07 413.325 774.077 412.483 L 774.077 412.483 L 772.566 411.166 L 772.566 411.166 Q 771.443 410.216 770.828 409.147 L 770.828 409.147 L 770.828 409.147 Q 770.212 408.078 770.212 406.61 L 770.212 406.61 L 770.212 406.61 Q 770.212 404.408 771.518 403.22 L 771.518 403.22 L 771.518 403.22 Q 772.825 402.032 775.114 402.032 L 775.114 402.032 L 775.114 402.032 Q 777.597 402.032 778.493 403.479 L 778.493 403.479 L 778.493 403.479 Q 779.389 404.926 779.454 406.999 L 779.454 406.999 L 776.128 407.409 L 776.128 407.409 Q 776.085 406.049 775.88 405.455 L 775.88 405.455 L 775.88 405.455 Q 775.675 404.861 774.984 404.861 L 774.984 404.861 L 774.984 404.861 Q 774.487 404.861 774.218 405.282 L 774.218 405.282 L 774.218 405.282 Q 773.948 405.703 773.948 406.221 L 773.948 406.221 L 773.948 406.221 Q 773.948 407.107 774.347 407.711 L 774.347 407.711 L 774.347 407.711 Q 774.747 408.316 775.632 409.093 L 775.632 409.093 L 777.079 410.367 L 777.079 410.367 Q 778.374 411.468 779.087 412.699 L 779.087 412.699 L 779.087 412.699 Q 779.799 413.93 779.799 415.614 L 779.799 415.614 L 779.799 415.614 Q 779.799 416.845 779.227 417.849 L 779.227 417.849 L 779.227 417.849 Q 778.655 418.853 777.618 419.436 L 777.618 419.436 L 777.618 419.436 Q 776.582 420.019 775.222 420.019 L 775.222 420.019 L 775.222 420.019 Z  M 782.626 419.76 L 785.929 402.27 L 790.334 402.27 L 793.595 419.76 L 790.032 419.76 L 789.449 416.067 L 786.88 416.067 L 786.275 419.76 L 782.626 419.76 L 782.626 419.76 Z  M 787.225 413.757 L 789.082 413.757 L 788.153 406.934 L 787.225 413.757 L 787.225 413.757 Z  M 797.264 419.76 L 797.566 402.27 L 801.712 402.27 L 803.633 412.44 L 805.706 402.27 L 809.701 402.27 L 810.003 419.76 L 807.261 419.76 L 806.937 408.121 L 804.907 419.76 L 802.467 419.76 L 800.308 408.035 L 800.049 419.76 L 797.264 419.76 L 797.264 419.76 Z  M 814.492 419.76 L 814.492 402.27 L 822.352 402.27 L 822.352 404.904 L 818.357 404.904 L 818.357 409.244 L 821.402 409.244 L 821.402 411.922 L 818.357 411.922 L 818.357 417.147 L 822.395 417.147 L 822.395 419.76 L 814.492 419.76 L 814.492 419.76 Z  M 827.683 419.76 L 827.683 405.142 L 825.049 405.142 L 825.049 402.27 L 834.183 402.27 L 834.183 405.142 L 831.57 405.142 L 831.57 419.76 L 827.683 419.76 L 827.683 419.76 Z  M 837.743 419.76 L 837.743 402.27 L 841.609 402.27 L 841.609 409.352 L 844.308 409.352 L 844.308 402.27 L 848.194 402.27 L 848.194 419.76 L 844.308 419.76 L 844.308 412.116 L 841.609 412.116 L 841.609 419.76 L 837.743 419.76 L 837.743 419.76 Z  M 851.971 419.76 L 855.275 402.27 L 859.679 402.27 L 862.94 419.76 L 859.377 419.76 L 858.794 416.067 L 856.225 416.067 L 855.62 419.76 L 851.971 419.76 L 851.971 419.76 Z  M 856.57 413.757 L 858.427 413.757 L 857.499 406.934 L 856.57 413.757 L 856.57 413.757 Z  M 630.228 419.76 L 630.228 402.27 L 636.101 402.27 L 636.101 402.27 Q 638.412 402.27 639.556 403.576 L 639.556 403.576 L 639.556 403.576 Q 640.701 404.883 640.701 407.344 L 640.701 407.344 L 640.701 407.344 Q 640.701 410.151 639.373 411.242 L 639.373 411.242 L 639.373 411.242 Q 638.045 412.332 635.648 412.332 L 635.648 412.332 L 634.093 412.332 L 634.093 419.76 L 630.228 419.76 L 630.228 419.76 Z  M 634.093 409.633 L 635.389 409.633 L 635.389 409.633 Q 636.404 409.633 636.738 409.093 L 636.738 409.093 L 636.738 409.093 Q 637.073 408.553 637.073 407.279 L 637.073 407.279 L 637.073 407.279 Q 637.073 406.113 636.749 405.552 L 636.749 405.552 L 636.749 405.552 Q 636.425 404.991 635.367 404.991 L 635.367 404.991 L 634.093 404.991 L 634.093 409.633 L 634.093 409.633 Z  M 642.664 419.76 L 645.967 402.27 L 650.372 402.27 L 653.633 419.76 L 650.07 419.76 L 649.487 416.067 L 646.917 416.067 L 646.313 419.76 L 642.664 419.76 L 642.664 419.76 Z  M 647.263 413.757 L 649.12 413.757 L 648.191 406.934 L 647.263 413.757 L 647.263 413.757 Z  M 657.366 419.76 L 657.366 402.27 L 661.793 402.27 L 661.793 402.27 Q 664.06 402.27 665.334 402.831 L 665.334 402.831 L 665.334 402.831 Q 666.608 403.393 667.137 404.591 L 667.137 404.591 L 667.137 404.591 Q 667.666 405.789 667.666 407.798 L 667.666 407.798 L 667.666 414.146 L 667.666 414.146 Q 667.666 416.175 667.137 417.385 L 667.137 417.385 L 667.137 417.385 Q 666.608 418.594 665.344 419.177 L 665.344 419.177 L 665.344 419.177 Q 664.081 419.76 661.836 419.76 L 661.836 419.76 L 657.366 419.76 L 657.366 419.76 Z  M 661.231 417.082 L 661.836 417.082 L 661.836 417.082 Q 662.678 417.082 663.077 416.834 L 663.077 416.834 L 663.077 416.834 Q 663.477 416.586 663.585 416.121 L 663.585 416.121 L 663.585 416.121 Q 663.693 415.657 663.693 414.75 L 663.693 414.75 L 663.693 407.128 L 663.693 407.128 Q 663.693 406.286 663.574 405.843 L 663.574 405.843 L 663.574 405.843 Q 663.455 405.401 663.056 405.185 L 663.056 405.185 L 663.056 405.185 Q 662.656 404.969 661.814 404.969 L 661.814 404.969 L 661.231 404.969 L 661.231 417.082 L 661.231 417.082 Z  M 671.917 419.76 L 672.22 402.27 L 676.365 402.27 L 678.287 412.44 L 680.36 402.27 L 684.355 402.27 L 684.657 419.76 L 681.915 419.76 L 681.591 408.121 L 679.561 419.76 L 677.121 419.76 L 674.962 408.035 L 674.703 419.76 L 671.917 419.76 L 671.917 419.76 Z  M 688.304 419.76 L 691.608 402.27 L 696.013 402.27 L 699.273 419.76 L 695.71 419.76 L 695.127 416.067 L 692.558 416.067 L 691.953 419.76 L 688.304 419.76 L 688.304 419.76 Z  M 692.903 413.757 L 694.76 413.757 L 693.832 406.934 L 692.903 413.757 L 692.903 413.757 Z  M 704.669 419.76 L 701.517 402.27 L 704.82 402.27 L 706.699 414.146 L 708.448 402.27 L 711.946 402.27 L 708.75 419.76 L 704.669 419.76 L 704.669 419.76 Z  M 714.146 419.76 L 717.45 402.27 L 721.855 402.27 L 725.115 419.76 L 721.553 419.76 L 720.97 416.067 L 718.4 416.067 L 717.795 419.76 L 714.146 419.76 L 714.146 419.76 Z  M 718.746 413.757 L 720.603 413.757 L 719.674 406.934 L 718.746 413.757 L 718.746 413.757 Z  M 729.497 419.76 L 729.497 405.142 L 726.862 405.142 L 726.862 402.27 L 735.996 402.27 L 735.996 405.142 L 733.383 405.142 L 733.383 419.76 L 729.497 419.76 L 729.497 419.76 Z  M 739.557 419.76 L 739.557 402.27 L 743.422 402.27 L 743.422 409.352 L 746.121 409.352 L 746.121 402.27 L 750.007 402.27 L 750.007 419.76 L 746.121 419.76 L 746.121 412.116 L 743.422 412.116 L 743.422 419.76 L 739.557 419.76 L 739.557 419.76 Z  M 754.648 419.76 L 754.648 402.27 L 758.513 402.27 L 758.513 419.76 L 754.648 419.76 L 754.648 419.76 Z  M 590.938 420.019 L 590.938 420.019 Q 588.433 420.019 587.213 418.691 L 587.213 418.691 L 587.213 418.691 Q 585.993 417.363 585.907 414.47 L 585.907 414.47 L 589.211 413.973 L 589.211 413.973 Q 589.232 415.636 589.61 416.359 L 589.61 416.359 L 589.61 416.359 Q 589.988 417.082 590.744 417.082 L 590.744 417.082 L 590.744 417.082 Q 591.715 417.082 591.715 415.808 L 591.715 415.808 L 591.715 415.808 Q 591.715 414.794 591.251 414.059 L 591.251 414.059 L 591.251 414.059 Q 590.787 413.325 589.794 412.483 L 589.794 412.483 L 588.282 411.166 L 588.282 411.166 Q 587.159 410.216 586.544 409.147 L 586.544 409.147 L 586.544 409.147 Q 585.928 408.078 585.928 406.61 L 585.928 406.61 L 585.928 406.61 Q 585.928 404.408 587.235 403.22 L 587.235 403.22 L 587.235 403.22 Q 588.541 402.032 590.83 402.032 L 590.83 402.032 L 590.83 402.032 Q 593.313 402.032 594.209 403.479 L 594.209 403.479 L 594.209 403.479 Q 595.105 404.926 595.17 406.999 L 595.17 406.999 L 591.845 407.409 L 591.845 407.409 Q 591.802 406.049 591.596 405.455 L 591.596 405.455 L 591.596 405.455 Q 591.391 404.861 590.7 404.861 L 590.7 404.861 L 590.7 404.861 Q 590.204 404.861 589.934 405.282 L 589.934 405.282 L 589.934 405.282 Q 589.664 405.703 589.664 406.221 L 589.664 406.221 L 589.664 406.221 Q 589.664 407.107 590.063 407.711 L 590.063 407.711 L 590.063 407.711 Q 590.463 408.316 591.348 409.093 L 591.348 409.093 L 592.795 410.367 L 592.795 410.367 Q 594.09 411.468 594.803 412.699 L 594.803 412.699 L 594.803 412.699 Q 595.516 413.93 595.516 415.614 L 595.516 415.614 L 595.516 415.614 Q 595.516 416.845 594.943 417.849 L 594.943 417.849 L 594.943 417.849 Q 594.371 418.853 593.335 419.436 L 593.335 419.436 L 593.335 419.436 Q 592.298 420.019 590.938 420.019 L 590.938 420.019 L 590.938 420.019 Z  M 599.357 419.76 L 599.357 402.27 L 604.172 402.27 L 604.172 402.27 Q 607.044 402.27 608.512 403.285 L 608.512 403.285 L 608.512 403.285 Q 609.98 404.3 609.98 406.891 L 609.98 406.891 L 609.98 406.891 Q 609.98 408.64 609.527 409.676 L 609.527 409.676 L 609.527 409.676 Q 609.074 410.713 607.843 411.296 L 607.843 411.296 L 610.24 419.76 L 606.245 419.76 L 604.323 411.922 L 603.222 411.922 L 603.222 419.76 L 599.357 419.76 L 599.357 419.76 Z  M 603.222 409.698 L 604.302 409.698 L 604.302 409.698 Q 605.468 409.698 605.932 409.082 L 605.932 409.082 L 605.932 409.082 Q 606.396 408.467 606.396 407.236 L 606.396 407.236 L 606.396 407.236 Q 606.396 406.049 605.964 405.455 L 605.964 405.455 L 605.964 405.455 Q 605.532 404.861 604.474 404.861 L 604.474 404.861 L 603.222 404.861 L 603.222 409.698 L 603.222 409.698 Z  M 614.297 419.76 L 614.297 402.27 L 618.162 402.27 L 618.162 419.76 L 614.297 419.76 L 614.297 419.76 Z " fill="rgb(255,255,255)" vector-effect="non-scaling-stroke" stroke-width="1" stroke="rgb(152,0,0)" stroke-linejoin="miter" stroke-linecap="square" stroke-miterlimit="3"/></svg>