<?xml version="1.0" encoding="UTF-8" standalone="no"?><!-- Generator: Gravit.io --><svg xmlns="http://www.w3.org/2000/svg" xmlns:xlink="http://www.w3.org/1999/xlink" style="isolation:isolate" viewBox="489.5 533.691 107.266 33" width="107.266pt" height="33pt"><path d=" M 530.979 557.511 L 528.614 544.393 L 531.092 544.393 L 532.501 553.3 L 533.813 544.393 L 536.436 544.393 L 534.04 557.511 L 530.979 557.511 L 530.979 557.511 Z  M 538.414 557.511 L 540.892 544.393 L 544.195 544.393 L 546.641 557.511 L 543.969 557.511 L 543.531 554.742 L 541.604 554.742 L 541.151 557.511 L 538.414 557.511 L 538.414 557.511 Z  M 541.863 553.009 L 543.256 553.009 L 542.56 547.891 L 541.863 553.009 L 541.863 553.009 Z  M 549.768 557.511 L 549.768 544.393 L 553.379 544.393 L 553.379 544.393 Q 555.533 544.393 556.634 545.155 L 556.634 545.155 L 556.634 545.155 Q 557.735 545.916 557.735 547.859 L 557.735 547.859 L 557.735 547.859 Q 557.735 549.171 557.395 549.948 L 557.395 549.948 L 557.395 549.948 Q 557.055 550.725 556.132 551.163 L 556.132 551.163 L 557.93 557.511 L 554.934 557.511 L 553.493 551.632 L 552.667 551.632 L 552.667 557.511 L 549.768 557.511 L 549.768 557.511 Z  M 552.667 549.964 L 553.476 549.964 L 553.476 549.964 Q 554.351 549.964 554.699 549.503 L 554.699 549.503 L 554.699 549.503 Q 555.047 549.041 555.047 548.118 L 555.047 548.118 L 555.047 548.118 Q 555.047 547.227 554.723 546.782 L 554.723 546.782 L 554.723 546.782 Q 554.399 546.337 553.606 546.337 L 553.606 546.337 L 552.667 546.337 L 552.667 549.964 L 552.667 549.964 Z  M 560.652 557.511 L 563.13 544.393 L 566.434 544.393 L 568.879 557.511 L 566.207 557.511 L 565.77 554.742 L 563.843 554.742 L 563.389 557.511 L 560.652 557.511 L 560.652 557.511 Z  M 564.102 553.009 L 565.494 553.009 L 564.798 547.891 L 564.102 553.009 L 564.102 553.009 Z  M 572.055 557.511 L 572.055 544.393 L 574.954 544.393 L 574.954 549.705 L 576.978 549.705 L 576.978 544.393 L 579.893 544.393 L 579.893 557.511 L 576.978 557.511 L 576.978 551.778 L 574.954 551.778 L 574.954 557.511 L 572.055 557.511 L 572.055 557.511 Z  M 583.7 557.511 L 583.7 544.393 L 586.599 544.393 L 586.599 557.511 L 583.7 557.511 L 583.7 557.511 Z  M 498.453 557.705 L 498.453 557.705 Q 496.575 557.705 495.66 556.709 L 495.66 556.709 L 495.66 556.709 Q 494.745 555.713 494.68 553.543 L 494.68 553.543 L 497.158 553.171 L 497.158 553.171 Q 497.174 554.418 497.457 554.96 L 497.457 554.96 L 497.457 554.96 Q 497.741 555.503 498.308 555.503 L 498.308 555.503 L 498.308 555.503 Q 499.036 555.503 499.036 554.547 L 499.036 554.547 L 499.036 554.547 Q 499.036 553.786 498.688 553.236 L 498.688 553.236 L 498.688 553.236 Q 498.34 552.685 497.595 552.053 L 497.595 552.053 L 496.462 551.065 L 496.462 551.065 Q 495.619 550.353 495.158 549.551 L 495.158 549.551 L 495.158 549.551 Q 494.696 548.75 494.696 547.648 L 494.696 547.648 L 494.696 547.648 Q 494.696 545.997 495.676 545.106 L 495.676 545.106 L 495.676 545.106 Q 496.656 544.215 498.372 544.215 L 498.372 544.215 L 498.372 544.215 Q 500.235 544.215 500.907 545.3 L 500.907 545.3 L 500.907 545.3 Q 501.579 546.385 501.628 547.94 L 501.628 547.94 L 499.134 548.248 L 499.134 548.248 Q 499.101 547.227 498.947 546.782 L 498.947 546.782 L 498.947 546.782 Q 498.794 546.337 498.275 546.337 L 498.275 546.337 L 498.275 546.337 Q 497.903 546.337 497.7 546.653 L 497.7 546.653 L 497.7 546.653 Q 497.498 546.968 497.498 547.357 L 497.498 547.357 L 497.498 547.357 Q 497.498 548.021 497.798 548.474 L 497.798 548.474 L 497.798 548.474 Q 498.097 548.928 498.761 549.511 L 498.761 549.511 L 499.846 550.466 L 499.846 550.466 Q 500.818 551.292 501.352 552.215 L 501.352 552.215 L 501.352 552.215 Q 501.887 553.138 501.887 554.402 L 501.887 554.402 L 501.887 554.402 Q 501.887 555.325 501.457 556.078 L 501.457 556.078 L 501.457 556.078 Q 501.028 556.831 500.251 557.268 L 500.251 557.268 L 500.251 557.268 Q 499.474 557.705 498.453 557.705 L 498.453 557.705 L 498.453 557.705 Z  M 505.095 557.511 L 505.095 544.393 L 508.706 544.393 L 508.706 544.393 Q 510.86 544.393 511.961 545.155 L 511.961 545.155 L 511.961 545.155 Q 513.063 545.916 513.063 547.859 L 513.063 547.859 L 513.063 547.859 Q 513.063 549.171 512.722 549.948 L 512.722 549.948 L 512.722 549.948 Q 512.382 550.725 511.459 551.163 L 511.459 551.163 L 513.257 557.511 L 510.261 557.511 L 508.82 551.632 L 507.994 551.632 L 507.994 557.511 L 505.095 557.511 L 505.095 557.511 Z  M 507.994 549.964 L 508.803 549.964 L 508.803 549.964 Q 509.678 549.964 510.026 549.503 L 510.026 549.503 L 510.026 549.503 Q 510.374 549.041 510.374 548.118 L 510.374 548.118 L 510.374 548.118 Q 510.374 547.227 510.05 546.782 L 510.05 546.782 L 510.05 546.782 Q 509.726 546.337 508.933 546.337 L 508.933 546.337 L 507.994 546.337 L 507.994 549.964 L 507.994 549.964 Z  M 516.627 557.511 L 516.627 544.393 L 519.526 544.393 L 519.526 557.511 L 516.627 557.511 L 516.627 557.511 Z " fill="rgb(255,255,255)" vector-effect="non-scaling-stroke" stroke-width="1" stroke="rgb(152,0,0)" stroke-linejoin="miter" stroke-linecap="square" stroke-miterlimit="3"/></svg>