<?xml version="1.0" encoding="UTF-8" standalone="no"?><!-- Generator: Gravit.io --><svg xmlns="http://www.w3.org/2000/svg" xmlns:xlink="http://www.w3.org/1999/xlink" style="isolation:isolate" viewBox="-158.228 -150.047 137.228 155.047" width="137.228pt" height="155.047pt"><g><path d=" M -118.491 2.305 C -118.491 0.361 -118.123 -0.487 -117.169 -0.736 C -116.442 -0.926 -115.274 -2.079 -114.575 -3.298 C -113.875 -4.517 -112.108 -6.219 -110.647 -7.081 C -108.629 -8.272 -107.991 -9.144 -107.991 -10.711 L -107.991 -12.774 L -100.149 -13.218 C -88.769 -13.863 -87.204 -15.127 -91.597 -20.131 L -93.952 -22.813 L -95.583 -21.282 C -96.479 -20.439 -97.883 -19.75 -98.701 -19.75 C -99.961 -19.75 -100.143 -20.154 -99.884 -22.373 C -99.587 -24.918 -99.642 -24.982 -101.768 -24.557 L -103.958 -24.119 L -103.466 -28.872 C -102.993 -33.436 -101.337 -37.889 -99.747 -38.872 C -98.256 -39.793 -99.054 -40.496 -103.005 -41.741 C -107.706 -43.223 -114.654 -47.588 -118.785 -51.655 C -122.707 -55.516 -127.121 -62.478 -128.664 -67.235 C -130.682 -73.457 -131.241 -73.104 -131.241 -65.606 C -131.241 -57.247 -130.156 -49.395 -128.193 -43.56 C -127.394 -41.186 -126.741 -38.782 -126.741 -38.217 C -126.741 -37.156 -131.737 -32.5 -132.876 -32.5 C -133.23 -32.5 -133.299 -31.62 -133.029 -30.545 C -132.709 -29.27 -132.887 -28.373 -133.541 -27.969 C -134.664 -27.275 -135.741 -27.701 -135.741 -28.839 C -135.741 -29.251 -135.404 -29.38 -134.991 -29.125 C -134.579 -28.87 -134.241 -28.976 -134.241 -29.359 C -134.241 -29.743 -136.115 -31.731 -138.406 -33.777 L -142.571 -37.498 L -141.393 -40.811 C -139.85 -45.152 -138.001 -57.179 -137.995 -62.915 L -137.99 -67.454 L -142.302 -66.958 C -144.674 -66.685 -146.709 -66.536 -146.823 -66.627 C -146.938 -66.718 -146.695 -67.679 -146.283 -68.762 C -145.607 -70.54 -145.729 -70.782 -147.535 -71.235 C -148.791 -71.55 -149.644 -71.414 -149.825 -70.869 C -149.985 -70.391 -150.424 -70 -150.802 -70 C -152.054 -70 -151.516 -72.765 -149.852 -74.88 L -148.214 -76.962 L -150.614 -79.106 C -153.092 -81.32 -155.518 -81.87 -156.414 -80.42 C -156.994 -79.483 -158.209 -80.941 -158.228 -82.597 C -158.248 -84.254 -154.656 -87.25 -152.649 -87.25 C -150.955 -87.25 -150.74 -87.556 -150.74 -89.967 C -150.74 -92.286 -150.577 -92.548 -149.625 -91.758 C -148.965 -91.211 -147.707 -91.034 -146.546 -91.325 C -145.024 -91.707 -144.673 -92.164 -144.985 -93.356 C -145.604 -95.722 -144.806 -97.239 -143.509 -96.162 C -142.161 -95.044 -141.558 -95.671 -141.247 -98.517 C -141.11 -99.767 -140.52 -101.541 -139.935 -102.458 C -139.351 -103.375 -138.04 -105.63 -137.022 -107.47 C -136.003 -109.31 -134.834 -110.927 -134.424 -111.064 C -134.013 -111.201 -133.109 -110.033 -132.413 -108.469 C -130.805 -104.851 -127.979 -100 -127.49 -100.017 C -127.283 -100.023 -126.102 -101.739 -124.865 -103.827 C -120.402 -111.359 -112.359 -117.959 -103.865 -121.06 C -98.358 -123.071 -98.495 -122.95 -99.898 -124.558 C -102.034 -127.007 -102.965 -129.559 -103.458 -134.316 L -103.948 -139.055 L -101.732 -138.569 C -99.543 -138.088 -99.522 -138.114 -99.956 -140.791 C -100.345 -143.19 -100.214 -143.5 -98.804 -143.5 C -97.928 -143.5 -96.416 -142.753 -95.444 -141.84 L -93.677 -140.179 L -91.857 -142.402 C -89.235 -145.603 -88.81 -147.331 -90.365 -148.468 C -91.565 -149.345 -91.509 -149.467 -89.702 -149.92 C -87.056 -150.584 -84.064 -148.557 -83.496 -145.716 C -83.127 -143.874 -82.686 -143.5 -80.882 -143.5 C -78.958 -143.5 -78.763 -143.293 -79.168 -141.679 C -79.954 -138.549 -79.009 -136.97 -76.565 -137.329 L -74.408 -137.646 L -74.761 -134.01 C -74.955 -132.011 -75.93 -128.74 -76.927 -126.742 C -78.781 -123.029 -78.749 -121.75 -76.802 -121.75 C -76.197 -121.75 -73.286 -120.533 -70.332 -119.046 C -64.195 -115.955 -57.37 -109.808 -53.86 -104.211 C -52.538 -102.101 -51.347 -100.231 -51.215 -100.055 C -50.803 -99.507 -48.895 -102.44 -46.733 -106.945 C -45.592 -109.321 -44.344 -111.16 -43.958 -111.031 C -42.685 -110.607 -37.527 -100.417 -37.508 -98.289 C -37.488 -96.036 -35.478 -94.65 -34.508 -96.221 C -33.62 -97.658 -32.861 -95.901 -33.415 -93.692 C -33.811 -92.116 -33.573 -91.737 -31.928 -91.324 C -30.772 -91.034 -29.513 -91.212 -28.855 -91.758 C -27.703 -92.714 -27.715 -92.738 -27.435 -88.803 C -27.393 -88.214 -26.411 -87.478 -25.251 -87.168 C -24.092 -86.858 -22.659 -86.202 -22.067 -85.71 C -20.854 -84.703 -20.582 -79.75 -21.74 -79.75 C -22.152 -79.75 -22.49 -80.088 -22.49 -80.5 C -22.49 -81.985 -25.515 -81.207 -27.849 -79.121 L -30.232 -76.992 L -28.611 -75.371 C -26.704 -73.464 -26.237 -69.192 -28.105 -70.742 C -28.739 -71.268 -30.025 -71.466 -31.083 -71.2 C -32.729 -70.787 -32.861 -70.509 -32.218 -68.817 C -31.273 -66.331 -31.268 -66.347 -32.802 -66.651 C -33.524 -66.794 -35.549 -67.067 -37.302 -67.259 L -40.49 -67.607 L -40.49 -62.858 C -40.49 -56.717 -39.223 -47.274 -37.833 -43.054 C -37.232 -41.227 -36.74 -39.064 -36.74 -38.246 C -36.74 -36.839 -40.806 -32.5 -42.125 -32.5 C -42.463 -32.5 -42.74 -32.022 -42.74 -31.438 C -42.74 -30.853 -43.162 -30.204 -43.677 -29.995 C -44.406 -29.699 -44.388 -29.456 -43.597 -28.901 C -42.976 -28.466 -42.87 -28.008 -43.325 -27.727 C -44.49 -27.007 -45.918 -29.259 -45.376 -30.964 C -45.108 -31.809 -45.198 -32.5 -45.575 -32.5 C -45.952 -32.5 -46.959 -33.091 -47.812 -33.813 C -48.665 -34.534 -49.965 -35.488 -50.7 -35.932 C -51.974 -36.701 -51.961 -37 -50.431 -42.307 C -49.547 -45.369 -48.468 -50.302 -48.032 -53.269 C -47.007 -60.248 -46.979 -72.5 -47.99 -71.875 C -48.403 -71.62 -48.74 -70.796 -48.74 -70.043 C -48.74 -69.29 -50.072 -66.019 -51.701 -62.774 C -56.441 -53.328 -65.133 -45.541 -74.71 -42.16 L -79.359 -40.519 L -77.472 -37.668 C -76.277 -35.862 -75.39 -33.166 -75.054 -30.32 L -74.524 -25.824 L -76.82 -25.599 C -78.562 -25.429 -79.174 -24.959 -79.36 -23.646 C -79.495 -22.695 -79.201 -21.43 -78.706 -20.834 C -77.95 -19.923 -78.239 -19.75 -80.523 -19.75 C -82.627 -19.75 -83.24 -19.449 -83.24 -18.417 C -83.24 -17.684 -83.735 -16.378 -84.339 -15.515 C -85.397 -14.005 -85.31 -13.929 -81.984 -13.473 C -80.085 -13.213 -76.722 -13 -74.511 -13 C -71.047 -13 -70.49 -12.801 -70.49 -11.561 C -70.49 -9.375 -69.69 -7.75 -68.613 -7.75 C -67.589 -7.75 -62.99 -2.893 -62.99 -1.811 C -62.99 -1.461 -62.315 -0.998 -61.49 -0.783 C -60.341 -0.482 -59.99 0.24 -59.99 2.305 L -59.99 5 L -89.24 5 L -118.49 5 L -118.49 2.305 L -118.491 2.305 Z  M -61.491 2.375 C -61.491 1.395 -65.075 1.25 -89.241 1.25 C -113.408 1.25 -116.991 1.395 -116.991 2.375 C -116.991 3.355 -113.408 3.5 -89.241 3.5 C -65.075 3.5 -61.491 3.355 -61.491 2.375 Z  M -110.017 -3.625 C -108.528 -6.748 -109.291 -6.995 -112.014 -4.273 C -114.334 -1.953 -114.513 -1 -112.63 -1 C -111.813 -1 -110.769 -2.049 -110.017 -3.625 L -110.017 -3.625 Z  M -106.399 -3.65 C -105.729 -5.081 -105.437 -6.251 -105.75 -6.251 C -106.456 -6.251 -108.741 -2.834 -108.741 -1.777 C -108.741 -0.198 -107.58 -1.126 -106.399 -3.65 L -106.399 -3.65 Z  M -102.328 -3.838 C -101.77 -5.165 -101.616 -6.251 -101.985 -6.251 C -102.876 -6.251 -104.991 -3.187 -104.991 -1.897 C -104.991 -0.145 -103.39 -1.313 -102.328 -3.838 L -102.328 -3.838 Z  M -98.315 -3.363 C -97.313 -6.235 -97.313 -6.251 -98.222 -6.251 C -98.874 -6.251 -101.241 -2.457 -101.241 -1.413 C -101.241 -1.187 -100.768 -1.001 -100.19 -1.001 C -99.611 -1.001 -98.767 -2.064 -98.315 -3.363 L -98.315 -3.363 Z  M -93.731 -1.939 C -93.725 -2.454 -93.517 -3.635 -93.268 -4.564 C -92.69 -6.723 -94.835 -6.912 -95.965 -4.8 C -97.184 -2.522 -96.895 -1.001 -95.241 -1.001 C -94.416 -1.001 -93.737 -1.423 -93.731 -1.938 L -93.731 -1.939 Z  M -87.131 -3.439 C -87.326 -5.455 -87.681 -5.876 -89.187 -5.876 C -90.53 -5.876 -91.15 -5.347 -91.547 -3.861 C -92.205 -1.403 -91.856 -1.001 -89.069 -1.001 C -87.069 -1.001 -86.915 -1.196 -87.131 -3.439 L -87.131 -3.439 Z  M -81.741 -2.175 C -81.741 -2.821 -82.091 -4.002 -82.518 -4.8 C -83.466 -6.573 -85.866 -6.81 -85.196 -5.065 C -84.946 -4.412 -84.741 -3.231 -84.741 -2.44 C -84.741 -1.501 -84.22 -1.001 -83.241 -1.001 C -82.38 -1.001 -81.741 -1.501 -81.741 -2.176 L -81.741 -2.175 Z  M -77.657 -2.689 C -77.942 -3.617 -78.512 -4.798 -78.925 -5.314 C -80.323 -7.062 -80.854 -6.262 -80.045 -3.626 C -79.602 -2.182 -78.767 -1.001 -78.19 -1.001 C -77.448 -1.001 -77.292 -1.496 -77.657 -2.689 L -77.657 -2.689 Z  M -73.842 -3.204 C -74.928 -5.304 -76.341 -6.702 -76.809 -6.139 C -77.397 -5.432 -74.84 -1.001 -73.845 -1.001 C -72.823 -1.001 -72.822 -1.232 -73.842 -3.204 L -73.842 -3.204 Z  M -69.741 -1.959 C -69.741 -3.218 -71.883 -6.251 -72.772 -6.251 C -73.154 -6.251 -72.904 -5.07 -72.215 -3.626 C -70.959 -0.991 -69.741 -0.171 -69.741 -1.959 L -69.741 -1.959 Z  M -64.491 -1.649 C -64.491 -2.484 -68.248 -6.251 -69.081 -6.251 C -69.431 -6.251 -69.154 -5.07 -68.465 -3.626 C -67.714 -2.05 -66.669 -1.001 -65.852 -1.001 C -65.104 -1.001 -64.491 -1.293 -64.491 -1.649 L -64.491 -1.649 Z  M -71.384 -10.189 C -71.149 -11.409 -72.377 -11.501 -88.811 -11.501 C -106.045 -11.501 -106.491 -11.463 -106.491 -9.987 C -106.491 -8.506 -106.111 -8.478 -89.064 -8.675 C -73.155 -8.858 -71.614 -8.99 -71.384 -10.189 Z  M -84.741 -18.339 C -84.741 -19.068 -85.441 -20.852 -86.297 -22.303 C -87.153 -23.753 -87.744 -25.713 -87.61 -26.658 C -87.45 -27.785 -87.882 -28.642 -88.866 -29.148 C -91.016 -30.255 -90.885 -33.552 -88.679 -33.866 C -86.624 -34.158 -86.361 -32.193 -88.304 -31.061 C -89.404 -30.421 -89.246 -30.293 -87.329 -30.274 C -84.539 -30.246 -83.241 -31.424 -83.241 -33.984 C -83.241 -39.13 -88.483 -41.012 -92.483 -37.303 C -93.639 -36.231 -94.899 -34.527 -95.283 -33.516 C -96.365 -30.671 -94.958 -26.074 -92.005 -22.806 C -88.586 -19.022 -87.513 -16.954 -88.001 -15.089 C -88.372 -13.671 -88.285 -13.684 -86.569 -15.296 C -85.564 -16.24 -84.741 -17.61 -84.741 -18.339 L -84.741 -18.339 Z  M -96.118 -22.223 C -95.535 -22.926 -95.631 -24.121 -96.466 -26.536 C -97.782 -30.343 -97.408 -34.272 -95.532 -36.344 C -94.764 -37.192 -94.607 -37.751 -95.136 -37.751 C -96.668 -37.751 -98.986 -33.003 -98.98 -29.876 C -98.972 -25.848 -98.176 -21.251 -97.485 -21.251 C -97.177 -21.251 -96.562 -21.689 -96.118 -22.223 L -96.118 -22.223 Z  M -80.991 -22.726 C -80.991 -23.537 -80.44 -25.355 -79.767 -26.767 C -78.408 -29.618 -78.768 -33.518 -80.613 -35.933 C -81.641 -37.279 -81.686 -37.22 -81.281 -35.047 C -80.929 -33.16 -81.289 -32.215 -83.169 -30.073 C -85.757 -27.126 -86.112 -24.68 -84.25 -22.623 C -82.621 -20.823 -80.991 -20.874 -80.991 -22.726 L -80.991 -22.726 Z  M -100.88 -31.185 C -100.584 -33.382 -99.639 -35.678 -98.41 -37.185 C -96.7 -39.281 -96.664 -39.415 -98.157 -38.128 C -100.736 -35.904 -101.998 -32.97 -101.932 -29.351 C -101.864 -25.624 -101.557 -26.159 -100.88 -31.185 L -100.88 -31.185 Z  M -77.271 -34.823 C -77.756 -35.993 -78.596 -37.319 -79.138 -37.769 C -79.696 -38.232 -79.498 -37.361 -78.682 -35.76 C -77.89 -34.206 -77.184 -31.571 -77.115 -29.905 L -76.989 -26.876 L -76.689 -29.785 C -76.524 -31.385 -76.786 -33.652 -77.271 -34.823 L -77.271 -34.823 Z  M -133.491 -38.478 C -133.491 -38.877 -133.997 -39.01 -134.616 -38.772 C -135.235 -38.535 -135.741 -38.208 -135.741 -38.046 C -135.741 -37.884 -135.235 -37.751 -134.616 -37.751 C -133.997 -37.751 -133.491 -38.078 -133.491 -38.478 Z  M -42.741 -38.478 C -42.741 -38.877 -43.247 -39.01 -43.866 -38.772 C -44.485 -38.535 -44.991 -38.208 -44.991 -38.046 C -44.991 -37.884 -44.485 -37.751 -43.866 -37.751 C -43.247 -37.751 -42.741 -38.078 -42.741 -38.478 Z  M -133.491 -41.501 C -133.491 -41.914 -133.849 -42.251 -134.285 -42.251 C -134.722 -42.251 -134.871 -41.914 -134.616 -41.501 C -134.361 -41.089 -134.004 -40.751 -133.822 -40.751 C -133.64 -40.751 -133.491 -41.089 -133.491 -41.501 L -133.491 -41.501 Z  M -79.18 -42.235 C -68.776 -44.896 -60.687 -50.692 -54.747 -59.742 C -50.282 -66.546 -48.584 -72.561 -48.567 -81.626 C -48.556 -87.693 -48.908 -90.144 -50.409 -94.453 C -55.165 -108.11 -66.167 -118.013 -80.281 -121.339 C -93.709 -124.504 -107.869 -120.42 -117.769 -110.526 C -126.068 -102.232 -130.111 -92.426 -129.994 -80.876 C -129.886 -70.183 -125.783 -60.746 -117.761 -52.741 C -112.064 -47.055 -107.232 -44.27 -99.598 -42.27 C -92.486 -40.407 -86.37 -40.396 -79.18 -42.235 L -79.18 -42.235 Z  M -98.553 -43.841 C -108.578 -46.192 -119.514 -55.182 -124.102 -64.844 C -129.347 -75.887 -129.319 -87.54 -124.022 -98.593 C -119.38 -108.279 -108.502 -117.074 -98.241 -119.437 C -93.914 -120.434 -84.578 -120.436 -80.262 -119.443 C -70.74 -117.249 -60.041 -109.174 -55.59 -100.824 C -52.877 -95.733 -50.241 -86.275 -50.241 -81.627 C -50.241 -76.969 -52.879 -67.517 -55.608 -62.397 C -59.958 -54.236 -70.928 -45.961 -80.241 -43.816 C -84.317 -42.878 -94.502 -42.892 -98.553 -43.842 L -98.553 -43.841 Z  M -91.847 -46.714 C -92.476 -47.931 -92.991 -49.521 -92.991 -50.248 C -92.991 -51.223 -93.574 -50.888 -95.211 -48.973 C -97.97 -45.744 -97.988 -45.426 -95.429 -45.038 C -90.536 -44.297 -90.585 -44.274 -91.847 -46.714 Z  M -83.484 -45.138 L -81.853 -45.626 L -83.57 -47.612 L -85.287 -49.597 L -86.502 -47.049 C -87.64 -44.663 -87.634 -44.506 -86.417 -44.576 C -85.701 -44.617 -84.382 -44.87 -83.484 -45.138 L -83.484 -45.138 Z  M -87.448 -49.016 C -86.645 -51.022 -86.255 -54.224 -86.284 -58.579 C -86.331 -65.851 -87.462 -70.232 -89.387 -70.602 C -92.476 -71.194 -93.834 -55.036 -91.19 -49.167 C -90.405 -47.426 -89.514 -46.001 -89.209 -46.001 C -88.904 -46.001 -88.111 -47.358 -87.448 -49.016 L -87.448 -49.016 Z  M -101.659 -48.439 C -102.378 -50.778 -102.435 -50.801 -104.324 -49.477 L -106.005 -48.3 L -104.185 -47.573 C -101.444 -46.478 -101.093 -46.598 -101.659 -48.439 Z  M -79.503 -52.039 C -79.497 -53.916 -79.803 -55.772 -80.184 -56.164 C -80.565 -56.556 -81.662 -58.436 -82.622 -60.344 L -84.366 -63.811 L -84.228 -57.719 C -84.152 -54.368 -84.068 -51.419 -84.041 -51.165 C -84.012 -50.911 -83.269 -49.786 -82.387 -48.664 C -80.389 -46.124 -79.519 -47.142 -79.503 -52.039 L -79.503 -52.039 Z  M -73.623 -47.771 L -71.88 -48.738 L -74.479 -50.721 L -77.079 -52.704 L -77.525 -51.04 C -78.669 -46.773 -77.375 -45.69 -73.623 -47.771 L -73.623 -47.771 Z  M -96.966 -49.189 C -94.542 -51.85 -94.037 -53.603 -94.538 -57.626 C -94.795 -59.689 -95.059 -60.988 -95.123 -60.514 C -95.188 -60.04 -96.338 -58.015 -97.679 -56.014 C -99.444 -53.379 -100.051 -51.704 -99.881 -49.939 C -99.604 -47.06 -99.038 -46.914 -96.966 -49.189 L -96.966 -49.189 Z  M -100.179 -55.36 C -97.605 -58.735 -94.534 -65.409 -93.977 -68.836 C -93.638 -70.93 -93.827 -71.581 -94.896 -71.991 C -97.95 -73.163 -106.491 -59.155 -106.491 -52.974 L -106.491 -49.649 L -104.351 -51.173 C -103.174 -52.011 -101.296 -53.896 -100.179 -55.36 L -100.179 -55.36 Z  M -108.31 -53.161 C -108.036 -54.624 -107.969 -55.979 -108.161 -56.171 C -108.354 -56.363 -109.822 -55.973 -111.424 -55.304 L -114.338 -54.086 L -112.102 -52.297 C -110.872 -51.314 -109.628 -50.507 -109.338 -50.505 C -109.047 -50.503 -108.585 -51.698 -108.31 -53.161 L -108.31 -53.161 Z  M -70.94 -53.689 C -71.65 -58.544 -74.38 -63.953 -78.321 -68.314 C -83.711 -74.277 -85.64 -73.598 -83.228 -66.587 C -81.186 -60.652 -78.642 -56.514 -75.031 -53.251 C -71.065 -49.668 -70.363 -49.743 -70.94 -53.689 L -70.94 -53.689 Z  M -64.491 -54.119 C -64.491 -54.402 -65.672 -55.004 -67.116 -55.456 C -69.952 -56.343 -69.968 -56.324 -69.275 -52.859 L -68.809 -50.529 L -66.65 -52.066 C -65.463 -52.911 -64.491 -53.835 -64.491 -54.119 L -64.491 -54.119 Z  M -108.213 -58.511 C -107.717 -58.717 -106.578 -60.397 -105.684 -62.245 C -104.789 -64.093 -103.171 -66.678 -102.087 -67.99 L -100.116 -70.376 L -102.661 -68.272 C -104.06 -67.115 -106.869 -65.325 -108.903 -64.294 C -111.555 -62.95 -112.905 -61.695 -113.671 -59.86 C -115.288 -55.991 -115.053 -55.597 -111.929 -56.934 C -110.382 -57.596 -108.71 -58.306 -108.213 -58.511 L -108.213 -58.511 Z  M -114.741 -61.462 C -114.741 -61.621 -115.922 -61.751 -117.366 -61.751 C -120.445 -61.751 -120.502 -61.575 -118.382 -58.598 L -116.774 -56.339 L -115.757 -58.756 C -115.199 -60.086 -114.741 -61.303 -114.741 -61.462 Z  M -64.718 -58.939 C -66.144 -62.808 -66.915 -63.704 -70.283 -65.408 C -72.025 -66.289 -74.725 -68.105 -76.283 -69.443 L -79.116 -71.876 L -76.677 -69.036 C -75.336 -67.474 -73.395 -64.531 -72.364 -62.497 C -70.55 -58.916 -67.718 -56.593 -65.093 -56.531 C -63.971 -56.506 -63.927 -56.791 -64.718 -58.939 Z  M -59.011 -60.194 L -57.656 -62.501 L -60.779 -62.501 C -63.463 -62.501 -63.824 -62.317 -63.35 -61.189 C -63.047 -60.467 -62.632 -59.109 -62.429 -58.172 C -61.996 -56.172 -61.041 -56.737 -59.011 -60.194 Z  M -109.703 -65.859 C -104.855 -68.073 -98.153 -74.148 -98.773 -75.766 C -99.875 -78.637 -111.875 -73.59 -116.896 -68.143 C -118.598 -66.296 -119.991 -64.396 -119.991 -63.922 C -119.991 -62.656 -114.419 -63.705 -109.703 -65.859 Z  M -57.741 -64.426 C -57.741 -65.68 -62.061 -70.208 -65.111 -72.152 C -69.027 -74.646 -77.681 -77.781 -78.779 -77.103 C -82.158 -75.015 -72.183 -66.76 -63.932 -64.815 C -60.552 -64.019 -57.741 -63.842 -57.741 -64.426 Z  M -120.957 -70.172 C -122.642 -70.473 -124.147 -70.594 -124.3 -70.441 C -124.454 -70.287 -124.045 -68.883 -123.391 -67.319 L -122.204 -64.477 L -120.048 -67.051 L -117.892 -69.625 L -120.957 -70.172 Z  M -54.158 -69.667 C -54.314 -69.823 -55.357 -69.706 -56.476 -69.406 C -58.454 -68.877 -58.476 -68.812 -57.263 -67.08 L -56.014 -65.298 L -54.944 -67.34 C -54.355 -68.464 -54.002 -69.51 -54.158 -69.667 L -54.158 -69.667 Z  M -55.184 -71.391 C -54.736 -72.115 -57.287 -74.635 -59.754 -75.906 C -60.655 -76.37 -63.187 -76.746 -65.379 -76.742 L -69.366 -76.734 L -64.866 -73.801 C -60.574 -71.003 -56.11 -69.892 -55.184 -71.39 L -55.184 -71.391 Z  M -111.776 -74.144 L -107.686 -76.75 L -113.58 -76.75 C -118.836 -76.75 -119.764 -76.529 -122.143 -74.715 L -124.811 -72.68 L -122.964 -72.165 C -118.809 -71.006 -115.891 -71.522 -111.776 -74.144 Z  M -83.349 -74.15 C -78.619 -78.13 -78.602 -85.106 -83.312 -89.07 C -86.541 -91.787 -91.942 -91.787 -95.17 -89.07 C -102.129 -83.215 -98.264 -72.25 -89.241 -72.25 C -86.446 -72.25 -85.085 -72.689 -83.349 -74.15 L -83.349 -74.15 Z  M -92.81 -74.744 C -99.778 -78.614 -97.091 -89.5 -89.169 -89.5 C -86.428 -89.5 -83.148 -87.211 -82.02 -84.511 C -79.273 -77.935 -86.605 -71.298 -92.81 -74.744 L -92.81 -74.744 Z  M -86.295 -76.348 C -83.987 -77.541 -83.241 -78.858 -83.241 -81.736 C -83.241 -86.159 -87.421 -88.937 -91.52 -87.239 C -96.479 -85.184 -96.679 -78.749 -91.866 -76.116 C -89.843 -75.01 -88.798 -75.053 -86.295 -76.348 L -86.295 -76.348 Z  M -52.253 -76.987 C -52.015 -78.561 -52.055 -79.741 -52.343 -79.609 C -52.631 -79.476 -54.082 -78.898 -55.567 -78.324 L -58.268 -77.28 L -55.942 -75.19 C -53.286 -72.804 -52.855 -73.013 -52.253 -76.987 L -52.253 -76.987 Z  M -123.251 -75.957 L -121.399 -77.414 L -123.695 -78.601 L -125.991 -79.789 L -125.991 -77.145 C -125.991 -74.087 -125.757 -73.986 -123.251 -75.957 L -123.251 -75.957 Z  M -104.616 -79.265 C -101.662 -79.951 -100.866 -80.453 -100.866 -81.631 C -100.866 -83.535 -105.59 -84.868 -112.491 -84.909 C -117.4 -84.938 -124.505 -83.03 -124.741 -81.619 C -124.956 -80.342 -117.578 -78.314 -112.866 -78.355 C -110.391 -78.378 -106.679 -78.786 -104.616 -79.265 L -104.616 -79.265 Z  M -57.366 -79.596 C -55.304 -80.3 -53.616 -81.213 -53.616 -81.625 C -53.616 -82.977 -61.001 -84.935 -65.991 -84.907 C -72.889 -84.868 -77.616 -83.536 -77.616 -81.631 C -77.616 -78.582 -64.268 -77.24 -57.366 -79.596 L -57.366 -79.596 Z  M -52.319 -86.301 L -52.866 -89.383 L -55.015 -87.528 C -56.197 -86.508 -57.041 -85.606 -56.89 -85.524 C -54.005 -83.955 -52.081 -83.015 -51.944 -83.106 C -51.849 -83.169 -52.018 -84.607 -52.319 -86.301 L -52.319 -86.301 Z  M -122.505 -88.018 C -125.138 -90.37 -125.961 -89.892 -125.98 -85.998 L -125.991 -83.621 L -123.071 -84.768 L -120.151 -85.915 L -122.505 -88.018 Z  M -99.023 -87.191 C -97.488 -90.059 -109.476 -97.794 -117.179 -98.906 C -119.138 -99.189 -120.741 -99.161 -120.741 -98.844 C -120.741 -97.601 -117 -93.461 -113.996 -91.379 C -111.38 -89.566 -102.305 -85.841 -100.33 -85.77 C -100.035 -85.759 -99.447 -86.399 -99.023 -87.191 L -99.023 -87.191 Z  M -111.366 -88.138 C -113.016 -89.003 -115.171 -90.338 -116.155 -91.105 C -117.982 -92.53 -122.584 -93.016 -123.299 -91.859 C -123.725 -91.17 -121.309 -88.727 -118.866 -87.376 C -118.041 -86.919 -115.341 -86.551 -112.866 -86.556 L -108.366 -86.568 L -111.366 -88.139 L -111.366 -88.138 Z  M -69.771 -89.173 C -65.438 -91.117 -58.491 -97.345 -58.491 -99.284 C -58.491 -100.521 -64.053 -99.482 -68.78 -97.361 C -70.932 -96.395 -74.371 -94.036 -76.421 -92.119 C -82.754 -86.195 -79.559 -84.78 -69.771 -89.173 Z  M -56.34 -88.536 L -53.671 -90.571 L -55.519 -91.086 C -59.257 -92.128 -62.288 -91.74 -65.313 -89.83 C -66.985 -88.774 -69.088 -87.614 -69.985 -87.253 C -71.121 -86.795 -69.702 -86.581 -65.312 -86.548 C -59.573 -86.505 -58.769 -86.683 -56.34 -88.536 L -56.34 -88.536 Z  M -94.283 -93.655 C -94.564 -97.411 -99.459 -106.299 -103.088 -109.644 C -106.288 -112.594 -107.991 -113.467 -107.991 -112.158 C -107.991 -111.832 -107.472 -109.573 -106.838 -107.138 C -105.506 -102.025 -103.602 -98.68 -99.448 -94.157 C -96.056 -90.462 -94.029 -90.265 -94.283 -93.655 Z  M -81.455 -92.144 C -79.027 -94.571 -75.122 -99.736 -73.911 -102.119 C -72.662 -104.578 -70.976 -112.735 -71.589 -113.348 C -72.38 -114.139 -76.936 -109.863 -79.454 -105.967 C -84.87 -97.588 -86.369 -87.23 -81.455 -92.144 L -81.455 -92.144 Z  M -54.01 -93.676 C -54.413 -94.735 -55.11 -96.289 -55.56 -97.129 C -56.346 -98.598 -56.456 -98.561 -58.482 -96.141 L -60.588 -93.625 L -57.102 -92.777 C -55.185 -92.31 -53.54 -91.888 -53.447 -91.839 C -53.354 -91.79 -53.608 -92.617 -54.01 -93.676 Z  M -102.143 -94.563 C -103.206 -95.697 -105.128 -98.513 -106.414 -100.82 C -108.595 -104.735 -111.055 -106.75 -113.651 -106.75 C -115.066 -106.75 -115.026 -105.898 -113.458 -102.61 C -112.533 -100.67 -110.976 -99.281 -107.875 -97.628 C -105.51 -96.367 -102.998 -94.698 -102.292 -93.918 C -101.586 -93.138 -100.829 -92.5 -100.61 -92.5 C -100.39 -92.5 -101.08 -93.428 -102.143 -94.563 L -102.143 -94.563 Z  M -87.221 -95.509 C -85.871 -99.455 -86.006 -110.633 -87.448 -114.235 C -88.111 -115.893 -88.904 -117.25 -89.209 -117.25 C -89.514 -117.25 -90.405 -115.826 -91.19 -114.085 C -93.834 -108.215 -92.476 -92.058 -89.387 -92.65 C -88.688 -92.784 -87.713 -94.071 -87.221 -95.509 L -87.221 -95.509 Z  M -69.809 -98.841 C -66.947 -100.291 -65.919 -101.338 -64.931 -103.808 C -64.242 -105.529 -63.791 -107.05 -63.929 -107.188 C -64.067 -107.326 -65.878 -106.651 -67.955 -105.689 C -70.736 -104.401 -72.001 -103.287 -72.758 -101.46 C -73.323 -100.096 -74.96 -97.438 -76.396 -95.553 L -79.007 -92.125 L -76.221 -94.564 C -74.689 -95.906 -71.804 -97.83 -69.809 -98.841 Z  M -120.16 -94.375 C -120.047 -94.464 -120.585 -95.317 -121.356 -96.269 L -122.757 -98 L -123.587 -95.62 C -124.403 -93.28 -124.383 -93.248 -122.391 -93.726 C -121.278 -93.993 -120.273 -94.285 -120.16 -94.375 L -120.16 -94.375 Z  M -94.148 -105.236 C -94.183 -111.069 -94.422 -112.288 -95.928 -114.325 C -97.273 -116.144 -97.815 -116.445 -98.318 -115.652 C -99.669 -113.518 -98.967 -108.761 -96.554 -103.698 C -95.213 -100.886 -94.114 -98.566 -94.112 -98.543 C -94.11 -98.52 -94.127 -101.531 -94.148 -105.236 L -94.148 -105.236 Z  M -115.057 -102.438 C -115.601 -103.778 -116.198 -105.368 -116.384 -105.971 C -116.612 -106.712 -117.378 -106.104 -118.748 -104.096 L -120.773 -101.125 L -117.57 -100.675 C -115.808 -100.428 -114.299 -100.175 -114.217 -100.113 C -114.135 -100.051 -114.513 -101.097 -115.057 -102.438 L -115.057 -102.438 Z  M -58.495 -102.063 C -58.497 -102.372 -59.272 -103.592 -60.218 -104.774 L -61.937 -106.922 L -62.769 -104.211 L -63.601 -101.5 L -61.046 -101.5 C -59.641 -101.5 -58.493 -101.753 -58.495 -102.063 Z  M -79.835 -108.625 C -78.616 -110.26 -78.261 -111.541 -78.535 -113.313 C -79.01 -116.391 -79.687 -116.377 -82.078 -113.242 C -83.642 -111.192 -83.986 -109.925 -83.961 -106.304 L -83.931 -101.875 L -82.722 -104.125 C -82.057 -105.363 -80.758 -107.388 -79.835 -108.625 L -79.835 -108.625 Z  M -109.15 -110.041 L -109.655 -112.736 L -111.823 -111.192 C -113.016 -110.343 -113.991 -109.403 -113.991 -109.104 C -113.991 -108.603 -109.415 -106.909 -108.88 -107.213 C -108.751 -107.287 -108.872 -108.559 -109.15 -110.041 L -109.15 -110.041 Z  M -66.179 -108.059 C -65.251 -108.26 -64.491 -108.7 -64.491 -109.037 C -64.491 -109.569 -67.105 -111.655 -69.366 -112.926 C -69.807 -113.174 -70.199 -111.951 -70.317 -109.964 C -70.494 -106.98 -70.361 -106.646 -69.192 -107.136 C -68.463 -107.443 -67.107 -107.858 -66.179 -108.059 Z  M -100.732 -116.241 C -100.957 -116.466 -102.403 -116.232 -103.946 -115.724 L -106.751 -114.798 L -104.183 -112.693 L -101.616 -110.588 L -100.97 -113.21 C -100.614 -114.652 -100.507 -116.016 -100.732 -116.241 L -100.732 -116.241 Z  M -72.825 -114.784 C -72.664 -114.88 -73.471 -115.315 -74.616 -115.75 C -77.168 -116.72 -77.564 -116.389 -76.921 -113.826 C -76.427 -111.857 -76.4 -111.849 -74.768 -113.221 C -73.86 -113.984 -72.985 -114.688 -72.825 -114.784 L -72.825 -114.784 Z  M -81.085 -117.571 C -81.24 -117.713 -82.825 -118.07 -84.607 -118.365 L -87.848 -118.9 L -86.267 -115.801 L -84.686 -112.701 L -82.745 -115.007 C -81.678 -116.276 -80.931 -117.43 -81.085 -117.571 Z  M -91.107 -118.611 C -91.234 -118.741 -92.538 -118.622 -94.005 -118.347 L -96.672 -117.846 L -95.05 -115.652 L -93.427 -113.457 L -92.152 -115.916 C -91.451 -117.269 -90.981 -118.481 -91.107 -118.611 L -91.107 -118.611 Z  M -42.741 -41.081 C -42.741 -41.263 -43.079 -41.62 -43.491 -41.875 C -43.904 -42.13 -44.241 -41.981 -44.241 -41.545 C -44.241 -41.108 -43.904 -40.75 -43.491 -40.75 C -43.079 -40.75 -42.741 -40.899 -42.741 -41.081 Z  M -133.202 -45.578 C -133.43 -46.171 -133.874 -51.656 -134.19 -57.766 L -134.764 -68.875 L -134.878 -59.032 C -134.994 -48.972 -134.546 -44.5 -133.421 -44.5 C -133.073 -44.5 -132.975 -44.985 -133.202 -45.578 L -133.202 -45.578 Z  M -131.16 -49.428 C -131.546 -52.075 -131.845 -52.927 -131.9 -51.532 C -131.998 -49.018 -131.217 -44.275 -130.777 -44.714 C -130.631 -44.86 -130.803 -46.982 -131.16 -49.428 L -131.16 -49.428 Z  M -47.479 -46.141 C -47.718 -46.739 -47.896 -46.562 -47.932 -45.688 C -47.965 -44.897 -47.787 -44.454 -47.538 -44.703 C -47.289 -44.953 -47.262 -45.6 -47.479 -46.141 L -47.479 -46.141 Z  M -43.287 -53.688 C -43.51 -58.741 -43.815 -63.016 -43.966 -63.188 C -44.117 -63.36 -44.294 -60.153 -44.359 -56.063 C -44.423 -51.972 -44.541 -47.697 -44.622 -46.563 C -44.709 -45.33 -44.388 -44.5 -43.825 -44.5 C -43.098 -44.5 -42.975 -46.597 -43.287 -53.688 L -43.287 -53.688 Z  M -40.424 -48.298 C -40.809 -50.259 -41.106 -50.855 -41.149 -49.75 C -41.227 -47.721 -40.467 -44.275 -40.036 -44.705 C -39.891 -44.851 -40.065 -46.467 -40.424 -48.298 L -40.424 -48.298 Z  M -137.494 -49.188 C -137.703 -49.703 -137.873 -49.282 -137.873 -48.25 C -137.873 -47.219 -137.702 -46.797 -137.494 -47.313 C -137.286 -47.828 -137.286 -48.672 -137.494 -49.188 Z  M -41.494 -55.188 C -41.703 -55.703 -41.873 -55.282 -41.873 -54.25 C -41.873 -53.219 -41.702 -52.797 -41.494 -53.313 C -41.286 -53.828 -41.286 -54.672 -41.494 -55.188 L -41.494 -55.188 Z  M -132.212 -58.938 C -132.391 -59.866 -132.537 -59.106 -132.537 -57.25 C -132.537 -55.394 -132.391 -54.635 -132.212 -55.563 C -132.033 -56.491 -132.033 -58.01 -132.212 -58.938 Z  M -135.736 -70.003 C -134.117 -70.829 -132.443 -72.157 -132.016 -72.953 C -130.833 -75.164 -131.093 -75.795 -132.412 -73.913 C -134.071 -71.544 -137.423 -70 -140.91 -70 C -142.556 -70 -144.111 -69.663 -144.366 -69.25 C -145.208 -67.889 -138.781 -68.449 -135.736 -70.003 Z  M -33.366 -69.25 C -33.621 -69.663 -35.351 -70 -37.21 -70 C -40.849 -70 -42.841 -70.774 -45.656 -73.282 L -47.445 -74.875 L -46.533 -73.124 C -46.031 -72.161 -44.213 -70.734 -42.493 -69.953 C -39.187 -68.452 -32.557 -67.941 -33.366 -69.25 L -33.366 -69.25 Z  M -134.018 -74.43 L -131.616 -76.884 L -134.241 -75.32 C -137.178 -73.57 -141.51 -73.299 -145.201 -74.633 C -147.166 -75.344 -147.887 -75.313 -148.896 -74.476 C -150.031 -73.533 -149.913 -73.347 -147.632 -72.485 C -146.249 -71.962 -143.159 -71.634 -140.768 -71.755 C -136.99 -71.947 -136.104 -72.298 -134.018 -74.43 L -134.018 -74.43 Z  M -30.85 -72.525 C -28.571 -73.35 -28.452 -73.534 -29.587 -74.476 C -30.596 -75.313 -31.316 -75.344 -33.281 -74.633 C -36.334 -73.529 -40.863 -73.495 -42.855 -74.561 C -45.471 -75.961 -45.285 -74.657 -42.638 -73.044 C -39.782 -71.303 -34.83 -71.085 -30.85 -72.525 L -30.85 -72.525 Z  M -134.79 -77.152 C -132.264 -78.869 -131.991 -79.379 -131.991 -82.385 C -131.991 -85.137 -132.327 -85.936 -133.924 -86.982 C -136.895 -88.929 -139.794 -87.641 -140.104 -84.237 C -140.328 -81.766 -140.281 -81.706 -139.217 -83.125 C -138.303 -84.345 -137.911 -84.446 -137.121 -83.667 C -135.847 -82.41 -137.153 -80.217 -139.373 -79.887 C -140.5 -79.719 -141.239 -80.224 -141.859 -81.585 C -142.449 -82.88 -143.154 -83.391 -143.987 -83.127 C -144.672 -82.909 -146.829 -83.581 -148.781 -84.618 C -152.469 -86.579 -153.86 -86.443 -155.957 -83.916 C -156.782 -82.923 -156.684 -82.75 -155.296 -82.75 C -153.282 -82.75 -149.865 -81.033 -148.437 -79.303 C -144.9 -75.021 -139.24 -74.129 -134.79 -77.152 Z  M -33.655 -76.567 C -32.577 -77.286 -30.248 -78.972 -28.48 -80.313 C -26.713 -81.653 -24.432 -82.75 -23.412 -82.75 C -21.82 -82.75 -21.694 -82.915 -22.525 -83.916 C -24.601 -86.418 -26.187 -86.68 -29.043 -84.995 C -30.537 -84.114 -32.681 -83.366 -33.806 -83.334 C -35.193 -83.295 -36.112 -82.707 -36.656 -81.513 C -37.83 -78.936 -41.991 -79.344 -41.991 -82.036 C -41.991 -83.844 -40.686 -84.596 -39.4 -83.528 C -37.977 -82.347 -37.2 -83.804 -38.228 -85.726 C -39.37 -87.859 -42.355 -88.426 -44.622 -86.941 C -46.071 -85.991 -46.486 -85.087 -46.467 -82.921 C -46.453 -81.383 -46.032 -79.604 -45.53 -78.966 C -42.59 -75.235 -37.263 -74.159 -33.655 -76.567 L -33.655 -76.567 Z  M -141.252 -87.25 C -138.332 -89.813 -136.677 -90.023 -133.266 -88.259 C -131.185 -87.183 -130.995 -87.174 -131.838 -88.19 C -134.562 -91.473 -141.464 -92.708 -145.481 -90.631 C -146.672 -90.015 -148.174 -89.713 -148.819 -89.961 C -150.594 -90.642 -150.223 -88.914 -148.15 -86.841 C -145.746 -84.437 -144.362 -84.519 -141.252 -87.25 L -141.252 -87.25 Z  M -30.332 -86.841 C -28.551 -88.622 -27.751 -90.796 -29.208 -89.896 C -29.603 -89.652 -31.163 -89.97 -32.675 -90.601 C -36.174 -92.064 -39.956 -92.065 -42.778 -90.607 C -45.658 -89.118 -45.574 -88.751 -42.469 -89.255 C -40.386 -89.593 -39.506 -89.263 -37.407 -87.355 C -34.318 -84.547 -32.742 -84.433 -30.332 -86.842 L -30.332 -86.841 Z  M -131.241 -90.189 C -131.241 -91.72 -136.835 -94.296 -140.333 -94.375 C -142.294 -94.419 -143.712 -94.155 -143.485 -93.788 C -143.258 -93.42 -142.427 -93.288 -141.638 -93.494 C -139.653 -94.014 -135.459 -92.752 -133.364 -91.007 C -131.329 -89.311 -131.241 -89.277 -131.241 -90.189 L -131.241 -90.189 Z  M -39.824 -93.361 C -38.747 -93.422 -37.306 -93.507 -36.621 -93.549 C -34.336 -93.689 -34.59 -94.373 -36.993 -94.553 C -40.324 -94.802 -43.711 -93.541 -45.818 -91.267 L -47.616 -89.327 L -44.699 -91.289 C -43.095 -92.367 -40.901 -93.3 -39.824 -93.361 L -39.824 -93.361 Z  M -133.301 -97.86 C -133.717 -98.276 -133.827 -97.577 -133.58 -96.086 C -133.235 -94.004 -133.129 -93.898 -132.893 -95.399 C -132.74 -96.375 -132.923 -97.482 -133.301 -97.86 L -133.301 -97.86 Z  M -130.491 -96.482 C -130.491 -97.022 -130.987 -98.119 -131.594 -98.919 C -132.59 -100.236 -132.611 -100.142 -131.804 -97.938 C -130.846 -95.318 -130.491 -94.925 -130.491 -96.482 L -130.491 -96.482 Z  M -38.941 -99.879 C -40.003 -102.443 -42.996 -104.031 -45.265 -103.234 C -46.588 -102.77 -46.344 -102.602 -43.866 -102.274 C -41.421 -101.949 -40.658 -101.438 -39.741 -99.512 C -38.352 -96.593 -37.703 -96.89 -38.941 -99.879 L -38.941 -99.879 Z  M -130.361 -101.703 C -132.491 -103.833 -136.139 -103.723 -138.22 -101.466 L -139.866 -99.681 L -138.204 -101.059 C -135.85 -103.01 -132.749 -102.814 -130.901 -100.597 C -130.057 -99.585 -129.242 -99.071 -129.09 -99.456 C -128.938 -99.841 -129.51 -100.853 -130.361 -101.703 L -130.361 -101.703 Z  M -41.991 -99.625 C -42.505 -100.244 -43.474 -100.745 -44.146 -100.739 C -44.967 -100.731 -44.752 -100.388 -43.491 -99.688 C -41.009 -98.31 -40.896 -98.306 -41.991 -99.625 L -41.991 -99.625 Z  M -48.136 -101.145 C -48.367 -101.376 -48.786 -100.96 -49.068 -100.22 C -49.475 -99.151 -49.389 -99.065 -48.648 -99.8 C -48.136 -100.309 -47.905 -100.914 -48.136 -101.145 Z  M -98.504 -126.254 C -99.663 -127.631 -100.587 -129.892 -100.88 -132.066 C -101.556 -137.09 -101.864 -137.627 -101.932 -133.908 C -102.013 -129.528 -99.516 -124.678 -96.862 -124.06 C -96.722 -124.027 -97.461 -125.014 -98.504 -126.254 Z  M -84.409 -125.667 C -82.045 -129.042 -83.321 -133 -86.773 -133 C -88.322 -133 -88.405 -132.841 -87.56 -131.477 C -86.782 -130.222 -86.81 -129.834 -87.716 -129.27 C -89.201 -128.347 -90.875 -129.816 -90.59 -131.791 C -90.467 -132.642 -89.691 -133.684 -88.866 -134.107 C -87.882 -134.611 -87.45 -135.466 -87.61 -136.593 C -87.744 -137.538 -87.153 -139.498 -86.297 -140.949 C -84.417 -144.136 -84.346 -145.571 -85.982 -147.379 C -87.57 -149.133 -88.451 -149.133 -87.992 -147.379 C -87.772 -146.538 -88.672 -144.726 -90.319 -142.692 C -91.796 -140.868 -93.715 -137.89 -94.583 -136.075 C -95.945 -133.227 -96.044 -132.385 -95.308 -129.928 C -93.69 -124.527 -87.031 -121.924 -84.409 -125.667 L -84.409 -125.667 Z  M -96.094 -127.78 C -97.776 -131.006 -97.657 -135.304 -95.804 -138.271 C -95.059 -139.464 -95.126 -139.956 -96.176 -141.006 C -96.879 -141.71 -97.662 -142.079 -97.915 -141.826 C -98.168 -141.573 -98.557 -138.717 -98.779 -135.479 C -99.162 -129.886 -99.08 -129.471 -97.145 -127.171 C -94.448 -123.966 -94.186 -124.118 -96.094 -127.78 Z  M -77.635 -127.713 C -77.006 -128.93 -76.539 -131.377 -76.597 -133.15 L -76.703 -136.375 L -77.188 -132.625 C -77.455 -130.563 -78.094 -128.116 -78.609 -127.188 C -79.123 -126.26 -79.372 -125.5 -79.162 -125.5 C -78.952 -125.5 -78.265 -126.496 -77.636 -127.713 L -77.635 -127.713 Z  M -79.027 -131.339 C -78.705 -133.051 -78.954 -134.779 -79.767 -136.484 C -80.44 -137.896 -80.991 -139.715 -80.991 -140.526 C -80.991 -142.305 -81.624 -142.374 -83.824 -140.833 C -86.284 -139.11 -86.006 -135.88 -83.153 -133.028 C -81.197 -131.072 -80.889 -130.297 -81.265 -128.283 C -81.683 -126.044 -81.638 -125.976 -80.613 -127.318 C -80.006 -128.112 -79.293 -129.921 -79.027 -131.339 L -79.027 -131.339 Z " fill="rgb(255,255,255)"/></g></svg>