<?xml version="1.0" encoding="UTF-8" standalone="no"?><!-- Generator: Gravit.io --><svg xmlns="http://www.w3.org/2000/svg" xmlns:xlink="http://www.w3.org/1999/xlink" style="isolation:isolate" viewBox="212 -147.25 114.564 155.25" width="114.564pt" height="155.25pt"><g><path d=" M 240.064 7.5 C 239.789 7.225 239.564 6.012 239.564 4.805 C 239.564 3.226 239.994 2.497 241.094 2.209 C 241.936 1.99 243.134 0.825 243.756 -0.379 C 244.378 -1.582 245.968 -3.221 247.288 -4.021 C 248.771 -4.919 249.835 -6.265 250.07 -7.539 C 250.387 -9.259 250.948 -9.69 253.445 -10.132 C 255.092 -10.425 258.147 -10.683 260.234 -10.707 C 262.32 -10.729 264.638 -11.196 265.384 -11.742 C 266.639 -12.659 266.653 -12.902 265.577 -14.984 C 263.589 -18.828 262.414 -19.384 260.111 -17.573 C 257.972 -15.89 255.695 -15.528 254.939 -16.75 C 254.685 -17.162 254.833 -17.5 255.27 -17.5 C 255.707 -17.5 256.064 -18.386 256.064 -19.469 C 256.064 -21.241 255.847 -21.394 253.89 -21.003 C 251.73 -20.571 251.718 -20.587 252.054 -23.721 C 252.746 -30.187 253.148 -31.664 254.929 -34.289 L 256.755 -36.979 L 255.172 -37.826 C 254.258 -38.315 252.212 -38.484 250.327 -38.226 C 246.575 -37.712 246.251 -38.383 248.564 -41.875 C 249.384 -43.112 250.057 -44.716 250.059 -45.437 C 250.068 -47.356 252.776 -49.75 254.939 -49.75 C 256.566 -49.75 256.814 -49.417 256.814 -47.241 C 256.814 -45.623 257.384 -44.226 258.42 -43.304 L 260.025 -41.875 L 259.633 -48.347 C 259.263 -54.463 259.082 -55.023 256.34 -58.516 C 254.745 -60.549 252.258 -64.343 250.814 -66.948 C 249.371 -69.552 247.135 -72.907 245.846 -74.404 C 244.558 -75.901 242.622 -78.431 241.545 -80.027 C 239.953 -82.384 239.494 -82.689 239.097 -81.655 C 238.231 -79.397 240.161 -60.123 241.767 -55 C 243.704 -48.819 243.702 -47.01 241.758 -45.97 C 239.104 -44.549 237.315 -42.329 237.315 -40.455 C 237.315 -39.468 236.82 -38.47 236.214 -38.238 C 235.03 -37.784 233.981 -38.852 234.611 -39.871 C 235.084 -40.637 231.415 -44.742 229.195 -45.93 C 227.281 -46.955 227.149 -48.57 228.679 -52.232 C 230.102 -55.638 232.058 -67.643 232.063 -73 L 232.066 -77.125 L 228.675 -77.012 C 226.81 -76.95 224.763 -76.699 224.127 -76.455 C 223.206 -76.101 223.018 -76.506 223.205 -78.443 C 223.401 -80.48 223.165 -80.914 221.752 -81.115 C 220.824 -81.246 220.064 -80.993 220.064 -80.552 C 220.064 -80.111 219.727 -79.75 219.314 -79.75 C 217.97 -79.75 218.525 -83.736 220.102 -85.416 L 221.64 -87.053 L 219.295 -89.026 C 216.59 -91.302 214.308 -91.58 213.872 -89.688 C 213.627 -88.628 213.379 -88.767 212.585 -90.407 C 211.737 -92.16 211.782 -92.713 212.913 -94.44 C 213.634 -95.54 215.2 -96.809 216.394 -97.26 C 218.056 -97.887 218.564 -98.557 218.564 -100.12 C 218.564 -101.243 218.902 -102.37 219.314 -102.625 C 219.727 -102.88 220.064 -102.71 220.064 -102.247 C 220.064 -101.749 221.06 -101.501 222.502 -101.64 C 224.763 -101.858 224.922 -102.051 224.695 -104.313 C 224.463 -106.637 225.453 -107.596 226.439 -106 C 227.258 -104.675 228.314 -105.199 228.331 -106.938 C 228.348 -108.636 230.939 -114.993 231.915 -115.729 C 232.203 -115.947 232.946 -117.11 233.564 -118.315 C 234.183 -119.519 235.078 -120.633 235.554 -120.791 C 236.03 -120.948 237.869 -118.354 239.642 -115.027 L 242.865 -108.978 L 246.277 -112.331 C 248.192 -114.212 251.902 -116.685 254.731 -117.965 L 259.772 -120.246 L 257.957 -122.92 C 256.959 -124.391 255.943 -127.177 255.699 -129.11 C 255.455 -131.043 255.111 -133.543 254.934 -134.664 C 254.629 -136.592 254.739 -136.677 256.955 -136.234 C 259.256 -135.774 259.29 -135.81 258.82 -138.161 C 258.18 -141.36 259.913 -142.014 262.994 -139.736 L 265.316 -138.019 L 267.44 -140.396 C 269.793 -143.029 270.147 -144.823 268.444 -145.477 C 266.724 -146.137 267.893 -147.25 270.305 -147.25 C 272.781 -147.25 274.673 -145.63 275.726 -142.608 C 276.338 -140.854 276.89 -140.5 279.013 -140.5 C 280.416 -140.5 281.564 -140.163 281.564 -139.75 C 281.564 -139.338 281.227 -139 280.814 -139 C 280.402 -139 280.064 -137.988 280.064 -136.75 C 280.064 -134.679 280.273 -134.5 282.689 -134.5 C 284.133 -134.5 285.314 -134.163 285.314 -133.75 C 285.314 -133.338 284.955 -133 284.516 -133 C 284.078 -133 283.791 -132.072 283.88 -130.938 C 284.176 -127.146 283.827 -125.728 281.902 -122.892 C 280.851 -121.342 280.091 -119.997 280.215 -119.902 C 280.338 -119.807 282.215 -118.779 284.385 -117.616 C 286.555 -116.454 290.034 -113.702 292.115 -111.501 C 294.196 -109.301 296.049 -107.5 296.232 -107.5 C 296.415 -107.5 296.584 -108.091 296.609 -108.813 C 296.666 -110.504 302.067 -120.459 303.117 -120.809 C 304.193 -121.168 310.064 -110.423 310.064 -108.095 C 310.064 -105.683 310.696 -105.134 312.413 -106.053 C 313.44 -106.602 313.836 -106.545 313.894 -105.839 C 313.938 -105.309 314.022 -104.2 314.081 -103.375 C 314.227 -101.355 317.511 -100.887 318.835 -102.697 C 319.698 -103.878 319.814 -103.664 319.814 -100.893 C 319.814 -98.326 320.071 -97.75 321.213 -97.75 C 323.824 -97.75 326.564 -94.864 326.564 -92.115 C 326.564 -89.397 325.494 -88.048 324.791 -89.879 C 324.169 -91.501 322.013 -91.211 319.516 -89.169 L 317.343 -87.392 L 318.954 -85.345 C 321.242 -82.437 320.964 -78.612 318.607 -80.568 C 318.073 -81.011 316.945 -81.155 316.101 -80.887 C 314.87 -80.496 314.714 -80.122 315.315 -78.999 C 316.474 -76.834 316.243 -75.765 314.752 -76.386 C 314.03 -76.687 311.958 -76.977 310.148 -77.029 L 306.856 -77.125 L 307.312 -69.25 C 307.563 -64.919 308.454 -58.705 309.291 -55.443 C 310.129 -52.18 310.814 -48.99 310.814 -48.354 C 310.814 -47.718 309.299 -45.766 307.446 -44.017 C 305.383 -42.068 304.241 -40.412 304.498 -39.744 C 305.084 -38.216 303.481 -37.428 302.108 -38.567 C 301.393 -39.161 301.131 -40.164 301.405 -41.257 C 301.695 -42.41 301.514 -43 300.87 -43 C 300.335 -43 299.34 -43.591 298.659 -44.313 C 297.977 -45.034 296.906 -46.045 296.277 -46.559 C 295.256 -47.394 295.255 -47.875 296.263 -51.059 C 298.326 -57.583 299.622 -67.653 299.404 -75.472 L 299.19 -83.125 L 297.569 -80.125 C 296.677 -78.475 293.937 -74.81 291.48 -71.981 C 285.667 -65.287 281.85 -57.483 279.926 -48.357 C 279.088 -44.379 277.927 -40.37 277.347 -39.447 C 276.388 -37.92 276.497 -37.486 278.554 -34.647 C 280.32 -32.209 280.815 -30.738 280.815 -27.932 C 280.815 -25.955 281.158 -24.127 281.577 -23.867 C 283.028 -22.971 281.375 -21.851 279.233 -22.279 C 277.395 -22.647 277.015 -22.434 276.608 -20.816 C 276.267 -19.455 276.528 -18.625 277.537 -17.861 C 279.069 -16.7 279.041 -16.687 274.454 -16.451 C 273.596 -16.407 272.852 -15.742 272.694 -14.875 C 272.543 -14.05 272.115 -13.054 271.742 -12.662 C 270.327 -11.173 271.212 -10.75 275.753 -10.743 C 278.331 -10.741 282.178 -10.528 284.303 -10.273 C 287.794 -9.853 288.207 -9.605 288.59 -7.687 C 288.853 -6.371 289.823 -5.147 291.141 -4.465 C 292.31 -3.861 293.917 -2.159 294.711 -0.683 C 295.533 0.842 296.73 2 297.486 2 C 298.537 2 298.815 2.628 298.815 5 L 298.815 8 L 269.69 8 C 253.671 8 240.34 7.775 240.065 7.5 L 240.064 7.5 Z  M 297.314 5.375 C 297.314 4.395 293.731 4.25 269.564 4.25 C 245.398 4.25 241.814 4.395 241.814 5.375 C 241.814 6.355 245.398 6.5 269.564 6.5 C 293.731 6.5 297.314 6.355 297.314 5.375 Z  M 248.465 -0.625 C 250.293 -3.723 249.267 -4.085 246.654 -1.265 C 244.574 0.978 244.328 2 245.865 2 C 246.443 2 247.613 0.819 248.465 -0.625 L 248.465 -0.625 Z  M 252.425 -0.686 C 253.963 -3.968 252.522 -3.729 250.565 -0.377 C 249.518 1.415 249.424 1.994 250.183 1.976 C 250.736 1.962 251.746 0.764 252.425 -0.686 L 252.425 -0.686 Z  M 256.47 -0.812 C 257.703 -3.754 256.755 -3.99 254.619 -1.274 C 252.76 1.089 252.632 2.198 254.256 1.868 C 254.912 1.734 255.908 0.528 256.47 -0.812 L 256.47 -0.812 Z  M 260.368 -0.625 C 261.281 -3.598 260.474 -4.07 258.732 -1.583 C 257.3 0.461 257.228 2 258.564 2 C 259.113 2 259.925 0.819 260.368 -0.625 Z  M 265.064 0.561 C 265.064 -0.23 265.269 -1.411 265.52 -2.064 C 266.189 -3.809 263.789 -3.572 262.841 -1.799 C 261.621 0.479 261.911 2 263.564 2 C 264.543 2 265.064 1.5 265.064 0.561 L 265.064 0.561 Z  M 271.803 0.312 C 271.774 -3.984 267.862 -4.653 267.454 -0.431 C 267.236 1.832 267.378 2 269.517 2 C 271.403 2 271.812 1.698 271.803 0.312 Z  M 277.064 0.643 C 277.064 -1.296 275.289 -3.46 273.957 -3.144 C 272.162 -2.718 273.656 2 275.586 2 C 276.512 2 277.064 1.493 277.064 0.643 Z  M 280.814 0.826 C 280.814 -0.779 279.426 -3.25 278.524 -3.25 C 277.862 -3.25 278.245 -0.063 279.087 1.437 C 279.651 2.443 280.814 2.031 280.814 0.826 L 280.814 0.826 Z  M 285.314 1.66 C 285.314 0.652 283.486 -2.466 282.723 -2.758 C 282.052 -3.016 282.03 -2.478 282.633 -0.55 C 283.072 0.853 283.855 2 284.373 2 C 284.891 2 285.314 1.847 285.314 1.66 L 285.314 1.66 Z  M 289.064 1.292 C 289.064 0.902 288.212 -0.363 287.171 -1.521 L 285.277 -3.625 L 286.56 -0.813 C 287.756 1.812 289.064 2.911 289.064 1.292 Z  M 293.872 1.062 C 292.971 -0.529 290.336 -3.25 289.696 -3.25 C 289.362 -3.25 289.652 -2.069 290.34 -0.625 C 291.113 0.996 292.13 2 292.998 2 C 293.905 2 294.215 1.668 293.872 1.062 Z  M 286.814 -7 C 286.814 -8.458 286.314 -8.5 269.189 -8.5 C 255.002 -8.5 251.564 -8.305 251.564 -7.5 C 251.564 -6.95 251.789 -6.275 252.064 -6 C 252.339 -5.725 260.271 -5.5 269.689 -5.5 C 286.314 -5.5 286.814 -5.544 286.814 -7 Z  M 270.164 -12.4 C 271.467 -13.703 271.269 -17.531 269.814 -19.138 C 269.127 -19.898 268.564 -21.56 268.564 -22.833 C 268.564 -24.542 268.098 -25.359 266.778 -25.96 C 264.449 -27.021 264.63 -30.51 267.031 -30.852 C 269.322 -31.179 269.998 -28.877 267.864 -28.019 C 266.415 -27.436 266.565 -27.339 268.976 -27.298 C 272.169 -27.243 273.748 -29.17 272.989 -32.195 C 272.57 -33.865 272.179 -34 267.761 -34 C 263.514 -34 262.853 -33.796 261.776 -32.151 C 260.365 -29.999 260.191 -25.614 261.423 -23.263 C 261.895 -22.362 263.425 -20.346 264.822 -18.783 C 266.22 -17.22 267.564 -14.942 267.808 -13.721 C 268.292 -11.3 268.787 -11.023 270.164 -12.4 L 270.164 -12.4 Z  M 259.449 -23.125 C 258.002 -27.186 258.059 -28.672 259.798 -32.154 L 261.281 -35.125 L 259.048 -32.676 C 256.662 -30.059 256.342 -27.908 257.299 -20.923 C 257.768 -17.5 257.828 -17.43 259.151 -18.756 C 260.401 -20.007 260.427 -20.383 259.449 -23.125 L 259.449 -23.125 Z  M 275.452 -21.063 C 277.126 -25.748 277.305 -29.109 276.014 -31.605 C 275.36 -32.87 274.451 -34.136 273.995 -34.418 C 273.421 -34.773 273.435 -34.427 274.039 -33.297 C 275.249 -31.037 274.303 -27.441 272.124 -26.013 C 269.99 -24.615 269.725 -21.644 271.556 -19.622 C 273.397 -17.587 274.334 -17.933 275.452 -21.063 L 275.452 -21.063 Z  M 255.314 -27.237 C 255.314 -30.113 255.746 -31.398 257.355 -33.31 C 258.494 -34.664 258.908 -35.575 258.293 -35.373 C 256.027 -34.627 253.814 -30.167 253.814 -26.345 C 253.814 -24.08 254.103 -22.84 254.564 -23.125 C 254.977 -23.38 255.314 -25.23 255.314 -27.237 L 255.314 -27.237 Z  M 278.535 -31.822 C 278.05 -32.992 277.142 -34.374 276.518 -34.892 C 275.827 -35.466 276.004 -34.816 276.971 -33.23 C 277.872 -31.752 278.615 -29.165 278.688 -27.25 L 278.817 -23.875 L 279.117 -26.784 C 279.282 -28.384 279.02 -30.651 278.535 -31.822 L 278.535 -31.822 Z  M 274.333 -38.4 C 276.131 -40.09 276.593 -41.431 278.883 -51.625 C 280.543 -59.015 284.446 -66.501 289.833 -72.625 C 295.586 -79.167 298.813 -85.566 298.814 -90.438 C 298.814 -93.904 298.753 -94 296.541 -94 C 295.238 -94 294.088 -94.468 293.846 -95.097 C 293.482 -96.048 293.185 -96.036 291.62 -95.011 C 289.996 -93.947 289.638 -93.943 288.065 -94.974 C 286.932 -95.716 285.942 -95.882 285.253 -95.446 C 283.664 -94.44 281.81 -94.611 280.541 -95.881 C 279.84 -96.582 279.233 -96.724 278.943 -96.256 C 278.348 -95.293 274.297 -95.266 273.707 -96.222 C 273.428 -96.673 272.546 -96.618 271.357 -96.076 C 269.89 -95.408 269.109 -95.424 267.95 -96.147 C 266.797 -96.868 266.2 -96.882 265.387 -96.207 C 264.805 -95.723 263.228 -95.489 261.884 -95.687 C 260.539 -95.885 258.655 -95.689 257.696 -95.252 C 256.427 -94.674 255.558 -94.705 254.5 -95.366 C 253.327 -96.099 252.698 -96.044 251.231 -95.084 C 249.795 -94.142 249.081 -94.072 247.817 -94.749 C 246.61 -95.395 245.956 -95.386 245.146 -94.714 C 244.556 -94.224 243.227 -93.985 242.194 -94.183 C 240.463 -94.514 240.314 -94.323 240.314 -91.782 C 240.314 -83.853 245.931 -75.166 252.739 -72.566 C 256.965 -70.952 263.57 -71.407 266.408 -73.507 C 270.778 -76.74 271.975 -83.511 268.779 -86.913 C 265.371 -90.541 259.004 -88.33 260.115 -83.905 C 260.688 -81.623 262.793 -81.38 263.355 -83.531 C 263.766 -85.101 265.125 -85.195 265.627 -83.688 C 265.946 -82.731 263.224 -79.75 262.03 -79.75 C 260.853 -79.75 257.564 -83.273 257.564 -84.534 C 257.564 -86.38 261.223 -90.111 263.53 -90.618 C 266.368 -91.241 269.947 -89.386 271.427 -86.525 C 273.171 -83.152 272.799 -78.775 270.127 -71.245 C 267.753 -64.555 267.695 -64.095 267.905 -53.716 C 268.105 -43.833 268.01 -42.945 266.593 -41.528 C 264.771 -39.707 261.362 -39.549 258.277 -41.144 C 257.06 -41.774 256.059 -42.364 256.053 -42.457 C 256.047 -42.55 255.592 -43.918 255.042 -45.498 C 254.112 -48.168 253.954 -48.283 252.803 -47.132 C 252.122 -46.45 251.564 -45.093 251.564 -44.116 C 251.564 -43.138 251.227 -42.13 250.814 -41.875 C 249.531 -41.082 249.992 -40.122 251.471 -40.508 C 252.244 -40.711 254.354 -40.122 256.158 -39.2 C 261.119 -36.666 262.772 -36.284 267.853 -36.497 C 271.5 -36.65 272.912 -37.065 274.333 -38.4 L 274.333 -38.4 Z  M 265.814 -43.75 C 265.814 -44.163 264.951 -44.5 263.895 -44.5 C 262.807 -44.5 262.176 -44.175 262.439 -43.75 C 262.694 -43.338 263.558 -43 264.359 -43 C 265.159 -43 265.814 -43.338 265.814 -43.75 Z  M 266.564 -47.5 C 266.564 -48.479 266.064 -49 265.126 -49 C 264.334 -49 263.153 -49.205 262.501 -49.455 C 261.66 -49.778 261.314 -49.47 261.314 -48.393 C 261.314 -46.753 262.232 -46.152 264.877 -46.059 C 266.084 -46.017 266.564 -46.427 266.564 -47.5 L 266.564 -47.5 Z  M 304.611 -48.703 C 304.362 -48.952 303.715 -48.979 303.174 -48.762 C 302.575 -48.523 302.753 -48.345 303.627 -48.309 C 304.418 -48.277 304.86 -48.454 304.611 -48.703 L 304.611 -48.703 Z  M 236.564 -51.581 C 236.564 -51.763 236.227 -52.12 235.814 -52.375 C 235.402 -52.63 235.064 -52.481 235.064 -52.044 C 235.064 -51.608 235.402 -51.25 235.814 -51.25 C 236.227 -51.25 236.564 -51.399 236.564 -51.581 Z  M 265.814 -52.375 C 265.814 -52.994 265.561 -53.505 265.252 -53.51 C 264.943 -53.516 263.93 -53.724 263.002 -53.973 C 261.641 -54.338 261.314 -54.118 261.314 -52.838 C 261.314 -51.574 261.773 -51.25 263.564 -51.25 C 265.064 -51.25 265.814 -51.625 265.814 -52.375 Z  M 304.064 -52 C 304.064 -52.413 303.916 -52.75 303.734 -52.75 C 303.552 -52.75 303.194 -52.413 302.939 -52 C 302.685 -51.588 302.833 -51.25 303.27 -51.25 C 303.707 -51.25 304.064 -51.588 304.064 -52 Z  M 304.122 -59.125 C 303.669 -63.832 302.711 -63.403 302.993 -58.62 C 303.137 -56.163 303.93 -53.754 304.385 -54.388 C 304.479 -54.518 304.359 -56.65 304.122 -59.125 L 304.122 -59.125 Z  M 235.911 -67.026 L 235.329 -78.625 L 235.009 -67.632 C 234.833 -61.587 234.943 -56.797 235.252 -56.989 C 235.561 -57.181 235.814 -56.756 235.814 -56.044 C 235.814 -55.332 235.967 -54.902 236.153 -55.089 C 236.339 -55.275 236.23 -60.647 235.911 -67.026 L 235.911 -67.026 Z  M 265.648 -57.315 C 265.818 -58.197 264.859 -58.672 261.795 -59.228 L 257.715 -59.967 L 258.822 -58.278 C 260.473 -55.758 265.219 -55.088 265.648 -57.315 Z  M 306.811 -58.188 C 306.603 -58.703 306.433 -58.281 306.433 -57.25 C 306.433 -56.219 306.603 -55.797 306.811 -56.312 C 307.019 -56.828 307.019 -57.672 306.811 -58.188 Z  M 232.577 -59.641 C 232.337 -60.239 232.16 -60.061 232.124 -59.188 C 232.091 -58.397 232.268 -57.954 232.518 -58.203 C 232.767 -58.452 232.793 -59.099 232.577 -59.641 L 232.577 -59.641 Z  M 238.584 -61.548 C 238.394 -62.278 238.226 -61.863 238.211 -60.625 C 238.196 -59.387 238.351 -58.79 238.556 -59.298 C 238.762 -59.806 238.774 -60.819 238.585 -61.548 L 238.584 -61.548 Z  M 265.814 -62.5 C 265.814 -63.689 265.308 -64.004 263.377 -64.018 C 262.036 -64.03 259.46 -64.378 257.653 -64.794 C 253.902 -65.659 252.99 -65.253 254.746 -63.497 C 255.957 -62.286 259.824 -61.25 263.752 -61.086 C 265.343 -61.02 265.814 -61.343 265.814 -62.5 L 265.814 -62.5 Z  M 267.128 -68.906 C 267.91 -71.453 267.876 -71.538 266.316 -70.969 C 264.133 -70.172 253.031 -70.219 251.352 -71.032 C 250.145 -71.617 250.101 -71.49 250.904 -69.727 C 251.543 -68.325 252.554 -67.648 254.492 -67.326 C 255.975 -67.079 257.527 -66.763 257.939 -66.623 C 258.352 -66.483 260.405 -66.342 262.501 -66.309 C 266.23 -66.251 266.33 -66.308 267.128 -68.906 L 267.128 -68.906 Z  M 234.219 -80.076 C 235.363 -80.667 236.78 -81.744 237.369 -82.469 C 238.07 -83.332 237.622 -83.189 236.068 -82.051 C 234.616 -80.989 231.999 -80.099 229.318 -79.756 L 224.939 -79.197 L 228.539 -79.098 C 230.519 -79.044 233.075 -79.484 234.219 -80.076 L 234.219 -80.076 Z  M 311.564 -79.492 C 310.533 -79.65 308.602 -79.955 307.274 -80.17 C 305.945 -80.384 303.785 -81.463 302.474 -82.567 C 300.47 -84.252 300.222 -84.325 300.919 -83.021 C 302.132 -80.756 306.197 -79.022 310.064 -79.119 C 311.921 -79.166 312.596 -79.334 311.564 -79.492 Z  M 234.722 -83.329 C 235.565 -84.042 236.736 -85.3 237.324 -86.125 C 238.164 -87.302 237.965 -87.243 236.401 -85.851 C 233.77 -83.509 228.556 -82.895 225.26 -84.54 C 222.981 -85.677 222.719 -85.67 221.358 -84.442 C 219.926 -83.15 219.939 -83.116 222.044 -82.651 C 226.619 -81.641 233.138 -81.99 234.722 -83.329 L 234.722 -83.329 Z  M 318.083 -83.019 C 318.368 -83.303 318.072 -84.064 317.425 -84.71 C 316.359 -85.776 316.038 -85.775 313.945 -84.692 C 310.791 -83.061 306.463 -83.201 303.314 -85.035 L 300.689 -86.564 L 303.239 -84.192 C 305.739 -81.867 305.904 -81.827 311.678 -82.161 C 314.917 -82.349 317.799 -82.735 318.083 -83.019 L 318.083 -83.019 Z  M 235.413 -87.328 C 237.591 -89.24 238.064 -90.174 238.064 -92.56 C 238.064 -94.829 237.655 -95.734 236.195 -96.69 C 232.908 -98.844 228.264 -96.208 229.531 -92.907 C 229.943 -91.833 230.096 -91.847 230.978 -93.04 C 231.738 -94.07 232.169 -94.172 232.863 -93.488 C 233.971 -92.397 233.287 -90.384 231.586 -89.732 C 230.741 -89.407 229.798 -89.908 228.729 -91.249 C 227.815 -92.394 226.381 -93.25 225.375 -93.25 C 224.408 -93.25 222.448 -93.972 221.019 -94.855 C 218.547 -96.383 218.3 -96.402 215.868 -95.242 C 212.765 -93.762 212.563 -92.5 215.429 -92.5 C 216.766 -92.5 218.683 -91.525 220.638 -89.852 C 227.167 -84.264 231.149 -83.583 235.413 -87.328 L 235.413 -87.328 Z  M 312.521 -85.686 C 313.513 -86.063 315.918 -87.751 317.865 -89.436 C 319.922 -91.216 322.172 -92.5 323.235 -92.5 C 325.62 -92.5 325.561 -93.64 323.094 -95.257 C 321.202 -96.496 321.007 -96.482 318.257 -94.899 C 316.682 -93.992 314.362 -93.25 313.103 -93.25 C 311.593 -93.25 310.814 -92.876 310.814 -92.151 C 310.814 -90.74 308.273 -89.371 306.744 -89.958 C 305.244 -90.533 305.166 -94 306.652 -94 C 307.25 -94 308.099 -93.409 308.539 -92.688 C 309.189 -91.62 309.301 -91.863 309.139 -93.986 C 308.879 -97.391 305.98 -98.686 302.998 -96.732 C 301.4 -95.686 301.064 -94.887 301.064 -92.135 C 301.064 -89.129 301.337 -88.619 303.863 -86.902 C 306.794 -84.911 309.487 -84.533 312.521 -85.686 L 312.521 -85.686 Z  M 228.571 -97 C 230.11 -98.727 231.229 -99.256 233.383 -99.277 L 236.189 -99.303 L 234.314 -100.375 C 231.819 -101.802 227.275 -101.777 224.459 -100.321 C 223.205 -99.672 221.703 -99.324 221.122 -99.547 C 219.465 -100.183 219.881 -98.616 221.905 -96.591 C 224.338 -94.158 226.137 -94.269 228.571 -97 L 228.571 -97 Z  M 316.647 -95.918 C 318.208 -97.011 319.135 -100.596 317.614 -99.656 C 317.229 -99.417 315.526 -99.777 313.831 -100.456 C 310.578 -101.758 305.313 -101.549 303.824 -100.059 C 303.245 -99.48 303.769 -99.25 305.665 -99.25 C 307.665 -99.25 308.809 -98.698 310.321 -97 C 312.567 -94.479 314.196 -94.2 316.647 -95.918 L 316.647 -95.918 Z  M 244.064 -97.25 C 244.064 -97.8 243.842 -98.472 243.571 -98.744 C 242.893 -99.422 240.981 -97.741 241.492 -96.915 C 242.131 -95.881 244.064 -96.133 244.064 -97.25 Z  M 250.814 -97.75 C 250.814 -99.303 249.005 -99.82 248.189 -98.5 C 247.562 -97.484 248.409 -96.25 249.734 -96.25 C 250.328 -96.25 250.814 -96.925 250.814 -97.75 Z  M 291.182 -98 C 291.322 -98.723 290.946 -99.25 290.289 -99.25 C 288.895 -99.25 288.054 -98.027 288.714 -96.96 C 289.392 -95.863 290.89 -96.493 291.182 -98 Z  M 298.064 -97.375 C 298.064 -98 297.398 -98.5 296.564 -98.5 C 295.731 -98.5 295.064 -98 295.064 -97.375 C 295.064 -96.75 295.731 -96.25 296.564 -96.25 C 297.398 -96.25 298.064 -96.75 298.064 -97.375 Z  M 257.422 -98.313 C 257.283 -99.034 256.672 -99.625 256.064 -99.625 C 255.457 -99.625 254.846 -99.034 254.707 -98.313 C 254.53 -97.392 254.935 -97 256.064 -97 C 257.194 -97 257.599 -97.392 257.422 -98.313 Z  M 264.182 -98.75 C 264.322 -99.473 263.946 -100 263.289 -100 C 261.895 -100 261.054 -98.777 261.714 -97.71 C 262.392 -96.613 263.89 -97.243 264.182 -98.75 Z  M 277.682 -98.75 C 277.845 -99.593 277.418 -100 276.369 -100 C 275.514 -100 274.814 -99.55 274.814 -99 C 274.814 -96.703 277.244 -96.491 277.682 -98.75 L 277.682 -98.75 Z  M 284.422 -98.313 C 284.283 -99.034 283.672 -99.625 283.064 -99.625 C 282.457 -99.625 281.846 -99.034 281.707 -98.313 C 281.53 -97.392 281.935 -97 283.064 -97 C 284.194 -97 284.599 -97.392 284.422 -98.313 Z  M 271.064 -98.831 C 271.064 -99.425 270.697 -100.138 270.249 -100.415 C 269.19 -101.07 267.744 -99.624 268.399 -98.565 C 269.134 -97.376 271.064 -97.568 271.064 -98.831 L 271.064 -98.831 Z  M 249.892 -101.5 C 250.763 -101.5 251.682 -101.166 251.934 -100.758 C 252.215 -100.304 253.103 -100.482 254.228 -101.22 C 255.903 -102.317 256.223 -102.318 257.871 -101.239 C 259.451 -100.203 259.79 -100.193 260.587 -101.153 C 261.611 -102.387 264.395 -102.613 265.477 -101.551 C 265.919 -101.117 266.691 -101.222 267.51 -101.826 C 268.769 -102.757 268.768 -102.941 267.479 -105.819 L 266.129 -108.835 L 263.679 -105.918 C 260.552 -102.193 259.064 -102.114 259.064 -105.675 L 259.064 -108.351 L 255.8 -105.675 C 254.004 -104.204 252.148 -103 251.675 -103 C 251.189 -103 250.814 -104.16 250.814 -105.663 L 250.814 -108.326 L 248.374 -106.465 C 247.031 -105.441 245.006 -104.251 243.874 -103.82 C 242.741 -103.39 241.814 -102.503 241.814 -101.849 C 241.814 -101.196 242.102 -100.839 242.454 -101.057 C 242.806 -101.274 243.734 -100.982 244.516 -100.408 C 245.734 -99.515 246.11 -99.519 247.124 -100.432 C 247.775 -101.02 249.02 -101.5 249.892 -101.5 L 249.892 -101.5 Z  M 296.777 -102.779 C 296.572 -103.313 295.984 -103.75 295.472 -103.75 C 294.959 -103.75 293.093 -104.797 291.326 -106.078 C 288.189 -108.35 288.123 -108.364 288.557 -106.634 C 288.802 -105.66 288.713 -104.395 288.359 -103.823 C 287.832 -102.969 287.236 -103.081 285.02 -104.45 C 283.537 -105.367 281.994 -106.681 281.592 -107.371 C 280.975 -108.429 280.855 -108.331 280.826 -106.75 C 280.74 -102.046 278.248 -101.979 275.101 -106.596 L 273.513 -108.927 L 272.287 -105.805 C 271.214 -103.075 271.197 -102.546 272.15 -101.593 C 273.04 -100.704 273.451 -100.679 274.392 -101.461 C 275.656 -102.509 279.315 -101.957 279.315 -100.718 C 279.315 -100.304 280.158 -100.518 281.19 -101.194 C 282.834 -102.272 283.272 -102.291 284.752 -101.353 C 286.019 -100.549 286.956 -100.471 288.514 -101.04 C 290.143 -101.635 290.844 -101.542 291.781 -100.605 C 292.872 -99.514 293.153 -99.514 295.062 -100.61 C 296.21 -101.268 296.982 -102.245 296.777 -102.779 L 296.777 -102.779 Z  M 236.892 -101.577 C 236.17 -102.744 231.688 -104.513 229.651 -104.433 C 228.684 -104.395 229.531 -103.929 231.599 -103.361 C 233.612 -102.808 235.62 -101.995 236.061 -101.553 C 237.103 -100.511 237.543 -100.524 236.892 -101.576 L 236.892 -101.577 Z  M 308.763 -104.358 C 307.416 -104.555 302.564 -102.696 302.564 -101.983 C 302.564 -101.857 304.319 -102.288 306.463 -102.94 C 309.073 -103.733 309.833 -104.202 308.763 -104.358 Z  M 236.728 -107.637 C 236.258 -108.106 236.154 -107.613 236.433 -106.244 C 236.753 -104.675 236.941 -104.486 237.16 -105.517 C 237.322 -106.283 237.128 -107.237 236.728 -107.637 Z  M 271.747 -112 C 271.747 -113.444 271.317 -115.634 270.791 -116.866 L 269.836 -119.107 L 268.95 -116.567 C 268.463 -115.169 268.064 -113.114 268.064 -112 C 268.064 -110.886 268.463 -108.831 268.95 -107.433 L 269.836 -104.893 L 270.791 -107.134 C 271.317 -108.367 271.747 -110.556 271.747 -112 Z  M 304.556 -107.093 C 304.311 -107.729 303.679 -108.223 303.15 -108.191 C 302.398 -108.144 302.393 -108.05 303.128 -107.753 C 303.643 -107.545 304.065 -106.841 304.065 -106.188 C 304.065 -105.534 304.276 -105.21 304.533 -105.468 C 304.79 -105.725 304.801 -106.456 304.556 -107.093 Z  M 255.907 -108.561 C 258.214 -111.188 260.335 -116.229 259.49 -117.074 C 258.54 -118.024 254.476 -112.943 253.445 -109.518 C 252.863 -107.583 252.673 -106 253.023 -106 C 253.373 -106 254.671 -107.152 255.907 -108.561 L 255.907 -108.561 Z  M 263.872 -109.897 C 265.749 -113.662 266.461 -118 265.202 -118 C 264.132 -118 261.396 -112.399 260.875 -109.141 C 260.179 -104.786 261.49 -105.117 263.872 -109.897 L 263.872 -109.897 Z  M 277.473 -113.142 C 276.806 -114.888 275.598 -116.916 274.787 -117.649 C 273.355 -118.946 273.315 -118.922 273.347 -116.804 C 273.391 -113.908 275.09 -109.27 276.806 -107.361 L 278.189 -105.822 L 278.437 -107.895 C 278.573 -109.035 278.139 -111.396 277.473 -113.142 L 277.473 -113.142 Z  M 286.478 -106.938 C 286.32 -107.453 285.988 -108.797 285.741 -109.924 C 285.295 -111.961 281.198 -117.25 280.066 -117.25 C 278.862 -117.25 281.024 -111.337 283.188 -108.712 C 285.409 -106.018 287.031 -105.143 286.478 -106.938 L 286.478 -106.938 Z  M 248.852 -109.752 C 252.141 -113.392 252.385 -114.936 249.328 -112.76 C 247.09 -111.166 244.814 -108.43 244.814 -107.333 C 244.814 -106.03 246.286 -106.912 248.852 -109.752 L 248.852 -109.752 Z  M 294.314 -106.973 C 294.314 -107.095 292.964 -108.514 291.314 -110.125 C 287.755 -113.601 287.344 -113.158 290.642 -109.401 C 292.586 -107.187 294.314 -106.044 294.314 -106.973 L 294.314 -106.973 Z  M 240.129 -110.688 C 239.514 -111.616 238.399 -112.496 237.651 -112.644 C 236.674 -112.837 236.911 -112.368 238.491 -110.98 C 241.212 -108.588 241.562 -108.526 240.129 -110.688 Z  M 307.765 -110.935 C 306.326 -112.668 303.422 -113.635 302.016 -112.848 C 301.111 -112.341 301.317 -112.188 302.898 -112.188 C 304.032 -112.188 305.668 -111.48 306.533 -110.615 C 308.323 -108.825 309.304 -109.08 307.765 -110.935 L 307.765 -110.935 Z  M 303.861 -110.203 C 303.612 -110.452 302.965 -110.479 302.424 -110.262 C 301.825 -110.023 302.003 -109.845 302.877 -109.809 C 303.668 -109.777 304.11 -109.954 303.861 -110.203 L 303.861 -110.203 Z  M 233.959 -112.605 C 233.728 -112.836 233.123 -112.606 232.614 -112.093 C 231.879 -111.352 231.965 -111.266 233.034 -111.673 C 233.774 -111.955 234.19 -112.374 233.959 -112.605 Z  M 261.646 -122.324 C 259.638 -123.719 258.314 -126.816 258.314 -130.123 C 258.314 -132.069 257.977 -133.87 257.564 -134.125 C 256.552 -134.75 256.59 -129.187 257.617 -126.488 C 258.566 -123.99 260.467 -121.745 261.618 -121.761 C 262.188 -121.769 262.197 -121.942 261.646 -122.324 L 261.646 -122.324 Z  M 275.296 -123.683 C 277.243 -126.654 275.955 -129.553 272.551 -129.862 C 270.08 -130.087 270.02 -130.039 271.439 -128.975 C 273.201 -127.655 272.136 -125.934 269.832 -126.377 C 267.777 -126.773 267.989 -130.177 270.127 -131.115 C 271.359 -131.656 271.814 -132.488 271.814 -134.202 C 271.814 -135.492 272.489 -137.406 273.314 -138.455 C 275.12 -140.75 275.187 -141.885 273.647 -144.083 C 272.092 -146.303 271.339 -146.184 270.829 -143.638 C 270.597 -142.476 269.037 -139.867 267.362 -137.841 C 262.926 -132.473 262.454 -128.067 265.853 -123.747 C 267.129 -122.124 268.043 -121.75 270.727 -121.75 C 273.449 -121.75 274.253 -122.09 275.296 -123.683 L 275.296 -123.683 Z  M 262.806 -124.938 C 261.002 -127.897 260.941 -129.787 262.524 -133.743 C 263.515 -136.219 263.56 -136.977 262.774 -137.924 C 261.938 -138.931 261.675 -138.76 260.752 -136.603 C 259.192 -132.958 259.864 -126.717 262.07 -124.369 C 264.412 -121.876 264.589 -122.013 262.806 -124.938 L 262.806 -124.938 Z  M 279.79 -128.399 C 280.081 -129.95 279.899 -131.982 279.349 -133.331 C 278.834 -134.593 278.238 -136.384 278.026 -137.313 C 277.568 -139.312 277.187 -139.377 274.981 -137.832 C 272.583 -136.153 272.849 -133.286 275.646 -130.674 C 277.604 -128.845 277.927 -128.062 277.663 -125.796 C 277.387 -123.435 277.47 -123.264 278.322 -124.429 C 278.857 -125.161 279.518 -126.948 279.79 -128.399 Z  M 282.261 -127.17 C 282.725 -128.502 282.796 -129.261 282.419 -128.858 C 281.619 -128.004 280.547 -124.75 281.065 -124.75 C 281.259 -124.75 281.797 -125.839 282.261 -127.17 L 282.261 -127.17 Z " fill="rgb(255,255,255)"/></g></svg>