<?xml version="1.0" encoding="UTF-8" standalone="no"?><!-- Generator: Gravit.io --><svg xmlns="http://www.w3.org/2000/svg" xmlns:xlink="http://www.w3.org/1999/xlink" style="isolation:isolate" viewBox="808.5 701.5 154.95 57" width="154.95pt" height="57pt"><path d=" M 815.154 749.32 L 815.154 738.356 L 813.178 738.356 L 813.178 736.202 L 820.028 736.202 L 820.028 738.356 L 818.069 738.356 L 818.069 749.32 L 815.154 749.32 L 815.154 749.32 Z  M 823.026 749.32 L 823.026 736.202 L 825.925 736.202 L 825.925 741.514 L 827.949 741.514 L 827.949 736.202 L 830.864 736.202 L 830.864 749.32 L 827.949 749.32 L 827.949 743.587 L 825.925 743.587 L 825.925 749.32 L 823.026 749.32 L 823.026 749.32 Z  M 834.024 749.32 L 836.502 736.202 L 839.805 736.202 L 842.251 749.32 L 839.578 749.32 L 839.141 746.551 L 837.214 746.551 L 836.761 749.32 L 834.024 749.32 L 834.024 749.32 Z  M 837.473 744.818 L 838.866 744.818 L 838.17 739.7 L 837.473 744.818 L 837.473 744.818 Z  M 846.382 749.32 L 846.382 743.96 L 843.888 736.202 L 846.625 736.202 L 847.872 740.348 L 848.989 736.202 L 851.613 736.202 L 849.167 743.96 L 849.167 749.32 L 846.382 749.32 L 846.382 749.32 Z  M 853.234 749.32 L 855.712 736.202 L 859.015 736.202 L 861.461 749.32 L 858.789 749.32 L 858.351 746.551 L 856.424 746.551 L 855.971 749.32 L 853.234 749.32 L 853.234 749.32 Z  M 856.683 744.818 L 858.076 744.818 L 857.38 739.7 L 856.683 744.818 L 856.683 744.818 Z  M 863.956 749.32 L 866.434 736.202 L 869.738 736.202 L 872.183 749.32 L 869.511 749.32 L 869.074 746.551 L 867.147 746.551 L 866.693 749.32 L 863.956 749.32 L 863.956 749.32 Z  M 867.406 744.818 L 868.798 744.818 L 868.102 739.7 L 867.406 744.818 L 867.406 744.818 Z  M 875.31 749.32 L 875.31 736.202 L 878.922 736.202 L 878.922 736.202 Q 881.076 736.202 882.177 736.964 L 882.177 736.964 L 882.177 736.964 Q 883.278 737.725 883.278 739.668 L 883.278 739.668 L 883.278 739.668 Q 883.278 740.98 882.938 741.757 L 882.938 741.757 L 882.938 741.757 Q 882.598 742.534 881.675 742.972 L 881.675 742.972 L 883.472 749.32 L 880.476 749.32 L 879.035 743.441 L 878.209 743.441 L 878.209 749.32 L 875.31 749.32 L 875.31 749.32 Z  M 878.209 741.773 L 879.019 741.773 L 879.019 741.773 Q 879.893 741.773 880.242 741.312 L 880.242 741.312 L 880.242 741.312 Q 880.59 740.85 880.59 739.927 L 880.59 739.927 L 880.59 739.927 Q 880.59 739.036 880.266 738.591 L 880.266 738.591 L 880.266 738.591 Q 879.942 738.146 879.148 738.146 L 879.148 738.146 L 878.209 738.146 L 878.209 741.773 L 878.209 741.773 Z  M 848.23 725.32 L 848.23 712.202 L 852.635 712.202 L 852.635 712.202 Q 854.368 712.202 855.226 713.182 L 855.226 713.182 L 855.226 713.182 Q 856.084 714.162 856.084 716.008 L 856.084 716.008 L 856.084 716.008 Q 856.084 718.113 855.088 718.931 L 855.088 718.931 L 855.088 718.931 Q 854.092 719.749 852.295 719.749 L 852.295 719.749 L 851.129 719.749 L 851.129 725.32 L 848.23 725.32 L 848.23 725.32 Z  M 851.129 717.725 L 852.1 717.725 L 852.1 717.725 Q 852.861 717.725 853.112 717.32 L 853.112 717.32 L 853.112 717.32 Q 853.363 716.915 853.363 715.96 L 853.363 715.96 L 853.363 715.96 Q 853.363 715.085 853.121 714.664 L 853.121 714.664 L 853.121 714.664 Q 852.878 714.243 852.084 714.243 L 852.084 714.243 L 851.129 714.243 L 851.129 717.725 L 851.129 717.725 Z  M 857.883 725.32 L 860.361 712.202 L 863.665 712.202 L 866.11 725.32 L 863.438 725.32 L 863.001 722.551 L 861.074 722.551 L 860.62 725.32 L 857.883 725.32 L 857.883 725.32 Z  M 861.333 720.818 L 862.726 720.818 L 862.029 715.7 L 861.333 720.818 L 861.333 720.818 Z  M 869.238 725.32 L 869.238 712.202 L 872.557 712.202 L 872.557 712.202 Q 874.258 712.202 875.213 712.623 L 875.213 712.623 L 875.213 712.623 Q 876.169 713.045 876.565 713.943 L 876.565 713.943 L 876.565 713.943 Q 876.962 714.842 876.962 716.348 L 876.962 716.348 L 876.962 721.109 L 876.962 721.109 Q 876.962 722.632 876.565 723.538 L 876.565 723.538 L 876.565 723.538 Q 876.169 724.445 875.221 724.883 L 875.221 724.883 L 875.221 724.883 Q 874.274 725.32 872.59 725.32 L 872.59 725.32 L 869.238 725.32 L 869.238 725.32 Z  M 872.136 723.312 L 872.59 723.312 L 872.59 723.312 Q 873.221 723.312 873.521 723.126 L 873.521 723.126 L 873.521 723.126 Q 873.821 722.939 873.901 722.591 L 873.901 722.591 L 873.901 722.591 Q 873.982 722.243 873.982 721.563 L 873.982 721.563 L 873.982 715.846 L 873.982 715.846 Q 873.982 715.215 873.893 714.883 L 873.893 714.883 L 873.893 714.883 Q 873.804 714.551 873.505 714.389 L 873.505 714.389 L 873.505 714.389 Q 873.205 714.227 872.574 714.227 L 872.574 714.227 L 872.136 714.227 L 872.136 723.312 L 872.136 723.312 Z  M 880.478 725.32 L 880.705 712.202 L 883.814 712.202 L 885.256 719.83 L 886.81 712.202 L 889.806 712.202 L 890.033 725.32 L 887.976 725.32 L 887.733 716.591 L 886.211 725.32 L 884.381 725.32 L 882.762 716.526 L 882.567 725.32 L 880.478 725.32 L 880.478 725.32 Z  M 893.095 725.32 L 895.573 712.202 L 898.877 712.202 L 901.322 725.32 L 898.65 725.32 L 898.213 722.551 L 896.286 722.551 L 895.832 725.32 L 893.095 725.32 L 893.095 725.32 Z  M 896.545 720.818 L 897.937 720.818 L 897.241 715.7 L 896.545 720.818 L 896.545 720.818 Z  M 905.696 725.32 L 903.332 712.202 L 905.81 712.202 L 907.219 721.109 L 908.53 712.202 L 911.154 712.202 L 908.757 725.32 L 905.696 725.32 L 905.696 725.32 Z  M 913.131 725.32 L 915.609 712.202 L 918.913 712.202 L 921.358 725.32 L 918.686 725.32 L 918.249 722.551 L 916.322 722.551 L 915.868 725.32 L 913.131 725.32 L 913.131 725.32 Z  M 916.581 720.818 L 917.973 720.818 L 917.277 715.7 L 916.581 720.818 L 916.581 720.818 Z  M 924.971 725.32 L 924.971 714.356 L 922.996 714.356 L 922.996 712.202 L 929.846 712.202 L 929.846 714.356 L 927.886 714.356 L 927.886 725.32 L 924.971 725.32 L 924.971 725.32 Z  M 932.843 725.32 L 932.843 712.202 L 935.742 712.202 L 935.742 717.514 L 937.767 717.514 L 937.767 712.202 L 940.682 712.202 L 940.682 725.32 L 937.767 725.32 L 937.767 719.587 L 935.742 719.587 L 935.742 725.32 L 932.843 725.32 L 932.843 725.32 Z  M 944.489 725.32 L 944.489 712.202 L 947.388 712.202 L 947.388 725.32 L 944.489 725.32 L 944.489 725.32 Z  M 817.453 725.514 L 817.453 725.514 Q 815.575 725.514 814.66 724.518 L 814.66 724.518 L 814.66 724.518 Q 813.745 723.522 813.68 721.352 L 813.68 721.352 L 816.158 720.98 L 816.158 720.98 Q 816.174 722.227 816.457 722.769 L 816.457 722.769 L 816.457 722.769 Q 816.741 723.312 817.308 723.312 L 817.308 723.312 L 817.308 723.312 Q 818.036 723.312 818.036 722.356 L 818.036 722.356 L 818.036 722.356 Q 818.036 721.595 817.688 721.045 L 817.688 721.045 L 817.688 721.045 Q 817.34 720.494 816.595 719.862 L 816.595 719.862 L 815.462 718.874 L 815.462 718.874 Q 814.619 718.162 814.158 717.36 L 814.158 717.36 L 814.158 717.36 Q 813.696 716.559 813.696 715.457 L 813.696 715.457 L 813.696 715.457 Q 813.696 713.806 814.676 712.915 L 814.676 712.915 L 814.676 712.915 Q 815.656 712.024 817.372 712.024 L 817.372 712.024 L 817.372 712.024 Q 819.235 712.024 819.907 713.109 L 819.907 713.109 L 819.907 713.109 Q 820.579 714.194 820.628 715.749 L 820.628 715.749 L 818.134 716.057 L 818.134 716.057 Q 818.101 715.036 817.947 714.591 L 817.947 714.591 L 817.947 714.591 Q 817.794 714.146 817.275 714.146 L 817.275 714.146 L 817.275 714.146 Q 816.903 714.146 816.7 714.462 L 816.7 714.462 L 816.7 714.462 Q 816.498 714.777 816.498 715.166 L 816.498 715.166 L 816.498 715.166 Q 816.498 715.83 816.798 716.283 L 816.798 716.283 L 816.798 716.283 Q 817.097 716.737 817.761 717.32 L 817.761 717.32 L 818.846 718.275 L 818.846 718.275 Q 819.818 719.101 820.352 720.024 L 820.352 720.024 L 820.352 720.024 Q 820.887 720.947 820.887 722.211 L 820.887 722.211 L 820.887 722.211 Q 820.887 723.134 820.457 723.887 L 820.457 723.887 L 820.457 723.887 Q 820.028 724.64 819.251 725.077 L 819.251 725.077 L 819.251 725.077 Q 818.474 725.514 817.453 725.514 L 817.453 725.514 L 817.453 725.514 Z  M 824.095 725.32 L 824.095 712.202 L 827.706 712.202 L 827.706 712.202 Q 829.86 712.202 830.961 712.964 L 830.961 712.964 L 830.961 712.964 Q 832.063 713.725 832.063 715.668 L 832.063 715.668 L 832.063 715.668 Q 832.063 716.98 831.722 717.757 L 831.722 717.757 L 831.722 717.757 Q 831.382 718.534 830.459 718.972 L 830.459 718.972 L 832.257 725.32 L 829.261 725.32 L 827.82 719.441 L 826.994 719.441 L 826.994 725.32 L 824.095 725.32 L 824.095 725.32 Z  M 826.994 717.773 L 827.803 717.773 L 827.803 717.773 Q 828.678 717.773 829.026 717.312 L 829.026 717.312 L 829.026 717.312 Q 829.374 716.85 829.374 715.927 L 829.374 715.927 L 829.374 715.927 Q 829.374 715.036 829.05 714.591 L 829.05 714.591 L 829.05 714.591 Q 828.726 714.146 827.933 714.146 L 827.933 714.146 L 826.994 714.146 L 826.994 717.773 L 826.994 717.773 Z  M 835.627 725.32 L 835.627 712.202 L 838.526 712.202 L 838.526 725.32 L 835.627 725.32 L 835.627 725.32 Z " fill="rgb(255,255,255)" vector-effect="non-scaling-stroke" stroke-width="1" stroke="rgb(152,0,0)" stroke-linejoin="miter" stroke-linecap="square" stroke-miterlimit="3"/></svg>