<?xml version="1.0" encoding="UTF-8" standalone="no"?><!-- Generator: Gravit.io --><svg xmlns="http://www.w3.org/2000/svg" xmlns:xlink="http://www.w3.org/1999/xlink" style="isolation:isolate" viewBox="489.5 349.5 326 36.019" width="326pt" height="36.019pt"><path d=" M 615.371 375.75 L 612.709 360.983 L 615.499 360.983 L 617.085 371.01 L 618.562 360.983 L 621.515 360.983 L 618.817 375.75 L 615.371 375.75 L 615.371 375.75 Z  M 625.018 375.75 L 625.018 360.983 L 631.654 360.983 L 631.654 363.207 L 628.281 363.207 L 628.281 366.871 L 630.852 366.871 L 630.852 369.132 L 628.281 369.132 L 628.281 373.544 L 631.69 373.544 L 631.69 375.75 L 625.018 375.75 L 625.018 375.75 Z  M 635.193 375.75 L 635.193 360.983 L 637.49 360.983 L 640.517 368.093 L 640.517 360.983 L 643.215 360.983 L 643.215 375.75 L 641.009 375.75 L 637.982 368.093 L 637.982 375.75 L 635.193 375.75 L 635.193 375.75 Z  M 647.447 375.75 L 647.447 360.983 L 650.71 360.983 L 650.71 367.017 L 653.189 360.983 L 656.38 360.983 L 653.645 367.655 L 656.508 375.75 L 653.189 375.75 L 651.056 369.223 L 650.71 369.807 L 650.71 375.75 L 647.447 375.75 L 647.447 375.75 Z  M 659.098 375.75 L 661.888 360.983 L 665.607 360.983 L 668.36 375.75 L 665.352 375.75 L 664.86 372.633 L 662.69 372.633 L 662.18 375.75 L 659.098 375.75 L 659.098 375.75 Z  M 662.982 370.682 L 664.55 370.682 L 663.766 364.921 L 662.982 370.682 L 662.982 370.682 Z  M 672.428 375.75 L 672.428 363.407 L 670.204 363.407 L 670.204 360.983 L 677.915 360.983 L 677.915 363.407 L 675.709 363.407 L 675.709 375.75 L 672.428 375.75 L 672.428 375.75 Z  M 679.868 375.75 L 682.658 360.983 L 686.377 360.983 L 689.13 375.75 L 686.122 375.75 L 685.629 372.633 L 683.46 372.633 L 682.949 375.75 L 679.868 375.75 L 679.868 375.75 Z  M 683.752 370.682 L 685.319 370.682 L 684.535 364.921 L 683.752 370.682 L 683.752 370.682 Z  M 696.643 375.969 L 696.643 375.969 Q 694.237 375.969 693.225 374.702 L 693.225 374.702 L 693.225 374.702 Q 692.213 373.435 692.213 371.046 L 692.213 371.046 L 692.213 365.723 L 692.213 365.723 Q 692.213 363.28 693.216 362.031 L 693.216 362.031 L 693.216 362.031 Q 694.218 360.782 696.643 360.782 L 696.643 360.782 L 696.643 360.782 Q 698.959 360.782 699.925 361.894 L 699.925 361.894 L 699.925 361.894 Q 700.891 363.006 700.891 365.048 L 700.891 365.048 L 700.891 366.325 L 697.701 366.325 L 697.701 364.848 L 697.701 364.848 Q 697.701 363.991 697.518 363.535 L 697.518 363.535 L 697.518 363.535 Q 697.336 363.079 696.643 363.079 L 696.643 363.079 L 696.643 363.079 Q 695.95 363.079 695.732 363.562 L 695.732 363.562 L 695.732 363.562 Q 695.513 364.046 695.513 364.902 L 695.513 364.902 L 695.513 371.849 L 695.513 371.849 Q 695.513 372.724 695.741 373.189 L 695.741 373.189 L 695.741 373.189 Q 695.969 373.654 696.643 373.654 L 696.643 373.654 L 696.643 373.654 Q 697.318 373.654 697.509 373.189 L 697.509 373.189 L 697.509 373.189 Q 697.701 372.724 697.701 371.849 L 697.701 371.849 L 697.701 370.299 L 700.891 370.299 L 700.891 371.575 L 700.891 371.575 Q 700.891 373.654 699.925 374.811 L 699.925 374.811 L 699.925 374.811 Q 698.959 375.969 696.643 375.969 L 696.643 375.969 L 696.643 375.969 Z  M 704.758 375.75 L 704.758 360.983 L 708.022 360.983 L 708.022 366.963 L 710.301 366.963 L 710.301 360.983 L 713.582 360.983 L 713.582 375.75 L 710.301 375.75 L 710.301 369.296 L 708.022 369.296 L 708.022 375.75 L 704.758 375.75 L 704.758 375.75 Z  M 717.14 375.75 L 719.929 360.983 L 723.648 360.983 L 726.401 375.75 L 723.393 375.75 L 722.901 372.633 L 720.731 372.633 L 720.221 375.75 L 717.14 375.75 L 717.14 375.75 Z  M 721.023 370.682 L 722.591 370.682 L 721.807 364.921 L 721.023 370.682 L 721.023 370.682 Z  M 729.922 375.75 L 729.922 360.983 L 733.185 360.983 L 733.185 373.544 L 736.576 373.544 L 736.576 375.75 L 729.922 375.75 L 729.922 375.75 Z  M 739.313 375.75 L 742.103 360.983 L 745.822 360.983 L 748.575 375.75 L 745.566 375.75 L 745.074 372.633 L 742.905 372.633 L 742.394 375.75 L 739.313 375.75 L 739.313 375.75 Z  M 743.196 370.682 L 744.764 370.682 L 743.98 364.921 L 743.196 370.682 L 743.196 370.682 Z  M 752.095 375.75 L 752.095 360.983 L 757.054 360.983 L 757.054 360.983 Q 759.005 360.983 759.971 362.086 L 759.971 362.086 L 759.971 362.086 Q 760.938 363.189 760.938 365.267 L 760.938 365.267 L 760.938 365.267 Q 760.938 367.637 759.816 368.558 L 759.816 368.558 L 759.816 368.558 Q 758.695 369.479 756.672 369.479 L 756.672 369.479 L 755.359 369.479 L 755.359 375.75 L 752.095 375.75 L 752.095 375.75 Z  M 755.359 367.2 L 756.453 367.2 L 756.453 367.2 Q 757.31 367.2 757.592 366.744 L 757.592 366.744 L 757.592 366.744 Q 757.875 366.288 757.875 365.212 L 757.875 365.212 L 757.875 365.212 Q 757.875 364.228 757.601 363.754 L 757.601 363.754 L 757.601 363.754 Q 757.328 363.28 756.435 363.28 L 756.435 363.28 L 755.359 363.28 L 755.359 367.2 L 755.359 367.2 Z  M 762.963 375.75 L 765.753 360.983 L 769.472 360.983 L 772.225 375.75 L 769.217 375.75 L 768.725 372.633 L 766.555 372.633 L 766.045 375.75 L 762.963 375.75 L 762.963 375.75 Z  M 766.847 370.682 L 768.415 370.682 L 767.631 364.921 L 766.847 370.682 L 766.847 370.682 Z  M 776.293 375.75 L 776.293 363.407 L 774.068 363.407 L 774.068 360.983 L 781.78 360.983 L 781.78 363.407 L 779.574 363.407 L 779.574 375.75 L 776.293 375.75 L 776.293 375.75 Z  M 785.155 375.75 L 785.155 360.983 L 788.419 360.983 L 788.419 366.963 L 790.698 366.963 L 790.698 360.983 L 793.979 360.983 L 793.979 375.75 L 790.698 375.75 L 790.698 369.296 L 788.419 369.296 L 788.419 375.75 L 785.155 375.75 L 785.155 375.75 Z  M 800.107 375.75 L 800.107 369.716 L 797.299 360.983 L 800.381 360.983 L 801.784 365.65 L 803.042 360.983 L 805.996 360.983 L 803.243 369.716 L 803.243 375.75 L 800.107 375.75 L 800.107 375.75 Z  M 533.662 375.75 L 533.662 360.983 L 536.925 360.983 L 536.925 367.017 L 539.405 360.983 L 542.595 360.983 L 539.86 367.655 L 542.723 375.75 L 539.405 375.75 L 537.271 369.223 L 536.925 369.807 L 536.925 375.75 L 533.662 375.75 L 533.662 375.75 Z  M 550.273 375.969 L 550.273 375.969 Q 548.614 375.969 547.647 375.431 L 547.647 375.431 L 547.647 375.431 Q 546.681 374.893 546.289 373.845 L 546.289 373.845 L 546.289 373.845 Q 545.897 372.797 545.897 371.174 L 545.897 371.174 L 545.897 360.983 L 549.124 360.983 L 549.124 371.666 L 549.124 371.666 Q 549.124 372.56 549.352 373.088 L 549.352 373.088 L 549.352 373.088 Q 549.58 373.617 550.273 373.617 L 550.273 373.617 L 550.273 373.617 Q 550.965 373.617 551.184 373.088 L 551.184 373.088 L 551.184 373.088 Q 551.403 372.56 551.403 371.666 L 551.403 371.666 L 551.403 360.983 L 554.648 360.983 L 554.648 371.174 L 554.648 371.174 Q 554.648 372.797 554.247 373.845 L 554.247 373.845 L 554.247 373.845 Q 553.846 374.893 552.889 375.431 L 552.889 375.431 L 552.889 375.431 Q 551.932 375.969 550.273 375.969 L 550.273 375.969 L 550.273 375.969 Z  M 558.752 375.75 L 558.752 360.983 L 562.599 360.983 L 562.599 360.983 Q 564.039 360.983 565.051 361.283 L 565.051 361.283 L 565.051 361.283 Q 566.063 361.584 566.683 362.441 L 566.683 362.441 L 566.683 362.441 Q 567.303 363.298 567.303 364.848 L 567.303 364.848 L 567.303 364.848 Q 567.303 366.16 566.738 366.89 L 566.738 366.89 L 566.738 366.89 Q 566.172 367.619 565.133 367.819 L 565.133 367.819 L 565.133 367.819 Q 566.409 367.984 567.084 368.895 L 567.084 368.895 L 567.084 368.895 Q 567.759 369.807 567.759 371.375 L 567.759 371.375 L 567.759 371.375 Q 567.759 375.75 563.292 375.75 L 563.292 375.75 L 558.752 375.75 L 558.752 375.75 Z  M 562.016 366.89 L 562.654 366.89 L 562.654 366.89 Q 563.693 366.89 564.067 366.416 L 564.067 366.416 L 564.067 366.416 Q 564.44 365.942 564.44 364.939 L 564.44 364.939 L 564.44 364.939 Q 564.44 364.064 563.966 363.617 L 563.966 363.617 L 563.966 363.617 Q 563.492 363.17 562.581 363.17 L 562.581 363.17 L 562.016 363.17 L 562.016 366.89 L 562.016 366.89 Z  M 562.016 373.471 L 562.708 373.471 L 562.708 373.471 Q 563.748 373.471 564.176 372.952 L 564.176 372.952 L 564.176 372.952 Q 564.605 372.432 564.605 371.32 L 564.605 371.32 L 564.605 371.32 Q 564.605 370.062 564.176 369.551 L 564.176 369.551 L 564.176 369.551 Q 563.748 369.041 562.69 369.041 L 562.69 369.041 L 562.016 369.041 L 562.016 373.471 L 562.016 373.471 Z  M 571.498 375.75 L 571.498 360.983 L 578.134 360.983 L 578.134 363.207 L 574.762 363.207 L 574.762 366.871 L 577.332 366.871 L 577.332 369.132 L 574.762 369.132 L 574.762 373.544 L 578.171 373.544 L 578.171 375.75 L 571.498 375.75 L 571.498 375.75 Z  M 581.673 375.75 L 581.673 360.983 L 585.739 360.983 L 585.739 360.983 Q 588.164 360.983 589.403 361.84 L 589.403 361.84 L 589.403 361.84 Q 590.643 362.696 590.643 364.884 L 590.643 364.884 L 590.643 364.884 Q 590.643 366.361 590.26 367.236 L 590.26 367.236 L 590.26 367.236 Q 589.877 368.111 588.838 368.603 L 588.838 368.603 L 590.862 375.75 L 587.489 375.75 L 585.867 369.132 L 584.937 369.132 L 584.937 375.75 L 581.673 375.75 L 581.673 375.75 Z  M 584.937 367.254 L 585.848 367.254 L 585.848 367.254 Q 586.833 367.254 587.225 366.735 L 587.225 366.735 L 587.225 366.735 Q 587.617 366.215 587.617 365.176 L 587.617 365.176 L 587.617 365.176 Q 587.617 364.173 587.252 363.672 L 587.252 363.672 L 587.252 363.672 Q 586.888 363.17 585.994 363.17 L 585.994 363.17 L 584.937 363.17 L 584.937 367.254 L 584.937 367.254 Z  M 593.927 375.75 L 596.716 360.983 L 600.436 360.983 L 603.189 375.75 L 600.18 375.75 L 599.688 372.633 L 597.519 372.633 L 597.008 375.75 L 593.927 375.75 L 593.927 375.75 Z  M 597.81 370.682 L 599.378 370.682 L 598.594 364.921 L 597.81 370.682 L 597.81 370.682 Z  M 499.014 375.969 L 499.014 375.969 Q 496.899 375.969 495.869 374.848 L 495.869 374.848 L 495.869 374.848 Q 494.839 373.726 494.766 371.283 L 494.766 371.283 L 497.555 370.864 L 497.555 370.864 Q 497.573 372.268 497.892 372.879 L 497.892 372.879 L 497.892 372.879 Q 498.211 373.489 498.85 373.489 L 498.85 373.489 L 498.85 373.489 Q 499.67 373.489 499.67 372.414 L 499.67 372.414 L 499.67 372.414 Q 499.67 371.557 499.278 370.937 L 499.278 370.937 L 499.278 370.937 Q 498.886 370.317 498.047 369.606 L 498.047 369.606 L 496.771 368.494 L 496.771 368.494 Q 495.823 367.692 495.304 366.789 L 495.304 366.789 L 495.304 366.789 Q 494.784 365.887 494.784 364.647 L 494.784 364.647 L 494.784 364.647 Q 494.784 362.788 495.887 361.785 L 495.887 361.785 L 495.887 361.785 Q 496.99 360.782 498.923 360.782 L 498.923 360.782 L 498.923 360.782 Q 501.019 360.782 501.776 362.004 L 501.776 362.004 L 501.776 362.004 Q 502.532 363.225 502.587 364.975 L 502.587 364.975 L 499.779 365.322 L 499.779 365.322 Q 499.743 364.173 499.57 363.672 L 499.57 363.672 L 499.57 363.672 Q 499.397 363.17 498.813 363.17 L 498.813 363.17 L 498.813 363.17 Q 498.394 363.17 498.166 363.526 L 498.166 363.526 L 498.166 363.526 Q 497.938 363.881 497.938 364.319 L 497.938 364.319 L 497.938 364.319 Q 497.938 365.067 498.275 365.577 L 498.275 365.577 L 498.275 365.577 Q 498.613 366.087 499.36 366.744 L 499.36 366.744 L 500.582 367.819 L 500.582 367.819 Q 501.675 368.749 502.277 369.788 L 502.277 369.788 L 502.277 369.788 Q 502.879 370.828 502.879 372.25 L 502.879 372.25 L 502.879 372.25 Q 502.879 373.289 502.396 374.137 L 502.396 374.137 L 502.396 374.137 Q 501.912 374.984 501.037 375.477 L 501.037 375.477 L 501.037 375.477 Q 500.162 375.969 499.014 375.969 L 499.014 375.969 L 499.014 375.969 Z  M 506.491 375.75 L 506.491 360.983 L 510.556 360.983 L 510.556 360.983 Q 512.981 360.983 514.221 361.84 L 514.221 361.84 L 514.221 361.84 Q 515.461 362.696 515.461 364.884 L 515.461 364.884 L 515.461 364.884 Q 515.461 366.361 515.078 367.236 L 515.078 367.236 L 515.078 367.236 Q 514.695 368.111 513.656 368.603 L 513.656 368.603 L 515.679 375.75 L 512.306 375.75 L 510.684 369.132 L 509.754 369.132 L 509.754 375.75 L 506.491 375.75 L 506.491 375.75 Z  M 509.754 367.254 L 510.666 367.254 L 510.666 367.254 Q 511.65 367.254 512.042 366.735 L 512.042 366.735 L 512.042 366.735 Q 512.434 366.215 512.434 365.176 L 512.434 365.176 L 512.434 365.176 Q 512.434 364.173 512.069 363.672 L 512.069 363.672 L 512.069 363.672 Q 511.705 363.17 510.811 363.17 L 510.811 363.17 L 509.754 363.17 L 509.754 367.254 L 509.754 367.254 Z  M 519.473 375.75 L 519.473 360.983 L 522.737 360.983 L 522.737 375.75 L 519.473 375.75 L 519.473 375.75 Z " fill="rgb(255,255,255)" vector-effect="non-scaling-stroke" stroke-width="1" stroke="rgb(152,0,0)" stroke-linejoin="miter" stroke-linecap="square" stroke-miterlimit="3"/></svg>