<?xml version="1.0" encoding="UTF-8" standalone="no"?><!-- Generator: Gravit.io --><svg xmlns="http://www.w3.org/2000/svg" xmlns:xlink="http://www.w3.org/1999/xlink" style="isolation:isolate" viewBox="489.5 349.424 110.865 33" width="110.865pt" height="33pt"><path d=" M 529.23 373.243 L 529.23 360.126 L 532.129 360.126 L 532.129 365.486 L 534.331 360.126 L 537.165 360.126 L 534.736 366.053 L 537.278 373.243 L 534.331 373.243 L 532.436 367.446 L 532.129 367.964 L 532.129 373.243 L 529.23 373.243 L 529.23 373.243 Z  M 543.985 373.438 L 543.985 373.438 Q 542.511 373.438 541.653 372.96 L 541.653 372.96 L 541.653 372.96 Q 540.794 372.482 540.446 371.551 L 540.446 371.551 L 540.446 371.551 Q 540.098 370.62 540.098 369.179 L 540.098 369.179 L 540.098 360.126 L 542.964 360.126 L 542.964 369.616 L 542.964 369.616 Q 542.964 370.409 543.167 370.879 L 543.167 370.879 L 543.167 370.879 Q 543.369 371.349 543.985 371.349 L 543.985 371.349 L 543.985 371.349 Q 544.6 371.349 544.794 370.879 L 544.794 370.879 L 544.794 370.879 Q 544.989 370.409 544.989 369.616 L 544.989 369.616 L 544.989 360.126 L 547.871 360.126 L 547.871 369.179 L 547.871 369.179 Q 547.871 370.62 547.515 371.551 L 547.515 371.551 L 547.515 371.551 Q 547.159 372.482 546.309 372.96 L 546.309 372.96 L 546.309 372.96 Q 545.458 373.438 543.985 373.438 L 543.985 373.438 L 543.985 373.438 Z  M 551.517 373.243 L 551.517 360.126 L 554.934 360.126 L 554.934 360.126 Q 556.213 360.126 557.112 360.393 L 557.112 360.393 L 557.112 360.393 Q 558.011 360.66 558.561 361.422 L 558.561 361.422 L 558.561 361.422 Q 559.112 362.183 559.112 363.559 L 559.112 363.559 L 559.112 363.559 Q 559.112 364.725 558.61 365.373 L 558.61 365.373 L 558.61 365.373 Q 558.108 366.021 557.185 366.199 L 557.185 366.199 L 557.185 366.199 Q 558.318 366.345 558.918 367.154 L 558.918 367.154 L 558.918 367.154 Q 559.517 367.964 559.517 369.357 L 559.517 369.357 L 559.517 369.357 Q 559.517 373.243 555.549 373.243 L 555.549 373.243 L 551.517 373.243 L 551.517 373.243 Z  M 554.416 365.373 L 554.982 365.373 L 554.982 365.373 Q 555.906 365.373 556.238 364.952 L 556.238 364.952 L 556.238 364.952 Q 556.57 364.531 556.57 363.64 L 556.57 363.64 L 556.57 363.64 Q 556.57 362.863 556.148 362.466 L 556.148 362.466 L 556.148 362.466 Q 555.727 362.069 554.918 362.069 L 554.918 362.069 L 554.416 362.069 L 554.416 365.373 L 554.416 365.373 Z  M 554.416 371.219 L 555.031 371.219 L 555.031 371.219 Q 555.954 371.219 556.335 370.758 L 556.335 370.758 L 556.335 370.758 Q 556.715 370.296 556.715 369.308 L 556.715 369.308 L 556.715 369.308 Q 556.715 368.191 556.335 367.737 L 556.335 367.737 L 556.335 367.737 Q 555.954 367.284 555.015 367.284 L 555.015 367.284 L 554.416 367.284 L 554.416 371.219 L 554.416 371.219 Z  M 562.839 373.243 L 562.839 360.126 L 568.733 360.126 L 568.733 362.102 L 565.737 362.102 L 565.737 365.357 L 568.021 365.357 L 568.021 367.365 L 565.737 367.365 L 565.737 371.284 L 568.766 371.284 L 568.766 373.243 L 562.839 373.243 L 562.839 373.243 Z  M 571.877 373.243 L 571.877 360.126 L 575.488 360.126 L 575.488 360.126 Q 577.642 360.126 578.743 360.887 L 578.743 360.887 L 578.743 360.887 Q 579.844 361.648 579.844 363.592 L 579.844 363.592 L 579.844 363.592 Q 579.844 364.903 579.504 365.681 L 579.504 365.681 L 579.504 365.681 Q 579.164 366.458 578.241 366.895 L 578.241 366.895 L 580.039 373.243 L 577.043 373.243 L 575.601 367.365 L 574.776 367.365 L 574.776 373.243 L 571.877 373.243 L 571.877 373.243 Z  M 574.776 365.697 L 575.585 365.697 L 575.585 365.697 Q 576.46 365.697 576.808 365.235 L 576.808 365.235 L 576.808 365.235 Q 577.156 364.774 577.156 363.851 L 577.156 363.851 L 577.156 363.851 Q 577.156 362.96 576.832 362.515 L 576.832 362.515 L 576.832 362.515 Q 576.508 362.069 575.715 362.069 L 575.715 362.069 L 574.776 362.069 L 574.776 365.697 L 574.776 365.697 Z  M 582.761 373.243 L 585.239 360.126 L 588.543 360.126 L 590.988 373.243 L 588.316 373.243 L 587.879 370.474 L 585.951 370.474 L 585.498 373.243 L 582.761 373.243 L 582.761 373.243 Z  M 586.211 368.741 L 587.603 368.741 L 586.907 363.624 L 586.211 368.741 L 586.211 368.741 Z  M 498.453 373.438 L 498.453 373.438 Q 496.575 373.438 495.66 372.442 L 495.66 372.442 L 495.66 372.442 Q 494.745 371.446 494.68 369.276 L 494.68 369.276 L 497.158 368.903 L 497.158 368.903 Q 497.174 370.15 497.457 370.693 L 497.457 370.693 L 497.457 370.693 Q 497.741 371.235 498.308 371.235 L 498.308 371.235 L 498.308 371.235 Q 499.036 371.235 499.036 370.28 L 499.036 370.28 L 499.036 370.28 Q 499.036 369.519 498.688 368.968 L 498.688 368.968 L 498.688 368.968 Q 498.34 368.418 497.595 367.786 L 497.595 367.786 L 496.462 366.798 L 496.462 366.798 Q 495.619 366.086 495.158 365.284 L 495.158 365.284 L 495.158 365.284 Q 494.696 364.482 494.696 363.381 L 494.696 363.381 L 494.696 363.381 Q 494.696 361.729 495.676 360.839 L 495.676 360.839 L 495.676 360.839 Q 496.656 359.948 498.372 359.948 L 498.372 359.948 L 498.372 359.948 Q 500.235 359.948 500.907 361.033 L 500.907 361.033 L 500.907 361.033 Q 501.579 362.118 501.628 363.673 L 501.628 363.673 L 499.134 363.98 L 499.134 363.98 Q 499.101 362.96 498.947 362.515 L 498.947 362.515 L 498.947 362.515 Q 498.794 362.069 498.275 362.069 L 498.275 362.069 L 498.275 362.069 Q 497.903 362.069 497.7 362.385 L 497.7 362.385 L 497.7 362.385 Q 497.498 362.701 497.498 363.09 L 497.498 363.09 L 497.498 363.09 Q 497.498 363.754 497.798 364.207 L 497.798 364.207 L 497.798 364.207 Q 498.097 364.66 498.761 365.243 L 498.761 365.243 L 499.846 366.199 L 499.846 366.199 Q 500.818 367.025 501.352 367.948 L 501.352 367.948 L 501.352 367.948 Q 501.887 368.871 501.887 370.134 L 501.887 370.134 L 501.887 370.134 Q 501.887 371.057 501.457 371.81 L 501.457 371.81 L 501.457 371.81 Q 501.028 372.563 500.251 373.001 L 500.251 373.001 L 500.251 373.001 Q 499.474 373.438 498.453 373.438 L 498.453 373.438 L 498.453 373.438 Z  M 505.095 373.243 L 505.095 360.126 L 508.706 360.126 L 508.706 360.126 Q 510.86 360.126 511.961 360.887 L 511.961 360.887 L 511.961 360.887 Q 513.063 361.648 513.063 363.592 L 513.063 363.592 L 513.063 363.592 Q 513.063 364.903 512.722 365.681 L 512.722 365.681 L 512.722 365.681 Q 512.382 366.458 511.459 366.895 L 511.459 366.895 L 513.257 373.243 L 510.261 373.243 L 508.82 367.365 L 507.994 367.365 L 507.994 373.243 L 505.095 373.243 L 505.095 373.243 Z  M 507.994 365.697 L 508.803 365.697 L 508.803 365.697 Q 509.678 365.697 510.026 365.235 L 510.026 365.235 L 510.026 365.235 Q 510.374 364.774 510.374 363.851 L 510.374 363.851 L 510.374 363.851 Q 510.374 362.96 510.05 362.515 L 510.05 362.515 L 510.05 362.515 Q 509.726 362.069 508.933 362.069 L 508.933 362.069 L 507.994 362.069 L 507.994 365.697 L 507.994 365.697 Z  M 516.627 373.243 L 516.627 360.126 L 519.526 360.126 L 519.526 373.243 L 516.627 373.243 L 516.627 373.243 Z " fill="rgb(255,255,255)" vector-effect="non-scaling-stroke" stroke-width="1" stroke="rgb(152,0,0)" stroke-linejoin="miter" stroke-linecap="square" stroke-miterlimit="3"/></svg>