<?xml version="1.0" encoding="UTF-8" standalone="no"?><!-- Generator: Gravit.io --><svg xmlns="http://www.w3.org/2000/svg" xmlns:xlink="http://www.w3.org/1999/xlink" style="isolation:isolate" viewBox="727.3 422.44 228.88 23.28" width="228.88pt" height="23.28pt"><path d=" M 889.24 433.78 L 889.24 433.78 Q 890.64 433.78 891.75 434.39 L 891.75 434.39 L 891.75 434.39 Q 892.86 435 893.48 436.08 L 893.48 436.08 L 893.48 436.08 Q 894.1 437.16 894.1 438.52 L 894.1 438.52 L 894.1 438.52 Q 894.1 440.02 893.34 441.21 L 893.34 441.21 L 893.34 441.21 Q 892.58 442.4 891.23 443.07 L 891.23 443.07 L 891.23 443.07 Q 889.88 443.74 888.2 443.74 L 888.2 443.74 L 885.08 443.74 L 885.08 443.74 Q 882.34 443.74 881.6 444.86 L 881.6 444.86 L 879.7 443.68 L 879.7 443.68 Q 880.08 442.88 881.41 442.4 L 881.41 442.4 L 881.41 442.4 Q 882.74 441.92 884.82 441.92 L 884.82 441.92 L 888.2 441.92 L 888.2 441.92 Q 889.2 441.92 889.99 441.48 L 889.99 441.48 L 889.99 441.48 Q 890.78 441.04 891.23 440.27 L 891.23 440.27 L 891.23 440.27 Q 891.68 439.5 891.68 438.52 L 891.68 438.52 L 891.68 438.52 Q 891.68 437.26 891 436.44 L 891 436.44 L 891 436.44 Q 890.32 435.62 889.26 435.62 L 889.26 435.62 L 889.06 435.62 L 889.06 435.9 L 889.06 435.9 Q 889.06 437.18 888.44 438.2 L 888.44 438.2 L 888.44 438.2 Q 887.82 439.22 886.69 439.79 L 886.69 439.79 L 886.69 439.79 Q 885.56 440.36 884.04 440.36 L 884.04 440.36 L 884.04 440.36 Q 882.72 440.36 881.74 439.93 L 881.74 439.93 L 881.74 439.93 Q 880.76 439.5 880.23 438.75 L 880.23 438.75 L 880.23 438.75 Q 879.7 438 879.7 437.02 L 879.7 437.02 L 879.7 437.02 Q 879.7 436.02 880.29 435.24 L 880.29 435.24 L 880.29 435.24 Q 880.88 434.46 881.96 434.08 L 881.96 434.08 L 881.96 429.74 L 892.4 429.74 L 892.76 431.56 L 889.06 431.56 L 889.06 433.78 L 889.24 433.78 L 889.24 433.78 Z  M 886.72 433.78 L 886.72 431.56 L 884.28 431.56 L 884.28 433.78 L 886.72 433.78 L 886.72 433.78 Z  M 886.72 435.9 L 886.72 435.62 L 883.98 435.62 L 883.98 435.62 Q 883.1 435.62 882.61 436 L 882.61 436 L 882.61 436 Q 882.12 436.38 882.12 437.02 L 882.12 437.02 L 882.12 437.02 Q 882.12 437.66 882.63 438.05 L 882.63 438.05 L 882.63 438.05 Q 883.14 438.44 884.04 438.44 L 884.04 438.44 L 884.04 438.44 Q 885.32 438.44 886.02 437.74 L 886.02 437.74 L 886.02 437.74 Q 886.72 437.04 886.72 435.9 L 886.72 435.9 L 886.72 435.9 Z  M 908.78 431.56 L 905.16 431.56 L 905.16 440 L 902.84 440 L 902.84 431.56 L 899.02 431.56 L 899.02 440 L 896.7 440 L 896.7 429.74 L 908.42 429.74 L 908.78 431.56 L 908.78 431.56 Z  M 924.36 429.74 L 926.7 429.74 L 926.7 440 L 917.2 440 L 917.2 439.38 L 917.2 439.38 Q 916.12 440.36 914.68 440.36 L 914.68 440.36 L 914.68 440.36 Q 912.6 440.36 911.55 439.14 L 911.55 439.14 L 911.55 439.14 Q 910.5 437.92 910.5 435.88 L 910.5 435.88 L 910.5 429.74 L 912.82 429.64 L 912.82 435.76 L 912.82 435.76 Q 912.82 437.04 913.27 437.74 L 913.27 437.74 L 913.27 437.74 Q 913.72 438.44 914.82 438.44 L 914.82 438.44 L 914.82 438.44 Q 916.02 438.44 916.61 437.56 L 916.61 437.56 L 916.61 437.56 Q 917.2 436.68 917.2 435.18 L 917.2 435.18 L 917.2 429.74 L 919.52 429.74 L 919.52 438.18 L 924.36 438.18 L 924.36 429.74 L 924.36 429.74 Z  M 941.78 431.56 L 938.16 431.56 L 938.16 440 L 935.84 440 L 935.84 431.56 L 932.02 431.56 L 932.02 440 L 929.7 440 L 929.7 429.74 L 941.42 429.74 L 941.78 431.56 L 941.78 431.56 Z  M 956.18 431.58 L 952.56 431.58 L 952.56 439.66 L 952.56 439.66 Q 952.56 440.5 952.48 441.04 L 952.48 441.04 L 952.48 441.04 Q 952.4 441.58 952.11 442 L 952.11 442 L 952.11 442 Q 951.82 442.42 951.2 442.66 L 951.2 442.66 L 945.22 445 L 944.34 443.04 L 949.22 441.12 L 949.22 441.12 Q 949.68 440.94 949.9 440.67 L 949.9 440.67 L 949.9 440.67 Q 950.12 440.4 950.18 440.02 L 950.18 440.02 L 950.18 440.02 Q 950.24 439.64 950.24 438.9 L 950.24 438.9 L 950.24 431.56 L 946.02 431.56 L 946.02 440 L 943.7 440 L 943.7 429.74 L 955.82 429.74 L 956.18 431.58 L 956.18 431.58 Z  M 949 427.6 L 949 427.6 Q 949.62 427.6 950.02 427.2 L 950.02 427.2 L 950.02 427.2 Q 950.42 426.8 950.42 426.2 L 950.42 426.2 L 950.42 426.2 Q 950.42 425.58 950.02 425.18 L 950.02 425.18 L 950.02 425.18 Q 949.62 424.78 949 424.78 L 949 424.78 L 949 424.78 Q 948.4 424.78 948.01 425.18 L 948.01 425.18 L 948.01 425.18 Q 947.62 425.58 947.62 426.2 L 947.62 426.2 L 947.62 426.2 Q 947.62 426.8 948.01 427.2 L 948.01 427.2 L 948.01 427.2 Q 948.4 427.6 949 427.6 L 949 427.6 L 949 427.6 Z  M 779.42 429.74 L 781.74 429.74 L 781.74 440 L 770.2 440 L 770.2 429.74 L 772.52 429.64 L 772.52 438.18 L 779.42 438.18 L 779.42 429.74 L 779.42 429.74 Z  M 793.74 433.78 L 793.74 433.78 Q 795.14 433.78 796.25 434.39 L 796.25 434.39 L 796.25 434.39 Q 797.36 435 797.98 436.08 L 797.98 436.08 L 797.98 436.08 Q 798.6 437.16 798.6 438.52 L 798.6 438.52 L 798.6 438.52 Q 798.6 440.02 797.84 441.21 L 797.84 441.21 L 797.84 441.21 Q 797.08 442.4 795.73 443.07 L 795.73 443.07 L 795.73 443.07 Q 794.38 443.74 792.7 443.74 L 792.7 443.74 L 789.58 443.74 L 789.58 443.74 Q 786.84 443.74 786.1 444.86 L 786.1 444.86 L 784.2 443.68 L 784.2 443.68 Q 784.58 442.88 785.91 442.4 L 785.91 442.4 L 785.91 442.4 Q 787.24 441.92 789.32 441.92 L 789.32 441.92 L 792.7 441.92 L 792.7 441.92 Q 793.7 441.92 794.49 441.48 L 794.49 441.48 L 794.49 441.48 Q 795.28 441.04 795.73 440.27 L 795.73 440.27 L 795.73 440.27 Q 796.18 439.5 796.18 438.52 L 796.18 438.52 L 796.18 438.52 Q 796.18 437.26 795.5 436.44 L 795.5 436.44 L 795.5 436.44 Q 794.82 435.62 793.76 435.62 L 793.76 435.62 L 793.56 435.62 L 793.56 435.9 L 793.56 435.9 Q 793.56 437.18 792.94 438.2 L 792.94 438.2 L 792.94 438.2 Q 792.32 439.22 791.19 439.79 L 791.19 439.79 L 791.19 439.79 Q 790.06 440.36 788.54 440.36 L 788.54 440.36 L 788.54 440.36 Q 787.22 440.36 786.24 439.93 L 786.24 439.93 L 786.24 439.93 Q 785.26 439.5 784.73 438.75 L 784.73 438.75 L 784.73 438.75 Q 784.2 438 784.2 437.02 L 784.2 437.02 L 784.2 437.02 Q 784.2 436.02 784.79 435.24 L 784.79 435.24 L 784.79 435.24 Q 785.38 434.46 786.46 434.08 L 786.46 434.08 L 786.46 429.74 L 796.9 429.74 L 797.26 431.56 L 793.56 431.56 L 793.56 433.78 L 793.74 433.78 L 793.74 433.78 Z  M 791.22 433.78 L 791.22 431.56 L 788.78 431.56 L 788.78 433.78 L 791.22 433.78 L 791.22 433.78 Z  M 791.22 435.9 L 791.22 435.62 L 788.48 435.62 L 788.48 435.62 Q 787.6 435.62 787.11 436 L 787.11 436 L 787.11 436 Q 786.62 436.38 786.62 437.02 L 786.62 437.02 L 786.62 437.02 Q 786.62 437.66 787.13 438.05 L 787.13 438.05 L 787.13 438.05 Q 787.64 438.44 788.54 438.44 L 788.54 438.44 L 788.54 438.44 Q 789.82 438.44 790.52 437.74 L 790.52 437.74 L 790.52 437.74 Q 791.22 437.04 791.22 435.9 L 791.22 435.9 L 791.22 435.9 Z  M 791.5 427.6 L 791.5 427.6 Q 792.12 427.6 792.52 427.2 L 792.52 427.2 L 792.52 427.2 Q 792.92 426.8 792.92 426.2 L 792.92 426.2 L 792.92 426.2 Q 792.92 425.58 792.52 425.18 L 792.52 425.18 L 792.52 425.18 Q 792.12 424.78 791.5 424.78 L 791.5 424.78 L 791.5 424.78 Q 790.9 424.78 790.51 425.18 L 790.51 425.18 L 790.51 425.18 Q 790.12 425.58 790.12 426.2 L 790.12 426.2 L 790.12 426.2 Q 790.12 426.8 790.51 427.2 L 790.51 427.2 L 790.51 427.2 Q 790.9 427.6 791.5 427.6 L 791.5 427.6 L 791.5 427.6 Z  M 811.56 429.38 L 811.56 429.38 Q 813.04 429.38 814.16 430.13 L 814.16 430.13 L 814.16 430.13 Q 815.28 430.88 815.89 432.21 L 815.89 432.21 L 815.89 432.21 Q 816.5 433.54 816.5 435.22 L 816.5 435.22 L 816.5 435.22 Q 816.5 437.42 815.37 438.71 L 815.37 438.71 L 815.37 438.71 Q 814.24 440 811.98 440 L 811.98 440 L 801.2 440 L 801.2 429.74 L 803.52 429.64 L 803.52 438.18 L 807.24 438.18 L 807.24 434.16 L 807.24 434.16 Q 807.24 432.02 808.36 430.7 L 808.36 430.7 L 808.36 430.7 Q 809.48 429.38 811.56 429.38 L 811.56 429.38 L 811.56 429.38 Z  M 811.98 438.18 L 811.98 438.18 Q 813.22 438.18 813.65 437.44 L 813.65 437.44 L 813.65 437.44 Q 814.08 436.7 814.08 435.22 L 814.08 435.22 L 814.08 435.22 Q 814.08 433.48 813.4 432.39 L 813.4 432.39 L 813.4 432.39 Q 812.72 431.3 811.56 431.3 L 811.56 431.3 L 811.56 431.3 Q 809.56 431.3 809.56 434.32 L 809.56 434.32 L 809.56 438.18 L 811.98 438.18 L 811.98 438.18 Z  M 831.28 431.56 L 827.66 431.56 L 827.66 440 L 825.34 440 L 825.34 431.56 L 821.52 431.56 L 821.52 440 L 819.2 440 L 819.2 429.74 L 830.92 429.74 L 831.28 431.56 L 831.28 431.56 Z  M 848.38 429.74 L 850.7 429.74 L 850.7 440 L 842.2 440 L 842.2 438.18 L 842.2 438.18 Q 843.12 436.64 843.12 434.9 L 843.12 434.9 L 843.12 434.9 Q 843.12 433.28 841.96 432.29 L 841.96 432.29 L 841.96 432.29 Q 840.8 431.3 838.52 431.3 L 838.52 431.3 L 838.52 431.3 Q 837.1 431.3 836.03 431.82 L 836.03 431.82 L 836.03 431.82 Q 834.96 432.34 834.39 433.24 L 834.39 433.24 L 834.39 433.24 Q 833.82 434.14 833.82 435.26 L 833.82 435.26 L 833.82 435.26 Q 833.82 436.12 834.18 436.78 L 834.18 436.78 L 834.18 436.78 Q 834.28 435.48 835.25 434.64 L 835.25 434.64 L 835.25 434.64 Q 836.22 433.8 837.58 433.8 L 837.58 433.8 L 837.58 433.8 Q 838.64 433.8 839.49 434.23 L 839.49 434.23 L 839.49 434.23 Q 840.34 434.66 840.82 435.41 L 840.82 435.41 L 840.82 435.41 Q 841.3 436.16 841.3 437.1 L 841.3 437.1 L 841.3 437.1 Q 841.3 438.04 840.79 438.78 L 840.79 438.78 L 840.79 438.78 Q 840.28 439.52 839.37 439.94 L 839.37 439.94 L 839.37 439.94 Q 838.46 440.36 837.32 440.36 L 837.32 440.36 L 837.32 440.36 Q 835.62 440.36 834.27 439.7 L 834.27 439.7 L 834.27 439.7 Q 832.92 439.04 832.16 437.88 L 832.16 437.88 L 832.16 437.88 Q 831.4 436.72 831.4 435.26 L 831.4 435.26 L 831.4 435.26 Q 831.4 433.56 832.3 432.22 L 832.3 432.22 L 832.3 432.22 Q 833.2 430.88 834.82 430.13 L 834.82 430.13 L 834.82 430.13 Q 836.44 429.38 838.52 429.38 L 838.52 429.38 L 838.52 429.38 Q 840.54 429.38 842.14 430.09 L 842.14 430.09 L 842.14 430.09 Q 843.74 430.8 844.65 432.06 L 844.65 432.06 L 844.65 432.06 Q 845.56 433.32 845.56 434.9 L 845.56 434.9 L 845.56 434.9 Q 845.56 436.58 844.76 438.18 L 844.76 438.18 L 848.38 438.18 L 848.38 429.74 L 848.38 429.74 Z  M 837.62 435.64 L 837.62 435.64 Q 837 435.64 836.6 436.05 L 836.6 436.05 L 836.6 436.05 Q 836.2 436.46 836.2 437.1 L 836.2 437.1 L 836.2 437.1 Q 836.2 437.72 836.6 438.12 L 836.6 438.12 L 836.6 438.12 Q 837 438.52 837.62 438.52 L 837.62 438.52 L 837.62 438.52 Q 838.24 438.52 838.65 438.12 L 838.65 438.12 L 838.65 438.12 Q 839.06 437.72 839.06 437.1 L 839.06 437.1 L 839.06 437.1 Q 839.06 436.48 838.65 436.06 L 838.65 436.06 L 838.65 436.06 Q 838.24 435.64 837.62 435.64 L 837.62 435.64 L 837.62 435.64 Z  M 862.74 433.78 L 862.74 433.78 Q 864.14 433.78 865.25 434.39 L 865.25 434.39 L 865.25 434.39 Q 866.36 435 866.98 436.08 L 866.98 436.08 L 866.98 436.08 Q 867.6 437.16 867.6 438.52 L 867.6 438.52 L 867.6 438.52 Q 867.6 440.02 866.84 441.21 L 866.84 441.21 L 866.84 441.21 Q 866.08 442.4 864.73 443.07 L 864.73 443.07 L 864.73 443.07 Q 863.38 443.74 861.7 443.74 L 861.7 443.74 L 858.58 443.74 L 858.58 443.74 Q 855.84 443.74 855.1 444.86 L 855.1 444.86 L 853.2 443.68 L 853.2 443.68 Q 853.58 442.88 854.91 442.4 L 854.91 442.4 L 854.91 442.4 Q 856.24 441.92 858.32 441.92 L 858.32 441.92 L 861.7 441.92 L 861.7 441.92 Q 862.7 441.92 863.49 441.48 L 863.49 441.48 L 863.49 441.48 Q 864.28 441.04 864.73 440.27 L 864.73 440.27 L 864.73 440.27 Q 865.18 439.5 865.18 438.52 L 865.18 438.52 L 865.18 438.52 Q 865.18 437.26 864.5 436.44 L 864.5 436.44 L 864.5 436.44 Q 863.82 435.62 862.76 435.62 L 862.76 435.62 L 862.56 435.62 L 862.56 435.9 L 862.56 435.9 Q 862.56 437.18 861.94 438.2 L 861.94 438.2 L 861.94 438.2 Q 861.32 439.22 860.19 439.79 L 860.19 439.79 L 860.19 439.79 Q 859.06 440.36 857.54 440.36 L 857.54 440.36 L 857.54 440.36 Q 856.22 440.36 855.24 439.93 L 855.24 439.93 L 855.24 439.93 Q 854.26 439.5 853.73 438.75 L 853.73 438.75 L 853.73 438.75 Q 853.2 438 853.2 437.02 L 853.2 437.02 L 853.2 437.02 Q 853.2 436.02 853.79 435.24 L 853.79 435.24 L 853.79 435.24 Q 854.38 434.46 855.46 434.08 L 855.46 434.08 L 855.46 429.74 L 865.9 429.74 L 866.26 431.56 L 862.56 431.56 L 862.56 433.78 L 862.74 433.78 L 862.74 433.78 Z  M 860.22 433.78 L 860.22 431.56 L 857.78 431.56 L 857.78 433.78 L 860.22 433.78 L 860.22 433.78 Z  M 860.22 435.9 L 860.22 435.62 L 857.48 435.62 L 857.48 435.62 Q 856.6 435.62 856.11 436 L 856.11 436 L 856.11 436 Q 855.62 436.38 855.62 437.02 L 855.62 437.02 L 855.62 437.02 Q 855.62 437.66 856.13 438.05 L 856.13 438.05 L 856.13 438.05 Q 856.64 438.44 857.54 438.44 L 857.54 438.44 L 857.54 438.44 Q 858.82 438.44 859.52 437.74 L 859.52 437.74 L 859.52 437.74 Q 860.22 437.04 860.22 435.9 L 860.22 435.9 L 860.22 435.9 Z  M 865.2 424.06 L 865.2 424.06 Q 867.46 424.06 869.11 424.81 L 869.11 424.81 L 869.11 424.81 Q 870.76 425.56 871.64 426.89 L 871.64 426.89 L 871.64 426.89 Q 872.52 428.22 872.52 429.94 L 872.52 429.94 L 872.52 440 L 870.2 440 L 870.2 429.94 L 870.2 429.94 Q 870.2 428.12 868.9 427.05 L 868.9 427.05 L 868.9 427.05 Q 867.6 425.98 865.2 425.98 L 865.2 425.98 L 865.2 425.98 Q 863.84 425.98 863.09 426.49 L 863.09 426.49 L 863.09 426.49 Q 862.34 427 862.34 427.88 L 862.34 427.88 L 862.34 427.88 Q 862.34 428.74 862.76 429.24 L 862.76 429.24 L 862.76 429.24 Q 863.18 429.74 864.04 429.74 L 864.04 429.74 L 864.04 431.36 L 864.04 431.36 Q 862.2 431.36 861.13 430.39 L 861.13 430.39 L 861.13 430.39 Q 860.06 429.42 860.04 427.88 L 860.04 427.88 L 860.04 427.88 Q 860.04 426.78 860.67 425.91 L 860.67 425.91 L 860.67 425.91 Q 861.3 425.04 862.47 424.55 L 862.47 424.55 L 862.47 424.55 Q 863.64 424.06 865.2 424.06 L 865.2 424.06 L 865.2 424.06 Z  M 759.44 433.08 L 759.44 433.08 Q 760.64 433.08 761.56 433.73 L 761.56 433.73 L 761.56 433.73 Q 762.48 434.38 762.98 435.53 L 762.98 435.53 L 762.98 435.53 Q 763.48 436.68 763.48 438.12 L 763.48 438.12 L 763.48 438.12 Q 763.48 440.44 762.19 442.15 L 762.19 442.15 L 762.19 442.15 Q 760.9 443.86 758.52 444.79 L 758.52 444.79 L 758.52 444.79 Q 756.14 445.72 752.92 445.72 L 752.92 445.72 L 737.78 445.72 L 737.78 445.72 Q 734.68 445.72 732.3 444.59 L 732.3 444.59 L 732.3 444.59 Q 729.92 443.46 728.61 441.39 L 728.61 441.39 L 728.61 441.39 Q 727.3 439.32 727.3 436.6 L 727.3 436.6 L 727.3 436.6 Q 727.3 434.7 728.12 432.7 L 728.12 432.7 L 728.12 432.7 Q 728.94 430.7 730.2 429.54 L 730.2 429.54 L 732.58 429.74 L 732.58 429.74 Q 731.34 430.78 730.53 432.71 L 730.53 432.71 L 730.53 432.71 Q 729.72 434.64 729.72 436.64 L 729.72 436.64 L 729.72 436.64 Q 729.72 438.78 730.72 440.41 L 730.72 440.41 L 730.72 440.41 Q 731.72 442.04 733.54 442.95 L 733.54 442.95 L 733.54 442.95 Q 735.36 443.86 737.78 443.88 L 737.78 443.88 L 752.92 443.88 L 752.92 443.88 Q 755.42 443.88 757.26 443.17 L 757.26 443.17 L 757.26 443.17 Q 759.1 442.46 760.07 441.16 L 760.07 441.16 L 760.07 441.16 Q 761.04 439.86 761.04 438.12 L 761.04 438.12 L 761.04 438.12 Q 761.04 436.76 760.54 435.92 L 760.54 435.92 L 760.54 435.92 Q 760.04 435.08 759.16 435.08 L 759.16 435.08 L 759.16 435.08 Q 758.44 435.08 757.97 435.52 L 757.97 435.52 L 757.97 435.52 Q 757.5 435.96 757.5 436.62 L 757.5 436.62 L 757.5 440 L 755.18 440 L 755.18 431.56 L 750.94 431.56 L 750.94 440 L 748.62 440 L 748.62 434.56 L 748.62 434.56 Q 748.62 433.06 748.03 432.18 L 748.03 432.18 L 748.03 432.18 Q 747.44 431.3 746.22 431.3 L 746.22 431.3 L 746.22 431.3 Q 745.14 431.3 744.68 432 L 744.68 432 L 744.68 432 Q 744.22 432.7 744.22 433.96 L 744.22 433.96 L 744.22 440 L 733.76 440 L 733.76 429.74 L 736.08 429.64 L 736.08 438.18 L 741.9 438.18 L 741.9 433.86 L 741.9 433.86 Q 741.9 431.82 742.96 430.6 L 742.96 430.6 L 742.96 430.6 Q 744.02 429.38 746.1 429.38 L 746.1 429.38 L 746.1 429.38 Q 747.56 429.38 748.62 430.38 L 748.62 430.38 L 748.62 429.74 L 753.7 429.74 L 753.7 429.74 Q 752.8 428.62 752.8 427.1 L 752.8 427.1 L 752.8 427.1 Q 752.8 425.76 753.49 424.7 L 753.49 424.7 L 753.49 424.7 Q 754.18 423.64 755.45 423.04 L 755.45 423.04 L 755.45 423.04 Q 756.72 422.44 758.4 422.44 L 758.4 422.44 L 758.4 422.44 Q 759.76 422.44 760.9 422.95 L 760.9 422.95 L 760.9 422.95 Q 762.04 423.46 762.71 424.35 L 762.71 424.35 L 762.71 424.35 Q 763.38 425.24 763.38 426.34 L 763.38 426.34 L 763.38 426.34 Q 763.38 427.48 762.58 428.22 L 762.58 428.22 L 762.58 428.22 Q 761.78 428.96 760.56 428.96 L 760.56 428.96 L 760.56 428.96 Q 759.36 428.96 758.56 428.23 L 758.56 428.23 L 758.56 428.23 Q 757.76 427.5 757.76 426.4 L 757.76 426.4 L 757.76 426.4 Q 757.76 425.76 758.02 425.25 L 758.02 425.25 L 758.02 425.25 Q 758.28 424.74 758.74 424.38 L 758.74 424.38 L 758.4 424.38 L 758.4 424.38 Q 756.92 424.38 756.07 425.13 L 756.07 425.13 L 756.07 425.13 Q 755.22 425.88 755.22 427.1 L 755.22 427.1 L 755.22 427.1 Q 755.22 428.28 755.96 429.01 L 755.96 429.01 L 755.96 429.01 Q 756.7 429.74 757.84 429.74 L 757.84 429.74 L 760.76 429.74 L 761.12 431.56 L 757.5 431.56 L 757.5 433.56 L 757.5 433.56 Q 758.4 433.08 759.44 433.08 L 759.44 433.08 L 759.44 433.08 Z  M 760.56 427.42 L 760.56 427.42 Q 761 427.42 761.29 427.13 L 761.29 427.13 L 761.29 427.13 Q 761.58 426.84 761.58 426.4 L 761.58 426.4 L 761.58 426.4 Q 761.58 425.98 761.29 425.69 L 761.29 425.69 L 761.29 425.69 Q 761 425.4 760.56 425.4 L 760.56 425.4 L 760.56 425.4 Q 760.12 425.4 759.83 425.69 L 759.83 425.69 L 759.83 425.69 Q 759.54 425.98 759.54 426.4 L 759.54 426.4 L 759.54 426.4 Q 759.54 426.84 759.83 427.13 L 759.83 427.13 L 759.83 427.13 Q 760.12 427.42 760.56 427.42 L 760.56 427.42 L 760.56 427.42 Z " fill="rgb(255,255,255)"/></svg>