<?xml version="1.0" encoding="UTF-8" standalone="no"?><!-- Generator: Gravit.io --><svg xmlns="http://www.w3.org/2000/svg" xmlns:xlink="http://www.w3.org/1999/xlink" style="isolation:isolate" viewBox="-150.529 8.19 112.529 155.043" width="112.529pt" height="155.043pt"><g><path d=" M -110 162.909 C -111.845 162.18 -111.906 161.7 -111.366 152.066 C -111.081 146.978 -111.155 141.465 -111.531 139.815 C -112.689 134.723 -112.423 131.31 -110.786 130.288 C -109.341 129.386 -109.343 129.342 -110.907 126.811 C -112.047 124.967 -112.51 122.934 -112.558 119.566 C -112.606 116.198 -112.883 114.983 -113.545 115.236 C -115.215 115.873 -119.871 123.074 -120.94 126.673 C -121.517 128.618 -122.909 131.189 -124.032 132.387 C -125.156 133.585 -126.963 136.421 -128.048 138.69 C -130.891 144.636 -141.921 153.995 -146.979 154.754 C -151.084 155.369 -151.404 154.662 -149.088 150.097 C -145.441 142.909 -140.403 122.987 -138.047 106.44 C -137.43 102.108 -136.625 91.477 -136.258 82.815 C -135.063 54.629 -130.969 41.674 -121.814 37.112 C -116.391 34.41 -110.739 34.628 -102.969 37.84 C -101.63 38.394 -101.622 38.332 -102.803 36.53 C -104.384 34.117 -106.426 24.212 -106.601 18.109 C -106.676 15.521 -107.133 13.006 -107.618 12.521 C -108.401 11.738 -108.908 8.19 -108.237 8.19 C -107.163 8.19 -103.25 9.958 -103.25 10.443 C -103.25 10.776 -101.554 11.282 -99.48 11.567 C -97.407 11.852 -95.238 12.559 -94.659 13.138 C -93.282 14.515 -92.268 14.469 -91.706 13.005 C -91.225 11.753 -88.536 11.953 -84.376 13.551 C -81.814 14.535 -75.009 22.554 -74.406 25.299 C -74.133 26.54 -73.012 27.95 -71.665 28.746 C -69.612 29.958 -66.51 33.944 -66.503 35.377 C -66.501 35.687 -67.132 35.94 -67.904 35.94 C -69.978 35.94 -70.751 41.438 -69.044 44.043 C -67.844 45.875 -67.862 46.014 -69.478 47.323 C -70.538 48.181 -72.391 48.69 -74.458 48.69 C -79.45 48.69 -79.09 50.374 -71.488 62.565 C -69.263 66.132 -67.676 67.895 -66.537 68.064 C -65.614 68.2 -64.301 69.295 -63.617 70.496 C -62.934 71.697 -61.985 72.682 -61.508 72.685 C -60.359 72.691 -59.618 66.674 -60.078 61.065 C -60.281 58.586 -60.171 57.011 -59.832 57.558 C -59.479 58.129 -57.455 58.658 -55.065 58.804 C -50.951 59.055 -50.905 59.035 -50.323 56.686 C -48.983 51.283 -48.682 50.475 -48.6 52.065 C -48.557 52.89 -49.017 54.987 -49.623 56.725 C -50.228 58.463 -50.502 60.465 -50.23 61.172 C -49.766 62.382 -49.844 62.384 -51.535 61.201 C -53.384 59.906 -57.875 59.477 -58.528 60.534 C -58.73 60.86 -57.735 60.992 -56.317 60.826 C -53.192 60.462 -49.658 62.467 -50.332 64.224 C -50.579 64.868 -50.249 68.977 -49.598 73.355 C -47.896 84.799 -49.031 90.691 -52.936 90.691 C -55.322 90.691 -63.029 87.7 -67.491 85.042 C -69.893 83.611 -71.961 82.441 -72.088 82.441 C -72.214 82.441 -72.727 83.429 -73.228 84.637 C -73.728 85.845 -74.613 87.015 -75.194 87.238 C -75.775 87.461 -76.25 88.199 -76.25 88.878 C -76.25 89.557 -77.626 93.196 -79.309 96.964 C -81.696 102.312 -82.287 104.44 -82.001 106.658 C -81.504 110.513 -80.662 111.342 -73.667 114.857 C -53.903 124.789 -38 141.114 -38 151.469 C -38 155.814 -41.495 159.336 -46.561 160.095 C -53.612 161.153 -65.853 157.977 -78.353 151.848 C -88.962 146.646 -96.574 144.846 -97.521 147.316 C -97.759 147.935 -98.58 148.441 -99.346 148.441 C -101.22 148.441 -103.831 151.377 -104.016 153.691 C -104.325 157.551 -103.983 158.275 -101.326 159.385 C -99.505 160.145 -98.73 160.911 -98.896 161.784 C -99.093 162.818 -100.082 163.094 -104.008 163.21 C -106.685 163.289 -109.381 163.154 -110 162.91 L -110 162.909 Z  M -104.357 159.989 C -106.119 156.611 -105.808 152.671 -103.571 150.013 C -102.51 148.752 -101.875 147.344 -102.159 146.885 C -102.886 145.708 -102.727 140.462 -101.919 139.019 C -100.904 137.205 -108.291 130.275 -110.169 131.28 C -111.701 132.1 -111.921 135.276 -110.667 138.453 C -109.825 140.585 -109.698 147.936 -110.351 156.764 L -110.705 161.565 L -108.406 161.728 C -106.487 161.864 -106.254 161.713 -107 160.815 C -107.49 160.224 -107.752 159.322 -107.582 158.811 C -107.399 158.262 -106.547 158.863 -105.502 160.277 C -103.378 163.149 -102.787 163 -104.357 159.989 L -104.357 159.989 Z  M -100.547 160.643 C -101.309 159.88 -101.938 161.028 -101.313 162.04 C -100.84 162.805 -100.664 162.805 -100.41 162.043 C -100.236 161.522 -100.298 160.892 -100.547 160.643 L -100.547 160.643 Z  M -42.415 157.655 C -41.703 156.942 -41.963 156.572 -43.617 155.943 C -44.779 155.501 -49.001 152.968 -53 150.315 C -56.999 147.661 -61.251 145.115 -62.448 144.657 C -63.645 144.2 -69.495 143.173 -75.446 142.376 C -81.398 141.578 -88.418 140.582 -91.047 140.162 C -93.676 139.742 -96.147 139.596 -96.538 139.838 C -96.93 140.08 -97.25 141.227 -97.25 142.386 C -97.25 144.376 -96.987 144.545 -92.563 145.395 C -89.984 145.891 -84.331 147.93 -80 149.928 C -63.975 157.317 -58.165 158.994 -49.475 158.743 C -45.886 158.639 -42.946 158.186 -42.415 157.655 L -42.415 157.655 Z  M -39.502 152.708 C -39.505 151.24 -39.899 151.064 -43.202 151.06 C -46.317 151.057 -47.586 150.572 -51.262 147.982 C -53.662 146.291 -56.986 144.214 -58.649 143.367 C -61.916 141.702 -69.121 140.134 -72.825 140.281 C -74.184 140.335 -73.354 140.632 -70.799 141.006 C -63.483 142.077 -60.895 143.057 -54.776 147.074 C -47.702 151.717 -40.944 155.243 -40.107 154.726 C -39.773 154.52 -39.501 153.612 -39.502 152.708 Z  M -147.272 153.102 C -142.47 147.796 -134.784 119.205 -133.517 101.94 C -133.26 98.433 -132.736 95.058 -132.352 94.44 C -131.3 92.743 -132.253 104.845 -133.923 114.385 C -136.34 128.193 -141.434 145.883 -144.54 151.252 C -146.391 154.453 -144.669 154.624 -142.041 151.5 C -137.537 146.147 -128.75 109.972 -128.75 96.781 C -128.75 95.081 -128.413 93.689 -128 93.689 C -127.003 93.689 -127.048 95.073 -128.375 105.191 C -130.324 120.064 -135.25 140.629 -138.253 146.437 C -139.263 148.39 -139.247 148.549 -138.063 148.317 C -136.246 147.962 -134.433 144.07 -131.832 134.939 C -128.916 124.706 -126.698 112.948 -125.588 101.845 C -125.098 96.947 -124.411 92.939 -124.061 92.939 C -122.098 92.939 -127.965 128.064 -131.782 139.159 C -133.585 144.397 -133.586 144.476 -131.835 142.891 C -129.777 141.029 -126.702 133.747 -125.444 127.76 C -124.374 122.665 -122.548 108.014 -121.548 96.502 C -121.27 93.305 -120.741 90.689 -120.371 90.689 C -120.001 90.689 -119.881 92.293 -120.105 94.252 C -120.328 96.211 -121.036 102.872 -121.677 109.054 C -122.318 115.235 -123.324 122.805 -123.911 125.876 C -124.499 128.947 -124.84 131.599 -124.67 131.769 C -124.112 132.328 -122.156 127.859 -120.962 123.294 C -120.317 120.83 -119.214 110.968 -118.511 101.377 C -117.807 91.786 -116.938 83.939 -116.579 83.939 C -116.219 83.939 -116.111 85.88 -116.337 88.252 C -116.564 90.624 -117.099 97.627 -117.526 103.814 C -117.953 110.002 -118.48 116.246 -118.698 117.689 C -119.076 120.201 -119.041 120.25 -117.889 118.814 C -117.226 117.989 -116.207 115.627 -115.623 113.564 C -114.474 109.502 -113 92.982 -113 84.165 C -113 80.769 -112.695 78.689 -112.196 78.689 C -111.643 78.689 -111.536 81.443 -111.855 87.502 C -112.411 98.078 -113.658 111.326 -114.24 112.844 C -114.9 114.563 -113.152 114.125 -112.192 112.331 C -111.718 111.446 -110.842 104.105 -110.244 96.018 C -109.646 87.931 -108.881 79.964 -108.543 78.314 L -107.93 75.314 L -107.85 78.314 C -107.806 79.964 -108.27 87.389 -108.88 94.814 C -110.205 110.922 -110.202 110.143 -108.931 108.468 C -108.37 107.728 -107.672 105.534 -107.381 103.593 C -107.09 101.652 -106.559 99.516 -106.2 98.846 C -105.841 98.176 -105.21 91.995 -104.797 85.11 C -104.384 78.226 -103.495 70.395 -102.821 67.709 C -101.622 62.927 -101.629 62.79 -103.173 61.146 C -104.133 60.125 -104.75 58.477 -104.75 56.935 C -104.75 54.627 -104.66 54.525 -103.739 55.786 C -102.274 57.789 -100.866 56.639 -101.795 54.197 C -102.612 52.047 -101.639 50.189 -99.696 50.189 C -98.851 50.189 -98.699 49.682 -99.079 48.127 C -99.356 46.993 -99.57 45.326 -99.554 44.422 C -99.484 40.536 -107.582 35.928 -114.449 35.947 C -119.034 35.958 -124.684 39.139 -127.217 43.132 C -132.236 51.048 -134.432 62.243 -135.494 85.345 C -136.79 113.523 -141.019 134.103 -149.501 153.502 C -150.11 154.896 -148.66 154.636 -147.272 153.101 L -147.272 153.102 Z  M -39.724 148.691 C -38.875 146.48 -43.395 139.293 -49.335 133.404 C -54.309 128.474 -64.932 120.461 -70.056 117.775 C -72.549 116.468 -74.731 117.926 -83.375 126.675 C -87.5 130.85 -92.002 134.97 -93.379 135.83 C -95.253 137.001 -95.63 137.554 -94.879 138.03 C -94.327 138.38 -87.901 138.672 -80.599 138.678 C -64.336 138.692 -61.036 139.333 -55 143.646 C -46.641 149.62 -40.818 151.543 -39.724 148.691 L -39.724 148.691 Z  M -98.375 142.815 C -98.375 138.786 -99.528 137.225 -100.545 139.876 C -101.155 141.465 -101.125 145.815 -100.5 146.44 C -99.095 147.845 -98.375 146.617 -98.375 142.815 L -98.375 142.815 Z  M -93.275 134.133 C -91.359 132.864 -87.411 129.276 -84.5 126.159 C -81.589 123.042 -77.989 119.523 -76.5 118.34 C -74.621 116.847 -74.19 116.19 -75.089 116.19 C -75.802 116.19 -80.151 120.026 -84.755 124.716 C -89.358 129.405 -94.475 133.946 -96.125 134.808 C -97.775 135.669 -98.592 136.388 -97.941 136.406 C -97.29 136.423 -95.19 135.402 -93.275 134.133 L -93.275 134.133 Z  M -100.1 132.69 C -99.358 132.69 -98.75 132.367 -98.75 131.974 C -98.75 131.58 -97.569 131.036 -96.125 130.765 C -94.622 130.483 -93.5 129.828 -93.5 129.231 C -93.5 128.658 -93.166 128.19 -92.759 128.19 C -91.617 128.19 -89 125.723 -89 124.648 C -89 124.121 -88.702 123.69 -88.338 123.69 C -87.973 123.69 -87.496 123.005 -87.277 122.168 C -87.058 121.331 -86.428 120.741 -85.877 120.856 C -85.326 120.971 -84.969 120.614 -85.084 120.063 C -85.199 119.511 -84.608 118.881 -83.772 118.663 C -82.935 118.444 -82.25 117.825 -82.25 117.287 C -82.25 116.749 -81.241 116.087 -80.009 115.816 C -77.437 115.252 -76.234 113.94 -78.289 113.94 C -80.124 113.94 -82.496 115.627 -87.714 120.643 C -92.455 125.201 -101.98 131.94 -103.681 131.94 C -104.269 131.94 -104.75 132.249 -104.75 132.627 C -104.75 133.626 -102.996 134.113 -102.163 133.346 C -101.771 132.985 -100.843 132.69 -100.1 132.69 L -100.1 132.69 Z  M -98.957 127.972 C -96.802 126.693 -92.414 123.235 -89.207 120.288 C -85.999 117.342 -82.587 114.512 -81.623 114 C -80.66 113.487 -80.038 112.902 -80.241 112.699 C -80.807 112.132 -84.918 114.448 -90.018 118.207 C -95.264 122.073 -101.399 125.328 -106.078 126.728 L -109.28 127.686 L -107.628 129.445 C -105.69 131.508 -104.602 131.323 -98.957 127.972 L -98.957 127.972 Z  M -98.358 121.987 C -96.305 120.942 -92.386 118.451 -89.649 116.451 C -86.912 114.451 -84.044 112.436 -83.274 111.972 C -82.027 111.221 -82.2 111.033 -84.875 110.233 C -88.35 109.195 -103.733 108.272 -106.402 108.942 C -110.235 109.904 -112.905 119.786 -110.662 124.709 L -109.824 126.548 L -105.958 125.218 C -103.831 124.486 -100.411 123.033 -98.358 121.987 L -98.358 121.987 Z  M -83.478 107.163 C -84.653 105.99 -92.474 104.324 -99.312 103.789 L -106.041 103.262 L -106.417 105.226 L -106.792 107.19 L -99.584 107.222 C -95.619 107.239 -90.35 107.683 -87.875 108.205 C -83.654 109.097 -81.946 108.692 -83.478 107.162 L -83.478 107.163 Z  M -83 104.593 C -83 103.283 -85.776 102.507 -96.756 100.749 C -103.717 99.635 -104.982 99.6 -105.546 100.506 C -106.086 101.373 -104.753 101.737 -98.165 102.519 C -91.825 103.271 -85.837 104.508 -83.188 105.611 C -83.084 105.654 -83 105.196 -83 104.593 L -83 104.593 Z  M -80.175 96.476 C -78.827 93.5 -77.73 90.366 -77.737 89.512 C -77.746 88.659 -76.906 87.226 -75.875 86.33 C -74.844 85.433 -74 84.254 -74 83.71 C -74 82.171 -79.62 77.496 -85.745 73.94 C -86.281 73.628 -87.222 74.692 -88.204 76.719 C -89.73 79.871 -98.433 89.006 -99.19 88.25 C -99.392 88.048 -97.638 85.899 -95.294 83.474 C -92.95 81.049 -90.396 77.644 -89.62 75.908 C -88.843 74.172 -87.857 72.535 -87.428 72.27 C -87 72.005 -84.618 73.042 -82.135 74.575 C -79.653 76.107 -77.369 77.069 -77.06 76.713 C -76.751 76.356 -74.881 74.296 -72.903 72.134 L -69.308 68.204 L -71.842 64.02 C -76.909 55.65 -86.16 51.657 -92.676 55.026 C -99.427 58.517 -102.277 66.155 -103.326 83.565 C -103.724 90.165 -104.123 96.216 -104.212 97.011 C -104.344 98.182 -103.807 98.517 -101.399 98.765 C -99.763 98.934 -95.207 99.676 -91.274 100.413 C -87.342 101.15 -83.788 101.784 -83.375 101.821 C -82.963 101.858 -81.522 99.453 -80.175 96.476 L -80.175 96.476 Z  M -50.289 87.241 C -49.823 85.383 -50.212 77.351 -51.222 67.978 C -51.723 63.333 -53.016 61.873 -56.226 62.33 C -57.514 62.513 -57.976 63.222 -58.337 65.565 C -58.591 67.215 -59.044 69.922 -59.343 71.581 C -59.869 74.499 -59.8 74.638 -57.193 75.881 C -55.712 76.587 -54.5 77.515 -54.5 77.943 C -54.5 78.929 -59.597 76.353 -62.533 73.882 L -64.767 72.003 L -67.02 74.409 C -69.444 76.996 -71.75 80.218 -71.75 81.015 C -71.75 81.286 -68.359 83.236 -64.214 85.348 C -55.245 89.92 -51.103 90.483 -50.289 87.241 L -50.289 87.241 Z  M -72.13 78.7 C -71.493 77.468 -69.881 75.202 -68.549 73.664 L -66.125 70.868 L -68.58 72.592 C -71.198 74.431 -75.147 80.94 -73.644 80.94 C -73.449 80.94 -72.767 79.932 -72.13 78.7 Z  M -68.643 70.94 C -65.933 68.805 -66.543 68.153 -69.386 70.144 C -71.299 71.484 -75.5 76.995 -75.5 78.165 C -75.5 78.577 -74.524 77.567 -73.33 75.919 C -72.137 74.272 -70.027 72.031 -68.643 70.94 Z  M -78.864 50.992 C -79.453 48.306 -77.832 47.19 -73.344 47.19 C -71.691 47.19 -70.114 46.826 -69.84 46.382 C -69.565 45.938 -70.408 44.248 -71.712 42.625 C -73.851 39.963 -73.95 39.625 -72.729 39.174 C -70.016 38.172 -69.507 36.153 -71.879 35.804 C -72.775 35.672 -73.637 35.172 -73.794 34.693 C -73.996 34.079 -73.131 33.949 -70.868 34.252 L -67.655 34.683 L -68.846 32.874 C -69.501 31.879 -70.946 30.558 -72.057 29.94 C -73.896 28.916 -74.144 28.932 -74.826 30.127 C -75.238 30.849 -75.915 31.439 -76.332 31.439 C -76.748 31.439 -76.894 31.125 -76.657 30.741 C -75.996 29.672 -77.769 28.908 -78.715 29.855 C -79.174 30.314 -80.03 30.689 -80.617 30.689 C -82.191 30.689 -80.232 28.501 -77.781 27.522 C -76.733 27.103 -76.273 26.612 -76.76 26.43 C -77.247 26.248 -78.982 26.984 -80.616 28.065 C -82.722 29.459 -83.482 30.428 -83.228 31.397 C -83.032 32.149 -83.431 33.847 -84.115 35.17 C -85.359 37.575 -85.21 39.689 -83.797 39.689 C -83.385 39.689 -83.241 39.183 -83.479 38.564 C -83.716 37.946 -83.526 37.439 -83.057 37.439 C -81.647 37.439 -81.216 39.726 -82.401 40.912 C -83.85 42.361 -86.988 41.035 -88.151 38.482 C -89.053 36.502 -91.067 36.091 -91.706 37.756 C -92.265 39.212 -90.622 42.104 -89.597 41.47 C -89.137 41.185 -88.978 41.297 -89.24 41.721 C -89.499 42.14 -88.523 43.565 -87.071 44.886 C -85.165 46.621 -84.559 47.692 -84.891 48.739 C -85.244 49.852 -84.861 50.362 -83.238 50.939 C -82.076 51.351 -80.619 52.006 -80 52.395 C -78.36 53.425 -78.336 53.394 -78.864 50.992 L -78.864 50.992 Z  M -86.95 42.597 C -86.441 42.084 -85.836 41.854 -85.605 42.084 C -85.374 42.315 -85.791 42.735 -86.53 43.016 C -87.599 43.423 -87.685 43.337 -86.95 42.597 L -86.95 42.597 Z  M -85.429 51.924 C -86.146 51.737 -87.496 51.73 -88.429 51.91 C -89.362 52.09 -88.775 52.243 -87.125 52.251 C -85.475 52.26 -84.712 52.113 -85.429 51.925 L -85.429 51.924 Z  M -93.251 38.002 C -92.215 35.883 -91.42 35.19 -90.025 35.19 C -88.621 35.19 -87.911 34.561 -87.087 32.589 C -86.489 31.158 -86.015 29.218 -86.033 28.276 C -86.056 27.049 -86.372 27.414 -87.147 29.565 C -87.741 31.215 -88.233 32.649 -88.239 32.752 C -88.244 32.855 -88.567 32.939 -88.954 32.939 C -90.064 32.939 -90.806 26.129 -89.944 23.846 C -89.338 22.241 -89.383 21.884 -90.154 22.179 C -91.519 22.703 -93.497 27.111 -93.518 29.678 C -93.55 33.483 -94.889 37.785 -96.431 39.034 C -97.259 39.705 -97.714 40.476 -97.442 40.747 C -96.349 41.84 -94.551 40.663 -93.251 38.002 L -93.251 38.002 Z  M -96.823 37.09 C -96.156 36.073 -95.336 33.024 -95 30.315 C -94.571 26.854 -93.82 24.642 -92.476 22.88 C -90.764 20.636 -90.655 20.123 -91.445 18.03 C -92.139 16.192 -92.771 15.69 -94.388 15.69 C -96.744 15.69 -101.249 19.296 -102.913 22.514 C -104.977 26.505 -103.919 33.767 -100.765 37.252 C -98.831 39.39 -98.316 39.369 -96.823 37.09 L -96.823 37.09 Z  M -87.564 24.69 C -87.533 22.73 -87.707 22.35 -88.25 23.19 C -88.65 23.808 -88.959 25.665 -88.936 27.315 C -88.904 29.672 -88.756 29.993 -88.25 28.815 C -87.896 27.99 -87.587 26.133 -87.564 24.69 Z  M -81.163 26.23 C -79.999 25.014 -78.249 23.917 -77.274 23.792 L -75.502 23.565 L -77.232 21.406 C -78.595 19.705 -79.325 19.363 -80.675 19.791 C -82.435 20.349 -84.5 24.196 -84.5 26.916 C -84.5 29.003 -83.654 28.83 -81.163 26.23 L -81.163 26.23 Z  M -98.335 15.567 C -95.234 13.737 -95.147 13.44 -97.713 13.44 C -100.451 13.44 -105.5 18.561 -105.5 21.339 C -105.5 23.37 -105.45 23.346 -103.21 20.253 C -101.95 18.514 -99.756 16.405 -98.335 15.567 Z  M -84.164 21.003 C -83.93 20.625 -84.788 19.267 -86.069 17.986 C -87.433 16.622 -88.222 15.198 -87.973 14.548 C -87.689 13.809 -88.024 13.44 -88.979 13.44 C -90.953 13.44 -91.483 14.591 -90.441 16.612 C -88.406 20.558 -85.252 22.763 -84.164 21.003 Z  M -80.75 17.94 C -80.75 17.527 -81.406 17.19 -82.208 17.19 C -83.009 17.19 -84.183 16.451 -84.815 15.547 C -85.448 14.644 -86.226 14.167 -86.545 14.486 C -86.864 14.806 -86.178 15.882 -85.021 16.878 C -82.856 18.742 -80.75 19.265 -80.75 17.94 Z  M -101 12.213 C -101 11.592 -104.378 13.689 -105.289 14.875 C -107.261 17.444 -106.106 17.646 -103.625 15.165 C -102.181 13.721 -101 12.393 -101 12.213 Z  M -104.507 12.196 C -103.824 11.513 -105.451 9.69 -106.743 9.69 C -107.57 9.69 -107.627 10.019 -107 11.19 C -106.174 12.734 -105.369 13.059 -104.507 12.196 L -104.507 12.196 Z  M -59 50.234 C -59 48.972 -58.705 47.94 -58.344 47.94 C -57.983 47.94 -57.688 48.79 -57.688 49.828 C -57.688 50.867 -57.983 51.9 -58.344 52.123 C -58.705 52.346 -59 51.496 -59 50.234 Z  M -48.286 46.065 C -48.28 44.002 -48.134 43.247 -47.962 44.387 C -47.79 45.528 -47.794 47.215 -47.973 48.137 C -48.151 49.06 -48.292 48.126 -48.287 46.065 L -48.286 46.065 Z  M -60.056 46.551 C -60.309 46.142 -59.87 45.995 -59.043 46.211 C -57.756 46.548 -57.548 46.118 -57.283 42.579 L -56.982 38.565 L -57.053 42.683 C -57.109 45.885 -57.401 46.853 -58.368 47.037 C -59.051 47.167 -59.811 46.948 -60.056 46.551 L -60.056 46.551 Z  M -55.175 41.333 C -55.231 37.812 -55.49 36.723 -56.188 37.076 C -56.703 37.337 -56.47 37.02 -55.669 36.37 C -53.524 34.631 -52.131 34.911 -49.623 37.588 C -48.386 38.908 -47.797 39.732 -48.313 39.419 C -49.009 38.997 -49.25 39.732 -49.25 42.27 C -49.25 44.323 -49.591 45.69 -50.102 45.69 C -50.682 45.69 -50.804 44.595 -50.483 42.254 C -49.953 38.388 -50.889 35.94 -52.897 35.94 C -53.932 35.94 -54.174 36.413 -53.953 38.002 C -53.794 39.137 -53.988 41.415 -54.382 43.065 C -55.088 46.019 -55.101 45.992 -55.175 41.333 L -55.175 41.333 Z  M -52.886 42.645 C -52.984 40.986 -52.718 39.69 -52.28 39.69 C -51.368 39.69 -51.212 44.673 -52.106 45.226 C -52.439 45.432 -52.791 44.27 -52.886 42.645 L -52.886 42.645 Z " fill="rgb(255,255,255)"/></g></svg>