<?xml version="1.0" encoding="UTF-8" standalone="no"?><!-- Generator: Gravit.io --><svg xmlns="http://www.w3.org/2000/svg" xmlns:xlink="http://www.w3.org/1999/xlink" style="isolation:isolate" viewBox="717.3 424.44 120.38 23.28" width="120.38pt" height="23.28pt"><path d=" M 774.62 435.78 L 774.62 435.78 Q 776.06 435.8 777.21 436.49 L 777.21 436.49 L 777.21 436.49 Q 778.36 437.18 779.01 438.36 L 779.01 438.36 L 779.01 438.36 Q 779.66 439.54 779.66 441.02 L 779.66 441.02 L 779.66 441.02 Q 779.66 442.88 778.49 444.36 L 778.49 444.36 L 778.49 444.36 Q 777.32 445.84 775.19 446.68 L 775.19 446.68 L 775.19 446.68 Q 773.06 447.52 770.28 447.52 L 770.28 447.52 L 770.28 447.52 Q 767.16 447.52 764.79 446.44 L 764.79 446.44 L 764.79 446.44 Q 762.42 445.36 761.11 443.34 L 761.11 443.34 L 761.11 443.34 Q 759.8 441.32 759.8 438.6 L 759.8 438.6 L 759.8 438.6 Q 759.8 436.7 760.62 434.7 L 760.62 434.7 L 760.62 434.7 Q 761.44 432.7 762.7 431.54 L 762.7 431.54 L 765.08 431.74 L 765.08 431.74 Q 763.84 432.78 763.03 434.71 L 763.03 434.71 L 763.03 434.71 Q 762.22 436.64 762.22 438.64 L 762.22 438.64 L 762.22 438.64 Q 762.22 440.78 763.22 442.33 L 763.22 442.33 L 763.22 442.33 Q 764.22 443.88 766.04 444.7 L 766.04 444.7 L 766.04 444.7 Q 767.86 445.52 770.28 445.52 L 770.28 445.52 L 770.28 445.52 Q 772.36 445.52 773.94 444.94 L 773.94 444.94 L 773.94 444.94 Q 775.52 444.36 776.38 443.34 L 776.38 443.34 L 776.38 443.34 Q 777.24 442.32 777.24 441.02 L 777.24 441.02 L 777.24 441.02 Q 777.24 439.56 776.5 438.61 L 776.5 438.61 L 776.5 438.61 Q 775.76 437.66 774.62 437.62 L 774.62 437.62 L 774.62 437.9 L 774.62 437.9 Q 774.62 439.18 774.01 440.2 L 774.01 440.2 L 774.01 440.2 Q 773.4 441.22 772.27 441.79 L 772.27 441.79 L 772.27 441.79 Q 771.14 442.36 769.62 442.36 L 769.62 442.36 L 769.62 442.36 Q 768.3 442.36 767.31 441.93 L 767.31 441.93 L 767.31 441.93 Q 766.32 441.5 765.79 440.74 L 765.79 440.74 L 765.79 440.74 Q 765.26 439.98 765.26 439.02 L 765.26 439.02 L 765.26 439.02 Q 765.26 438 765.85 437.23 L 765.85 437.23 L 765.85 437.23 Q 766.44 436.46 767.54 436.08 L 767.54 436.08 L 767.54 431.74 L 777.98 431.74 L 778.34 433.56 L 774.62 433.56 L 774.62 435.78 L 774.62 435.78 Z  M 772.3 435.78 L 772.3 433.56 L 769.86 433.56 L 769.86 435.78 L 772.3 435.78 L 772.3 435.78 Z  M 769.62 440.44 L 769.62 440.44 Q 770.88 440.44 771.59 439.74 L 771.59 439.74 L 771.59 439.74 Q 772.3 439.04 772.3 437.9 L 772.3 437.9 L 772.3 437.62 L 769.54 437.62 L 769.54 437.62 Q 768.68 437.62 768.19 438.01 L 768.19 438.01 L 768.19 438.01 Q 767.7 438.4 767.7 439.02 L 767.7 439.02 L 767.7 439.02 Q 767.7 439.66 768.21 440.05 L 768.21 440.05 L 768.21 440.05 Q 768.72 440.44 769.62 440.44 L 769.62 440.44 L 769.62 440.44 Z  M 790.22 436.06 L 790.22 436.06 Q 791.14 436.06 791.88 436.43 L 791.88 436.43 L 791.88 436.43 Q 792.62 436.8 793.04 437.47 L 793.04 437.47 L 793.04 437.47 Q 793.46 438.14 793.46 438.96 L 793.46 438.96 L 793.46 438.96 Q 793.46 439.92 792.87 440.7 L 792.87 440.7 L 792.87 440.7 Q 792.28 441.48 791.2 441.92 L 791.2 441.92 L 791.2 441.92 Q 790.12 442.36 788.72 442.36 L 788.72 442.36 L 788.72 442.36 Q 786.62 442.36 784.95 441.47 L 784.95 441.47 L 784.95 441.47 Q 783.28 440.58 782.34 438.99 L 782.34 438.99 L 782.34 438.99 Q 781.4 437.4 781.4 435.42 L 781.4 435.42 L 781.4 435.42 Q 781.4 433.44 782.34 431.86 L 782.34 431.86 L 782.34 431.86 Q 783.28 430.28 784.95 429.39 L 784.95 429.39 L 784.95 429.39 Q 786.62 428.5 788.72 428.5 L 788.72 428.5 L 788.72 428.5 Q 790.12 428.5 791.2 428.94 L 791.2 428.94 L 791.2 428.94 Q 792.28 429.38 792.87 430.16 L 792.87 430.16 L 792.87 430.16 Q 793.46 430.94 793.46 431.9 L 793.46 431.9 L 793.46 431.9 Q 793.46 432.72 793.04 433.39 L 793.04 433.39 L 793.04 433.39 Q 792.62 434.06 791.88 434.43 L 791.88 434.43 L 791.88 434.43 Q 791.14 434.8 790.22 434.8 L 790.22 434.8 L 790.22 434.8 Q 788.88 434.8 788.03 433.98 L 788.03 433.98 L 788.03 433.98 Q 787.18 433.16 787.18 431.86 L 787.18 431.86 L 787.18 431.86 Q 787.18 431.04 787.64 430.46 L 787.64 430.46 L 787.64 430.46 Q 785.94 430.68 784.9 432.03 L 784.9 432.03 L 784.9 432.03 Q 783.86 433.38 783.82 435.42 L 783.82 435.42 L 783.82 435.42 Q 783.86 437.46 784.9 438.82 L 784.9 438.82 L 784.9 438.82 Q 785.94 440.18 787.64 440.4 L 787.64 440.4 L 787.64 440.4 Q 787.18 439.82 787.18 439 L 787.18 439 L 787.18 439 Q 787.18 437.7 788.03 436.88 L 788.03 436.88 L 788.03 436.88 Q 788.88 436.06 790.22 436.06 L 790.22 436.06 L 790.22 436.06 Z  M 790.26 432.96 L 790.26 432.96 Q 790.76 432.96 791.08 432.65 L 791.08 432.65 L 791.08 432.65 Q 791.4 432.34 791.4 431.84 L 791.4 431.84 L 791.4 431.84 Q 791.4 431.34 791.09 431.03 L 791.09 431.03 L 791.09 431.03 Q 790.78 430.72 790.32 430.72 L 790.32 430.72 L 790.32 430.72 Q 789.82 430.72 789.5 431.03 L 789.5 431.03 L 789.5 431.03 Q 789.18 431.34 789.18 431.82 L 789.18 431.82 L 789.18 431.82 Q 789.18 432.32 789.49 432.64 L 789.49 432.64 L 789.49 432.64 Q 789.8 432.96 790.26 432.96 L 790.26 432.96 L 790.26 432.96 Z  M 790.26 437.9 L 790.26 437.9 Q 789.8 437.9 789.49 438.22 L 789.49 438.22 L 789.49 438.22 Q 789.18 438.54 789.18 439.04 L 789.18 439.04 L 789.18 439.04 Q 789.18 439.52 789.5 439.83 L 789.5 439.83 L 789.5 439.83 Q 789.82 440.14 790.32 440.14 L 790.32 440.14 L 790.32 440.14 Q 790.78 440.14 791.09 439.83 L 791.09 439.83 L 791.09 439.83 Q 791.4 439.52 791.4 439.02 L 791.4 439.02 L 791.4 439.02 Q 791.4 438.52 791.08 438.21 L 791.08 438.21 L 791.08 438.21 Q 790.76 437.9 790.26 437.9 L 790.26 437.9 L 790.26 437.9 Z  M 805.42 431.74 L 807.74 431.74 L 807.74 442 L 796.2 442 L 796.2 431.74 L 798.52 431.64 L 798.52 440.18 L 805.42 440.18 L 805.42 431.74 L 805.42 431.74 Z  M 823.68 433.58 L 820.06 433.58 L 820.06 441.66 L 820.06 441.66 Q 820.06 442.5 819.98 443.04 L 819.98 443.04 L 819.98 443.04 Q 819.9 443.58 819.61 444 L 819.61 444 L 819.61 444 Q 819.32 444.42 818.7 444.66 L 818.7 444.66 L 812.72 447 L 811.84 445.04 L 816.72 443.12 L 816.72 443.12 Q 817.18 442.94 817.4 442.67 L 817.4 442.67 L 817.4 442.67 Q 817.62 442.4 817.68 442.02 L 817.68 442.02 L 817.68 442.02 Q 817.74 441.64 817.74 440.9 L 817.74 440.9 L 817.74 433.56 L 813.52 433.56 L 813.52 442 L 811.2 442 L 811.2 431.74 L 823.32 431.74 L 823.68 433.58 L 823.68 433.58 Z  M 837.68 433.58 L 834.06 433.58 L 834.06 441.66 L 834.06 441.66 Q 834.06 442.5 833.98 443.04 L 833.98 443.04 L 833.98 443.04 Q 833.9 443.58 833.61 444 L 833.61 444 L 833.61 444 Q 833.32 444.42 832.7 444.66 L 832.7 444.66 L 826.72 447 L 825.84 445.04 L 830.72 443.12 L 830.72 443.12 Q 831.18 442.94 831.4 442.67 L 831.4 442.67 L 831.4 442.67 Q 831.62 442.4 831.68 442.02 L 831.68 442.02 L 831.68 442.02 Q 831.74 441.64 831.74 440.9 L 831.74 440.9 L 831.74 433.56 L 827.52 433.56 L 827.52 442 L 825.2 442 L 825.2 431.74 L 837.32 431.74 L 837.68 433.58 L 837.68 433.58 Z  M 830.5 429.6 L 830.5 429.6 Q 831.12 429.6 831.52 429.2 L 831.52 429.2 L 831.52 429.2 Q 831.92 428.8 831.92 428.2 L 831.92 428.2 L 831.92 428.2 Q 831.92 427.58 831.52 427.18 L 831.52 427.18 L 831.52 427.18 Q 831.12 426.78 830.5 426.78 L 830.5 426.78 L 830.5 426.78 Q 829.9 426.78 829.51 427.18 L 829.51 427.18 L 829.51 427.18 Q 829.12 427.58 829.12 428.2 L 829.12 428.2 L 829.12 428.2 Q 829.12 428.8 829.51 429.2 L 829.51 429.2 L 829.51 429.2 Q 829.9 429.6 830.5 429.6 L 830.5 429.6 L 830.5 429.6 Z  M 749.44 435.08 L 749.44 435.08 Q 750.64 435.08 751.56 435.73 L 751.56 435.73 L 751.56 435.73 Q 752.48 436.38 752.98 437.53 L 752.98 437.53 L 752.98 437.53 Q 753.48 438.68 753.48 440.12 L 753.48 440.12 L 753.48 440.12 Q 753.48 442.44 752.19 444.15 L 752.19 444.15 L 752.19 444.15 Q 750.9 445.86 748.52 446.79 L 748.52 446.79 L 748.52 446.79 Q 746.14 447.72 742.92 447.72 L 742.92 447.72 L 727.78 447.72 L 727.78 447.72 Q 724.68 447.72 722.3 446.59 L 722.3 446.59 L 722.3 446.59 Q 719.92 445.46 718.61 443.39 L 718.61 443.39 L 718.61 443.39 Q 717.3 441.32 717.3 438.6 L 717.3 438.6 L 717.3 438.6 Q 717.3 436.7 718.12 434.7 L 718.12 434.7 L 718.12 434.7 Q 718.94 432.7 720.2 431.54 L 720.2 431.54 L 722.58 431.74 L 722.58 431.74 Q 721.34 432.78 720.53 434.71 L 720.53 434.71 L 720.53 434.71 Q 719.72 436.64 719.72 438.64 L 719.72 438.64 L 719.72 438.64 Q 719.72 440.78 720.72 442.41 L 720.72 442.41 L 720.72 442.41 Q 721.72 444.04 723.54 444.95 L 723.54 444.95 L 723.54 444.95 Q 725.36 445.86 727.78 445.88 L 727.78 445.88 L 742.92 445.88 L 742.92 445.88 Q 745.42 445.88 747.26 445.17 L 747.26 445.17 L 747.26 445.17 Q 749.1 444.46 750.07 443.16 L 750.07 443.16 L 750.07 443.16 Q 751.04 441.86 751.04 440.12 L 751.04 440.12 L 751.04 440.12 Q 751.04 438.76 750.54 437.92 L 750.54 437.92 L 750.54 437.92 Q 750.04 437.08 749.16 437.08 L 749.16 437.08 L 749.16 437.08 Q 748.44 437.08 747.97 437.52 L 747.97 437.52 L 747.97 437.52 Q 747.5 437.96 747.5 438.62 L 747.5 438.62 L 747.5 442 L 745.18 442 L 745.18 433.56 L 740.94 433.56 L 740.94 442 L 738.62 442 L 738.62 436.56 L 738.62 436.56 Q 738.62 435.06 738.03 434.18 L 738.03 434.18 L 738.03 434.18 Q 737.44 433.3 736.22 433.3 L 736.22 433.3 L 736.22 433.3 Q 735.14 433.3 734.68 434 L 734.68 434 L 734.68 434 Q 734.22 434.7 734.22 435.96 L 734.22 435.96 L 734.22 442 L 723.76 442 L 723.76 431.74 L 726.08 431.64 L 726.08 440.18 L 731.9 440.18 L 731.9 435.86 L 731.9 435.86 Q 731.9 433.82 732.96 432.6 L 732.96 432.6 L 732.96 432.6 Q 734.02 431.38 736.1 431.38 L 736.1 431.38 L 736.1 431.38 Q 737.56 431.38 738.62 432.38 L 738.62 432.38 L 738.62 431.74 L 743.7 431.74 L 743.7 431.74 Q 742.8 430.62 742.8 429.1 L 742.8 429.1 L 742.8 429.1 Q 742.8 427.76 743.49 426.7 L 743.49 426.7 L 743.49 426.7 Q 744.18 425.64 745.45 425.04 L 745.45 425.04 L 745.45 425.04 Q 746.72 424.44 748.4 424.44 L 748.4 424.44 L 748.4 424.44 Q 749.76 424.44 750.9 424.95 L 750.9 424.95 L 750.9 424.95 Q 752.04 425.46 752.71 426.35 L 752.71 426.35 L 752.71 426.35 Q 753.38 427.24 753.38 428.34 L 753.38 428.34 L 753.38 428.34 Q 753.38 429.48 752.58 430.22 L 752.58 430.22 L 752.58 430.22 Q 751.78 430.96 750.56 430.96 L 750.56 430.96 L 750.56 430.96 Q 749.36 430.96 748.56 430.23 L 748.56 430.23 L 748.56 430.23 Q 747.76 429.5 747.76 428.4 L 747.76 428.4 L 747.76 428.4 Q 747.76 427.76 748.02 427.25 L 748.02 427.25 L 748.02 427.25 Q 748.28 426.74 748.74 426.38 L 748.74 426.38 L 748.4 426.38 L 748.4 426.38 Q 746.92 426.38 746.07 427.13 L 746.07 427.13 L 746.07 427.13 Q 745.22 427.88 745.22 429.1 L 745.22 429.1 L 745.22 429.1 Q 745.22 430.28 745.96 431.01 L 745.96 431.01 L 745.96 431.01 Q 746.7 431.74 747.84 431.74 L 747.84 431.74 L 750.76 431.74 L 751.12 433.56 L 747.5 433.56 L 747.5 435.56 L 747.5 435.56 Q 748.4 435.08 749.44 435.08 L 749.44 435.08 L 749.44 435.08 Z  M 750.56 429.42 L 750.56 429.42 Q 751 429.42 751.29 429.13 L 751.29 429.13 L 751.29 429.13 Q 751.58 428.84 751.58 428.4 L 751.58 428.4 L 751.58 428.4 Q 751.58 427.98 751.29 427.69 L 751.29 427.69 L 751.29 427.69 Q 751 427.4 750.56 427.4 L 750.56 427.4 L 750.56 427.4 Q 750.12 427.4 749.83 427.69 L 749.83 427.69 L 749.83 427.69 Q 749.54 427.98 749.54 428.4 L 749.54 428.4 L 749.54 428.4 Q 749.54 428.84 749.83 429.13 L 749.83 429.13 L 749.83 429.13 Q 750.12 429.42 750.56 429.42 L 750.56 429.42 L 750.56 429.42 Z " fill="rgb(255,255,255)"/></svg>