<?xml version="1.0" encoding="UTF-8" standalone="no"?><!-- Generator: Gravit.io --><svg xmlns="http://www.w3.org/2000/svg" xmlns:xlink="http://www.w3.org/1999/xlink" style="isolation:isolate" viewBox="906 390 91.518 90" width="91.518pt" height="90pt"><g><path d=" M 936.025 451.887 C 939.794 457.201 943.557 461.954 946.05 465.015 C 946.413 465.46 946.754 465.874 947.083 466.272 L 939.557 466.272 C 938.715 466.272 938.032 466.954 938.032 467.797 C 938.032 468.639 938.715 469.322 939.557 469.322 L 963.962 469.322 C 964.804 469.322 965.487 468.639 965.487 467.797 C 965.487 466.954 964.804 466.272 963.962 466.272 L 956.436 466.272 C 956.766 465.874 957.106 465.46 957.47 465.015 C 959.963 461.964 963.724 457.201 967.495 451.887 C 971.236 446.72 974.603 441.293 977.571 435.647 C 980.685 429.53 982.266 424.453 982.266 420.554 C 982.276 412.453 979.061 404.681 973.332 398.954 C 972.949 398.558 972.382 398.398 971.849 398.537 C 971.315 398.677 970.899 399.093 970.759 399.626 C 970.619 400.159 970.777 400.726 971.174 401.109 C 976.331 406.265 979.224 413.262 979.215 420.554 C 979.215 423.968 977.748 428.58 974.853 434.262 C 971.952 439.777 968.661 445.078 965.005 450.125 C 961.287 455.37 957.57 460.07 955.106 463.09 C 954.287 464.094 953.55 464.981 952.922 465.732 C 952.629 466.067 952.205 466.259 951.76 466.259 C 951.314 466.259 950.891 466.067 950.598 465.732 C 949.969 464.981 949.232 464.094 948.413 463.09 C 945.95 460.071 942.233 455.372 938.514 450.125 C 934.859 445.078 931.568 439.777 928.667 434.262 C 925.769 428.58 924.305 423.968 924.305 420.554 C 924.304 409.506 930.911 399.529 941.083 395.217 C 947.918 392.351 955.617 392.351 962.452 395.217 C 962.954 395.43 963.531 395.359 963.967 395.031 C 964.402 394.703 964.629 394.167 964.562 393.626 C 964.496 393.085 964.145 392.62 963.643 392.408 C 948.111 385.856 930.208 393.134 923.652 408.664 C 922.062 412.426 921.246 416.47 921.254 420.554 C 921.254 424.453 922.834 429.53 925.949 435.654 C 928.917 441.298 932.284 446.723 936.025 451.887 Z " fill="rgb(255,255,255)"/><path d=" M 951.759 406.785 C 952.602 406.785 953.285 406.102 953.285 405.26 C 953.285 404.418 952.602 403.735 951.759 403.735 C 944.483 403.735 938.219 408.875 936.799 416.012 C 935.379 423.149 939.199 430.295 945.922 433.08 C 952.645 435.864 960.399 433.512 964.441 427.462 C 968.484 421.412 967.69 413.348 962.545 408.202 C 962.162 407.806 961.595 407.647 961.061 407.786 C 960.528 407.926 960.112 408.342 959.972 408.876 C 959.832 409.409 959.992 409.976 960.388 410.359 C 964.505 414.475 965.14 420.926 961.906 425.767 C 958.672 430.607 952.469 432.489 947.091 430.261 C 941.712 428.034 938.656 422.317 939.792 416.607 C 940.927 410.898 945.938 406.785 951.759 406.785 Z " fill="rgb(255,255,255)"/><path d=" M 996.943 473.244 L 987.563 456.466 C 986.715 454.975 985.127 454.059 983.412 454.069 L 972.542 454.069 C 971.699 454.069 971.016 454.752 971.016 455.595 C 971.016 456.437 971.699 457.12 972.542 457.12 L 983.412 457.12 C 984.023 457.108 984.593 457.426 984.903 457.953 L 994.28 474.731 C 994.536 475.167 994.53 475.709 994.266 476.14 C 993.955 476.655 993.391 476.963 992.79 476.949 L 910.729 476.949 C 910.128 476.963 909.565 476.655 909.254 476.14 C 908.99 475.709 908.985 475.167 909.24 474.731 L 918.618 457.953 C 918.927 457.427 919.496 457.108 920.106 457.12 L 930.977 457.12 C 931.82 457.12 932.502 456.437 932.502 455.595 C 932.502 454.752 931.82 454.069 930.977 454.069 L 920.107 454.069 C 918.391 454.058 916.802 454.974 915.953 456.466 L 906.574 473.244 C 905.792 474.625 905.81 476.32 906.621 477.684 C 907.476 479.137 909.044 480.021 910.729 480 L 992.79 480 C 994.475 480.02 996.042 479.137 996.896 477.684 C 997.707 476.32 997.725 474.625 996.943 473.244 Z " fill="rgb(255,255,255)"/><path d=" M 980.74 461.696 L 974.639 461.696 C 974.338 461.696 974.043 461.785 973.792 461.952 L 969.217 465.003 C 968.516 465.47 968.327 466.418 968.794 467.119 C 969.262 467.819 970.209 468.008 970.91 467.541 L 975.097 464.747 L 980.74 464.747 C 981.583 464.747 982.265 464.064 982.265 463.221 C 982.265 462.379 981.583 461.696 980.74 461.696 Z " fill="rgb(255,255,255)"/><path d=" M 971.588 472.373 C 971.588 473.215 972.271 473.898 973.114 473.898 L 985.316 473.898 C 986.158 473.898 986.841 473.215 986.841 472.373 C 986.841 471.53 986.158 470.848 985.316 470.848 L 973.114 470.848 C 972.271 470.848 971.588 471.53 971.588 472.373 Z " fill="rgb(255,255,255)"/><path d=" M 933.456 467.797 C 934.128 467.798 934.722 467.358 934.917 466.715 C 935.113 466.071 934.863 465.376 934.304 465.003 L 929.728 461.952 C 929.477 461.785 929.182 461.696 928.88 461.696 L 922.779 461.696 C 921.936 461.696 921.254 462.379 921.254 463.221 C 921.254 464.063 921.937 464.746 922.779 464.746 L 928.422 464.746 L 932.614 467.541 C 932.863 467.707 933.156 467.796 933.456 467.797 Z " fill="rgb(255,255,255)"/><path d=" M 918.203 470.848 C 917.36 470.848 916.678 471.53 916.678 472.373 C 916.678 473.215 917.36 473.898 918.203 473.898 L 930.405 473.898 C 931.248 473.898 931.931 473.215 931.931 472.373 C 931.931 471.53 931.248 470.848 930.405 470.848 L 918.203 470.848 Z " fill="rgb(255,255,255)"/></g></svg>