<?xml version="1.0" encoding="UTF-8" standalone="no"?><!-- Generator: Gravit.io --><svg xmlns="http://www.w3.org/2000/svg" xmlns:xlink="http://www.w3.org/1999/xlink" style="isolation:isolate" viewBox="489.5 349.5 290.802 33" width="290.802pt" height="33pt"><path d=" M 601.809 373.32 L 599.445 360.202 L 601.923 360.202 L 603.332 369.109 L 604.643 360.202 L 607.267 360.202 L 604.87 373.32 L 601.809 373.32 L 601.809 373.32 Z  M 610.378 373.32 L 610.378 360.202 L 616.273 360.202 L 616.273 362.178 L 613.277 362.178 L 613.277 365.433 L 615.56 365.433 L 615.56 367.441 L 613.277 367.441 L 613.277 371.36 L 616.305 371.36 L 616.305 373.32 L 610.378 373.32 L 610.378 373.32 Z  M 619.416 373.32 L 619.416 360.202 L 621.457 360.202 L 624.145 366.518 L 624.145 360.202 L 626.542 360.202 L 626.542 373.32 L 624.582 373.32 L 621.894 366.518 L 621.894 373.32 L 619.416 373.32 L 619.416 373.32 Z  M 630.3 373.32 L 630.3 360.202 L 633.199 360.202 L 633.199 365.563 L 635.402 360.202 L 638.236 360.202 L 635.807 366.13 L 638.349 373.32 L 635.402 373.32 L 633.507 367.522 L 633.199 368.04 L 633.199 373.32 L 630.3 373.32 L 630.3 373.32 Z  M 640.65 373.32 L 643.128 360.202 L 646.432 360.202 L 648.877 373.32 L 646.205 373.32 L 645.768 370.551 L 643.841 370.551 L 643.387 373.32 L 640.65 373.32 L 640.65 373.32 Z  M 644.1 368.818 L 645.493 368.818 L 644.796 363.7 L 644.1 368.818 L 644.1 368.818 Z  M 652.49 373.32 L 652.49 362.356 L 650.515 362.356 L 650.515 360.202 L 657.365 360.202 L 657.365 362.356 L 655.405 362.356 L 655.405 373.32 L 652.49 373.32 L 652.49 373.32 Z  M 659.099 373.32 L 661.577 360.202 L 664.881 360.202 L 667.326 373.32 L 664.654 373.32 L 664.217 370.551 L 662.29 370.551 L 661.836 373.32 L 659.099 373.32 L 659.099 373.32 Z  M 662.549 368.818 L 663.942 368.818 L 663.245 363.7 L 662.549 368.818 L 662.549 368.818 Z  M 674 373.514 L 674 373.514 Q 671.862 373.514 670.964 372.389 L 670.964 372.389 L 670.964 372.389 Q 670.065 371.263 670.065 369.142 L 670.065 369.142 L 670.065 364.413 L 670.065 364.413 Q 670.065 362.243 670.955 361.134 L 670.955 361.134 L 670.955 361.134 Q 671.846 360.024 674 360.024 L 674 360.024 L 674 360.024 Q 676.057 360.024 676.915 361.012 L 676.915 361.012 L 676.915 361.012 Q 677.773 362 677.773 363.814 L 677.773 363.814 L 677.773 364.947 L 674.939 364.947 L 674.939 363.636 L 674.939 363.636 Q 674.939 362.874 674.777 362.47 L 674.777 362.47 L 674.777 362.47 Q 674.615 362.065 674 362.065 L 674 362.065 L 674 362.065 Q 673.385 362.065 673.19 362.494 L 673.19 362.494 L 673.19 362.494 Q 672.996 362.923 672.996 363.684 L 672.996 363.684 L 672.996 369.854 L 672.996 369.854 Q 672.996 370.632 673.198 371.045 L 673.198 371.045 L 673.198 371.045 Q 673.401 371.457 674 371.457 L 674 371.457 L 674 371.457 Q 674.599 371.457 674.769 371.045 L 674.769 371.045 L 674.769 371.045 Q 674.939 370.632 674.939 369.854 L 674.939 369.854 L 674.939 368.478 L 677.773 368.478 L 677.773 369.611 L 677.773 369.611 Q 677.773 371.457 676.915 372.486 L 676.915 372.486 L 676.915 372.486 Q 676.057 373.514 674 373.514 L 674 373.514 L 674 373.514 Z  M 681.208 373.32 L 681.208 360.202 L 684.107 360.202 L 684.107 365.514 L 686.131 365.514 L 686.131 360.202 L 689.046 360.202 L 689.046 373.32 L 686.131 373.32 L 686.131 367.587 L 684.107 367.587 L 684.107 373.32 L 681.208 373.32 L 681.208 373.32 Z  M 692.206 373.32 L 694.684 360.202 L 697.987 360.202 L 700.433 373.32 L 697.761 373.32 L 697.323 370.551 L 695.396 370.551 L 694.943 373.32 L 692.206 373.32 L 692.206 373.32 Z  M 695.655 368.818 L 697.048 368.818 L 696.352 363.7 L 695.655 368.818 L 695.655 368.818 Z  M 703.56 373.32 L 703.56 360.202 L 706.459 360.202 L 706.459 371.36 L 709.471 371.36 L 709.471 373.32 L 703.56 373.32 L 703.56 373.32 Z  M 711.902 373.32 L 714.38 360.202 L 717.683 360.202 L 720.129 373.32 L 717.457 373.32 L 717.019 370.551 L 715.092 370.551 L 714.639 373.32 L 711.902 373.32 L 711.902 373.32 Z  M 715.351 368.818 L 716.744 368.818 L 716.048 363.7 L 715.351 368.818 L 715.351 368.818 Z  M 723.256 373.32 L 723.256 360.202 L 727.661 360.202 L 727.661 360.202 Q 729.394 360.202 730.252 361.182 L 730.252 361.182 L 730.252 361.182 Q 731.11 362.162 731.11 364.008 L 731.11 364.008 L 731.11 364.008 Q 731.11 366.113 730.114 366.931 L 730.114 366.931 L 730.114 366.931 Q 729.118 367.749 727.321 367.749 L 727.321 367.749 L 726.155 367.749 L 726.155 373.32 L 723.256 373.32 L 723.256 373.32 Z  M 726.155 365.725 L 727.126 365.725 L 727.126 365.725 Q 727.888 365.725 728.139 365.32 L 728.139 365.32 L 728.139 365.32 Q 728.39 364.915 728.39 363.96 L 728.39 363.96 L 728.39 363.96 Q 728.39 363.085 728.147 362.664 L 728.147 362.664 L 728.147 362.664 Q 727.904 362.243 727.11 362.243 L 727.11 362.243 L 726.155 362.243 L 726.155 365.725 L 726.155 365.725 Z  M 732.91 373.32 L 735.387 360.202 L 738.691 360.202 L 741.136 373.32 L 738.464 373.32 L 738.027 370.551 L 736.1 370.551 L 735.646 373.32 L 732.91 373.32 L 732.91 373.32 Z  M 736.359 368.818 L 737.752 368.818 L 737.055 363.7 L 736.359 368.818 L 736.359 368.818 Z  M 744.749 373.32 L 744.749 362.356 L 742.774 362.356 L 742.774 360.202 L 749.624 360.202 L 749.624 362.356 L 747.664 362.356 L 747.664 373.32 L 744.749 373.32 L 744.749 373.32 Z  M 752.622 373.32 L 752.622 360.202 L 755.52 360.202 L 755.52 365.514 L 757.545 365.514 L 757.545 360.202 L 760.46 360.202 L 760.46 373.32 L 757.545 373.32 L 757.545 367.587 L 755.52 367.587 L 755.52 373.32 L 752.622 373.32 L 752.622 373.32 Z  M 765.903 373.32 L 765.903 367.96 L 763.409 360.202 L 766.146 360.202 L 767.393 364.348 L 768.51 360.202 L 771.134 360.202 L 768.688 367.96 L 768.688 373.32 L 765.903 373.32 L 765.903 373.32 Z  M 529.23 373.32 L 529.23 360.202 L 532.129 360.202 L 532.129 365.563 L 534.331 360.202 L 537.165 360.202 L 534.736 366.13 L 537.278 373.32 L 534.331 373.32 L 532.436 367.522 L 532.129 368.04 L 532.129 373.32 L 529.23 373.32 L 529.23 373.32 Z  M 543.985 373.514 L 543.985 373.514 Q 542.511 373.514 541.653 373.036 L 541.653 373.036 L 541.653 373.036 Q 540.794 372.559 540.446 371.628 L 540.446 371.628 L 540.446 371.628 Q 540.098 370.696 540.098 369.255 L 540.098 369.255 L 540.098 360.202 L 542.964 360.202 L 542.964 369.692 L 542.964 369.692 Q 542.964 370.486 543.167 370.955 L 543.167 370.955 L 543.167 370.955 Q 543.369 371.425 543.985 371.425 L 543.985 371.425 L 543.985 371.425 Q 544.6 371.425 544.794 370.955 L 544.794 370.955 L 544.794 370.955 Q 544.989 370.486 544.989 369.692 L 544.989 369.692 L 544.989 360.202 L 547.871 360.202 L 547.871 369.255 L 547.871 369.255 Q 547.871 370.696 547.515 371.628 L 547.515 371.628 L 547.515 371.628 Q 547.159 372.559 546.309 373.036 L 546.309 373.036 L 546.309 373.036 Q 545.458 373.514 543.985 373.514 L 543.985 373.514 L 543.985 373.514 Z  M 551.517 373.32 L 551.517 360.202 L 554.934 360.202 L 554.934 360.202 Q 556.213 360.202 557.112 360.47 L 557.112 360.47 L 557.112 360.47 Q 558.011 360.737 558.561 361.498 L 558.561 361.498 L 558.561 361.498 Q 559.112 362.259 559.112 363.636 L 559.112 363.636 L 559.112 363.636 Q 559.112 364.802 558.61 365.449 L 558.61 365.449 L 558.61 365.449 Q 558.108 366.097 557.185 366.275 L 557.185 366.275 L 557.185 366.275 Q 558.318 366.421 558.918 367.231 L 558.918 367.231 L 558.918 367.231 Q 559.517 368.04 559.517 369.433 L 559.517 369.433 L 559.517 369.433 Q 559.517 373.32 555.549 373.32 L 555.549 373.32 L 551.517 373.32 L 551.517 373.32 Z  M 554.416 365.449 L 554.982 365.449 L 554.982 365.449 Q 555.906 365.449 556.238 365.028 L 556.238 365.028 L 556.238 365.028 Q 556.57 364.607 556.57 363.717 L 556.57 363.717 L 556.57 363.717 Q 556.57 362.939 556.148 362.543 L 556.148 362.543 L 556.148 362.543 Q 555.727 362.146 554.918 362.146 L 554.918 362.146 L 554.416 362.146 L 554.416 365.449 L 554.416 365.449 Z  M 554.416 371.296 L 555.031 371.296 L 555.031 371.296 Q 555.954 371.296 556.335 370.834 L 556.335 370.834 L 556.335 370.834 Q 556.715 370.372 556.715 369.385 L 556.715 369.385 L 556.715 369.385 Q 556.715 368.267 556.335 367.814 L 556.335 367.814 L 556.335 367.814 Q 555.954 367.36 555.015 367.36 L 555.015 367.36 L 554.416 367.36 L 554.416 371.296 L 554.416 371.296 Z  M 562.839 373.32 L 562.839 360.202 L 568.733 360.202 L 568.733 362.178 L 565.737 362.178 L 565.737 365.433 L 568.021 365.433 L 568.021 367.441 L 565.737 367.441 L 565.737 371.36 L 568.766 371.36 L 568.766 373.32 L 562.839 373.32 L 562.839 373.32 Z  M 571.877 373.32 L 571.877 360.202 L 575.488 360.202 L 575.488 360.202 Q 577.642 360.202 578.743 360.964 L 578.743 360.964 L 578.743 360.964 Q 579.844 361.725 579.844 363.668 L 579.844 363.668 L 579.844 363.668 Q 579.844 364.98 579.504 365.757 L 579.504 365.757 L 579.504 365.757 Q 579.164 366.534 578.241 366.972 L 578.241 366.972 L 580.039 373.32 L 577.043 373.32 L 575.601 367.441 L 574.776 367.441 L 574.776 373.32 L 571.877 373.32 L 571.877 373.32 Z  M 574.776 365.773 L 575.585 365.773 L 575.585 365.773 Q 576.46 365.773 576.808 365.312 L 576.808 365.312 L 576.808 365.312 Q 577.156 364.85 577.156 363.927 L 577.156 363.927 L 577.156 363.927 Q 577.156 363.036 576.832 362.591 L 576.832 362.591 L 576.832 362.591 Q 576.508 362.146 575.715 362.146 L 575.715 362.146 L 574.776 362.146 L 574.776 365.773 L 574.776 365.773 Z  M 582.761 373.32 L 585.239 360.202 L 588.543 360.202 L 590.988 373.32 L 588.316 373.32 L 587.879 370.551 L 585.951 370.551 L 585.498 373.32 L 582.761 373.32 L 582.761 373.32 Z  M 586.211 368.818 L 587.603 368.818 L 586.907 363.7 L 586.211 368.818 L 586.211 368.818 Z  M 498.453 373.514 L 498.453 373.514 Q 496.575 373.514 495.66 372.518 L 495.66 372.518 L 495.66 372.518 Q 494.745 371.522 494.68 369.352 L 494.68 369.352 L 497.158 368.98 L 497.158 368.98 Q 497.174 370.227 497.457 370.769 L 497.457 370.769 L 497.457 370.769 Q 497.741 371.312 498.308 371.312 L 498.308 371.312 L 498.308 371.312 Q 499.036 371.312 499.036 370.356 L 499.036 370.356 L 499.036 370.356 Q 499.036 369.595 498.688 369.045 L 498.688 369.045 L 498.688 369.045 Q 498.34 368.494 497.595 367.862 L 497.595 367.862 L 496.462 366.874 L 496.462 366.874 Q 495.619 366.162 495.158 365.36 L 495.158 365.36 L 495.158 365.36 Q 494.696 364.559 494.696 363.457 L 494.696 363.457 L 494.696 363.457 Q 494.696 361.806 495.676 360.915 L 495.676 360.915 L 495.676 360.915 Q 496.656 360.024 498.372 360.024 L 498.372 360.024 L 498.372 360.024 Q 500.235 360.024 500.907 361.109 L 500.907 361.109 L 500.907 361.109 Q 501.579 362.194 501.628 363.749 L 501.628 363.749 L 499.134 364.057 L 499.134 364.057 Q 499.101 363.036 498.947 362.591 L 498.947 362.591 L 498.947 362.591 Q 498.794 362.146 498.275 362.146 L 498.275 362.146 L 498.275 362.146 Q 497.903 362.146 497.7 362.462 L 497.7 362.462 L 497.7 362.462 Q 497.498 362.777 497.498 363.166 L 497.498 363.166 L 497.498 363.166 Q 497.498 363.83 497.798 364.283 L 497.798 364.283 L 497.798 364.283 Q 498.097 364.737 498.761 365.32 L 498.761 365.32 L 499.846 366.275 L 499.846 366.275 Q 500.818 367.101 501.352 368.024 L 501.352 368.024 L 501.352 368.024 Q 501.887 368.947 501.887 370.211 L 501.887 370.211 L 501.887 370.211 Q 501.887 371.134 501.457 371.887 L 501.457 371.887 L 501.457 371.887 Q 501.028 372.64 500.251 373.077 L 500.251 373.077 L 500.251 373.077 Q 499.474 373.514 498.453 373.514 L 498.453 373.514 L 498.453 373.514 Z  M 505.095 373.32 L 505.095 360.202 L 508.706 360.202 L 508.706 360.202 Q 510.86 360.202 511.961 360.964 L 511.961 360.964 L 511.961 360.964 Q 513.063 361.725 513.063 363.668 L 513.063 363.668 L 513.063 363.668 Q 513.063 364.98 512.722 365.757 L 512.722 365.757 L 512.722 365.757 Q 512.382 366.534 511.459 366.972 L 511.459 366.972 L 513.257 373.32 L 510.261 373.32 L 508.82 367.441 L 507.994 367.441 L 507.994 373.32 L 505.095 373.32 L 505.095 373.32 Z  M 507.994 365.773 L 508.803 365.773 L 508.803 365.773 Q 509.678 365.773 510.026 365.312 L 510.026 365.312 L 510.026 365.312 Q 510.374 364.85 510.374 363.927 L 510.374 363.927 L 510.374 363.927 Q 510.374 363.036 510.05 362.591 L 510.05 362.591 L 510.05 362.591 Q 509.726 362.146 508.933 362.146 L 508.933 362.146 L 507.994 362.146 L 507.994 365.773 L 507.994 365.773 Z  M 516.627 373.32 L 516.627 360.202 L 519.526 360.202 L 519.526 373.32 L 516.627 373.32 L 516.627 373.32 Z " fill="rgb(255,255,255)" vector-effect="non-scaling-stroke" stroke-width="1" stroke="rgb(152,0,0)" stroke-linejoin="miter" stroke-linecap="square" stroke-miterlimit="3"/></svg>