<?xml version="1.0" encoding="UTF-8" standalone="no"?><!-- Generator: Gravit.io --><svg xmlns="http://www.w3.org/2000/svg" xmlns:xlink="http://www.w3.org/1999/xlink" style="isolation:isolate" viewBox="489.5 439.5 141.454 33" width="141.454pt" height="33pt"><path d=" M 528.598 463.32 L 531.076 450.202 L 534.38 450.202 L 536.825 463.32 L 534.153 463.32 L 533.716 460.551 L 531.789 460.551 L 531.335 463.32 L 528.598 463.32 L 528.598 463.32 Z  M 532.048 458.818 L 533.44 458.818 L 532.744 453.7 L 532.048 458.818 L 532.048 458.818 Z  M 539.952 463.32 L 539.952 450.202 L 541.993 450.202 L 544.681 456.518 L 544.681 450.202 L 547.078 450.202 L 547.078 463.32 L 545.118 463.32 L 542.43 456.518 L 542.43 463.32 L 539.952 463.32 L 539.952 463.32 Z  M 550.853 463.32 L 550.853 450.202 L 553.752 450.202 L 553.752 463.32 L 550.853 463.32 L 550.853 463.32 Z  M 557.511 463.32 L 557.511 450.202 L 561.122 450.202 L 561.122 450.202 Q 563.276 450.202 564.377 450.964 L 564.377 450.964 L 564.377 450.964 Q 565.478 451.725 565.478 453.668 L 565.478 453.668 L 565.478 453.668 Q 565.478 454.98 565.138 455.757 L 565.138 455.757 L 565.138 455.757 Q 564.798 456.534 563.875 456.972 L 563.875 456.972 L 565.673 463.32 L 562.677 463.32 L 561.235 457.441 L 560.409 457.441 L 560.409 463.32 L 557.511 463.32 L 557.511 463.32 Z  M 560.409 455.773 L 561.219 455.773 L 561.219 455.773 Q 562.094 455.773 562.442 455.312 L 562.442 455.312 L 562.442 455.312 Q 562.79 454.85 562.79 453.927 L 562.79 453.927 L 562.79 453.927 Q 562.79 453.036 562.466 452.591 L 562.466 452.591 L 562.466 452.591 Q 562.142 452.146 561.349 452.146 L 561.349 452.146 L 560.409 452.146 L 560.409 455.773 L 560.409 455.773 Z  M 572.735 463.514 L 572.735 463.514 Q 571.261 463.514 570.403 463.036 L 570.403 463.036 L 570.403 463.036 Q 569.545 462.559 569.197 461.628 L 569.197 461.628 L 569.197 461.628 Q 568.848 460.696 568.848 459.255 L 568.848 459.255 L 568.848 450.202 L 571.715 450.202 L 571.715 459.692 L 571.715 459.692 Q 571.715 460.486 571.917 460.955 L 571.917 460.955 L 571.917 460.955 Q 572.12 461.425 572.735 461.425 L 572.735 461.425 L 572.735 461.425 Q 573.35 461.425 573.545 460.955 L 573.545 460.955 L 573.545 460.955 Q 573.739 460.486 573.739 459.692 L 573.739 459.692 L 573.739 450.202 L 576.622 450.202 L 576.622 459.255 L 576.622 459.255 Q 576.622 460.696 576.265 461.628 L 576.265 461.628 L 576.265 461.628 Q 575.909 462.559 575.059 463.036 L 575.059 463.036 L 575.059 463.036 Q 574.209 463.514 572.735 463.514 L 572.735 463.514 L 572.735 463.514 Z  M 580.267 463.32 L 580.267 450.202 L 583.587 450.202 L 583.587 450.202 Q 585.287 450.202 586.243 450.623 L 586.243 450.623 L 586.243 450.623 Q 587.198 451.045 587.595 451.943 L 587.595 451.943 L 587.595 451.943 Q 587.992 452.842 587.992 454.348 L 587.992 454.348 L 587.992 459.109 L 587.992 459.109 Q 587.992 460.632 587.595 461.538 L 587.595 461.538 L 587.595 461.538 Q 587.198 462.445 586.251 462.883 L 586.251 462.883 L 586.251 462.883 Q 585.304 463.32 583.619 463.32 L 583.619 463.32 L 580.267 463.32 L 580.267 463.32 Z  M 583.166 461.312 L 583.619 461.312 L 583.619 461.312 Q 584.251 461.312 584.551 461.126 L 584.551 461.126 L 584.551 461.126 Q 584.85 460.939 584.931 460.591 L 584.931 460.591 L 584.931 460.591 Q 585.012 460.243 585.012 459.563 L 585.012 459.563 L 585.012 453.846 L 585.012 453.846 Q 585.012 453.215 584.923 452.883 L 584.923 452.883 L 584.923 452.883 Q 584.834 452.551 584.534 452.389 L 584.534 452.389 L 584.534 452.389 Q 584.235 452.227 583.603 452.227 L 583.603 452.227 L 583.166 452.227 L 583.166 461.312 L 583.166 461.312 Z  M 591.556 463.32 L 591.556 450.202 L 594.876 450.202 L 594.876 450.202 Q 596.577 450.202 597.532 450.623 L 597.532 450.623 L 597.532 450.623 Q 598.488 451.045 598.884 451.943 L 598.884 451.943 L 598.884 451.943 Q 599.281 452.842 599.281 454.348 L 599.281 454.348 L 599.281 459.109 L 599.281 459.109 Q 599.281 460.632 598.884 461.538 L 598.884 461.538 L 598.884 461.538 Q 598.488 462.445 597.54 462.883 L 597.54 462.883 L 597.54 462.883 Q 596.593 463.32 594.909 463.32 L 594.909 463.32 L 591.556 463.32 L 591.556 463.32 Z  M 594.455 461.312 L 594.909 461.312 L 594.909 461.312 Q 595.54 461.312 595.84 461.126 L 595.84 461.126 L 595.84 461.126 Q 596.139 460.939 596.22 460.591 L 596.22 460.591 L 596.22 460.591 Q 596.301 460.243 596.301 459.563 L 596.301 459.563 L 596.301 453.846 L 596.301 453.846 Q 596.301 453.215 596.212 452.883 L 596.212 452.883 L 596.212 452.883 Q 596.123 452.551 595.824 452.389 L 595.824 452.389 L 595.824 452.389 Q 595.524 452.227 594.892 452.227 L 594.892 452.227 L 594.455 452.227 L 594.455 461.312 L 594.455 461.312 Z  M 602.894 463.32 L 602.894 450.202 L 605.793 450.202 L 605.793 455.514 L 607.817 455.514 L 607.817 450.202 L 610.732 450.202 L 610.732 463.32 L 607.817 463.32 L 607.817 457.587 L 605.793 457.587 L 605.793 463.32 L 602.894 463.32 L 602.894 463.32 Z  M 613.892 463.32 L 616.37 450.202 L 619.673 450.202 L 622.119 463.32 L 619.447 463.32 L 619.009 460.551 L 617.082 460.551 L 616.629 463.32 L 613.892 463.32 L 613.892 463.32 Z  M 617.341 458.818 L 618.734 458.818 L 618.038 453.7 L 617.341 458.818 L 617.341 458.818 Z  M 498.453 463.514 L 498.453 463.514 Q 496.575 463.514 495.66 462.518 L 495.66 462.518 L 495.66 462.518 Q 494.745 461.522 494.68 459.352 L 494.68 459.352 L 497.158 458.98 L 497.158 458.98 Q 497.174 460.227 497.457 460.769 L 497.457 460.769 L 497.457 460.769 Q 497.741 461.312 498.308 461.312 L 498.308 461.312 L 498.308 461.312 Q 499.036 461.312 499.036 460.356 L 499.036 460.356 L 499.036 460.356 Q 499.036 459.595 498.688 459.045 L 498.688 459.045 L 498.688 459.045 Q 498.34 458.494 497.595 457.862 L 497.595 457.862 L 496.462 456.874 L 496.462 456.874 Q 495.619 456.162 495.158 455.36 L 495.158 455.36 L 495.158 455.36 Q 494.696 454.559 494.696 453.457 L 494.696 453.457 L 494.696 453.457 Q 494.696 451.806 495.676 450.915 L 495.676 450.915 L 495.676 450.915 Q 496.656 450.024 498.372 450.024 L 498.372 450.024 L 498.372 450.024 Q 500.235 450.024 500.907 451.109 L 500.907 451.109 L 500.907 451.109 Q 501.579 452.194 501.628 453.749 L 501.628 453.749 L 499.134 454.057 L 499.134 454.057 Q 499.101 453.036 498.947 452.591 L 498.947 452.591 L 498.947 452.591 Q 498.794 452.146 498.275 452.146 L 498.275 452.146 L 498.275 452.146 Q 497.903 452.146 497.7 452.462 L 497.7 452.462 L 497.7 452.462 Q 497.498 452.777 497.498 453.166 L 497.498 453.166 L 497.498 453.166 Q 497.498 453.83 497.798 454.283 L 497.798 454.283 L 497.798 454.283 Q 498.097 454.737 498.761 455.32 L 498.761 455.32 L 499.846 456.275 L 499.846 456.275 Q 500.818 457.101 501.352 458.024 L 501.352 458.024 L 501.352 458.024 Q 501.887 458.947 501.887 460.211 L 501.887 460.211 L 501.887 460.211 Q 501.887 461.134 501.457 461.887 L 501.457 461.887 L 501.457 461.887 Q 501.028 462.64 500.251 463.077 L 500.251 463.077 L 500.251 463.077 Q 499.474 463.514 498.453 463.514 L 498.453 463.514 L 498.453 463.514 Z  M 505.095 463.32 L 505.095 450.202 L 508.706 450.202 L 508.706 450.202 Q 510.86 450.202 511.961 450.964 L 511.961 450.964 L 511.961 450.964 Q 513.063 451.725 513.063 453.668 L 513.063 453.668 L 513.063 453.668 Q 513.063 454.98 512.722 455.757 L 512.722 455.757 L 512.722 455.757 Q 512.382 456.534 511.459 456.972 L 511.459 456.972 L 513.257 463.32 L 510.261 463.32 L 508.82 457.441 L 507.994 457.441 L 507.994 463.32 L 505.095 463.32 L 505.095 463.32 Z  M 507.994 455.773 L 508.803 455.773 L 508.803 455.773 Q 509.678 455.773 510.026 455.312 L 510.026 455.312 L 510.026 455.312 Q 510.374 454.85 510.374 453.927 L 510.374 453.927 L 510.374 453.927 Q 510.374 453.036 510.05 452.591 L 510.05 452.591 L 510.05 452.591 Q 509.726 452.146 508.933 452.146 L 508.933 452.146 L 507.994 452.146 L 507.994 455.773 L 507.994 455.773 Z  M 516.627 463.32 L 516.627 450.202 L 519.526 450.202 L 519.526 463.32 L 516.627 463.32 L 516.627 463.32 Z " fill="rgb(255,255,255)" vector-effect="non-scaling-stroke" stroke-width="1" stroke="rgb(152,0,0)" stroke-linejoin="miter" stroke-linecap="square" stroke-miterlimit="3"/></svg>