<?xml version="1.0" encoding="UTF-8" standalone="no"?><!-- Generator: Gravit.io --><svg xmlns="http://www.w3.org/2000/svg" xmlns:xlink="http://www.w3.org/1999/xlink" style="isolation:isolate" viewBox="618.9 437.44 173.12 88.02" width="173.12pt" height="88.02pt"><path d=" M 627.72 514.66 L 627.72 514.66 Q 628.64 514.66 629.38 515.03 L 629.38 515.03 L 629.38 515.03 Q 630.12 515.4 630.54 516.07 L 630.54 516.07 L 630.54 516.07 Q 630.96 516.74 630.96 517.56 L 630.96 517.56 L 630.96 517.56 Q 630.96 518.52 630.37 519.3 L 630.37 519.3 L 630.37 519.3 Q 629.78 520.08 628.7 520.52 L 628.7 520.52 L 628.7 520.52 Q 627.62 520.96 626.22 520.96 L 626.22 520.96 L 626.22 520.96 Q 624.12 520.96 622.45 520.07 L 622.45 520.07 L 622.45 520.07 Q 620.78 519.18 619.84 517.59 L 619.84 517.59 L 619.84 517.59 Q 618.9 516 618.9 514.02 L 618.9 514.02 L 618.9 514.02 Q 618.9 512.04 619.84 510.46 L 619.84 510.46 L 619.84 510.46 Q 620.78 508.88 622.45 507.99 L 622.45 507.99 L 622.45 507.99 Q 624.12 507.1 626.22 507.1 L 626.22 507.1 L 626.22 507.1 Q 627.62 507.1 628.7 507.54 L 628.7 507.54 L 628.7 507.54 Q 629.78 507.98 630.37 508.76 L 630.37 508.76 L 630.37 508.76 Q 630.96 509.54 630.96 510.5 L 630.96 510.5 L 630.96 510.5 Q 630.96 511.32 630.54 511.99 L 630.54 511.99 L 630.54 511.99 Q 630.12 512.66 629.38 513.03 L 629.38 513.03 L 629.38 513.03 Q 628.64 513.4 627.72 513.4 L 627.72 513.4 L 627.72 513.4 Q 626.38 513.4 625.53 512.58 L 625.53 512.58 L 625.53 512.58 Q 624.68 511.76 624.68 510.46 L 624.68 510.46 L 624.68 510.46 Q 624.68 509.64 625.14 509.06 L 625.14 509.06 L 625.14 509.06 Q 623.44 509.28 622.4 510.63 L 622.4 510.63 L 622.4 510.63 Q 621.36 511.98 621.32 514.02 L 621.32 514.02 L 621.32 514.02 Q 621.36 516.06 622.4 517.42 L 622.4 517.42 L 622.4 517.42 Q 623.44 518.78 625.14 519 L 625.14 519 L 625.14 519 Q 624.68 518.42 624.68 517.6 L 624.68 517.6 L 624.68 517.6 Q 624.68 516.3 625.53 515.48 L 625.53 515.48 L 625.53 515.48 Q 626.38 514.66 627.72 514.66 L 627.72 514.66 L 627.72 514.66 Z  M 627.76 511.56 L 627.76 511.56 Q 628.26 511.56 628.58 511.25 L 628.58 511.25 L 628.58 511.25 Q 628.9 510.94 628.9 510.44 L 628.9 510.44 L 628.9 510.44 Q 628.9 509.94 628.59 509.63 L 628.59 509.63 L 628.59 509.63 Q 628.28 509.32 627.82 509.32 L 627.82 509.32 L 627.82 509.32 Q 627.32 509.32 627 509.63 L 627 509.63 L 627 509.63 Q 626.68 509.94 626.68 510.42 L 626.68 510.42 L 626.68 510.42 Q 626.68 510.92 626.99 511.24 L 626.99 511.24 L 626.99 511.24 Q 627.3 511.56 627.76 511.56 L 627.76 511.56 L 627.76 511.56 Z  M 627.76 516.5 L 627.76 516.5 Q 627.3 516.5 626.99 516.82 L 626.99 516.82 L 626.99 516.82 Q 626.68 517.14 626.68 517.64 L 626.68 517.64 L 626.68 517.64 Q 626.68 518.12 627 518.43 L 627 518.43 L 627 518.43 Q 627.32 518.74 627.82 518.74 L 627.82 518.74 L 627.82 518.74 Q 628.28 518.74 628.59 518.43 L 628.59 518.43 L 628.59 518.43 Q 628.9 518.12 628.9 517.62 L 628.9 517.62 L 628.9 517.62 Q 628.9 517.12 628.58 516.81 L 628.58 516.81 L 628.58 516.81 Q 628.26 516.5 627.76 516.5 L 627.76 516.5 L 627.76 516.5 Z  M 642.24 514.38 L 642.24 514.38 Q 643.64 514.38 644.75 514.99 L 644.75 514.99 L 644.75 514.99 Q 645.86 515.6 646.48 516.68 L 646.48 516.68 L 646.48 516.68 Q 647.1 517.76 647.1 519.12 L 647.1 519.12 L 647.1 519.12 Q 647.1 520.62 646.34 521.81 L 646.34 521.81 L 646.34 521.81 Q 645.58 523 644.23 523.67 L 644.23 523.67 L 644.23 523.67 Q 642.88 524.34 641.2 524.34 L 641.2 524.34 L 638.08 524.34 L 638.08 524.34 Q 635.34 524.34 634.6 525.46 L 634.6 525.46 L 632.7 524.28 L 632.7 524.28 Q 633.08 523.48 634.41 523 L 634.41 523 L 634.41 523 Q 635.74 522.52 637.82 522.52 L 637.82 522.52 L 641.2 522.52 L 641.2 522.52 Q 642.2 522.52 642.99 522.08 L 642.99 522.08 L 642.99 522.08 Q 643.78 521.64 644.23 520.87 L 644.23 520.87 L 644.23 520.87 Q 644.68 520.1 644.68 519.12 L 644.68 519.12 L 644.68 519.12 Q 644.68 517.86 644 517.04 L 644 517.04 L 644 517.04 Q 643.32 516.22 642.26 516.22 L 642.26 516.22 L 642.06 516.22 L 642.06 516.5 L 642.06 516.5 Q 642.06 517.78 641.44 518.8 L 641.44 518.8 L 641.44 518.8 Q 640.82 519.82 639.69 520.39 L 639.69 520.39 L 639.69 520.39 Q 638.56 520.96 637.04 520.96 L 637.04 520.96 L 637.04 520.96 Q 635.72 520.96 634.74 520.53 L 634.74 520.53 L 634.74 520.53 Q 633.76 520.1 633.23 519.35 L 633.23 519.35 L 633.23 519.35 Q 632.7 518.6 632.7 517.62 L 632.7 517.62 L 632.7 517.62 Q 632.7 516.62 633.29 515.84 L 633.29 515.84 L 633.29 515.84 Q 633.88 515.06 634.96 514.68 L 634.96 514.68 L 634.96 510.34 L 645.4 510.34 L 645.76 512.16 L 642.06 512.16 L 642.06 514.38 L 642.24 514.38 L 642.24 514.38 Z  M 639.72 514.38 L 639.72 512.16 L 637.28 512.16 L 637.28 514.38 L 639.72 514.38 L 639.72 514.38 Z  M 639.72 516.5 L 639.72 516.22 L 636.98 516.22 L 636.98 516.22 Q 636.1 516.22 635.61 516.6 L 635.61 516.6 L 635.61 516.6 Q 635.12 516.98 635.12 517.62 L 635.12 517.62 L 635.12 517.62 Q 635.12 518.26 635.63 518.65 L 635.63 518.65 L 635.63 518.65 Q 636.14 519.04 637.04 519.04 L 637.04 519.04 L 637.04 519.04 Q 638.32 519.04 639.02 518.34 L 639.02 518.34 L 639.02 518.34 Q 639.72 517.64 639.72 516.5 L 639.72 516.5 L 639.72 516.5 Z  M 665.88 510.34 L 668.2 510.34 L 668.2 520.6 L 659.7 520.6 L 659.7 518.78 L 659.7 518.78 Q 660.62 517.24 660.62 515.5 L 660.62 515.5 L 660.62 515.5 Q 660.62 513.88 659.46 512.89 L 659.46 512.89 L 659.46 512.89 Q 658.3 511.9 656.02 511.9 L 656.02 511.9 L 656.02 511.9 Q 654.6 511.9 653.53 512.42 L 653.53 512.42 L 653.53 512.42 Q 652.46 512.94 651.89 513.84 L 651.89 513.84 L 651.89 513.84 Q 651.32 514.74 651.32 515.86 L 651.32 515.86 L 651.32 515.86 Q 651.32 516.72 651.68 517.38 L 651.68 517.38 L 651.68 517.38 Q 651.78 516.08 652.75 515.24 L 652.75 515.24 L 652.75 515.24 Q 653.72 514.4 655.08 514.4 L 655.08 514.4 L 655.08 514.4 Q 656.14 514.4 656.99 514.83 L 656.99 514.83 L 656.99 514.83 Q 657.84 515.26 658.32 516.01 L 658.32 516.01 L 658.32 516.01 Q 658.8 516.76 658.8 517.7 L 658.8 517.7 L 658.8 517.7 Q 658.8 518.64 658.29 519.38 L 658.29 519.38 L 658.29 519.38 Q 657.78 520.12 656.87 520.54 L 656.87 520.54 L 656.87 520.54 Q 655.96 520.96 654.82 520.96 L 654.82 520.96 L 654.82 520.96 Q 653.12 520.96 651.77 520.3 L 651.77 520.3 L 651.77 520.3 Q 650.42 519.64 649.66 518.48 L 649.66 518.48 L 649.66 518.48 Q 648.9 517.32 648.9 515.86 L 648.9 515.86 L 648.9 515.86 Q 648.9 514.16 649.8 512.82 L 649.8 512.82 L 649.8 512.82 Q 650.7 511.48 652.32 510.73 L 652.32 510.73 L 652.32 510.73 Q 653.94 509.98 656.02 509.98 L 656.02 509.98 L 656.02 509.98 Q 658.04 509.98 659.64 510.69 L 659.64 510.69 L 659.64 510.69 Q 661.24 511.4 662.15 512.66 L 662.15 512.66 L 662.15 512.66 Q 663.06 513.92 663.06 515.5 L 663.06 515.5 L 663.06 515.5 Q 663.06 517.18 662.26 518.78 L 662.26 518.78 L 665.88 518.78 L 665.88 510.34 L 665.88 510.34 Z  M 655.12 516.24 L 655.12 516.24 Q 654.5 516.24 654.1 516.65 L 654.1 516.65 L 654.1 516.65 Q 653.7 517.06 653.7 517.7 L 653.7 517.7 L 653.7 517.7 Q 653.7 518.32 654.1 518.72 L 654.1 518.72 L 654.1 518.72 Q 654.5 519.12 655.12 519.12 L 655.12 519.12 L 655.12 519.12 Q 655.74 519.12 656.15 518.72 L 656.15 518.72 L 656.15 518.72 Q 656.56 518.32 656.56 517.7 L 656.56 517.7 L 656.56 517.7 Q 656.56 517.08 656.15 516.66 L 656.15 516.66 L 656.15 516.66 Q 655.74 516.24 655.12 516.24 L 655.12 516.24 L 655.12 516.24 Z  M 695.62 510.06 L 695.62 510.06 Q 696.48 511.44 696.9 512.97 L 696.9 512.97 L 696.9 512.97 Q 697.32 514.5 697.32 515.76 L 697.32 515.76 L 697.32 515.76 Q 697.32 518.14 696.17 519.55 L 696.17 519.55 L 696.17 519.55 Q 695.02 520.96 692.72 520.96 L 692.72 520.96 L 692.72 520.96 Q 690.68 520.96 689.56 519.76 L 689.56 519.76 L 689.56 519.76 Q 688.44 518.56 688.44 516.42 L 688.44 516.42 L 688.44 514.56 L 688.44 514.56 Q 688.44 511.9 686.62 511.9 L 686.62 511.9 L 686.62 511.9 Q 685.52 511.9 684.96 512.88 L 684.96 512.88 L 684.96 512.88 Q 684.4 513.86 684.4 515.5 L 684.4 515.5 L 684.4 520.6 L 682.08 520.6 L 682.08 515.5 L 682.08 515.5 Q 682.08 513.86 680.97 512.88 L 680.97 512.88 L 680.97 512.88 Q 679.86 511.9 677.92 511.9 L 677.92 511.9 L 677.92 511.9 Q 676.5 511.9 675.46 512.42 L 675.46 512.42 L 675.46 512.42 Q 674.42 512.94 673.87 513.84 L 673.87 513.84 L 673.87 513.84 Q 673.32 514.74 673.32 515.86 L 673.32 515.86 L 673.32 515.86 Q 673.32 516.72 673.68 517.38 L 673.68 517.38 L 673.68 517.38 Q 673.78 516.06 674.73 515.23 L 674.73 515.23 L 674.73 515.23 Q 675.68 514.4 677.08 514.4 L 677.08 514.4 L 677.08 514.4 Q 678.14 514.4 678.99 514.83 L 678.99 514.83 L 678.99 514.83 Q 679.84 515.26 680.32 516.01 L 680.32 516.01 L 680.32 516.01 Q 680.8 516.76 680.8 517.7 L 680.8 517.7 L 680.8 517.7 Q 680.8 518.64 680.29 519.38 L 680.29 519.38 L 680.29 519.38 Q 679.78 520.12 678.87 520.54 L 678.87 520.54 L 678.87 520.54 Q 677.96 520.96 676.82 520.96 L 676.82 520.96 L 676.82 520.96 Q 675.12 520.96 673.77 520.3 L 673.77 520.3 L 673.77 520.3 Q 672.42 519.64 671.66 518.48 L 671.66 518.48 L 671.66 518.48 Q 670.9 517.32 670.9 515.86 L 670.9 515.86 L 670.9 515.86 Q 670.9 514.16 671.77 512.82 L 671.77 512.82 L 671.77 512.82 Q 672.64 511.48 674.23 510.73 L 674.23 510.73 L 674.23 510.73 Q 675.82 509.98 677.92 509.98 L 677.92 509.98 L 677.92 509.98 Q 679.66 509.98 681.04 510.54 L 681.04 510.54 L 681.04 510.54 Q 682.42 511.1 683.26 512.14 L 683.26 512.14 L 683.26 512.14 Q 683.82 511.12 684.71 510.55 L 684.71 510.55 L 684.71 510.55 Q 685.6 509.98 686.74 509.98 L 686.74 509.98 L 686.74 509.98 Q 688.7 509.98 689.73 511.21 L 689.73 511.21 L 689.73 511.21 Q 690.76 512.44 690.76 514.46 L 690.76 514.46 L 690.76 516.42 L 690.76 516.42 Q 690.76 517.68 691.29 518.36 L 691.29 518.36 L 691.29 518.36 Q 691.82 519.04 692.78 519.04 L 692.78 519.04 L 692.78 519.04 Q 693.88 519.04 694.38 518.16 L 694.38 518.16 L 694.38 518.16 Q 694.88 517.28 694.88 515.76 L 694.88 515.76 L 694.88 515.76 Q 694.88 514.5 694.46 512.99 L 694.46 512.99 L 694.46 512.99 Q 694.04 511.48 693.24 510.34 L 693.24 510.34 L 695.62 510.06 L 695.62 510.06 Z  M 677.12 516.24 L 677.12 516.24 Q 676.5 516.24 676.1 516.65 L 676.1 516.65 L 676.1 516.65 Q 675.7 517.06 675.7 517.7 L 675.7 517.7 L 675.7 517.7 Q 675.7 518.32 676.1 518.72 L 676.1 518.72 L 676.1 518.72 Q 676.5 519.12 677.12 519.12 L 677.12 519.12 L 677.12 519.12 Q 677.74 519.12 678.15 518.72 L 678.15 518.72 L 678.15 518.72 Q 678.56 518.32 678.56 517.7 L 678.56 517.7 L 678.56 517.7 Q 678.56 517.08 678.15 516.66 L 678.15 516.66 L 678.15 516.66 Q 677.74 516.24 677.12 516.24 L 677.12 516.24 L 677.12 516.24 Z  M 683 508.2 L 683 508.2 Q 683.62 508.2 684.02 507.8 L 684.02 507.8 L 684.02 507.8 Q 684.42 507.4 684.42 506.8 L 684.42 506.8 L 684.42 506.8 Q 684.42 506.18 684.02 505.78 L 684.02 505.78 L 684.02 505.78 Q 683.62 505.38 683 505.38 L 683 505.38 L 683 505.38 Q 682.4 505.38 682.01 505.78 L 682.01 505.78 L 682.01 505.78 Q 681.62 506.18 681.62 506.8 L 681.62 506.8 L 681.62 506.8 Q 681.62 507.4 682.01 507.8 L 682.01 507.8 L 682.01 507.8 Q 682.4 508.2 683 508.2 L 683 508.2 L 683 508.2 Z  M 708.24 514.38 L 708.24 514.38 Q 709.64 514.38 710.75 514.99 L 710.75 514.99 L 710.75 514.99 Q 711.86 515.6 712.48 516.68 L 712.48 516.68 L 712.48 516.68 Q 713.1 517.76 713.1 519.12 L 713.1 519.12 L 713.1 519.12 Q 713.1 520.62 712.34 521.81 L 712.34 521.81 L 712.34 521.81 Q 711.58 523 710.23 523.67 L 710.23 523.67 L 710.23 523.67 Q 708.88 524.34 707.2 524.34 L 707.2 524.34 L 704.08 524.34 L 704.08 524.34 Q 701.34 524.34 700.6 525.46 L 700.6 525.46 L 698.7 524.28 L 698.7 524.28 Q 699.08 523.48 700.41 523 L 700.41 523 L 700.41 523 Q 701.74 522.52 703.82 522.52 L 703.82 522.52 L 707.2 522.52 L 707.2 522.52 Q 708.2 522.52 708.99 522.08 L 708.99 522.08 L 708.99 522.08 Q 709.78 521.64 710.23 520.87 L 710.23 520.87 L 710.23 520.87 Q 710.68 520.1 710.68 519.12 L 710.68 519.12 L 710.68 519.12 Q 710.68 517.86 710 517.04 L 710 517.04 L 710 517.04 Q 709.32 516.22 708.26 516.22 L 708.26 516.22 L 708.06 516.22 L 708.06 516.5 L 708.06 516.5 Q 708.06 517.78 707.44 518.8 L 707.44 518.8 L 707.44 518.8 Q 706.82 519.82 705.69 520.39 L 705.69 520.39 L 705.69 520.39 Q 704.56 520.96 703.04 520.96 L 703.04 520.96 L 703.04 520.96 Q 701.72 520.96 700.74 520.53 L 700.74 520.53 L 700.74 520.53 Q 699.76 520.1 699.23 519.35 L 699.23 519.35 L 699.23 519.35 Q 698.7 518.6 698.7 517.62 L 698.7 517.62 L 698.7 517.62 Q 698.7 516.62 699.29 515.84 L 699.29 515.84 L 699.29 515.84 Q 699.88 515.06 700.96 514.68 L 700.96 514.68 L 700.96 510.34 L 711.4 510.34 L 711.76 512.16 L 708.06 512.16 L 708.06 514.38 L 708.24 514.38 L 708.24 514.38 Z  M 705.72 514.38 L 705.72 512.16 L 703.28 512.16 L 703.28 514.38 L 705.72 514.38 L 705.72 514.38 Z  M 705.72 516.5 L 705.72 516.22 L 702.98 516.22 L 702.98 516.22 Q 702.1 516.22 701.61 516.6 L 701.61 516.6 L 701.61 516.6 Q 701.12 516.98 701.12 517.62 L 701.12 517.62 L 701.12 517.62 Q 701.12 518.26 701.63 518.65 L 701.63 518.65 L 701.63 518.65 Q 702.14 519.04 703.04 519.04 L 703.04 519.04 L 703.04 519.04 Q 704.32 519.04 705.02 518.34 L 705.02 518.34 L 705.02 518.34 Q 705.72 517.64 705.72 516.5 L 705.72 516.5 L 705.72 516.5 Z  M 727.78 512.16 L 724.16 512.16 L 724.16 520.6 L 721.84 520.6 L 721.84 512.16 L 718.02 512.16 L 718.02 520.6 L 715.7 520.6 L 715.7 510.34 L 727.42 510.34 L 727.78 512.16 L 727.78 512.16 Z  M 753.8 510.34 L 754.16 512.16 L 750.54 512.16 L 750.54 520.6 L 748.22 520.6 L 748.22 512.16 L 746.44 512.16 L 746.44 512.16 Q 745.16 512.16 744 512.6 L 744 512.6 L 744 512.6 Q 745.06 513.52 745.65 514.65 L 745.65 514.65 L 745.65 514.65 Q 746.24 515.78 746.24 517 L 746.24 517 L 746.24 517 Q 746.24 518.14 745.74 519.04 L 745.74 519.04 L 745.74 519.04 Q 745.24 519.94 744.36 520.45 L 744.36 520.45 L 744.36 520.45 Q 743.48 520.96 742.34 520.96 L 742.34 520.96 L 742.34 520.96 Q 741.2 520.96 740.32 520.45 L 740.32 520.45 L 740.32 520.45 Q 739.44 519.94 738.95 519.04 L 738.95 519.04 L 738.95 519.04 Q 738.46 518.14 738.46 517 L 738.46 517 L 738.46 517 Q 738.46 515.78 738.95 514.67 L 738.95 514.67 L 738.95 514.67 Q 739.44 513.56 740.34 512.68 L 740.34 512.68 L 740.34 512.68 Q 738.54 511.9 736.4 511.9 L 736.4 511.9 L 736.4 511.9 Q 734.54 511.9 733.16 512.42 L 733.16 512.42 L 733.16 512.42 Q 731.78 512.94 731.05 513.86 L 731.05 513.86 L 731.05 513.86 Q 730.32 514.78 730.32 515.94 L 730.32 515.94 L 730.32 515.94 Q 730.32 516.74 730.66 517.42 L 730.66 517.42 L 730.66 517.42 Q 730.76 516.1 731.72 515.25 L 731.72 515.25 L 731.72 515.25 Q 732.68 514.4 734.08 514.4 L 734.08 514.4 L 734.08 514.4 Q 735.14 514.4 735.99 514.83 L 735.99 514.83 L 735.99 514.83 Q 736.84 515.26 737.32 516.01 L 737.32 516.01 L 737.32 516.01 Q 737.8 516.76 737.8 517.7 L 737.8 517.7 L 737.8 517.7 Q 737.8 518.64 737.29 519.38 L 737.29 519.38 L 737.29 519.38 Q 736.78 520.12 735.87 520.54 L 735.87 520.54 L 735.87 520.54 Q 734.96 520.96 733.82 520.96 L 733.82 520.96 L 733.82 520.96 Q 732.12 520.96 730.77 520.32 L 730.77 520.32 L 730.77 520.32 Q 729.42 519.68 728.66 518.54 L 728.66 518.54 L 728.66 518.54 Q 727.9 517.4 727.9 515.94 L 727.9 515.94 L 727.9 515.94 Q 727.9 514.24 728.94 512.88 L 728.94 512.88 L 728.94 512.88 Q 729.98 511.52 731.91 510.75 L 731.91 510.75 L 731.91 510.75 Q 733.84 509.98 736.4 509.98 L 736.4 509.98 L 736.4 509.98 Q 737.98 509.98 739.45 510.34 L 739.45 510.34 L 739.45 510.34 Q 740.92 510.7 742.18 511.36 L 742.18 511.36 L 742.18 511.36 Q 744.1 510.34 746.44 510.34 L 746.44 510.34 L 753.8 510.34 L 753.8 510.34 Z  M 742.34 519.04 L 742.34 519.04 Q 743.04 519.04 743.42 518.47 L 743.42 518.47 L 743.42 518.47 Q 743.8 517.9 743.8 517 L 743.8 517 L 743.8 517 Q 743.8 516.1 743.38 515.28 L 743.38 515.28 L 743.38 515.28 Q 742.96 514.46 742.18 513.8 L 742.18 513.8 L 742.18 513.8 Q 741.56 514.44 741.22 515.25 L 741.22 515.25 L 741.22 515.25 Q 740.88 516.06 740.88 517 L 740.88 517 L 740.88 517 Q 740.88 517.88 741.27 518.46 L 741.27 518.46 L 741.27 518.46 Q 741.66 519.04 742.34 519.04 L 742.34 519.04 L 742.34 519.04 Z  M 734.12 516.24 L 734.12 516.24 Q 733.5 516.24 733.1 516.65 L 733.1 516.65 L 733.1 516.65 Q 732.7 517.06 732.7 517.7 L 732.7 517.7 L 732.7 517.7 Q 732.7 518.32 733.1 518.72 L 733.1 518.72 L 733.1 518.72 Q 733.5 519.12 734.12 519.12 L 734.12 519.12 L 734.12 519.12 Q 734.74 519.12 735.15 518.72 L 735.15 518.72 L 735.15 518.72 Q 735.56 518.32 735.56 517.7 L 735.56 517.7 L 735.56 517.7 Q 735.56 517.08 735.15 516.66 L 735.15 516.66 L 735.15 516.66 Q 734.74 516.24 734.12 516.24 L 734.12 516.24 L 734.12 516.24 Z  M 766.06 509.98 L 766.06 509.98 Q 767.54 509.98 768.66 510.73 L 768.66 510.73 L 768.66 510.73 Q 769.78 511.48 770.39 512.81 L 770.39 512.81 L 770.39 512.81 Q 771 514.14 771 515.82 L 771 515.82 L 771 515.82 Q 771 518.02 769.87 519.31 L 769.87 519.31 L 769.87 519.31 Q 768.74 520.6 766.48 520.6 L 766.48 520.6 L 755.7 520.6 L 755.7 510.34 L 758.02 510.24 L 758.02 518.78 L 761.74 518.78 L 761.74 514.76 L 761.74 514.76 Q 761.74 512.62 762.86 511.3 L 762.86 511.3 L 762.86 511.3 Q 763.98 509.98 766.06 509.98 L 766.06 509.98 L 766.06 509.98 Z  M 766.48 518.78 L 766.48 518.78 Q 767.72 518.78 768.15 518.04 L 768.15 518.04 L 768.15 518.04 Q 768.58 517.3 768.58 515.82 L 768.58 515.82 L 768.58 515.82 Q 768.58 514.08 767.9 512.99 L 767.9 512.99 L 767.9 512.99 Q 767.22 511.9 766.06 511.9 L 766.06 511.9 L 766.06 511.9 Q 764.06 511.9 764.06 514.92 L 764.06 514.92 L 764.06 518.78 L 766.48 518.78 L 766.48 518.78 Z  M 764 508.2 L 764 508.2 Q 764.62 508.2 765.02 507.8 L 765.02 507.8 L 765.02 507.8 Q 765.42 507.4 765.42 506.8 L 765.42 506.8 L 765.42 506.8 Q 765.42 506.18 765.02 505.78 L 765.02 505.78 L 765.02 505.78 Q 764.62 505.38 764 505.38 L 764 505.38 L 764 505.38 Q 763.4 505.38 763.01 505.78 L 763.01 505.78 L 763.01 505.78 Q 762.62 506.18 762.62 506.8 L 762.62 506.8 L 762.62 506.8 Q 762.62 507.4 763.01 507.8 L 763.01 507.8 L 763.01 507.8 Q 763.4 508.2 764 508.2 L 764 508.2 L 764 508.2 Z  M 626.16 474.3 L 626.16 474.3 Q 628.2 474.3 629.73 475.15 L 629.73 475.15 L 629.73 475.15 Q 631.26 476 632.1 477.54 L 632.1 477.54 L 632.1 477.54 Q 632.94 479.08 632.94 481.08 L 632.94 481.08 L 632.94 487.8 L 630.62 487.8 L 630.62 481.08 L 630.62 481.08 Q 630.62 478.88 629.42 477.55 L 629.42 477.55 L 629.42 477.55 Q 628.22 476.22 626.16 476.22 L 626.16 476.22 L 626.16 476.22 Q 624.7 476.22 623.6 476.87 L 623.6 476.87 L 623.6 476.87 Q 622.5 477.52 621.91 478.66 L 621.91 478.66 L 621.91 478.66 Q 621.32 479.8 621.32 481.26 L 621.32 481.26 L 621.32 481.26 Q 621.32 482.9 621.86 484.1 L 621.86 484.1 L 621.86 484.1 Q 622.12 482.98 623.03 482.29 L 623.03 482.29 L 623.03 482.29 Q 623.94 481.6 625.2 481.6 L 625.2 481.6 L 625.2 481.6 Q 626.26 481.6 627.08 482.03 L 627.08 482.03 L 627.08 482.03 Q 627.9 482.46 628.35 483.21 L 628.35 483.21 L 628.35 483.21 Q 628.8 483.96 628.8 484.9 L 628.8 484.9 L 628.8 484.9 Q 628.8 485.84 628.29 486.58 L 628.29 486.58 L 628.29 486.58 Q 627.78 487.32 626.87 487.74 L 626.87 487.74 L 626.87 487.74 Q 625.96 488.16 624.82 488.16 L 624.82 488.16 L 624.82 488.16 Q 623.12 488.16 621.77 487.27 L 621.77 487.27 L 621.77 487.27 Q 620.42 486.38 619.66 484.81 L 619.66 484.81 L 619.66 484.81 Q 618.9 483.24 618.9 481.26 L 618.9 481.26 L 618.9 481.26 Q 618.9 479.26 619.8 477.68 L 619.8 477.68 L 619.8 477.68 Q 620.7 476.1 622.35 475.2 L 622.35 475.2 L 622.35 475.2 Q 624 474.3 626.16 474.3 L 626.16 474.3 L 626.16 474.3 Z  M 625.12 483.44 L 625.12 483.44 Q 624.5 483.44 624.1 483.85 L 624.1 483.85 L 624.1 483.85 Q 623.7 484.26 623.7 484.9 L 623.7 484.9 L 623.7 484.9 Q 623.7 485.52 624.1 485.92 L 624.1 485.92 L 624.1 485.92 Q 624.5 486.32 625.12 486.32 L 625.12 486.32 L 625.12 486.32 Q 625.74 486.32 626.15 485.92 L 626.15 485.92 L 626.15 485.92 Q 626.56 485.52 626.56 484.9 L 626.56 484.9 L 626.56 484.9 Q 626.56 484.28 626.15 483.86 L 626.15 483.86 L 626.15 483.86 Q 625.74 483.44 625.12 483.44 L 625.12 483.44 L 625.12 483.44 Z  M 652.88 477.54 L 655.2 477.54 L 655.2 487.8 L 646.7 487.8 L 646.7 485.98 L 646.7 485.98 Q 647.62 484.44 647.62 482.7 L 647.62 482.7 L 647.62 482.7 Q 647.62 481.08 646.46 480.09 L 646.46 480.09 L 646.46 480.09 Q 645.3 479.1 643.02 479.1 L 643.02 479.1 L 643.02 479.1 Q 641.6 479.1 640.53 479.62 L 640.53 479.62 L 640.53 479.62 Q 639.46 480.14 638.89 481.04 L 638.89 481.04 L 638.89 481.04 Q 638.32 481.94 638.32 483.06 L 638.32 483.06 L 638.32 483.06 Q 638.32 483.92 638.68 484.58 L 638.68 484.58 L 638.68 484.58 Q 638.78 483.28 639.75 482.44 L 639.75 482.44 L 639.75 482.44 Q 640.72 481.6 642.08 481.6 L 642.08 481.6 L 642.08 481.6 Q 643.14 481.6 643.99 482.03 L 643.99 482.03 L 643.99 482.03 Q 644.84 482.46 645.32 483.21 L 645.32 483.21 L 645.32 483.21 Q 645.8 483.96 645.8 484.9 L 645.8 484.9 L 645.8 484.9 Q 645.8 485.84 645.29 486.58 L 645.29 486.58 L 645.29 486.58 Q 644.78 487.32 643.87 487.74 L 643.87 487.74 L 643.87 487.74 Q 642.96 488.16 641.82 488.16 L 641.82 488.16 L 641.82 488.16 Q 640.12 488.16 638.77 487.5 L 638.77 487.5 L 638.77 487.5 Q 637.42 486.84 636.66 485.68 L 636.66 485.68 L 636.66 485.68 Q 635.9 484.52 635.9 483.06 L 635.9 483.06 L 635.9 483.06 Q 635.9 481.36 636.8 480.02 L 636.8 480.02 L 636.8 480.02 Q 637.7 478.68 639.32 477.93 L 639.32 477.93 L 639.32 477.93 Q 640.94 477.18 643.02 477.18 L 643.02 477.18 L 643.02 477.18 Q 645.04 477.18 646.64 477.89 L 646.64 477.89 L 646.64 477.89 Q 648.24 478.6 649.15 479.86 L 649.15 479.86 L 649.15 479.86 Q 650.06 481.12 650.06 482.7 L 650.06 482.7 L 650.06 482.7 Q 650.06 484.38 649.26 485.98 L 649.26 485.98 L 652.88 485.98 L 652.88 477.54 L 652.88 477.54 Z  M 642.12 483.44 L 642.12 483.44 Q 641.5 483.44 641.1 483.85 L 641.1 483.85 L 641.1 483.85 Q 640.7 484.26 640.7 484.9 L 640.7 484.9 L 640.7 484.9 Q 640.7 485.52 641.1 485.92 L 641.1 485.92 L 641.1 485.92 Q 641.5 486.32 642.12 486.32 L 642.12 486.32 L 642.12 486.32 Q 642.74 486.32 643.15 485.92 L 643.15 485.92 L 643.15 485.92 Q 643.56 485.52 643.56 484.9 L 643.56 484.9 L 643.56 484.9 Q 643.56 484.28 643.15 483.86 L 643.15 483.86 L 643.15 483.86 Q 642.74 483.44 642.12 483.44 L 642.12 483.44 L 642.12 483.44 Z  M 673.76 477.54 L 676.08 477.54 L 676.08 487.8 L 663.92 487.8 L 663.92 485.98 L 666.94 485.98 L 666.94 485.98 Q 668.12 485.98 668.73 485.43 L 668.73 485.43 L 668.73 485.43 Q 669.34 484.88 669.34 483.96 L 669.34 483.96 L 669.34 483.96 Q 669.34 483.24 668.95 482.76 L 668.95 482.76 L 668.95 482.76 Q 668.56 482.28 667.9 482.28 L 667.9 482.28 L 667.9 482.28 Q 667.18 482.28 666.71 482.75 L 666.71 482.75 L 666.71 482.75 Q 666.24 483.22 666.24 483.88 L 666.24 483.88 L 666.24 484.6 L 663.92 484.6 L 663.92 479.36 L 661.02 479.36 L 661.02 487.8 L 658.7 487.8 L 658.7 477.54 L 669.5 477.54 L 669.86 479.38 L 666.24 479.38 L 666.24 480.82 L 666.24 480.82 Q 667.14 480.34 668.18 480.34 L 668.18 480.34 L 668.18 480.34 Q 669.8 480.34 670.79 481.33 L 670.79 481.33 L 670.79 481.33 Q 671.78 482.32 671.78 483.96 L 671.78 483.96 L 671.78 483.96 Q 671.78 485.1 671.18 485.98 L 671.18 485.98 L 673.76 485.98 L 673.76 477.54 L 673.76 477.54 Z  M 667 475.4 L 667 475.4 Q 667.62 475.4 668.02 475 L 668.02 475 L 668.02 475 Q 668.42 474.6 668.42 474 L 668.42 474 L 668.42 474 Q 668.42 473.38 668.02 472.98 L 668.02 472.98 L 668.02 472.98 Q 667.62 472.58 667 472.58 L 667 472.58 L 667 472.58 Q 666.4 472.58 666.01 472.98 L 666.01 472.98 L 666.01 472.98 Q 665.62 473.38 665.62 474 L 665.62 474 L 665.62 474 Q 665.62 474.6 666.01 475 L 666.01 475 L 666.01 475 Q 666.4 475.4 667 475.4 L 667 475.4 L 667 475.4 Z  M 688.6 481.58 L 688.6 481.58 Q 690.6 481.58 691.76 482.49 L 691.76 482.49 L 691.76 482.49 Q 692.92 483.4 692.92 484.88 L 692.92 484.88 L 692.92 484.88 Q 692.92 485.84 692.37 486.58 L 692.37 486.58 L 692.37 486.58 Q 691.82 487.32 690.79 487.74 L 690.79 487.74 L 690.79 487.74 Q 689.76 488.16 688.38 488.16 L 688.38 488.16 L 688.38 486.32 L 688.38 486.32 Q 689.46 486.32 689.98 485.94 L 689.98 485.94 L 689.98 485.94 Q 690.5 485.56 690.5 484.88 L 690.5 484.88 L 690.5 484.88 Q 690.5 483.42 688.62 483.42 L 688.62 483.42 L 688.06 483.42 L 688.06 483.7 L 688.06 483.7 Q 688.06 484.98 687.44 486 L 687.44 486 L 687.44 486 Q 686.82 487.02 685.69 487.59 L 685.69 487.59 L 685.69 487.59 Q 684.56 488.16 683.04 488.16 L 683.04 488.16 L 683.04 488.16 Q 681.72 488.16 680.74 487.73 L 680.74 487.73 L 680.74 487.73 Q 679.76 487.3 679.23 486.55 L 679.23 486.55 L 679.23 486.55 Q 678.7 485.8 678.7 484.82 L 678.7 484.82 L 678.7 484.82 Q 678.7 483.82 679.29 483.04 L 679.29 483.04 L 679.29 483.04 Q 679.88 482.26 680.96 481.88 L 680.96 481.88 L 680.96 477.54 L 691.4 477.54 L 691.76 479.36 L 688.06 479.36 L 688.06 481.58 L 688.6 481.58 L 688.6 481.58 Z  M 685.72 481.58 L 685.72 479.36 L 683.28 479.36 L 683.28 481.58 L 685.72 481.58 L 685.72 481.58 Z  M 685.72 483.7 L 685.72 483.42 L 682.98 483.42 L 682.98 483.42 Q 682.1 483.42 681.61 483.8 L 681.61 483.8 L 681.61 483.8 Q 681.12 484.18 681.12 484.82 L 681.12 484.82 L 681.12 484.82 Q 681.12 485.46 681.63 485.85 L 681.63 485.85 L 681.63 485.85 Q 682.14 486.24 683.04 486.24 L 683.04 486.24 L 683.04 486.24 Q 684.32 486.24 685.02 485.54 L 685.02 485.54 L 685.02 485.54 Q 685.72 484.84 685.72 483.7 L 685.72 483.7 L 685.72 483.7 Z  M 707.4 487.8 L 707.04 485.98 L 697.02 485.98 L 697.02 477.44 L 694.7 477.54 L 694.7 487.8 L 707.4 487.8 L 707.4 487.8 Z  M 721.78 479.36 L 718.16 479.36 L 718.16 487.8 L 715.84 487.8 L 715.84 479.36 L 712.02 479.36 L 712.02 487.8 L 709.7 487.8 L 709.7 477.54 L 721.42 477.54 L 721.78 479.36 L 721.78 479.36 Z  M 734.4 481.58 L 734.76 483.42 L 731.06 483.42 L 731.06 483.7 L 731.06 483.7 Q 731.06 484.98 730.44 486 L 730.44 486 L 730.44 486 Q 729.82 487.02 728.69 487.59 L 728.69 487.59 L 728.69 487.59 Q 727.56 488.16 726.04 488.16 L 726.04 488.16 L 726.04 488.16 Q 724.72 488.16 723.74 487.73 L 723.74 487.73 L 723.74 487.73 Q 722.76 487.3 722.23 486.55 L 722.23 486.55 L 722.23 486.55 Q 721.7 485.8 721.7 484.82 L 721.7 484.82 L 721.7 484.82 Q 721.7 483.82 722.29 483.04 L 722.29 483.04 L 722.29 483.04 Q 722.88 482.26 723.96 481.88 L 723.96 481.88 L 723.96 477.54 L 734.4 477.54 L 734.76 479.36 L 731.06 479.36 L 731.06 481.58 L 734.4 481.58 L 734.4 481.58 Z  M 728.72 481.58 L 728.72 479.36 L 726.28 479.36 L 726.28 481.58 L 728.72 481.58 L 728.72 481.58 Z  M 728.72 483.7 L 728.72 483.42 L 725.98 483.42 L 725.98 483.42 Q 725.1 483.42 724.61 483.8 L 724.61 483.8 L 724.61 483.8 Q 724.12 484.18 724.12 484.82 L 724.12 484.82 L 724.12 484.82 Q 724.12 485.46 724.63 485.85 L 724.63 485.85 L 724.63 485.85 Q 725.14 486.24 726.04 486.24 L 726.04 486.24 L 726.04 486.24 Q 727.32 486.24 728.02 485.54 L 728.02 485.54 L 728.02 485.54 Q 728.72 484.84 728.72 483.7 L 728.72 483.7 L 728.72 483.7 Z  M 754.26 477.26 L 754.26 477.26 Q 755.12 478.64 755.54 480.17 L 755.54 480.17 L 755.54 480.17 Q 755.96 481.7 755.96 482.96 L 755.96 482.96 L 755.96 482.96 Q 755.96 485.34 754.81 486.75 L 754.81 486.75 L 754.81 486.75 Q 753.66 488.16 751.38 488.16 L 751.38 488.16 L 751.38 488.16 Q 749.34 488.16 748.21 486.95 L 748.21 486.95 L 748.21 486.95 Q 747.08 485.74 747.08 483.62 L 747.08 483.62 L 747.08 482.7 L 747.08 482.7 Q 747.08 481.06 745.97 480.08 L 745.97 480.08 L 745.97 480.08 Q 744.86 479.1 742.92 479.1 L 742.92 479.1 L 742.92 479.1 Q 741.5 479.1 740.46 479.62 L 740.46 479.62 L 740.46 479.62 Q 739.42 480.14 738.87 481.04 L 738.87 481.04 L 738.87 481.04 Q 738.32 481.94 738.32 483.06 L 738.32 483.06 L 738.32 483.06 Q 738.32 483.92 738.68 484.58 L 738.68 484.58 L 738.68 484.58 Q 738.78 483.26 739.73 482.43 L 739.73 482.43 L 739.73 482.43 Q 740.68 481.6 742.08 481.6 L 742.08 481.6 L 742.08 481.6 Q 743.14 481.6 743.99 482.03 L 743.99 482.03 L 743.99 482.03 Q 744.84 482.46 745.32 483.21 L 745.32 483.21 L 745.32 483.21 Q 745.8 483.96 745.8 484.9 L 745.8 484.9 L 745.8 484.9 Q 745.8 485.84 745.29 486.58 L 745.29 486.58 L 745.29 486.58 Q 744.78 487.32 743.87 487.74 L 743.87 487.74 L 743.87 487.74 Q 742.96 488.16 741.82 488.16 L 741.82 488.16 L 741.82 488.16 Q 740.12 488.16 738.77 487.5 L 738.77 487.5 L 738.77 487.5 Q 737.42 486.84 736.66 485.68 L 736.66 485.68 L 736.66 485.68 Q 735.9 484.52 735.9 483.06 L 735.9 483.06 L 735.9 483.06 Q 735.9 481.36 736.77 480.02 L 736.77 480.02 L 736.77 480.02 Q 737.64 478.68 739.23 477.93 L 739.23 477.93 L 739.23 477.93 Q 740.82 477.18 742.92 477.18 L 742.92 477.18 L 742.92 477.18 Q 744.86 477.18 746.33 477.87 L 746.33 477.87 L 746.33 477.87 Q 747.8 478.56 748.6 479.82 L 748.6 479.82 L 748.6 479.82 Q 749.4 481.08 749.4 482.7 L 749.4 482.7 L 749.4 483.62 L 749.4 483.62 Q 749.4 484.88 749.93 485.56 L 749.93 485.56 L 749.93 485.56 Q 750.46 486.24 751.42 486.24 L 751.42 486.24 L 751.42 486.24 Q 752.54 486.24 753.04 485.36 L 753.04 485.36 L 753.04 485.36 Q 753.54 484.48 753.54 482.96 L 753.54 482.96 L 753.54 482.96 Q 753.54 481.72 753.11 480.2 L 753.11 480.2 L 753.11 480.2 Q 752.68 478.68 751.9 477.54 L 751.9 477.54 L 754.26 477.26 L 754.26 477.26 Z  M 742.12 483.44 L 742.12 483.44 Q 741.5 483.44 741.1 483.85 L 741.1 483.85 L 741.1 483.85 Q 740.7 484.26 740.7 484.9 L 740.7 484.9 L 740.7 484.9 Q 740.7 485.52 741.1 485.92 L 741.1 485.92 L 741.1 485.92 Q 741.5 486.32 742.12 486.32 L 742.12 486.32 L 742.12 486.32 Q 742.74 486.32 743.15 485.92 L 743.15 485.92 L 743.15 485.92 Q 743.56 485.52 743.56 484.9 L 743.56 484.9 L 743.56 484.9 Q 743.56 484.28 743.15 483.86 L 743.15 483.86 L 743.15 483.86 Q 742.74 483.44 742.12 483.44 L 742.12 483.44 L 742.12 483.44 Z  M 767.92 477.54 L 770.24 477.54 L 770.24 487.8 L 758.7 487.8 L 758.7 477.54 L 761.02 477.44 L 761.02 485.98 L 767.92 485.98 L 767.92 477.54 L 767.92 477.54 Z  M 782.24 481.58 L 782.24 481.58 Q 783.64 481.58 784.75 482.19 L 784.75 482.19 L 784.75 482.19 Q 785.86 482.8 786.48 483.88 L 786.48 483.88 L 786.48 483.88 Q 787.1 484.96 787.1 486.32 L 787.1 486.32 L 787.1 486.32 Q 787.1 487.82 786.34 489.01 L 786.34 489.01 L 786.34 489.01 Q 785.58 490.2 784.23 490.87 L 784.23 490.87 L 784.23 490.87 Q 782.88 491.54 781.2 491.54 L 781.2 491.54 L 778.08 491.54 L 778.08 491.54 Q 775.34 491.54 774.6 492.66 L 774.6 492.66 L 772.7 491.48 L 772.7 491.48 Q 773.08 490.68 774.41 490.2 L 774.41 490.2 L 774.41 490.2 Q 775.74 489.72 777.82 489.72 L 777.82 489.72 L 781.2 489.72 L 781.2 489.72 Q 782.2 489.72 782.99 489.28 L 782.99 489.28 L 782.99 489.28 Q 783.78 488.84 784.23 488.07 L 784.23 488.07 L 784.23 488.07 Q 784.68 487.3 784.68 486.32 L 784.68 486.32 L 784.68 486.32 Q 784.68 485.06 784 484.24 L 784 484.24 L 784 484.24 Q 783.32 483.42 782.26 483.42 L 782.26 483.42 L 782.06 483.42 L 782.06 483.7 L 782.06 483.7 Q 782.06 484.98 781.44 486 L 781.44 486 L 781.44 486 Q 780.82 487.02 779.69 487.59 L 779.69 487.59 L 779.69 487.59 Q 778.56 488.16 777.04 488.16 L 777.04 488.16 L 777.04 488.16 Q 775.72 488.16 774.74 487.73 L 774.74 487.73 L 774.74 487.73 Q 773.76 487.3 773.23 486.55 L 773.23 486.55 L 773.23 486.55 Q 772.7 485.8 772.7 484.82 L 772.7 484.82 L 772.7 484.82 Q 772.7 483.82 773.29 483.04 L 773.29 483.04 L 773.29 483.04 Q 773.88 482.26 774.96 481.88 L 774.96 481.88 L 774.96 477.54 L 785.4 477.54 L 785.76 479.36 L 782.06 479.36 L 782.06 481.58 L 782.24 481.58 L 782.24 481.58 Z  M 779.72 481.58 L 779.72 479.36 L 777.28 479.36 L 777.28 481.58 L 779.72 481.58 L 779.72 481.58 Z  M 779.72 483.7 L 779.72 483.42 L 776.98 483.42 L 776.98 483.42 Q 776.1 483.42 775.61 483.8 L 775.61 483.8 L 775.61 483.8 Q 775.12 484.18 775.12 484.82 L 775.12 484.82 L 775.12 484.82 Q 775.12 485.46 775.63 485.85 L 775.63 485.85 L 775.63 485.85 Q 776.14 486.24 777.04 486.24 L 777.04 486.24 L 777.04 486.24 Q 778.32 486.24 779.02 485.54 L 779.02 485.54 L 779.02 485.54 Q 779.72 484.84 779.72 483.7 L 779.72 483.7 L 779.72 483.7 Z  M 784.7 471.86 L 784.7 471.86 Q 786.96 471.86 788.61 472.61 L 788.61 472.61 L 788.61 472.61 Q 790.26 473.36 791.14 474.69 L 791.14 474.69 L 791.14 474.69 Q 792.02 476.02 792.02 477.74 L 792.02 477.74 L 792.02 487.8 L 789.7 487.8 L 789.7 477.74 L 789.7 477.74 Q 789.7 475.92 788.4 474.85 L 788.4 474.85 L 788.4 474.85 Q 787.1 473.78 784.7 473.78 L 784.7 473.78 L 784.7 473.78 Q 783.34 473.78 782.59 474.29 L 782.59 474.29 L 782.59 474.29 Q 781.84 474.8 781.84 475.68 L 781.84 475.68 L 781.84 475.68 Q 781.84 476.54 782.26 477.04 L 782.26 477.04 L 782.26 477.04 Q 782.68 477.54 783.54 477.54 L 783.54 477.54 L 783.54 479.16 L 783.54 479.16 Q 781.7 479.16 780.63 478.19 L 780.63 478.19 L 780.63 478.19 Q 779.56 477.22 779.54 475.68 L 779.54 475.68 L 779.54 475.68 Q 779.54 474.58 780.17 473.71 L 780.17 473.71 L 780.17 473.71 Q 780.8 472.84 781.97 472.35 L 781.97 472.35 L 781.97 472.35 Q 783.14 471.86 784.7 471.86 L 784.7 471.86 L 784.7 471.86 Z  M 676.62 448.78 L 676.62 448.78 Q 678.06 448.8 679.21 449.49 L 679.21 449.49 L 679.21 449.49 Q 680.36 450.18 681.01 451.36 L 681.01 451.36 L 681.01 451.36 Q 681.66 452.54 681.66 454.02 L 681.66 454.02 L 681.66 454.02 Q 681.66 455.88 680.49 457.36 L 680.49 457.36 L 680.49 457.36 Q 679.32 458.84 677.19 459.68 L 677.19 459.68 L 677.19 459.68 Q 675.06 460.52 672.28 460.52 L 672.28 460.52 L 672.28 460.52 Q 669.16 460.52 666.79 459.44 L 666.79 459.44 L 666.79 459.44 Q 664.42 458.36 663.11 456.34 L 663.11 456.34 L 663.11 456.34 Q 661.8 454.32 661.8 451.6 L 661.8 451.6 L 661.8 451.6 Q 661.8 449.7 662.62 447.7 L 662.62 447.7 L 662.62 447.7 Q 663.44 445.7 664.7 444.54 L 664.7 444.54 L 667.08 444.74 L 667.08 444.74 Q 665.84 445.78 665.03 447.71 L 665.03 447.71 L 665.03 447.71 Q 664.22 449.64 664.22 451.64 L 664.22 451.64 L 664.22 451.64 Q 664.22 453.78 665.22 455.33 L 665.22 455.33 L 665.22 455.33 Q 666.22 456.88 668.04 457.7 L 668.04 457.7 L 668.04 457.7 Q 669.86 458.52 672.28 458.52 L 672.28 458.52 L 672.28 458.52 Q 674.36 458.52 675.94 457.94 L 675.94 457.94 L 675.94 457.94 Q 677.52 457.36 678.38 456.34 L 678.38 456.34 L 678.38 456.34 Q 679.24 455.32 679.24 454.02 L 679.24 454.02 L 679.24 454.02 Q 679.24 452.56 678.5 451.61 L 678.5 451.61 L 678.5 451.61 Q 677.76 450.66 676.62 450.62 L 676.62 450.62 L 676.62 450.9 L 676.62 450.9 Q 676.62 452.18 676.01 453.2 L 676.01 453.2 L 676.01 453.2 Q 675.4 454.22 674.27 454.79 L 674.27 454.79 L 674.27 454.79 Q 673.14 455.36 671.62 455.36 L 671.62 455.36 L 671.62 455.36 Q 670.3 455.36 669.31 454.93 L 669.31 454.93 L 669.31 454.93 Q 668.32 454.5 667.79 453.74 L 667.79 453.74 L 667.79 453.74 Q 667.26 452.98 667.26 452.02 L 667.26 452.02 L 667.26 452.02 Q 667.26 451 667.85 450.23 L 667.85 450.23 L 667.85 450.23 Q 668.44 449.46 669.54 449.08 L 669.54 449.08 L 669.54 444.74 L 679.98 444.74 L 680.34 446.56 L 676.62 446.56 L 676.62 448.78 L 676.62 448.78 Z  M 674.3 448.78 L 674.3 446.56 L 671.86 446.56 L 671.86 448.78 L 674.3 448.78 L 674.3 448.78 Z  M 671.62 453.44 L 671.62 453.44 Q 672.88 453.44 673.59 452.74 L 673.59 452.74 L 673.59 452.74 Q 674.3 452.04 674.3 450.9 L 674.3 450.9 L 674.3 450.62 L 671.54 450.62 L 671.54 450.62 Q 670.68 450.62 670.19 451.01 L 670.19 451.01 L 670.19 451.01 Q 669.7 451.4 669.7 452.02 L 669.7 452.02 L 669.7 452.02 Q 669.7 452.66 670.21 453.05 L 670.21 453.05 L 670.21 453.05 Q 670.72 453.44 671.62 453.44 L 671.62 453.44 L 671.62 453.44 Z  M 692.22 449.06 L 692.22 449.06 Q 693.14 449.06 693.88 449.43 L 693.88 449.43 L 693.88 449.43 Q 694.62 449.8 695.04 450.47 L 695.04 450.47 L 695.04 450.47 Q 695.46 451.14 695.46 451.96 L 695.46 451.96 L 695.46 451.96 Q 695.46 452.92 694.87 453.7 L 694.87 453.7 L 694.87 453.7 Q 694.28 454.48 693.2 454.92 L 693.2 454.92 L 693.2 454.92 Q 692.12 455.36 690.72 455.36 L 690.72 455.36 L 690.72 455.36 Q 688.62 455.36 686.95 454.47 L 686.95 454.47 L 686.95 454.47 Q 685.28 453.58 684.34 451.99 L 684.34 451.99 L 684.34 451.99 Q 683.4 450.4 683.4 448.42 L 683.4 448.42 L 683.4 448.42 Q 683.4 446.44 684.34 444.86 L 684.34 444.86 L 684.34 444.86 Q 685.28 443.28 686.95 442.39 L 686.95 442.39 L 686.95 442.39 Q 688.62 441.5 690.72 441.5 L 690.72 441.5 L 690.72 441.5 Q 692.12 441.5 693.2 441.94 L 693.2 441.94 L 693.2 441.94 Q 694.28 442.38 694.87 443.16 L 694.87 443.16 L 694.87 443.16 Q 695.46 443.94 695.46 444.9 L 695.46 444.9 L 695.46 444.9 Q 695.46 445.72 695.04 446.39 L 695.04 446.39 L 695.04 446.39 Q 694.62 447.06 693.88 447.43 L 693.88 447.43 L 693.88 447.43 Q 693.14 447.8 692.22 447.8 L 692.22 447.8 L 692.22 447.8 Q 690.88 447.8 690.03 446.98 L 690.03 446.98 L 690.03 446.98 Q 689.18 446.16 689.18 444.86 L 689.18 444.86 L 689.18 444.86 Q 689.18 444.04 689.64 443.46 L 689.64 443.46 L 689.64 443.46 Q 687.94 443.68 686.9 445.03 L 686.9 445.03 L 686.9 445.03 Q 685.86 446.38 685.82 448.42 L 685.82 448.42 L 685.82 448.42 Q 685.86 450.46 686.9 451.82 L 686.9 451.82 L 686.9 451.82 Q 687.94 453.18 689.64 453.4 L 689.64 453.4 L 689.64 453.4 Q 689.18 452.82 689.18 452 L 689.18 452 L 689.18 452 Q 689.18 450.7 690.03 449.88 L 690.03 449.88 L 690.03 449.88 Q 690.88 449.06 692.22 449.06 L 692.22 449.06 L 692.22 449.06 Z  M 692.26 445.96 L 692.26 445.96 Q 692.76 445.96 693.08 445.65 L 693.08 445.65 L 693.08 445.65 Q 693.4 445.34 693.4 444.84 L 693.4 444.84 L 693.4 444.84 Q 693.4 444.34 693.09 444.03 L 693.09 444.03 L 693.09 444.03 Q 692.78 443.72 692.32 443.72 L 692.32 443.72 L 692.32 443.72 Q 691.82 443.72 691.5 444.03 L 691.5 444.03 L 691.5 444.03 Q 691.18 444.34 691.18 444.82 L 691.18 444.82 L 691.18 444.82 Q 691.18 445.32 691.49 445.64 L 691.49 445.64 L 691.49 445.64 Q 691.8 445.96 692.26 445.96 L 692.26 445.96 L 692.26 445.96 Z  M 692.26 450.9 L 692.26 450.9 Q 691.8 450.9 691.49 451.22 L 691.49 451.22 L 691.49 451.22 Q 691.18 451.54 691.18 452.04 L 691.18 452.04 L 691.18 452.04 Q 691.18 452.52 691.5 452.83 L 691.5 452.83 L 691.5 452.83 Q 691.82 453.14 692.32 453.14 L 692.32 453.14 L 692.32 453.14 Q 692.78 453.14 693.09 452.83 L 693.09 452.83 L 693.09 452.83 Q 693.4 452.52 693.4 452.02 L 693.4 452.02 L 693.4 452.02 Q 693.4 451.52 693.08 451.21 L 693.08 451.21 L 693.08 451.21 Q 692.76 450.9 692.26 450.9 L 692.26 450.9 L 692.26 450.9 Z  M 707.42 444.74 L 709.74 444.74 L 709.74 455 L 698.2 455 L 698.2 444.74 L 700.52 444.64 L 700.52 453.18 L 707.42 453.18 L 707.42 444.74 L 707.42 444.74 Z  M 725.68 446.58 L 722.06 446.58 L 722.06 454.66 L 722.06 454.66 Q 722.06 455.5 721.98 456.04 L 721.98 456.04 L 721.98 456.04 Q 721.9 456.58 721.61 457 L 721.61 457 L 721.61 457 Q 721.32 457.42 720.7 457.66 L 720.7 457.66 L 714.72 460 L 713.84 458.04 L 718.72 456.12 L 718.72 456.12 Q 719.18 455.94 719.4 455.67 L 719.4 455.67 L 719.4 455.67 Q 719.62 455.4 719.68 455.02 L 719.68 455.02 L 719.68 455.02 Q 719.74 454.64 719.74 453.9 L 719.74 453.9 L 719.74 446.56 L 715.52 446.56 L 715.52 455 L 713.2 455 L 713.2 444.74 L 725.32 444.74 L 725.68 446.58 L 725.68 446.58 Z  M 651.44 448.08 L 651.44 448.08 Q 652.64 448.08 653.56 448.73 L 653.56 448.73 L 653.56 448.73 Q 654.48 449.38 654.98 450.53 L 654.98 450.53 L 654.98 450.53 Q 655.48 451.68 655.48 453.12 L 655.48 453.12 L 655.48 453.12 Q 655.48 455.44 654.19 457.15 L 654.19 457.15 L 654.19 457.15 Q 652.9 458.86 650.52 459.79 L 650.52 459.79 L 650.52 459.79 Q 648.14 460.72 644.92 460.72 L 644.92 460.72 L 629.78 460.72 L 629.78 460.72 Q 626.68 460.72 624.3 459.59 L 624.3 459.59 L 624.3 459.59 Q 621.92 458.46 620.61 456.39 L 620.61 456.39 L 620.61 456.39 Q 619.3 454.32 619.3 451.6 L 619.3 451.6 L 619.3 451.6 Q 619.3 449.7 620.12 447.7 L 620.12 447.7 L 620.12 447.7 Q 620.94 445.7 622.2 444.54 L 622.2 444.54 L 624.58 444.74 L 624.58 444.74 Q 623.34 445.78 622.53 447.71 L 622.53 447.71 L 622.53 447.71 Q 621.72 449.64 621.72 451.64 L 621.72 451.64 L 621.72 451.64 Q 621.72 453.78 622.72 455.41 L 622.72 455.41 L 622.72 455.41 Q 623.72 457.04 625.54 457.95 L 625.54 457.95 L 625.54 457.95 Q 627.36 458.86 629.78 458.88 L 629.78 458.88 L 644.92 458.88 L 644.92 458.88 Q 647.42 458.88 649.26 458.17 L 649.26 458.17 L 649.26 458.17 Q 651.1 457.46 652.07 456.16 L 652.07 456.16 L 652.07 456.16 Q 653.04 454.86 653.04 453.12 L 653.04 453.12 L 653.04 453.12 Q 653.04 451.76 652.54 450.92 L 652.54 450.92 L 652.54 450.92 Q 652.04 450.08 651.16 450.08 L 651.16 450.08 L 651.16 450.08 Q 650.44 450.08 649.97 450.52 L 649.97 450.52 L 649.97 450.52 Q 649.5 450.96 649.5 451.62 L 649.5 451.62 L 649.5 455 L 647.18 455 L 647.18 446.56 L 642.94 446.56 L 642.94 455 L 640.62 455 L 640.62 449.56 L 640.62 449.56 Q 640.62 448.06 640.03 447.18 L 640.03 447.18 L 640.03 447.18 Q 639.44 446.3 638.22 446.3 L 638.22 446.3 L 638.22 446.3 Q 637.14 446.3 636.68 447 L 636.68 447 L 636.68 447 Q 636.22 447.7 636.22 448.96 L 636.22 448.96 L 636.22 455 L 625.76 455 L 625.76 444.74 L 628.08 444.64 L 628.08 453.18 L 633.9 453.18 L 633.9 448.86 L 633.9 448.86 Q 633.9 446.82 634.96 445.6 L 634.96 445.6 L 634.96 445.6 Q 636.02 444.38 638.1 444.38 L 638.1 444.38 L 638.1 444.38 Q 639.56 444.38 640.62 445.38 L 640.62 445.38 L 640.62 444.74 L 645.7 444.74 L 645.7 444.74 Q 644.8 443.62 644.8 442.1 L 644.8 442.1 L 644.8 442.1 Q 644.8 440.76 645.49 439.7 L 645.49 439.7 L 645.49 439.7 Q 646.18 438.64 647.45 438.04 L 647.45 438.04 L 647.45 438.04 Q 648.72 437.44 650.4 437.44 L 650.4 437.44 L 650.4 437.44 Q 651.76 437.44 652.9 437.95 L 652.9 437.95 L 652.9 437.95 Q 654.04 438.46 654.71 439.35 L 654.71 439.35 L 654.71 439.35 Q 655.38 440.24 655.38 441.34 L 655.38 441.34 L 655.38 441.34 Q 655.38 442.48 654.58 443.22 L 654.58 443.22 L 654.58 443.22 Q 653.78 443.96 652.56 443.96 L 652.56 443.96 L 652.56 443.96 Q 651.36 443.96 650.56 443.23 L 650.56 443.23 L 650.56 443.23 Q 649.76 442.5 649.76 441.4 L 649.76 441.4 L 649.76 441.4 Q 649.76 440.76 650.02 440.25 L 650.02 440.25 L 650.02 440.25 Q 650.28 439.74 650.74 439.38 L 650.74 439.38 L 650.4 439.38 L 650.4 439.38 Q 648.92 439.38 648.07 440.13 L 648.07 440.13 L 648.07 440.13 Q 647.22 440.88 647.22 442.1 L 647.22 442.1 L 647.22 442.1 Q 647.22 443.28 647.96 444.01 L 647.96 444.01 L 647.96 444.01 Q 648.7 444.74 649.84 444.74 L 649.84 444.74 L 652.76 444.74 L 653.12 446.56 L 649.5 446.56 L 649.5 448.56 L 649.5 448.56 Q 650.4 448.08 651.44 448.08 L 651.44 448.08 L 651.44 448.08 Z  M 652.56 442.42 L 652.56 442.42 Q 653 442.42 653.29 442.13 L 653.29 442.13 L 653.29 442.13 Q 653.58 441.84 653.58 441.4 L 653.58 441.4 L 653.58 441.4 Q 653.58 440.98 653.29 440.69 L 653.29 440.69 L 653.29 440.69 Q 653 440.4 652.56 440.4 L 652.56 440.4 L 652.56 440.4 Q 652.12 440.4 651.83 440.69 L 651.83 440.69 L 651.83 440.69 Q 651.54 440.98 651.54 441.4 L 651.54 441.4 L 651.54 441.4 Q 651.54 441.84 651.83 442.13 L 651.83 442.13 L 651.83 442.13 Q 652.12 442.42 652.56 442.42 L 652.56 442.42 L 652.56 442.42 Z " fill="rgb(255,255,255)"/></svg>