<?xml version="1.0" encoding="UTF-8" standalone="no"?><!-- Generator: Gravit.io --><svg xmlns="http://www.w3.org/2000/svg" xmlns:xlink="http://www.w3.org/1999/xlink" style="isolation:isolate" viewBox="717.3 426.44 140.38 23.28" width="140.38pt" height="23.28pt"><path d=" M 769.68 437.08 L 769.68 437.08 Q 770.88 437.08 771.8 437.73 L 771.8 437.73 L 771.8 437.73 Q 772.72 438.38 773.21 439.53 L 773.21 439.53 L 773.21 439.53 Q 773.7 440.68 773.7 442.12 L 773.7 442.12 L 773.7 442.12 Q 773.7 443.76 773.07 445.03 L 773.07 445.03 L 773.07 445.03 Q 772.44 446.3 771.25 447.02 L 771.25 447.02 L 771.25 447.02 Q 770.06 447.74 768.42 447.74 L 768.42 447.74 L 765.58 447.74 L 765.58 447.74 Q 762.86 447.74 762.08 448.86 L 762.08 448.86 L 760.2 447.68 L 760.2 447.68 Q 760.66 446.76 761.83 446.34 L 761.83 446.34 L 761.83 446.34 Q 763 445.92 765.3 445.92 L 765.3 445.92 L 768.42 445.92 L 768.42 445.92 Q 769.82 445.92 770.55 444.88 L 770.55 444.88 L 770.55 444.88 Q 771.28 443.84 771.28 442.12 L 771.28 442.12 L 771.28 442.12 Q 771.28 440.76 770.78 439.92 L 770.78 439.92 L 770.78 439.92 Q 770.28 439.08 769.4 439.08 L 769.4 439.08 L 769.4 439.08 Q 768.68 439.08 768.21 439.52 L 768.21 439.52 L 768.21 439.52 Q 767.74 439.96 767.74 440.62 L 767.74 440.62 L 767.74 444 L 765.42 444 L 765.42 435.56 L 762.52 435.56 L 762.52 444 L 760.2 444 L 760.2 433.74 L 771 433.74 L 771.36 435.58 L 767.74 435.58 L 767.74 437.58 L 767.74 437.58 Q 768.58 437.08 769.68 437.08 L 769.68 437.08 L 769.68 437.08 Z  M 788.68 435.58 L 785.06 435.58 L 785.06 443.66 L 785.06 443.66 Q 785.06 444.5 784.98 445.04 L 784.98 445.04 L 784.98 445.04 Q 784.9 445.58 784.61 446 L 784.61 446 L 784.61 446 Q 784.32 446.42 783.7 446.66 L 783.7 446.66 L 777.72 449 L 776.84 447.04 L 781.72 445.12 L 781.72 445.12 Q 782.18 444.94 782.4 444.67 L 782.4 444.67 L 782.4 444.67 Q 782.62 444.4 782.68 444.02 L 782.68 444.02 L 782.68 444.02 Q 782.74 443.64 782.74 442.9 L 782.74 442.9 L 782.74 435.56 L 778.52 435.56 L 778.52 444 L 776.2 444 L 776.2 433.74 L 788.32 433.74 L 788.68 435.58 L 788.68 435.58 Z  M 800.9 437.78 L 801.26 439.62 L 797.56 439.62 L 797.56 439.9 L 797.56 439.9 Q 797.56 441.18 796.94 442.2 L 796.94 442.2 L 796.94 442.2 Q 796.32 443.22 795.19 443.79 L 795.19 443.79 L 795.19 443.79 Q 794.06 444.36 792.54 444.36 L 792.54 444.36 L 792.54 444.36 Q 791.22 444.36 790.24 443.93 L 790.24 443.93 L 790.24 443.93 Q 789.26 443.5 788.73 442.75 L 788.73 442.75 L 788.73 442.75 Q 788.2 442 788.2 441.02 L 788.2 441.02 L 788.2 441.02 Q 788.2 440.02 788.79 439.24 L 788.79 439.24 L 788.79 439.24 Q 789.38 438.46 790.46 438.08 L 790.46 438.08 L 790.46 433.74 L 800.9 433.74 L 801.26 435.56 L 797.56 435.56 L 797.56 437.78 L 800.9 437.78 L 800.9 437.78 Z  M 795.22 437.78 L 795.22 435.56 L 792.78 435.56 L 792.78 437.78 L 795.22 437.78 L 795.22 437.78 Z  M 795.22 439.9 L 795.22 439.62 L 792.48 439.62 L 792.48 439.62 Q 791.6 439.62 791.11 440 L 791.11 440 L 791.11 440 Q 790.62 440.38 790.62 441.02 L 790.62 441.02 L 790.62 441.02 Q 790.62 441.66 791.13 442.05 L 791.13 442.05 L 791.13 442.05 Q 791.64 442.44 792.54 442.44 L 792.54 442.44 L 792.54 442.44 Q 793.82 442.44 794.52 441.74 L 794.52 441.74 L 794.52 441.74 Q 795.22 441.04 795.22 439.9 L 795.22 439.9 L 795.22 439.9 Z  M 799.1 428.06 L 799.1 428.06 Q 801.02 428.06 802.48 428.81 L 802.48 428.81 L 802.48 428.81 Q 803.94 429.56 804.73 430.9 L 804.73 430.9 L 804.73 430.9 Q 805.52 432.24 805.52 433.94 L 805.52 433.94 L 805.52 444 L 803.2 444 L 803.2 433.94 L 803.2 433.94 Q 803.2 432.14 802.1 431.06 L 802.1 431.06 L 802.1 431.06 Q 801 429.98 799.1 429.98 L 799.1 429.98 L 799.1 429.98 Q 797.74 429.98 796.99 430.49 L 796.99 430.49 L 796.99 430.49 Q 796.24 431 796.24 431.88 L 796.24 431.88 L 796.24 431.88 Q 796.24 432.74 796.66 433.24 L 796.66 433.24 L 796.66 433.24 Q 797.08 433.74 797.94 433.74 L 797.94 433.74 L 797.94 435.36 L 797.94 435.36 Q 796.1 435.36 795.03 434.39 L 795.03 434.39 L 795.03 434.39 Q 793.96 433.42 793.94 431.88 L 793.94 431.88 L 793.94 431.88 Q 793.94 430.78 794.57 429.91 L 794.57 429.91 L 794.57 429.91 Q 795.2 429.04 796.37 428.55 L 796.37 428.55 L 796.37 428.55 Q 797.54 428.06 799.1 428.06 L 799.1 428.06 L 799.1 428.06 Z  M 819.56 433.38 L 819.56 433.38 Q 821.04 433.38 822.16 434.13 L 822.16 434.13 L 822.16 434.13 Q 823.28 434.88 823.89 436.21 L 823.89 436.21 L 823.89 436.21 Q 824.5 437.54 824.5 439.22 L 824.5 439.22 L 824.5 439.22 Q 824.5 441.42 823.37 442.71 L 823.37 442.71 L 823.37 442.71 Q 822.24 444 819.98 444 L 819.98 444 L 809.2 444 L 809.2 433.74 L 811.52 433.64 L 811.52 442.18 L 815.24 442.18 L 815.24 438.16 L 815.24 438.16 Q 815.24 436.02 816.36 434.7 L 816.36 434.7 L 816.36 434.7 Q 817.48 433.38 819.56 433.38 L 819.56 433.38 L 819.56 433.38 Z  M 819.98 442.18 L 819.98 442.18 Q 821.22 442.18 821.65 441.44 L 821.65 441.44 L 821.65 441.44 Q 822.08 440.7 822.08 439.22 L 822.08 439.22 L 822.08 439.22 Q 822.08 437.48 821.4 436.39 L 821.4 436.39 L 821.4 436.39 Q 820.72 435.3 819.56 435.3 L 819.56 435.3 L 819.56 435.3 Q 817.56 435.3 817.56 438.32 L 817.56 438.32 L 817.56 442.18 L 819.98 442.18 L 819.98 442.18 Z  M 817.5 431.6 L 817.5 431.6 Q 818.12 431.6 818.52 431.2 L 818.52 431.2 L 818.52 431.2 Q 818.92 430.8 818.92 430.2 L 818.92 430.2 L 818.92 430.2 Q 818.92 429.58 818.52 429.18 L 818.52 429.18 L 818.52 429.18 Q 818.12 428.78 817.5 428.78 L 817.5 428.78 L 817.5 428.78 Q 816.9 428.78 816.51 429.18 L 816.51 429.18 L 816.51 429.18 Q 816.12 429.58 816.12 430.2 L 816.12 430.2 L 816.12 430.2 Q 816.12 430.8 816.51 431.2 L 816.51 431.2 L 816.51 431.2 Q 816.9 431.6 817.5 431.6 L 817.5 431.6 L 817.5 431.6 Z  M 837.56 433.38 L 837.56 433.38 Q 839.04 433.38 840.16 434.13 L 840.16 434.13 L 840.16 434.13 Q 841.28 434.88 841.89 436.21 L 841.89 436.21 L 841.89 436.21 Q 842.5 437.54 842.5 439.22 L 842.5 439.22 L 842.5 439.22 Q 842.5 441.42 841.37 442.71 L 841.37 442.71 L 841.37 442.71 Q 840.24 444 837.98 444 L 837.98 444 L 827.2 444 L 827.2 433.74 L 829.52 433.64 L 829.52 442.18 L 833.24 442.18 L 833.24 438.16 L 833.24 438.16 Q 833.24 436.02 834.36 434.7 L 834.36 434.7 L 834.36 434.7 Q 835.48 433.38 837.56 433.38 L 837.56 433.38 L 837.56 433.38 Z  M 837.98 442.18 L 837.98 442.18 Q 839.22 442.18 839.65 441.44 L 839.65 441.44 L 839.65 441.44 Q 840.08 440.7 840.08 439.22 L 840.08 439.22 L 840.08 439.22 Q 840.08 437.48 839.4 436.39 L 839.4 436.39 L 839.4 436.39 Q 838.72 435.3 837.56 435.3 L 837.56 435.3 L 837.56 435.3 Q 835.56 435.3 835.56 438.32 L 835.56 438.32 L 835.56 442.18 L 837.98 442.18 L 837.98 442.18 Z  M 857.68 435.58 L 854.06 435.58 L 854.06 443.66 L 854.06 443.66 Q 854.06 444.5 853.98 445.04 L 853.98 445.04 L 853.98 445.04 Q 853.9 445.58 853.61 446 L 853.61 446 L 853.61 446 Q 853.32 446.42 852.7 446.66 L 852.7 446.66 L 846.72 449 L 845.84 447.04 L 850.72 445.12 L 850.72 445.12 Q 851.18 444.94 851.4 444.67 L 851.4 444.67 L 851.4 444.67 Q 851.62 444.4 851.68 444.02 L 851.68 444.02 L 851.68 444.02 Q 851.74 443.64 851.74 442.9 L 851.74 442.9 L 851.74 435.56 L 847.52 435.56 L 847.52 444 L 845.2 444 L 845.2 433.74 L 857.32 433.74 L 857.68 435.58 L 857.68 435.58 Z  M 850.5 431.6 L 850.5 431.6 Q 851.12 431.6 851.52 431.2 L 851.52 431.2 L 851.52 431.2 Q 851.92 430.8 851.92 430.2 L 851.92 430.2 L 851.92 430.2 Q 851.92 429.58 851.52 429.18 L 851.52 429.18 L 851.52 429.18 Q 851.12 428.78 850.5 428.78 L 850.5 428.78 L 850.5 428.78 Q 849.9 428.78 849.51 429.18 L 849.51 429.18 L 849.51 429.18 Q 849.12 429.58 849.12 430.2 L 849.12 430.2 L 849.12 430.2 Q 849.12 430.8 849.51 431.2 L 849.51 431.2 L 849.51 431.2 Q 849.9 431.6 850.5 431.6 L 850.5 431.6 L 850.5 431.6 Z  M 749.44 437.08 L 749.44 437.08 Q 750.64 437.08 751.56 437.73 L 751.56 437.73 L 751.56 437.73 Q 752.48 438.38 752.98 439.53 L 752.98 439.53 L 752.98 439.53 Q 753.48 440.68 753.48 442.12 L 753.48 442.12 L 753.48 442.12 Q 753.48 444.44 752.19 446.15 L 752.19 446.15 L 752.19 446.15 Q 750.9 447.86 748.52 448.79 L 748.52 448.79 L 748.52 448.79 Q 746.14 449.72 742.92 449.72 L 742.92 449.72 L 727.78 449.72 L 727.78 449.72 Q 724.68 449.72 722.3 448.59 L 722.3 448.59 L 722.3 448.59 Q 719.92 447.46 718.61 445.39 L 718.61 445.39 L 718.61 445.39 Q 717.3 443.32 717.3 440.6 L 717.3 440.6 L 717.3 440.6 Q 717.3 438.7 718.12 436.7 L 718.12 436.7 L 718.12 436.7 Q 718.94 434.7 720.2 433.54 L 720.2 433.54 L 722.58 433.74 L 722.58 433.74 Q 721.34 434.78 720.53 436.71 L 720.53 436.71 L 720.53 436.71 Q 719.72 438.64 719.72 440.64 L 719.72 440.64 L 719.72 440.64 Q 719.72 442.78 720.72 444.41 L 720.72 444.41 L 720.72 444.41 Q 721.72 446.04 723.54 446.95 L 723.54 446.95 L 723.54 446.95 Q 725.36 447.86 727.78 447.88 L 727.78 447.88 L 742.92 447.88 L 742.92 447.88 Q 745.42 447.88 747.26 447.17 L 747.26 447.17 L 747.26 447.17 Q 749.1 446.46 750.07 445.16 L 750.07 445.16 L 750.07 445.16 Q 751.04 443.86 751.04 442.12 L 751.04 442.12 L 751.04 442.12 Q 751.04 440.76 750.54 439.92 L 750.54 439.92 L 750.54 439.92 Q 750.04 439.08 749.16 439.08 L 749.16 439.08 L 749.16 439.08 Q 748.44 439.08 747.97 439.52 L 747.97 439.52 L 747.97 439.52 Q 747.5 439.96 747.5 440.62 L 747.5 440.62 L 747.5 444 L 745.18 444 L 745.18 435.56 L 740.94 435.56 L 740.94 444 L 738.62 444 L 738.62 438.56 L 738.62 438.56 Q 738.62 437.06 738.03 436.18 L 738.03 436.18 L 738.03 436.18 Q 737.44 435.3 736.22 435.3 L 736.22 435.3 L 736.22 435.3 Q 735.14 435.3 734.68 436 L 734.68 436 L 734.68 436 Q 734.22 436.7 734.22 437.96 L 734.22 437.96 L 734.22 444 L 723.76 444 L 723.76 433.74 L 726.08 433.64 L 726.08 442.18 L 731.9 442.18 L 731.9 437.86 L 731.9 437.86 Q 731.9 435.82 732.96 434.6 L 732.96 434.6 L 732.96 434.6 Q 734.02 433.38 736.1 433.38 L 736.1 433.38 L 736.1 433.38 Q 737.56 433.38 738.62 434.38 L 738.62 434.38 L 738.62 433.74 L 743.7 433.74 L 743.7 433.74 Q 742.8 432.62 742.8 431.1 L 742.8 431.1 L 742.8 431.1 Q 742.8 429.76 743.49 428.7 L 743.49 428.7 L 743.49 428.7 Q 744.18 427.64 745.45 427.04 L 745.45 427.04 L 745.45 427.04 Q 746.72 426.44 748.4 426.44 L 748.4 426.44 L 748.4 426.44 Q 749.76 426.44 750.9 426.95 L 750.9 426.95 L 750.9 426.95 Q 752.04 427.46 752.71 428.35 L 752.71 428.35 L 752.71 428.35 Q 753.38 429.24 753.38 430.34 L 753.38 430.34 L 753.38 430.34 Q 753.38 431.48 752.58 432.22 L 752.58 432.22 L 752.58 432.22 Q 751.78 432.96 750.56 432.96 L 750.56 432.96 L 750.56 432.96 Q 749.36 432.96 748.56 432.23 L 748.56 432.23 L 748.56 432.23 Q 747.76 431.5 747.76 430.4 L 747.76 430.4 L 747.76 430.4 Q 747.76 429.76 748.02 429.25 L 748.02 429.25 L 748.02 429.25 Q 748.28 428.74 748.74 428.38 L 748.74 428.38 L 748.4 428.38 L 748.4 428.38 Q 746.92 428.38 746.07 429.13 L 746.07 429.13 L 746.07 429.13 Q 745.22 429.88 745.22 431.1 L 745.22 431.1 L 745.22 431.1 Q 745.22 432.28 745.96 433.01 L 745.96 433.01 L 745.96 433.01 Q 746.7 433.74 747.84 433.74 L 747.84 433.74 L 750.76 433.74 L 751.12 435.56 L 747.5 435.56 L 747.5 437.56 L 747.5 437.56 Q 748.4 437.08 749.44 437.08 L 749.44 437.08 L 749.44 437.08 Z  M 750.56 431.42 L 750.56 431.42 Q 751 431.42 751.29 431.13 L 751.29 431.13 L 751.29 431.13 Q 751.58 430.84 751.58 430.4 L 751.58 430.4 L 751.58 430.4 Q 751.58 429.98 751.29 429.69 L 751.29 429.69 L 751.29 429.69 Q 751 429.4 750.56 429.4 L 750.56 429.4 L 750.56 429.4 Q 750.12 429.4 749.83 429.69 L 749.83 429.69 L 749.83 429.69 Q 749.54 429.98 749.54 430.4 L 749.54 430.4 L 749.54 430.4 Q 749.54 430.84 749.83 431.13 L 749.83 431.13 L 749.83 431.13 Q 750.12 431.42 750.56 431.42 L 750.56 431.42 L 750.56 431.42 Z " fill="rgb(255,255,255)"/></svg>