<?xml version="1.0" encoding="UTF-8" standalone="no"?><!-- Generator: Gravit.io --><svg xmlns="http://www.w3.org/2000/svg" xmlns:xlink="http://www.w3.org/1999/xlink" style="isolation:isolate" viewBox="190.735 20.157 112.265 143.076" width="112.265pt" height="143.076pt"><g><path d=" M 261.077 162.108 C 259.944 160.744 261.25 158.733 263.268 158.733 C 264.982 158.733 266.331 157.252 266.307 155.395 C 266.27 152.42 256.869 147.44 255.493 149.666 C 255.243 150.07 254.216 150.028 252.984 149.563 C 250.363 148.573 246.667 149.657 234.778 154.903 C 222.298 160.409 216.839 161.66 206.327 161.424 C 194.956 161.167 191.742 159.622 190.825 153.973 C 190.192 150.072 192.89 145.185 199.494 138.273 C 209.17 128.145 220.871 121.438 234.022 118.482 C 240.82 116.954 240.934 116.821 240.934 110.336 C 240.934 106.432 238.73 100.983 237.15 100.983 C 236.846 100.983 235.167 102.206 233.42 103.701 C 229.564 107.002 227.241 107.144 224.211 104.264 C 218.963 99.275 217.217 93.89 216.465 80.369 C 216.077 73.391 215.763 71.871 214.418 70.439 C 212.895 68.818 212.884 68.688 214.154 67.284 C 215.212 66.116 215.391 65.018 215.04 61.839 L 214.6 57.858 L 215.82 61.834 C 216.702 64.707 217.34 65.696 218.12 65.397 C 218.713 65.169 220.346 64.983 221.748 64.983 C 223.979 64.983 224.492 64.597 225.877 61.884 C 227.003 59.677 227.385 57.754 227.205 55.204 C 227.065 53.235 227.205 51.781 227.514 51.972 C 228.565 52.624 228.082 59.796 226.825 62.207 C 226.137 63.527 225.462 66.574 225.327 68.978 C 225.122 72.612 225.411 73.911 227.044 76.697 C 228.124 78.54 229.379 79.923 229.834 79.772 C 230.859 79.43 231.653 76.703 231.752 73.183 C 231.794 71.672 233.131 67.942 234.826 64.608 C 239.086 56.228 238.921 50.708 234.367 49.205 C 231.518 48.264 230.703 47.127 229.931 43.01 C 229.49 40.661 229.736 39.707 231.407 37.297 C 232.69 35.445 234.194 34.247 235.583 33.969 C 237.732 33.539 246.244 26.511 246.675 24.811 C 246.915 23.864 251.179 21.864 254.444 21.165 C 255.54 20.931 256.975 20.533 257.632 20.281 C 258.492 19.951 258.826 20.266 258.826 21.402 C 258.826 23.087 260.004 23.576 260.497 22.097 C 260.711 21.455 261.811 21.588 264.497 22.582 C 266.534 23.336 269.86 23.987 271.886 24.03 C 276.832 24.134 277.025 24.876 273.787 31.334 C 273.448 32.008 273.358 33.273 273.586 34.145 C 274.07 35.995 272.03 39.483 270.463 39.483 C 269.849 39.483 269.054 40.709 268.617 42.331 C 268.195 43.897 266.832 46.154 265.588 47.346 C 264.164 48.711 263.326 50.264 263.326 51.543 C 263.326 52.659 262.82 53.766 262.201 54.004 C 261.059 54.442 260.662 56.818 261.578 57.734 C 261.854 58.01 262.698 57.677 263.453 56.993 C 265.03 55.566 265.236 56.096 263.922 58.201 C 263.192 59.37 263.242 59.91 264.183 61.003 C 266.122 63.257 266.435 65.08 265.205 66.958 C 264.304 68.332 264.129 70.174 264.411 75.29 C 264.61 78.902 264.981 87.258 265.236 93.858 C 265.556 102.115 266.149 107.49 267.138 111.093 C 267.929 113.972 268.576 117.312 268.576 118.515 C 268.576 121.079 272.843 126.685 276.06 128.349 C 279.669 130.216 284.562 131.004 287.5 130.192 C 290.969 129.235 295.249 124.478 296.369 120.338 C 298.612 112.05 296.02 105.182 281.567 81.108 C 270.504 62.68 269.701 60.701 269.701 51.858 C 269.701 41.874 272.619 37.233 278.896 37.233 C 281.444 37.233 282.733 38.129 285.789 42.023 C 288.719 45.757 288.841 50.091 286.201 56.588 C 285.17 59.126 284.326 62.618 284.326 64.348 L 284.326 67.494 L 282.38 65.676 C 277.85 61.444 276.969 54.887 280.221 49.608 C 282.694 45.593 282.675 42.307 280.173 40.967 C 278.428 40.034 278.1 40.118 276.235 41.983 C 274.317 43.901 274.201 44.411 274.201 50.937 C 274.201 59.617 274.863 61.108 287.261 80.358 C 292.308 88.195 297.829 97.414 299.529 100.843 C 302.301 106.437 302.652 107.769 302.94 113.798 C 303.455 124.569 300.664 131.121 293.92 134.969 C 286.97 138.936 278.997 138.404 271.828 133.496 C 269.206 131.701 266.929 130.233 266.767 130.233 C 266.606 130.233 266.097 131.312 265.637 132.632 C 264.885 134.788 264.985 135.186 266.631 136.569 C 267.834 137.581 268.639 139.264 268.982 141.483 C 269.268 143.339 270.502 147.051 271.723 149.733 C 274.433 155.685 274.586 158.952 272.271 161.417 C 270.853 162.926 269.843 163.233 266.287 163.233 C 263.4 163.233 261.707 162.867 261.076 162.108 L 261.077 162.108 Z  M 272.021 159.856 C 273.466 157.651 273.269 156.473 270.197 148.983 C 268.928 145.889 267.688 142.074 267.442 140.506 C 266.834 136.637 265.374 136.327 261.949 139.338 C 260.373 140.724 258.537 142.195 257.869 142.608 C 255.928 143.807 257.035 147.234 259.66 148.149 C 262.2 149.035 270.232 155.387 269.916 156.262 C 269.798 156.589 269.303 156.862 268.817 156.867 C 267.29 156.884 266.752 157.982 268.264 157.994 C 269.055 158 270.148 158.289 270.694 158.635 C 271.496 159.144 271.45 159.502 270.453 160.499 C 269.775 161.177 269.573 161.733 270.006 161.733 C 270.438 161.733 271.345 160.888 272.022 159.856 L 272.021 159.856 Z  M 219.779 159.01 C 222.486 158.337 229.319 155.818 234.963 153.411 C 240.607 151.004 247.019 148.58 249.212 148.025 C 251.974 147.325 253.28 146.596 253.461 145.651 C 253.69 144.465 253.371 144.354 251.004 144.798 C 245.538 145.824 231.234 147.377 222.827 147.857 C 213.456 148.393 210.088 149.144 206.846 151.419 C 204.748 152.891 203.475 152.813 204.427 151.272 C 205.195 150.03 210.214 147.66 213.111 147.17 C 214.536 146.93 220.595 146.386 226.577 145.962 C 232.558 145.537 238.707 144.99 240.241 144.744 L 243.03 144.298 L 235.741 136.429 C 227.356 127.376 222.819 123.884 220.274 124.522 C 219.336 124.758 216.067 126.584 213.01 128.581 C 201.557 136.061 192.051 146.994 192.1 152.631 C 192.15 158.289 195.84 160.161 207.029 160.203 C 211.848 160.22 216.747 159.763 219.779 159.01 L 219.779 159.01 Z  M 248.206 142.438 C 249.09 143.168 249.388 143.158 249.646 142.389 C 249.877 141.705 250.247 141.648 250.907 142.196 C 251.562 142.74 252.942 142.596 255.522 141.715 L 259.202 140.458 L 255.084 139.411 C 251.445 138.487 250.095 137.517 243.454 131.056 C 235.948 123.753 230.49 120.434 227.73 121.493 C 225.792 122.237 226.443 124.084 228.827 124.608 C 230.374 124.948 231.077 125.552 231.077 126.542 C 231.077 127.483 231.597 127.983 232.577 127.983 C 233.677 127.983 234.077 128.483 234.077 129.858 C 234.077 131.362 234.451 131.733 235.966 131.733 C 237.628 131.733 237.796 131.968 237.364 133.691 C 236.918 135.465 237.033 135.598 238.584 135.105 C 240.082 134.63 240.242 134.771 239.86 136.23 C 239.536 137.467 239.799 137.997 240.875 138.278 C 241.673 138.487 242.327 139.293 242.327 140.07 C 242.327 140.983 242.858 141.483 243.827 141.483 C 244.652 141.483 245.327 141.888 245.327 142.383 C 245.327 143.073 245.532 143.077 246.209 142.4 C 246.885 141.724 247.351 141.732 248.206 142.437 L 248.206 142.438 Z  M 262.067 137.042 C 262.646 136.463 262.117 136.233 260.206 136.233 C 257.354 136.233 253.57 134.077 249.077 129.892 C 244.27 125.416 234.113 119.345 232.391 119.919 C 231.939 120.07 233.398 121.228 235.635 122.493 C 237.99 123.824 241.737 127.085 244.537 130.241 C 250.053 136.455 253.961 138.703 258.355 138.19 C 259.952 138.004 261.622 137.487 262.067 137.042 Z  M 290.913 135.07 C 294.431 133.602 298.235 129.982 300.33 126.108 C 301.671 123.627 301.952 121.863 301.952 115.912 C 301.952 108.832 301.894 108.602 298.416 101.662 C 296.471 97.782 292.729 91.233 290.1 87.108 C 287.47 82.983 283.195 76.266 280.599 72.181 C 274.194 62.105 272.327 57.305 272.327 50.923 C 272.327 45.011 273.971 41.165 277.172 39.59 C 279.025 38.678 279.464 38.737 281.388 40.159 C 282.765 41.178 283.389 41.366 283.127 40.683 C 282.461 38.949 278.873 37.812 276.688 38.643 C 269.646 41.32 268.414 54.489 274.154 65.732 C 275.523 68.414 280.089 76.329 284.301 83.322 C 292.999 97.764 295.557 102.645 297.442 108.399 C 301.173 119.787 294.414 131.748 284.261 131.725 C 279.967 131.717 274.082 128.951 271.081 125.533 C 268.84 122.981 268.7 122.928 268.284 124.477 C 267.336 128.014 267.825 129.227 271.167 131.627 C 273.004 132.946 275.619 134.509 276.979 135.1 C 280.269 136.529 287.451 136.514 290.913 135.07 L 290.913 135.07 Z  M 265.075 130.608 C 265.852 128.545 266.654 124.992 266.858 122.713 C 267.272 118.078 266.855 117.625 260.702 116.022 C 257.105 115.086 244.577 114.967 244.577 115.869 C 244.577 116.526 251.449 118.983 253.288 118.983 C 253.859 118.983 254.327 119.32 254.327 119.733 C 254.327 120.825 251.241 120.651 247.554 119.35 C 243.965 118.084 242.544 118.43 245.605 119.825 C 246.689 120.319 247.577 121.007 247.577 121.353 C 247.577 122.503 245.569 122.005 242.9 120.194 C 241.152 119.008 239.605 118.531 238.31 118.779 C 236.48 119.128 236.645 119.339 240.905 122.092 C 243.407 123.709 248.157 127.233 251.462 129.922 C 256.966 134.403 257.728 134.793 260.566 134.585 C 263.532 134.368 263.723 134.199 265.075 130.608 L 265.075 130.608 Z  M 266.671 113.461 C 266.395 111.99 265.69 110.388 265.103 109.901 C 263.708 108.743 253.097 108.803 247.014 110.003 C 243.028 110.789 242.327 111.166 242.329 112.518 C 242.33 114.049 242.671 114.109 251.516 114.149 C 257.781 114.178 261.655 114.55 263.702 115.321 C 265.352 115.943 266.808 116.38 266.937 116.293 C 267.067 116.207 266.949 114.932 266.672 113.461 L 266.671 113.461 Z  M 257.514 108.108 C 262.463 108.108 264.827 107.833 264.827 107.258 C 264.827 106.076 262.236 105.502 256.952 105.511 C 252.978 105.52 250.852 105.825 244.014 107.378 C 243.086 107.589 242.327 108.124 242.327 108.567 C 242.327 109.12 243.564 109.175 246.264 108.741 C 248.43 108.393 253.492 108.108 257.514 108.108 L 257.514 108.108 Z  M 250.947 104.669 C 253.831 104.197 257.966 103.994 260.134 104.217 L 264.077 104.624 L 264.077 92.34 C 264.077 78.183 263.27 73.109 260.756 71.462 C 259.811 70.843 258.446 69.745 257.724 69.023 C 256.531 67.83 256.52 67.629 257.603 66.837 C 258.669 66.058 258.618 65.812 257.123 64.523 C 252.557 60.584 250.433 59.56 247.739 59.997 C 244.086 60.59 239.693 65.041 237.819 70.049 C 236.996 72.251 235.665 75.34 234.862 76.913 L 233.402 79.775 L 235.427 81.677 C 238.033 84.126 242.375 86.726 243.863 86.73 C 244.512 86.732 245.445 85.572 245.974 84.107 C 247.176 80.785 250.343 76.983 251.909 76.983 C 252.829 76.983 252.66 77.461 251.177 79.045 C 248.836 81.547 246.827 85.388 246.827 87.36 C 246.827 89.336 245.394 91.853 242.497 94.967 C 239.274 98.43 239.024 99.52 240.611 103.21 C 241.775 105.918 242.198 106.276 243.827 105.928 C 244.858 105.708 248.062 105.142 250.947 104.669 L 250.947 104.669 Z  M 233.131 102.187 C 236.899 99.313 240.827 95.086 240.827 93.903 C 240.827 93.689 239.392 92.793 237.639 91.912 C 235.886 91.032 233.377 89.506 232.064 88.522 C 230.751 87.538 229.529 86.733 229.349 86.733 C 229.169 86.733 228.594 88.26 228.071 90.127 C 227.548 91.994 226.83 93.701 226.474 93.921 C 225.64 94.436 225.694 93.54 226.9 86.796 C 227.887 81.277 227.878 81.198 225.736 76.67 C 224.549 74.161 223.577 71.517 223.577 70.795 C 223.577 69.774 222.939 69.483 220.702 69.483 C 219.12 69.483 217.674 69.635 217.487 69.822 C 217.301 70.008 217.529 75.324 217.993 81.634 C 218.612 90.035 219.239 94.012 220.334 96.485 C 221.901 100.028 226.531 105.483 227.969 105.483 C 228.432 105.483 230.754 104 233.131 102.187 L 233.131 102.187 Z  M 243.414 91.35 C 243.022 91.002 240.7 89.925 238.253 88.957 C 235.806 87.99 232.6 86.181 231.128 84.937 L 228.452 82.675 L 230.702 85.149 C 233.131 87.82 240.289 91.888 242.664 91.947 C 243.52 91.967 243.831 91.72 243.414 91.35 Z  M 244.863 89.126 C 245.069 88.793 243.793 88.134 242.027 87.661 C 240.082 87.141 237.291 85.431 234.947 83.323 C 231.662 80.37 231.077 80.078 231.077 81.391 C 231.077 83.26 234.262 85.729 239.543 87.955 C 244.093 89.872 244.365 89.932 244.863 89.126 Z  M 235.188 71.767 C 236.284 68.899 237.896 65.643 238.769 64.533 L 240.357 62.514 L 238.355 63.826 C 235.571 65.651 233.602 69.219 233.063 73.42 C 232.811 75.38 232.738 76.983 232.9 76.983 C 233.063 76.983 234.092 74.636 235.188 71.767 L 235.188 71.767 Z  M 220.877 67.983 C 224.306 67.983 225.168 67.774 224.501 67.108 C 223.262 65.868 215.182 67.212 214.726 68.733 C 214.454 69.641 214.581 69.677 215.383 68.92 C 215.95 68.385 218.307 67.983 220.877 67.983 L 220.877 67.983 Z  M 248.378 56.212 C 250.953 55.907 252.077 55.435 252.077 54.66 C 252.077 53.829 251.521 53.656 249.894 53.982 C 248.334 54.294 247.587 54.091 247.272 53.271 C 246.478 51.201 248.17 49.337 251.065 49.09 C 254.499 48.798 255.996 46.83 254.171 45.006 C 253.013 43.848 252.775 43.844 251.07 44.962 C 250.054 45.627 248.425 47.62 247.45 49.39 C 246.294 51.488 244.638 53.13 242.69 54.108 C 241.046 54.933 239.665 55.608 239.62 55.608 C 239.574 55.608 239.312 56.548 239.036 57.696 L 238.535 59.785 L 241.607 58.217 C 243.297 57.355 246.344 56.453 248.378 56.212 L 248.378 56.212 Z  M 250.577 47.733 C 249.982 47.365 249.744 46.815 250.048 46.511 C 250.353 46.207 250.995 46.351 251.477 46.833 C 252.61 47.966 251.977 48.598 250.577 47.733 L 250.577 47.733 Z  M 253.148 46.233 C 253.148 45.261 253.402 45.008 253.887 45.493 C 254.373 45.979 254.373 46.486 253.887 46.972 C 253.402 47.458 253.148 47.204 253.148 46.233 L 253.148 46.233 Z  M 242.881 49.045 C 243.287 48.53 243.832 47.217 244.092 46.128 C 244.388 44.885 245.036 44.187 245.831 44.252 C 247.092 44.357 247.909 43.166 250.263 37.798 C 251.685 34.554 251.272 31.055 249.14 28.282 C 247.781 26.514 247.674 26.496 245.792 27.73 C 243.852 29.001 243.851 29.007 245.337 30.493 C 246.156 31.312 246.813 32.742 246.797 33.67 C 246.768 35.261 246.702 35.239 245.648 33.295 C 245.032 32.161 243.949 31.25 243.24 31.272 C 242.179 31.304 242.25 31.52 243.639 32.489 C 244.567 33.136 245.304 34.384 245.276 35.262 L 245.225 36.858 L 244.431 35.214 C 243.316 32.908 241.577 32.38 241.577 34.348 C 241.577 35.647 241.386 35.758 240.467 34.996 C 238.064 33.001 231.156 37.742 231.1 41.425 C 231.072 43.319 233.819 44.733 237.531 44.733 C 239.277 44.733 239.991 45.015 239.648 45.569 C 239.332 46.081 237.726 46.27 235.504 46.056 C 231.26 45.649 231.382 46.509 235.85 48.497 C 239.548 50.142 241.875 50.323 242.881 49.045 L 242.881 49.045 Z  M 235.577 36.483 C 235.577 36.07 235.934 35.733 236.371 35.733 C 236.808 35.733 236.956 36.07 236.702 36.483 C 236.447 36.895 236.089 37.233 235.907 37.233 C 235.725 37.233 235.577 36.895 235.577 36.483 Z  M 260.784 46.392 C 260.19 45.243 259.156 41.615 258.487 38.33 C 256.816 30.12 256.717 29.875 254.851 29.313 C 253.944 29.04 252.105 27.776 250.764 26.503 C 247.893 23.777 247.484 24.392 250.215 27.328 C 252.056 29.308 253.564 33.201 253.572 35.999 C 253.578 37.83 257.018 44.657 259.013 46.795 C 261.181 49.118 262.087 48.912 260.784 46.392 L 260.784 46.392 Z  M 266.139 44.752 C 269.426 39.9 267.766 31.978 262.39 26.867 L 259.77 24.376 L 257.703 26.291 C 255.995 27.874 255.841 28.286 256.82 28.661 C 258.136 29.166 259.206 32.138 259.906 37.233 C 260.594 42.245 262.598 47.85 263.587 47.526 C 264.063 47.37 265.211 46.121 266.139 44.752 Z  M 269.339 32.007 C 267.591 28.582 262.822 22.983 261.652 22.983 C 261.239 22.983 262.133 24.345 263.638 26.011 C 266.066 28.699 268.053 32.205 269.783 36.858 C 270.323 38.312 270.349 38.308 270.628 36.728 C 270.786 35.831 270.206 33.707 269.339 32.007 L 269.339 32.007 Z  M 269.798 28.418 C 269.21 27.283 267.975 25.68 267.052 24.856 C 265.894 23.822 266.148 24.463 267.869 26.92 C 270.681 30.934 271.378 31.475 269.798 28.418 Z  M 273.077 29.036 C 273.077 27.562 270.941 24.868 270.289 25.52 C 269.962 25.847 272.367 30.483 272.863 30.483 C 272.981 30.483 273.076 29.832 273.076 29.036 L 273.077 29.036 Z  M 257.327 24.343 C 257.327 23.948 256.796 24.156 256.148 24.804 C 255.5 25.452 254.656 25.983 254.273 25.983 C 253.89 25.983 253.577 26.328 253.577 26.75 C 253.577 27.172 254.42 26.964 255.452 26.289 C 256.483 25.613 257.327 24.737 257.327 24.343 L 257.327 24.343 Z  M 275.327 26.108 C 275.327 25.131 274.435 24.482 273.71 24.93 C 272.934 25.409 273.603 26.733 274.621 26.733 C 275.009 26.733 275.327 26.452 275.327 26.108 L 275.327 26.108 Z  M 253.577 24.945 C 253.577 24.787 252.901 24.481 252.076 24.265 C 251.25 24.049 250.764 24.179 250.995 24.553 C 251.398 25.206 253.577 25.537 253.577 24.945 L 253.577 24.945 Z  M 214.712 48.295 C 214.586 42.895 214.686 42.483 216.111 42.483 C 217.456 42.483 217.624 42.9 217.471 45.858 C 217.25 50.137 216.121 50.275 215.941 46.045 C 215.851 43.92 215.646 44.733 215.327 48.483 L 214.847 54.108 L 214.712 48.295 Z  M 223.629 53.214 C 223.658 52.881 223.972 51.933 224.327 51.108 C 224.948 49.662 224.973 49.667 225.024 51.251 C 225.053 52.155 224.739 53.103 224.327 53.358 C 223.914 53.612 223.6 53.548 223.629 53.214 L 223.629 53.214 Z  M 220.651 48.295 C 220.692 47.78 220.996 46.514 221.327 45.483 C 221.862 43.809 221.935 43.91 222.002 46.42 C 222.043 47.967 221.739 49.233 221.327 49.233 C 220.914 49.233 220.61 48.811 220.651 48.295 Z  M 218.379 43.277 C 218.331 38.863 218.232 38.572 217.225 39.902 C 216.62 40.703 216.119 41.02 216.112 40.608 C 216.086 39.143 217.231 38.338 219.452 38.256 C 220.689 38.21 221.28 38.327 220.764 38.515 C 220.232 38.71 219.804 40.208 219.774 41.983 C 219.681 47.517 218.438 48.67 218.379 43.277 L 218.379 43.277 Z  M 223.723 45.108 C 223.737 43.87 223.906 43.455 224.096 44.184 C 224.286 44.914 224.274 45.927 224.068 46.434 C 223.862 46.942 223.707 46.345 223.722 45.108 L 223.723 45.108 Z  M 221.125 41.043 C 220.799 39.795 220.896 39.503 221.453 40.059 C 221.889 40.495 222.098 41.294 221.917 41.835 C 221.73 42.397 221.39 42.057 221.125 41.043 Z  M 222.452 39.483 C 222.197 39.07 222.325 38.733 222.738 38.733 C 223.151 38.733 223.697 39.07 223.952 39.483 C 224.206 39.895 224.078 40.233 223.665 40.233 C 223.253 40.233 222.706 39.895 222.452 39.483 Z " fill="rgb(255,255,255)"/></g></svg>