<?xml version="1.0" encoding="UTF-8" standalone="no"?><!-- Generator: Gravit.io --><svg xmlns="http://www.w3.org/2000/svg" xmlns:xlink="http://www.w3.org/1999/xlink" style="isolation:isolate" viewBox="489.5 263.462 119.862 33" width="119.862pt" height="33pt"><path d=" M 532.647 287.476 L 532.647 287.476 Q 530.704 287.476 529.878 286.294 L 529.878 286.294 L 529.878 286.294 Q 529.052 285.112 529.052 282.942 L 529.052 282.942 L 529.052 278.537 L 529.052 278.537 Q 529.052 276.318 529.951 275.152 L 529.951 275.152 L 529.951 275.152 Q 530.849 273.986 532.987 273.986 L 532.987 273.986 L 532.987 273.986 Q 535.044 273.986 535.934 274.99 L 535.934 274.99 L 535.934 274.99 Q 536.825 275.994 536.825 277.824 L 536.825 277.824 L 536.825 278.666 L 533.991 278.666 L 533.991 277.597 L 533.991 277.597 Q 533.991 276.82 533.813 276.423 L 533.813 276.423 L 533.813 276.423 Q 533.635 276.027 533.019 276.027 L 533.019 276.027 L 533.019 276.027 Q 532.388 276.027 532.202 276.464 L 532.202 276.464 L 532.202 276.464 Q 532.015 276.901 532.015 277.678 L 532.015 277.678 L 532.015 283.751 L 532.015 283.751 Q 532.015 284.529 532.25 284.974 L 532.25 284.974 L 532.25 284.974 Q 532.485 285.419 533.1 285.419 L 533.1 285.419 L 533.1 285.419 Q 534.234 285.419 534.234 283.719 L 534.234 283.719 L 534.234 282.18 L 533.052 282.18 L 533.052 280.48 L 536.841 280.48 L 536.841 287.282 L 534.93 287.282 L 534.768 286.197 L 534.768 286.197 Q 534.153 287.476 532.647 287.476 L 532.647 287.476 L 532.647 287.476 Z  M 539.823 287.282 L 542.3 274.164 L 545.604 274.164 L 548.049 287.282 L 545.377 287.282 L 544.94 284.512 L 543.013 284.512 L 542.56 287.282 L 539.823 287.282 L 539.823 287.282 Z  M 543.272 282.78 L 544.665 282.78 L 543.969 277.662 L 543.272 282.78 L 543.272 282.78 Z  M 551.177 287.282 L 551.177 274.164 L 553.217 274.164 L 555.906 280.48 L 555.906 274.164 L 558.302 274.164 L 558.302 287.282 L 556.343 287.282 L 553.655 280.48 L 553.655 287.282 L 551.177 287.282 L 551.177 287.282 Z  M 562.061 287.282 L 562.061 274.164 L 567.956 274.164 L 567.956 276.14 L 564.96 276.14 L 564.96 279.395 L 567.243 279.395 L 567.243 281.403 L 564.96 281.403 L 564.96 285.322 L 567.988 285.322 L 567.988 287.282 L 562.061 287.282 L 562.061 287.282 Z  M 574.581 287.476 L 574.581 287.476 Q 572.703 287.476 571.788 286.48 L 571.788 286.48 L 571.788 286.48 Q 570.873 285.484 570.808 283.314 L 570.808 283.314 L 573.286 282.942 L 573.286 282.942 Q 573.302 284.189 573.585 284.731 L 573.585 284.731 L 573.585 284.731 Q 573.869 285.274 574.435 285.274 L 574.435 285.274 L 574.435 285.274 Q 575.164 285.274 575.164 284.318 L 575.164 284.318 L 575.164 284.318 Q 575.164 283.557 574.816 283.006 L 574.816 283.006 L 574.816 283.006 Q 574.468 282.456 573.723 281.824 L 573.723 281.824 L 572.589 280.836 L 572.589 280.836 Q 571.747 280.124 571.286 279.322 L 571.286 279.322 L 571.286 279.322 Q 570.824 278.521 570.824 277.419 L 570.824 277.419 L 570.824 277.419 Q 570.824 275.767 571.804 274.877 L 571.804 274.877 L 571.804 274.877 Q 572.784 273.986 574.5 273.986 L 574.5 273.986 L 574.5 273.986 Q 576.363 273.986 577.035 275.071 L 577.035 275.071 L 577.035 275.071 Q 577.707 276.156 577.755 277.711 L 577.755 277.711 L 575.261 278.018 L 575.261 278.018 Q 575.229 276.998 575.075 276.553 L 575.075 276.553 L 575.075 276.553 Q 574.921 276.108 574.403 276.108 L 574.403 276.108 L 574.403 276.108 Q 574.031 276.108 573.828 276.423 L 573.828 276.423 L 573.828 276.423 Q 573.626 276.739 573.626 277.128 L 573.626 277.128 L 573.626 277.128 Q 573.626 277.792 573.925 278.245 L 573.925 278.245 L 573.925 278.245 Q 574.225 278.699 574.889 279.282 L 574.889 279.282 L 575.974 280.237 L 575.974 280.237 Q 576.946 281.063 577.48 281.986 L 577.48 281.986 L 577.48 281.986 Q 578.014 282.909 578.014 284.172 L 578.014 284.172 L 578.014 284.172 Q 578.014 285.095 577.585 285.848 L 577.585 285.848 L 577.585 285.848 Q 577.156 286.601 576.379 287.039 L 576.379 287.039 L 576.379 287.039 Q 575.601 287.476 574.581 287.476 L 574.581 287.476 L 574.581 287.476 Z  M 581.271 287.282 L 581.271 274.164 L 584.17 274.164 L 584.17 279.476 L 586.194 279.476 L 586.194 274.164 L 589.109 274.164 L 589.109 287.282 L 586.194 287.282 L 586.194 281.549 L 584.17 281.549 L 584.17 287.282 L 581.271 287.282 L 581.271 287.282 Z  M 592.269 287.282 L 594.747 274.164 L 598.05 274.164 L 600.496 287.282 L 597.824 287.282 L 597.386 284.512 L 595.459 284.512 L 595.006 287.282 L 592.269 287.282 L 592.269 287.282 Z  M 595.718 282.78 L 597.111 282.78 L 596.415 277.662 L 595.718 282.78 L 595.718 282.78 Z  M 498.453 287.476 L 498.453 287.476 Q 496.575 287.476 495.66 286.48 L 495.66 286.48 L 495.66 286.48 Q 494.745 285.484 494.68 283.314 L 494.68 283.314 L 497.158 282.942 L 497.158 282.942 Q 497.174 284.189 497.457 284.731 L 497.457 284.731 L 497.457 284.731 Q 497.741 285.274 498.308 285.274 L 498.308 285.274 L 498.308 285.274 Q 499.036 285.274 499.036 284.318 L 499.036 284.318 L 499.036 284.318 Q 499.036 283.557 498.688 283.006 L 498.688 283.006 L 498.688 283.006 Q 498.34 282.456 497.595 281.824 L 497.595 281.824 L 496.462 280.836 L 496.462 280.836 Q 495.619 280.124 495.158 279.322 L 495.158 279.322 L 495.158 279.322 Q 494.696 278.521 494.696 277.419 L 494.696 277.419 L 494.696 277.419 Q 494.696 275.767 495.676 274.877 L 495.676 274.877 L 495.676 274.877 Q 496.656 273.986 498.372 273.986 L 498.372 273.986 L 498.372 273.986 Q 500.235 273.986 500.907 275.071 L 500.907 275.071 L 500.907 275.071 Q 501.579 276.156 501.628 277.711 L 501.628 277.711 L 499.134 278.018 L 499.134 278.018 Q 499.101 276.998 498.947 276.553 L 498.947 276.553 L 498.947 276.553 Q 498.794 276.108 498.275 276.108 L 498.275 276.108 L 498.275 276.108 Q 497.903 276.108 497.7 276.423 L 497.7 276.423 L 497.7 276.423 Q 497.498 276.739 497.498 277.128 L 497.498 277.128 L 497.498 277.128 Q 497.498 277.792 497.798 278.245 L 497.798 278.245 L 497.798 278.245 Q 498.097 278.699 498.761 279.282 L 498.761 279.282 L 499.846 280.237 L 499.846 280.237 Q 500.818 281.063 501.352 281.986 L 501.352 281.986 L 501.352 281.986 Q 501.887 282.909 501.887 284.172 L 501.887 284.172 L 501.887 284.172 Q 501.887 285.095 501.457 285.848 L 501.457 285.848 L 501.457 285.848 Q 501.028 286.601 500.251 287.039 L 500.251 287.039 L 500.251 287.039 Q 499.474 287.476 498.453 287.476 L 498.453 287.476 L 498.453 287.476 Z  M 505.095 287.282 L 505.095 274.164 L 508.706 274.164 L 508.706 274.164 Q 510.86 274.164 511.961 274.925 L 511.961 274.925 L 511.961 274.925 Q 513.063 275.686 513.063 277.63 L 513.063 277.63 L 513.063 277.63 Q 513.063 278.942 512.722 279.719 L 512.722 279.719 L 512.722 279.719 Q 512.382 280.496 511.459 280.933 L 511.459 280.933 L 513.257 287.282 L 510.261 287.282 L 508.82 281.403 L 507.994 281.403 L 507.994 287.282 L 505.095 287.282 L 505.095 287.282 Z  M 507.994 279.735 L 508.803 279.735 L 508.803 279.735 Q 509.678 279.735 510.026 279.274 L 510.026 279.274 L 510.026 279.274 Q 510.374 278.812 510.374 277.889 L 510.374 277.889 L 510.374 277.889 Q 510.374 276.998 510.05 276.553 L 510.05 276.553 L 510.05 276.553 Q 509.726 276.108 508.933 276.108 L 508.933 276.108 L 507.994 276.108 L 507.994 279.735 L 507.994 279.735 Z  M 516.627 287.282 L 516.627 274.164 L 519.526 274.164 L 519.526 287.282 L 516.627 287.282 L 516.627 287.282 Z " fill="rgb(255,255,255)" vector-effect="non-scaling-stroke" stroke-width="1" stroke="rgb(152,0,0)" stroke-linejoin="miter" stroke-linecap="square" stroke-miterlimit="3"/></svg>