<?xml version="1.0" encoding="UTF-8" standalone="no"?><!-- Generator: Gravit.io --><svg xmlns="http://www.w3.org/2000/svg" xmlns:xlink="http://www.w3.org/1999/xlink" style="isolation:isolate" viewBox="489.5 306.443 125.26 33" width="125.26pt" height="33pt"><path d=" M 528.598 330.263 L 531.076 317.145 L 534.38 317.145 L 536.825 330.263 L 534.153 330.263 L 533.716 327.493 L 531.789 327.493 L 531.335 330.263 L 528.598 330.263 L 528.598 330.263 Z  M 532.048 325.761 L 533.44 325.761 L 532.744 320.643 L 532.048 325.761 L 532.048 325.761 Z  M 539.952 330.263 L 539.952 317.145 L 541.993 317.145 L 544.681 323.461 L 544.681 317.145 L 547.078 317.145 L 547.078 330.263 L 545.118 330.263 L 542.43 323.461 L 542.43 330.263 L 539.952 330.263 L 539.952 330.263 Z  M 550.076 330.603 L 550.076 328.578 L 550.076 328.578 Q 550.707 328.578 551.031 328.481 L 551.031 328.481 L 551.031 328.481 Q 551.355 328.384 551.501 328.101 L 551.501 328.101 L 551.501 328.101 Q 551.646 327.817 551.646 327.25 L 551.646 327.25 L 551.646 317.145 L 554.545 317.145 L 554.545 327.38 L 554.545 327.38 Q 554.545 328.497 554.27 329.194 L 554.27 329.194 L 554.27 329.194 Q 553.995 329.89 553.323 330.246 L 553.323 330.246 L 553.323 330.246 Q 552.65 330.603 551.484 330.603 L 551.484 330.603 L 550.076 330.603 L 550.076 330.603 Z  M 557.656 330.263 L 560.134 317.145 L 563.438 317.145 L 565.883 330.263 L 563.211 330.263 L 562.774 327.493 L 560.847 327.493 L 560.393 330.263 L 557.656 330.263 L 557.656 330.263 Z  M 561.106 325.761 L 562.498 325.761 L 561.802 320.643 L 561.106 325.761 L 561.106 325.761 Z  M 569.01 330.263 L 569.01 317.145 L 571.051 317.145 L 573.739 323.461 L 573.739 317.145 L 576.136 317.145 L 576.136 330.263 L 574.176 330.263 L 571.488 323.461 L 571.488 330.263 L 569.01 330.263 L 569.01 330.263 Z  M 579.895 330.263 L 579.895 317.145 L 585.789 317.145 L 585.789 319.121 L 582.794 319.121 L 582.794 322.376 L 585.077 322.376 L 585.077 324.384 L 582.794 324.384 L 582.794 328.303 L 585.822 328.303 L 585.822 330.263 L 579.895 330.263 L 579.895 330.263 Z  M 590.585 330.263 L 590.585 324.902 L 588.091 317.145 L 590.828 317.145 L 592.075 321.291 L 593.192 317.145 L 595.816 317.145 L 593.37 324.902 L 593.37 330.263 L 590.585 330.263 L 590.585 330.263 Z  M 597.437 330.263 L 599.915 317.145 L 603.218 317.145 L 605.664 330.263 L 602.991 330.263 L 602.554 327.493 L 600.627 327.493 L 600.174 330.263 L 597.437 330.263 L 597.437 330.263 Z  M 600.886 325.761 L 602.279 325.761 L 601.583 320.643 L 600.886 325.761 L 600.886 325.761 Z  M 498.453 330.457 L 498.453 330.457 Q 496.575 330.457 495.66 329.461 L 495.66 329.461 L 495.66 329.461 Q 494.745 328.465 494.68 326.295 L 494.68 326.295 L 497.158 325.922 L 497.158 325.922 Q 497.174 327.169 497.457 327.712 L 497.457 327.712 L 497.457 327.712 Q 497.741 328.254 498.308 328.254 L 498.308 328.254 L 498.308 328.254 Q 499.036 328.254 499.036 327.299 L 499.036 327.299 L 499.036 327.299 Q 499.036 326.538 498.688 325.987 L 498.688 325.987 L 498.688 325.987 Q 498.34 325.437 497.595 324.805 L 497.595 324.805 L 496.462 323.817 L 496.462 323.817 Q 495.619 323.105 495.158 322.303 L 495.158 322.303 L 495.158 322.303 Q 494.696 321.501 494.696 320.4 L 494.696 320.4 L 494.696 320.4 Q 494.696 318.748 495.676 317.858 L 495.676 317.858 L 495.676 317.858 Q 496.656 316.967 498.372 316.967 L 498.372 316.967 L 498.372 316.967 Q 500.235 316.967 500.907 318.052 L 500.907 318.052 L 500.907 318.052 Q 501.579 319.137 501.628 320.692 L 501.628 320.692 L 499.134 320.999 L 499.134 320.999 Q 499.101 319.979 498.947 319.534 L 498.947 319.534 L 498.947 319.534 Q 498.794 319.088 498.275 319.088 L 498.275 319.088 L 498.275 319.088 Q 497.903 319.088 497.7 319.404 L 497.7 319.404 L 497.7 319.404 Q 497.498 319.72 497.498 320.109 L 497.498 320.109 L 497.498 320.109 Q 497.498 320.773 497.798 321.226 L 497.798 321.226 L 497.798 321.226 Q 498.097 321.68 498.761 322.263 L 498.761 322.263 L 499.846 323.218 L 499.846 323.218 Q 500.818 324.044 501.352 324.967 L 501.352 324.967 L 501.352 324.967 Q 501.887 325.89 501.887 327.153 L 501.887 327.153 L 501.887 327.153 Q 501.887 328.076 501.457 328.829 L 501.457 328.829 L 501.457 328.829 Q 501.028 329.582 500.251 330.02 L 500.251 330.02 L 500.251 330.02 Q 499.474 330.457 498.453 330.457 L 498.453 330.457 L 498.453 330.457 Z  M 505.095 330.263 L 505.095 317.145 L 508.706 317.145 L 508.706 317.145 Q 510.86 317.145 511.961 317.906 L 511.961 317.906 L 511.961 317.906 Q 513.063 318.667 513.063 320.611 L 513.063 320.611 L 513.063 320.611 Q 513.063 321.922 512.722 322.7 L 512.722 322.7 L 512.722 322.7 Q 512.382 323.477 511.459 323.914 L 511.459 323.914 L 513.257 330.263 L 510.261 330.263 L 508.82 324.384 L 507.994 324.384 L 507.994 330.263 L 505.095 330.263 L 505.095 330.263 Z  M 507.994 322.716 L 508.803 322.716 L 508.803 322.716 Q 509.678 322.716 510.026 322.254 L 510.026 322.254 L 510.026 322.254 Q 510.374 321.793 510.374 320.87 L 510.374 320.87 L 510.374 320.87 Q 510.374 319.979 510.05 319.534 L 510.05 319.534 L 510.05 319.534 Q 509.726 319.088 508.933 319.088 L 508.933 319.088 L 507.994 319.088 L 507.994 322.716 L 507.994 322.716 Z  M 516.627 330.263 L 516.627 317.145 L 519.526 317.145 L 519.526 330.263 L 516.627 330.263 L 516.627 330.263 Z " fill="rgb(255,255,255)" vector-effect="non-scaling-stroke" stroke-width="1" stroke="rgb(152,0,0)" stroke-linejoin="miter" stroke-linecap="square" stroke-miterlimit="3"/></svg>