<?xml version="1.0" encoding="UTF-8" standalone="no"?><!-- Generator: Gravit.io --><svg xmlns="http://www.w3.org/2000/svg" xmlns:xlink="http://www.w3.org/1999/xlink" style="isolation:isolate" viewBox="717.3 412.44 284.72 23.28" width="284.72pt" height="23.28pt"><path d=" M 836.16 416.5 L 836.16 416.5 Q 838.2 416.5 839.73 417.35 L 839.73 417.35 L 839.73 417.35 Q 841.26 418.2 842.1 419.74 L 842.1 419.74 L 842.1 419.74 Q 842.94 421.28 842.94 423.28 L 842.94 423.28 L 842.94 430 L 840.62 430 L 840.62 423.28 L 840.62 423.28 Q 840.62 421.08 839.42 419.75 L 839.42 419.75 L 839.42 419.75 Q 838.22 418.42 836.16 418.42 L 836.16 418.42 L 836.16 418.42 Q 834.7 418.42 833.6 419.07 L 833.6 419.07 L 833.6 419.07 Q 832.5 419.72 831.91 420.86 L 831.91 420.86 L 831.91 420.86 Q 831.32 422 831.32 423.46 L 831.32 423.46 L 831.32 423.46 Q 831.32 425.1 831.86 426.3 L 831.86 426.3 L 831.86 426.3 Q 832.12 425.18 833.03 424.49 L 833.03 424.49 L 833.03 424.49 Q 833.94 423.8 835.2 423.8 L 835.2 423.8 L 835.2 423.8 Q 836.26 423.8 837.08 424.23 L 837.08 424.23 L 837.08 424.23 Q 837.9 424.66 838.35 425.41 L 838.35 425.41 L 838.35 425.41 Q 838.8 426.16 838.8 427.1 L 838.8 427.1 L 838.8 427.1 Q 838.8 428.04 838.29 428.78 L 838.29 428.78 L 838.29 428.78 Q 837.78 429.52 836.87 429.94 L 836.87 429.94 L 836.87 429.94 Q 835.96 430.36 834.82 430.36 L 834.82 430.36 L 834.82 430.36 Q 833.12 430.36 831.77 429.47 L 831.77 429.47 L 831.77 429.47 Q 830.42 428.58 829.66 427.01 L 829.66 427.01 L 829.66 427.01 Q 828.9 425.44 828.9 423.46 L 828.9 423.46 L 828.9 423.46 Q 828.9 421.46 829.8 419.88 L 829.8 419.88 L 829.8 419.88 Q 830.7 418.3 832.35 417.4 L 832.35 417.4 L 832.35 417.4 Q 834 416.5 836.16 416.5 L 836.16 416.5 L 836.16 416.5 Z  M 835.12 425.64 L 835.12 425.64 Q 834.5 425.64 834.1 426.05 L 834.1 426.05 L 834.1 426.05 Q 833.7 426.46 833.7 427.1 L 833.7 427.1 L 833.7 427.1 Q 833.7 427.72 834.1 428.12 L 834.1 428.12 L 834.1 428.12 Q 834.5 428.52 835.12 428.52 L 835.12 428.52 L 835.12 428.52 Q 835.74 428.52 836.15 428.12 L 836.15 428.12 L 836.15 428.12 Q 836.56 427.72 836.56 427.1 L 836.56 427.1 L 836.56 427.1 Q 836.56 426.48 836.15 426.06 L 836.15 426.06 L 836.15 426.06 Q 835.74 425.64 835.12 425.64 L 835.12 425.64 L 835.12 425.64 Z  M 862.88 419.74 L 865.2 419.74 L 865.2 430 L 856.7 430 L 856.7 428.18 L 856.7 428.18 Q 857.62 426.64 857.62 424.9 L 857.62 424.9 L 857.62 424.9 Q 857.62 423.28 856.46 422.29 L 856.46 422.29 L 856.46 422.29 Q 855.3 421.3 853.02 421.3 L 853.02 421.3 L 853.02 421.3 Q 851.6 421.3 850.53 421.82 L 850.53 421.82 L 850.53 421.82 Q 849.46 422.34 848.89 423.24 L 848.89 423.24 L 848.89 423.24 Q 848.32 424.14 848.32 425.26 L 848.32 425.26 L 848.32 425.26 Q 848.32 426.12 848.68 426.78 L 848.68 426.78 L 848.68 426.78 Q 848.78 425.48 849.75 424.64 L 849.75 424.64 L 849.75 424.64 Q 850.72 423.8 852.08 423.8 L 852.08 423.8 L 852.08 423.8 Q 853.14 423.8 853.99 424.23 L 853.99 424.23 L 853.99 424.23 Q 854.84 424.66 855.32 425.41 L 855.32 425.41 L 855.32 425.41 Q 855.8 426.16 855.8 427.1 L 855.8 427.1 L 855.8 427.1 Q 855.8 428.04 855.29 428.78 L 855.29 428.78 L 855.29 428.78 Q 854.78 429.52 853.87 429.94 L 853.87 429.94 L 853.87 429.94 Q 852.96 430.36 851.82 430.36 L 851.82 430.36 L 851.82 430.36 Q 850.12 430.36 848.77 429.7 L 848.77 429.7 L 848.77 429.7 Q 847.42 429.04 846.66 427.88 L 846.66 427.88 L 846.66 427.88 Q 845.9 426.72 845.9 425.26 L 845.9 425.26 L 845.9 425.26 Q 845.9 423.56 846.8 422.22 L 846.8 422.22 L 846.8 422.22 Q 847.7 420.88 849.32 420.13 L 849.32 420.13 L 849.32 420.13 Q 850.94 419.38 853.02 419.38 L 853.02 419.38 L 853.02 419.38 Q 855.04 419.38 856.64 420.09 L 856.64 420.09 L 856.64 420.09 Q 858.24 420.8 859.15 422.06 L 859.15 422.06 L 859.15 422.06 Q 860.06 423.32 860.06 424.9 L 860.06 424.9 L 860.06 424.9 Q 860.06 426.58 859.26 428.18 L 859.26 428.18 L 862.88 428.18 L 862.88 419.74 L 862.88 419.74 Z  M 852.12 425.64 L 852.12 425.64 Q 851.5 425.64 851.1 426.05 L 851.1 426.05 L 851.1 426.05 Q 850.7 426.46 850.7 427.1 L 850.7 427.1 L 850.7 427.1 Q 850.7 427.72 851.1 428.12 L 851.1 428.12 L 851.1 428.12 Q 851.5 428.52 852.12 428.52 L 852.12 428.52 L 852.12 428.52 Q 852.74 428.52 853.15 428.12 L 853.15 428.12 L 853.15 428.12 Q 853.56 427.72 853.56 427.1 L 853.56 427.1 L 853.56 427.1 Q 853.56 426.48 853.15 426.06 L 853.15 426.06 L 853.15 426.06 Q 852.74 425.64 852.12 425.64 L 852.12 425.64 L 852.12 425.64 Z  M 883.76 419.74 L 886.08 419.74 L 886.08 430 L 873.92 430 L 873.92 428.18 L 876.94 428.18 L 876.94 428.18 Q 878.12 428.18 878.73 427.63 L 878.73 427.63 L 878.73 427.63 Q 879.34 427.08 879.34 426.16 L 879.34 426.16 L 879.34 426.16 Q 879.34 425.44 878.95 424.96 L 878.95 424.96 L 878.95 424.96 Q 878.56 424.48 877.9 424.48 L 877.9 424.48 L 877.9 424.48 Q 877.18 424.48 876.71 424.95 L 876.71 424.95 L 876.71 424.95 Q 876.24 425.42 876.24 426.08 L 876.24 426.08 L 876.24 426.8 L 873.92 426.8 L 873.92 421.56 L 871.02 421.56 L 871.02 430 L 868.7 430 L 868.7 419.74 L 879.5 419.74 L 879.86 421.58 L 876.24 421.58 L 876.24 423.02 L 876.24 423.02 Q 877.14 422.54 878.18 422.54 L 878.18 422.54 L 878.18 422.54 Q 879.8 422.54 880.79 423.53 L 880.79 423.53 L 880.79 423.53 Q 881.78 424.52 881.78 426.16 L 881.78 426.16 L 881.78 426.16 Q 881.78 427.3 881.18 428.18 L 881.18 428.18 L 883.76 428.18 L 883.76 419.74 L 883.76 419.74 Z  M 877 417.6 L 877 417.6 Q 877.62 417.6 878.02 417.2 L 878.02 417.2 L 878.02 417.2 Q 878.42 416.8 878.42 416.2 L 878.42 416.2 L 878.42 416.2 Q 878.42 415.58 878.02 415.18 L 878.02 415.18 L 878.02 415.18 Q 877.62 414.78 877 414.78 L 877 414.78 L 877 414.78 Q 876.4 414.78 876.01 415.18 L 876.01 415.18 L 876.01 415.18 Q 875.62 415.58 875.62 416.2 L 875.62 416.2 L 875.62 416.2 Q 875.62 416.8 876.01 417.2 L 876.01 417.2 L 876.01 417.2 Q 876.4 417.6 877 417.6 L 877 417.6 L 877 417.6 Z  M 898.6 423.78 L 898.6 423.78 Q 900.6 423.78 901.76 424.69 L 901.76 424.69 L 901.76 424.69 Q 902.92 425.6 902.92 427.08 L 902.92 427.08 L 902.92 427.08 Q 902.92 428.04 902.37 428.78 L 902.37 428.78 L 902.37 428.78 Q 901.82 429.52 900.79 429.94 L 900.79 429.94 L 900.79 429.94 Q 899.76 430.36 898.38 430.36 L 898.38 430.36 L 898.38 428.52 L 898.38 428.52 Q 899.46 428.52 899.98 428.14 L 899.98 428.14 L 899.98 428.14 Q 900.5 427.76 900.5 427.08 L 900.5 427.08 L 900.5 427.08 Q 900.5 425.62 898.62 425.62 L 898.62 425.62 L 898.06 425.62 L 898.06 425.9 L 898.06 425.9 Q 898.06 427.18 897.44 428.2 L 897.44 428.2 L 897.44 428.2 Q 896.82 429.22 895.69 429.79 L 895.69 429.79 L 895.69 429.79 Q 894.56 430.36 893.04 430.36 L 893.04 430.36 L 893.04 430.36 Q 891.72 430.36 890.74 429.93 L 890.74 429.93 L 890.74 429.93 Q 889.76 429.5 889.23 428.75 L 889.23 428.75 L 889.23 428.75 Q 888.7 428 888.7 427.02 L 888.7 427.02 L 888.7 427.02 Q 888.7 426.02 889.29 425.24 L 889.29 425.24 L 889.29 425.24 Q 889.88 424.46 890.96 424.08 L 890.96 424.08 L 890.96 419.74 L 901.4 419.74 L 901.76 421.56 L 898.06 421.56 L 898.06 423.78 L 898.6 423.78 L 898.6 423.78 Z  M 895.72 423.78 L 895.72 421.56 L 893.28 421.56 L 893.28 423.78 L 895.72 423.78 L 895.72 423.78 Z  M 895.72 425.9 L 895.72 425.62 L 892.98 425.62 L 892.98 425.62 Q 892.1 425.62 891.61 426 L 891.61 426 L 891.61 426 Q 891.12 426.38 891.12 427.02 L 891.12 427.02 L 891.12 427.02 Q 891.12 427.66 891.63 428.05 L 891.63 428.05 L 891.63 428.05 Q 892.14 428.44 893.04 428.44 L 893.04 428.44 L 893.04 428.44 Q 894.32 428.44 895.02 427.74 L 895.02 427.74 L 895.02 427.74 Q 895.72 427.04 895.72 425.9 L 895.72 425.9 L 895.72 425.9 Z  M 917.4 430 L 917.04 428.18 L 907.02 428.18 L 907.02 419.64 L 904.7 419.74 L 904.7 430 L 917.4 430 L 917.4 430 Z  M 931.78 421.56 L 928.16 421.56 L 928.16 430 L 925.84 430 L 925.84 421.56 L 922.02 421.56 L 922.02 430 L 919.7 430 L 919.7 419.74 L 931.42 419.74 L 931.78 421.56 L 931.78 421.56 Z  M 944.4 423.78 L 944.76 425.62 L 941.06 425.62 L 941.06 425.9 L 941.06 425.9 Q 941.06 427.18 940.44 428.2 L 940.44 428.2 L 940.44 428.2 Q 939.82 429.22 938.69 429.79 L 938.69 429.79 L 938.69 429.79 Q 937.56 430.36 936.04 430.36 L 936.04 430.36 L 936.04 430.36 Q 934.72 430.36 933.74 429.93 L 933.74 429.93 L 933.74 429.93 Q 932.76 429.5 932.23 428.75 L 932.23 428.75 L 932.23 428.75 Q 931.7 428 931.7 427.02 L 931.7 427.02 L 931.7 427.02 Q 931.7 426.02 932.29 425.24 L 932.29 425.24 L 932.29 425.24 Q 932.88 424.46 933.96 424.08 L 933.96 424.08 L 933.96 419.74 L 944.4 419.74 L 944.76 421.56 L 941.06 421.56 L 941.06 423.78 L 944.4 423.78 L 944.4 423.78 Z  M 938.72 423.78 L 938.72 421.56 L 936.28 421.56 L 936.28 423.78 L 938.72 423.78 L 938.72 423.78 Z  M 938.72 425.9 L 938.72 425.62 L 935.98 425.62 L 935.98 425.62 Q 935.1 425.62 934.61 426 L 934.61 426 L 934.61 426 Q 934.12 426.38 934.12 427.02 L 934.12 427.02 L 934.12 427.02 Q 934.12 427.66 934.63 428.05 L 934.63 428.05 L 934.63 428.05 Q 935.14 428.44 936.04 428.44 L 936.04 428.44 L 936.04 428.44 Q 937.32 428.44 938.02 427.74 L 938.02 427.74 L 938.02 427.74 Q 938.72 427.04 938.72 425.9 L 938.72 425.9 L 938.72 425.9 Z  M 964.26 419.46 L 964.26 419.46 Q 965.12 420.84 965.54 422.37 L 965.54 422.37 L 965.54 422.37 Q 965.96 423.9 965.96 425.16 L 965.96 425.16 L 965.96 425.16 Q 965.96 427.54 964.81 428.95 L 964.81 428.95 L 964.81 428.95 Q 963.66 430.36 961.38 430.36 L 961.38 430.36 L 961.38 430.36 Q 959.34 430.36 958.21 429.15 L 958.21 429.15 L 958.21 429.15 Q 957.08 427.94 957.08 425.82 L 957.08 425.82 L 957.08 424.9 L 957.08 424.9 Q 957.08 423.26 955.97 422.28 L 955.97 422.28 L 955.97 422.28 Q 954.86 421.3 952.92 421.3 L 952.92 421.3 L 952.92 421.3 Q 951.5 421.3 950.46 421.82 L 950.46 421.82 L 950.46 421.82 Q 949.42 422.34 948.87 423.24 L 948.87 423.24 L 948.87 423.24 Q 948.32 424.14 948.32 425.26 L 948.32 425.26 L 948.32 425.26 Q 948.32 426.12 948.68 426.78 L 948.68 426.78 L 948.68 426.78 Q 948.78 425.46 949.73 424.63 L 949.73 424.63 L 949.73 424.63 Q 950.68 423.8 952.08 423.8 L 952.08 423.8 L 952.08 423.8 Q 953.14 423.8 953.99 424.23 L 953.99 424.23 L 953.99 424.23 Q 954.84 424.66 955.32 425.41 L 955.32 425.41 L 955.32 425.41 Q 955.8 426.16 955.8 427.1 L 955.8 427.1 L 955.8 427.1 Q 955.8 428.04 955.29 428.78 L 955.29 428.78 L 955.29 428.78 Q 954.78 429.52 953.87 429.94 L 953.87 429.94 L 953.87 429.94 Q 952.96 430.36 951.82 430.36 L 951.82 430.36 L 951.82 430.36 Q 950.12 430.36 948.77 429.7 L 948.77 429.7 L 948.77 429.7 Q 947.42 429.04 946.66 427.88 L 946.66 427.88 L 946.66 427.88 Q 945.9 426.72 945.9 425.26 L 945.9 425.26 L 945.9 425.26 Q 945.9 423.56 946.77 422.22 L 946.77 422.22 L 946.77 422.22 Q 947.64 420.88 949.23 420.13 L 949.23 420.13 L 949.23 420.13 Q 950.82 419.38 952.92 419.38 L 952.92 419.38 L 952.92 419.38 Q 954.86 419.38 956.33 420.07 L 956.33 420.07 L 956.33 420.07 Q 957.8 420.76 958.6 422.02 L 958.6 422.02 L 958.6 422.02 Q 959.4 423.28 959.4 424.9 L 959.4 424.9 L 959.4 425.82 L 959.4 425.82 Q 959.4 427.08 959.93 427.76 L 959.93 427.76 L 959.93 427.76 Q 960.46 428.44 961.42 428.44 L 961.42 428.44 L 961.42 428.44 Q 962.54 428.44 963.04 427.56 L 963.04 427.56 L 963.04 427.56 Q 963.54 426.68 963.54 425.16 L 963.54 425.16 L 963.54 425.16 Q 963.54 423.92 963.11 422.4 L 963.11 422.4 L 963.11 422.4 Q 962.68 420.88 961.9 419.74 L 961.9 419.74 L 964.26 419.46 L 964.26 419.46 Z  M 952.12 425.64 L 952.12 425.64 Q 951.5 425.64 951.1 426.05 L 951.1 426.05 L 951.1 426.05 Q 950.7 426.46 950.7 427.1 L 950.7 427.1 L 950.7 427.1 Q 950.7 427.72 951.1 428.12 L 951.1 428.12 L 951.1 428.12 Q 951.5 428.52 952.12 428.52 L 952.12 428.52 L 952.12 428.52 Q 952.74 428.52 953.15 428.12 L 953.15 428.12 L 953.15 428.12 Q 953.56 427.72 953.56 427.1 L 953.56 427.1 L 953.56 427.1 Q 953.56 426.48 953.15 426.06 L 953.15 426.06 L 953.15 426.06 Q 952.74 425.64 952.12 425.64 L 952.12 425.64 L 952.12 425.64 Z  M 977.92 419.74 L 980.24 419.74 L 980.24 430 L 968.7 430 L 968.7 419.74 L 971.02 419.64 L 971.02 428.18 L 977.92 428.18 L 977.92 419.74 L 977.92 419.74 Z  M 992.24 423.78 L 992.24 423.78 Q 993.64 423.78 994.75 424.39 L 994.75 424.39 L 994.75 424.39 Q 995.86 425 996.48 426.08 L 996.48 426.08 L 996.48 426.08 Q 997.1 427.16 997.1 428.52 L 997.1 428.52 L 997.1 428.52 Q 997.1 430.02 996.34 431.21 L 996.34 431.21 L 996.34 431.21 Q 995.58 432.4 994.23 433.07 L 994.23 433.07 L 994.23 433.07 Q 992.88 433.74 991.2 433.74 L 991.2 433.74 L 988.08 433.74 L 988.08 433.74 Q 985.34 433.74 984.6 434.86 L 984.6 434.86 L 982.7 433.68 L 982.7 433.68 Q 983.08 432.88 984.41 432.4 L 984.41 432.4 L 984.41 432.4 Q 985.74 431.92 987.82 431.92 L 987.82 431.92 L 991.2 431.92 L 991.2 431.92 Q 992.2 431.92 992.99 431.48 L 992.99 431.48 L 992.99 431.48 Q 993.78 431.04 994.23 430.27 L 994.23 430.27 L 994.23 430.27 Q 994.68 429.5 994.68 428.52 L 994.68 428.52 L 994.68 428.52 Q 994.68 427.26 994 426.44 L 994 426.44 L 994 426.44 Q 993.32 425.62 992.26 425.62 L 992.26 425.62 L 992.06 425.62 L 992.06 425.9 L 992.06 425.9 Q 992.06 427.18 991.44 428.2 L 991.44 428.2 L 991.44 428.2 Q 990.82 429.22 989.69 429.79 L 989.69 429.79 L 989.69 429.79 Q 988.56 430.36 987.04 430.36 L 987.04 430.36 L 987.04 430.36 Q 985.72 430.36 984.74 429.93 L 984.74 429.93 L 984.74 429.93 Q 983.76 429.5 983.23 428.75 L 983.23 428.75 L 983.23 428.75 Q 982.7 428 982.7 427.02 L 982.7 427.02 L 982.7 427.02 Q 982.7 426.02 983.29 425.24 L 983.29 425.24 L 983.29 425.24 Q 983.88 424.46 984.96 424.08 L 984.96 424.08 L 984.96 419.74 L 995.4 419.74 L 995.76 421.56 L 992.06 421.56 L 992.06 423.78 L 992.24 423.78 L 992.24 423.78 Z  M 989.72 423.78 L 989.72 421.56 L 987.28 421.56 L 987.28 423.78 L 989.72 423.78 L 989.72 423.78 Z  M 989.72 425.9 L 989.72 425.62 L 986.98 425.62 L 986.98 425.62 Q 986.1 425.62 985.61 426 L 985.61 426 L 985.61 426 Q 985.12 426.38 985.12 427.02 L 985.12 427.02 L 985.12 427.02 Q 985.12 427.66 985.63 428.05 L 985.63 428.05 L 985.63 428.05 Q 986.14 428.44 987.04 428.44 L 987.04 428.44 L 987.04 428.44 Q 988.32 428.44 989.02 427.74 L 989.02 427.74 L 989.02 427.74 Q 989.72 427.04 989.72 425.9 L 989.72 425.9 L 989.72 425.9 Z  M 994.7 414.06 L 994.7 414.06 Q 996.96 414.06 998.61 414.81 L 998.61 414.81 L 998.61 414.81 Q 1000.26 415.56 1001.14 416.89 L 1001.14 416.89 L 1001.14 416.89 Q 1002.02 418.22 1002.02 419.94 L 1002.02 419.94 L 1002.02 430 L 999.7 430 L 999.7 419.94 L 999.7 419.94 Q 999.7 418.12 998.4 417.05 L 998.4 417.05 L 998.4 417.05 Q 997.1 415.98 994.7 415.98 L 994.7 415.98 L 994.7 415.98 Q 993.34 415.98 992.59 416.49 L 992.59 416.49 L 992.59 416.49 Q 991.84 417 991.84 417.88 L 991.84 417.88 L 991.84 417.88 Q 991.84 418.74 992.26 419.24 L 992.26 419.24 L 992.26 419.24 Q 992.68 419.74 993.54 419.74 L 993.54 419.74 L 993.54 421.36 L 993.54 421.36 Q 991.7 421.36 990.63 420.39 L 990.63 420.39 L 990.63 420.39 Q 989.56 419.42 989.54 417.88 L 989.54 417.88 L 989.54 417.88 Q 989.54 416.78 990.17 415.91 L 990.17 415.91 L 990.17 415.91 Q 990.8 415.04 991.97 414.55 L 991.97 414.55 L 991.97 414.55 Q 993.14 414.06 994.7 414.06 L 994.7 414.06 L 994.7 414.06 Z  M 774.62 423.78 L 774.62 423.78 Q 776.06 423.8 777.21 424.49 L 777.21 424.49 L 777.21 424.49 Q 778.36 425.18 779.01 426.36 L 779.01 426.36 L 779.01 426.36 Q 779.66 427.54 779.66 429.02 L 779.66 429.02 L 779.66 429.02 Q 779.66 430.88 778.49 432.36 L 778.49 432.36 L 778.49 432.36 Q 777.32 433.84 775.19 434.68 L 775.19 434.68 L 775.19 434.68 Q 773.06 435.52 770.28 435.52 L 770.28 435.52 L 770.28 435.52 Q 767.16 435.52 764.79 434.44 L 764.79 434.44 L 764.79 434.44 Q 762.42 433.36 761.11 431.34 L 761.11 431.34 L 761.11 431.34 Q 759.8 429.32 759.8 426.6 L 759.8 426.6 L 759.8 426.6 Q 759.8 424.7 760.62 422.7 L 760.62 422.7 L 760.62 422.7 Q 761.44 420.7 762.7 419.54 L 762.7 419.54 L 765.08 419.74 L 765.08 419.74 Q 763.84 420.78 763.03 422.71 L 763.03 422.71 L 763.03 422.71 Q 762.22 424.64 762.22 426.64 L 762.22 426.64 L 762.22 426.64 Q 762.22 428.78 763.22 430.33 L 763.22 430.33 L 763.22 430.33 Q 764.22 431.88 766.04 432.7 L 766.04 432.7 L 766.04 432.7 Q 767.86 433.52 770.28 433.52 L 770.28 433.52 L 770.28 433.52 Q 772.36 433.52 773.94 432.94 L 773.94 432.94 L 773.94 432.94 Q 775.52 432.36 776.38 431.34 L 776.38 431.34 L 776.38 431.34 Q 777.24 430.32 777.24 429.02 L 777.24 429.02 L 777.24 429.02 Q 777.24 427.56 776.5 426.61 L 776.5 426.61 L 776.5 426.61 Q 775.76 425.66 774.62 425.62 L 774.62 425.62 L 774.62 425.9 L 774.62 425.9 Q 774.62 427.18 774.01 428.2 L 774.01 428.2 L 774.01 428.2 Q 773.4 429.22 772.27 429.79 L 772.27 429.79 L 772.27 429.79 Q 771.14 430.36 769.62 430.36 L 769.62 430.36 L 769.62 430.36 Q 768.3 430.36 767.31 429.93 L 767.31 429.93 L 767.31 429.93 Q 766.32 429.5 765.79 428.74 L 765.79 428.74 L 765.79 428.74 Q 765.26 427.98 765.26 427.02 L 765.26 427.02 L 765.26 427.02 Q 765.26 426 765.85 425.23 L 765.85 425.23 L 765.85 425.23 Q 766.44 424.46 767.54 424.08 L 767.54 424.08 L 767.54 419.74 L 777.98 419.74 L 778.34 421.56 L 774.62 421.56 L 774.62 423.78 L 774.62 423.78 Z  M 772.3 423.78 L 772.3 421.56 L 769.86 421.56 L 769.86 423.78 L 772.3 423.78 L 772.3 423.78 Z  M 769.62 428.44 L 769.62 428.44 Q 770.88 428.44 771.59 427.74 L 771.59 427.74 L 771.59 427.74 Q 772.3 427.04 772.3 425.9 L 772.3 425.9 L 772.3 425.62 L 769.54 425.62 L 769.54 425.62 Q 768.68 425.62 768.19 426.01 L 768.19 426.01 L 768.19 426.01 Q 767.7 426.4 767.7 427.02 L 767.7 427.02 L 767.7 427.02 Q 767.7 427.66 768.21 428.05 L 768.21 428.05 L 768.21 428.05 Q 768.72 428.44 769.62 428.44 L 769.62 428.44 L 769.62 428.44 Z  M 790.22 424.06 L 790.22 424.06 Q 791.14 424.06 791.88 424.43 L 791.88 424.43 L 791.88 424.43 Q 792.62 424.8 793.04 425.47 L 793.04 425.47 L 793.04 425.47 Q 793.46 426.14 793.46 426.96 L 793.46 426.96 L 793.46 426.96 Q 793.46 427.92 792.87 428.7 L 792.87 428.7 L 792.87 428.7 Q 792.28 429.48 791.2 429.92 L 791.2 429.92 L 791.2 429.92 Q 790.12 430.36 788.72 430.36 L 788.72 430.36 L 788.72 430.36 Q 786.62 430.36 784.95 429.47 L 784.95 429.47 L 784.95 429.47 Q 783.28 428.58 782.34 426.99 L 782.34 426.99 L 782.34 426.99 Q 781.4 425.4 781.4 423.42 L 781.4 423.42 L 781.4 423.42 Q 781.4 421.44 782.34 419.86 L 782.34 419.86 L 782.34 419.86 Q 783.28 418.28 784.95 417.39 L 784.95 417.39 L 784.95 417.39 Q 786.62 416.5 788.72 416.5 L 788.72 416.5 L 788.72 416.5 Q 790.12 416.5 791.2 416.94 L 791.2 416.94 L 791.2 416.94 Q 792.28 417.38 792.87 418.16 L 792.87 418.16 L 792.87 418.16 Q 793.46 418.94 793.46 419.9 L 793.46 419.9 L 793.46 419.9 Q 793.46 420.72 793.04 421.39 L 793.04 421.39 L 793.04 421.39 Q 792.62 422.06 791.88 422.43 L 791.88 422.43 L 791.88 422.43 Q 791.14 422.8 790.22 422.8 L 790.22 422.8 L 790.22 422.8 Q 788.88 422.8 788.03 421.98 L 788.03 421.98 L 788.03 421.98 Q 787.18 421.16 787.18 419.86 L 787.18 419.86 L 787.18 419.86 Q 787.18 419.04 787.64 418.46 L 787.64 418.46 L 787.64 418.46 Q 785.94 418.68 784.9 420.03 L 784.9 420.03 L 784.9 420.03 Q 783.86 421.38 783.82 423.42 L 783.82 423.42 L 783.82 423.42 Q 783.86 425.46 784.9 426.82 L 784.9 426.82 L 784.9 426.82 Q 785.94 428.18 787.64 428.4 L 787.64 428.4 L 787.64 428.4 Q 787.18 427.82 787.18 427 L 787.18 427 L 787.18 427 Q 787.18 425.7 788.03 424.88 L 788.03 424.88 L 788.03 424.88 Q 788.88 424.06 790.22 424.06 L 790.22 424.06 L 790.22 424.06 Z  M 790.26 420.96 L 790.26 420.96 Q 790.76 420.96 791.08 420.65 L 791.08 420.65 L 791.08 420.65 Q 791.4 420.34 791.4 419.84 L 791.4 419.84 L 791.4 419.84 Q 791.4 419.34 791.09 419.03 L 791.09 419.03 L 791.09 419.03 Q 790.78 418.72 790.32 418.72 L 790.32 418.72 L 790.32 418.72 Q 789.82 418.72 789.5 419.03 L 789.5 419.03 L 789.5 419.03 Q 789.18 419.34 789.18 419.82 L 789.18 419.82 L 789.18 419.82 Q 789.18 420.32 789.49 420.64 L 789.49 420.64 L 789.49 420.64 Q 789.8 420.96 790.26 420.96 L 790.26 420.96 L 790.26 420.96 Z  M 790.26 425.9 L 790.26 425.9 Q 789.8 425.9 789.49 426.22 L 789.49 426.22 L 789.49 426.22 Q 789.18 426.54 789.18 427.04 L 789.18 427.04 L 789.18 427.04 Q 789.18 427.52 789.5 427.83 L 789.5 427.83 L 789.5 427.83 Q 789.82 428.14 790.32 428.14 L 790.32 428.14 L 790.32 428.14 Q 790.78 428.14 791.09 427.83 L 791.09 427.83 L 791.09 427.83 Q 791.4 427.52 791.4 427.02 L 791.4 427.02 L 791.4 427.02 Q 791.4 426.52 791.08 426.21 L 791.08 426.21 L 791.08 426.21 Q 790.76 425.9 790.26 425.9 L 790.26 425.9 L 790.26 425.9 Z  M 805.42 419.74 L 807.74 419.74 L 807.74 430 L 796.2 430 L 796.2 419.74 L 798.52 419.64 L 798.52 428.18 L 805.42 428.18 L 805.42 419.74 L 805.42 419.74 Z  M 823.68 421.58 L 820.06 421.58 L 820.06 429.66 L 820.06 429.66 Q 820.06 430.5 819.98 431.04 L 819.98 431.04 L 819.98 431.04 Q 819.9 431.58 819.61 432 L 819.61 432 L 819.61 432 Q 819.32 432.42 818.7 432.66 L 818.7 432.66 L 812.72 435 L 811.84 433.04 L 816.72 431.12 L 816.72 431.12 Q 817.18 430.94 817.4 430.67 L 817.4 430.67 L 817.4 430.67 Q 817.62 430.4 817.68 430.02 L 817.68 430.02 L 817.68 430.02 Q 817.74 429.64 817.74 428.9 L 817.74 428.9 L 817.74 421.56 L 813.52 421.56 L 813.52 430 L 811.2 430 L 811.2 419.74 L 823.32 419.74 L 823.68 421.58 L 823.68 421.58 Z  M 749.44 423.08 L 749.44 423.08 Q 750.64 423.08 751.56 423.73 L 751.56 423.73 L 751.56 423.73 Q 752.48 424.38 752.98 425.53 L 752.98 425.53 L 752.98 425.53 Q 753.48 426.68 753.48 428.12 L 753.48 428.12 L 753.48 428.12 Q 753.48 430.44 752.19 432.15 L 752.19 432.15 L 752.19 432.15 Q 750.9 433.86 748.52 434.79 L 748.52 434.79 L 748.52 434.79 Q 746.14 435.72 742.92 435.72 L 742.92 435.72 L 727.78 435.72 L 727.78 435.72 Q 724.68 435.72 722.3 434.59 L 722.3 434.59 L 722.3 434.59 Q 719.92 433.46 718.61 431.39 L 718.61 431.39 L 718.61 431.39 Q 717.3 429.32 717.3 426.6 L 717.3 426.6 L 717.3 426.6 Q 717.3 424.7 718.12 422.7 L 718.12 422.7 L 718.12 422.7 Q 718.94 420.7 720.2 419.54 L 720.2 419.54 L 722.58 419.74 L 722.58 419.74 Q 721.34 420.78 720.53 422.71 L 720.53 422.71 L 720.53 422.71 Q 719.72 424.64 719.72 426.64 L 719.72 426.64 L 719.72 426.64 Q 719.72 428.78 720.72 430.41 L 720.72 430.41 L 720.72 430.41 Q 721.72 432.04 723.54 432.95 L 723.54 432.95 L 723.54 432.95 Q 725.36 433.86 727.78 433.88 L 727.78 433.88 L 742.92 433.88 L 742.92 433.88 Q 745.42 433.88 747.26 433.17 L 747.26 433.17 L 747.26 433.17 Q 749.1 432.46 750.07 431.16 L 750.07 431.16 L 750.07 431.16 Q 751.04 429.86 751.04 428.12 L 751.04 428.12 L 751.04 428.12 Q 751.04 426.76 750.54 425.92 L 750.54 425.92 L 750.54 425.92 Q 750.04 425.08 749.16 425.08 L 749.16 425.08 L 749.16 425.08 Q 748.44 425.08 747.97 425.52 L 747.97 425.52 L 747.97 425.52 Q 747.5 425.96 747.5 426.62 L 747.5 426.62 L 747.5 430 L 745.18 430 L 745.18 421.56 L 740.94 421.56 L 740.94 430 L 738.62 430 L 738.62 424.56 L 738.62 424.56 Q 738.62 423.06 738.03 422.18 L 738.03 422.18 L 738.03 422.18 Q 737.44 421.3 736.22 421.3 L 736.22 421.3 L 736.22 421.3 Q 735.14 421.3 734.68 422 L 734.68 422 L 734.68 422 Q 734.22 422.7 734.22 423.96 L 734.22 423.96 L 734.22 430 L 723.76 430 L 723.76 419.74 L 726.08 419.64 L 726.08 428.18 L 731.9 428.18 L 731.9 423.86 L 731.9 423.86 Q 731.9 421.82 732.96 420.6 L 732.96 420.6 L 732.96 420.6 Q 734.02 419.38 736.1 419.38 L 736.1 419.38 L 736.1 419.38 Q 737.56 419.38 738.62 420.38 L 738.62 420.38 L 738.62 419.74 L 743.7 419.74 L 743.7 419.74 Q 742.8 418.62 742.8 417.1 L 742.8 417.1 L 742.8 417.1 Q 742.8 415.76 743.49 414.7 L 743.49 414.7 L 743.49 414.7 Q 744.18 413.64 745.45 413.04 L 745.45 413.04 L 745.45 413.04 Q 746.72 412.44 748.4 412.44 L 748.4 412.44 L 748.4 412.44 Q 749.76 412.44 750.9 412.95 L 750.9 412.95 L 750.9 412.95 Q 752.04 413.46 752.71 414.35 L 752.71 414.35 L 752.71 414.35 Q 753.38 415.24 753.38 416.34 L 753.38 416.34 L 753.38 416.34 Q 753.38 417.48 752.58 418.22 L 752.58 418.22 L 752.58 418.22 Q 751.78 418.96 750.56 418.96 L 750.56 418.96 L 750.56 418.96 Q 749.36 418.96 748.56 418.23 L 748.56 418.23 L 748.56 418.23 Q 747.76 417.5 747.76 416.4 L 747.76 416.4 L 747.76 416.4 Q 747.76 415.76 748.02 415.25 L 748.02 415.25 L 748.02 415.25 Q 748.28 414.74 748.74 414.38 L 748.74 414.38 L 748.4 414.38 L 748.4 414.38 Q 746.92 414.38 746.07 415.13 L 746.07 415.13 L 746.07 415.13 Q 745.22 415.88 745.22 417.1 L 745.22 417.1 L 745.22 417.1 Q 745.22 418.28 745.96 419.01 L 745.96 419.01 L 745.96 419.01 Q 746.7 419.74 747.84 419.74 L 747.84 419.74 L 750.76 419.74 L 751.12 421.56 L 747.5 421.56 L 747.5 423.56 L 747.5 423.56 Q 748.4 423.08 749.44 423.08 L 749.44 423.08 L 749.44 423.08 Z  M 750.56 417.42 L 750.56 417.42 Q 751 417.42 751.29 417.13 L 751.29 417.13 L 751.29 417.13 Q 751.58 416.84 751.58 416.4 L 751.58 416.4 L 751.58 416.4 Q 751.58 415.98 751.29 415.69 L 751.29 415.69 L 751.29 415.69 Q 751 415.4 750.56 415.4 L 750.56 415.4 L 750.56 415.4 Q 750.12 415.4 749.83 415.69 L 749.83 415.69 L 749.83 415.69 Q 749.54 415.98 749.54 416.4 L 749.54 416.4 L 749.54 416.4 Q 749.54 416.84 749.83 417.13 L 749.83 417.13 L 749.83 417.13 Q 750.12 417.42 750.56 417.42 L 750.56 417.42 L 750.56 417.42 Z " fill="rgb(255,255,255)"/></svg>