<?xml version="1.0" encoding="UTF-8" standalone="no"?><!-- Generator: Gravit.io --><svg xmlns="http://www.w3.org/2000/svg" xmlns:xlink="http://www.w3.org/1999/xlink" style="isolation:isolate" viewBox="717.3 404.44 167.36 23.28" width="167.36pt" height="23.28pt"><path d=" M 776.42 411.74 L 778.74 411.74 L 778.74 424.52 L 776.42 424.52 L 776.42 420.98 L 772.56 420.98 L 772.56 420.98 Q 771.6 422.82 769.62 423.85 L 769.62 423.85 L 769.62 423.85 Q 767.64 424.88 764.92 424.88 L 764.92 424.88 L 764.92 424.88 Q 763.22 424.88 761.87 424.44 L 761.87 424.44 L 761.87 424.44 Q 760.52 424 759.76 423.23 L 759.76 423.23 L 759.76 423.23 Q 759 422.46 759 421.48 L 759 421.48 L 759 421.48 Q 759 420.4 759.77 419.78 L 759.77 419.78 L 759.77 419.78 Q 760.54 419.16 762.18 419.16 L 762.18 419.16 L 770.74 419.16 L 770.74 419.16 Q 770.94 418.3 770.94 417.52 L 770.94 417.52 L 770.94 417.52 Q 770.94 415.64 769.94 414.47 L 769.94 414.47 L 769.94 414.47 Q 768.94 413.3 767.26 413.3 L 767.26 413.3 L 767.26 413.3 Q 767.02 413.3 766.92 413.32 L 766.92 413.32 L 766.92 413.32 Q 767.46 413.66 767.77 414.18 L 767.77 414.18 L 767.77 414.18 Q 768.08 414.7 768.08 415.36 L 768.08 415.36 L 768.08 415.36 Q 768.08 416.6 767.26 417.39 L 767.26 417.39 L 767.26 417.39 Q 766.44 418.18 765.16 418.18 L 765.16 418.18 L 765.16 418.18 Q 763.86 418.18 763.02 417.4 L 763.02 417.4 L 763.02 417.4 Q 762.18 416.62 762.18 415.42 L 762.18 415.42 L 762.18 415.42 Q 762.18 414.26 762.83 413.34 L 762.83 413.34 L 762.83 413.34 Q 763.48 412.42 764.64 411.9 L 764.64 411.9 L 764.64 411.9 Q 765.8 411.38 767.26 411.38 L 767.26 411.38 L 767.26 411.38 Q 769.04 411.38 770.43 412.18 L 770.43 412.18 L 770.43 412.18 Q 771.82 412.98 772.6 414.38 L 772.6 414.38 L 772.6 414.38 Q 773.38 415.78 773.38 417.52 L 773.38 417.52 L 773.38 417.52 Q 773.38 418.32 773.22 419.16 L 773.22 419.16 L 776.42 419.16 L 776.42 411.74 L 776.42 411.74 Z  M 765.12 416.32 L 765.12 416.32 Q 765.52 416.32 765.77 416.07 L 765.77 416.07 L 765.77 416.07 Q 766.02 415.82 766.02 415.42 L 766.02 415.42 L 766.02 415.42 Q 766.02 415.04 765.77 414.8 L 765.77 414.8 L 765.77 414.8 Q 765.52 414.56 765.14 414.56 L 765.14 414.56 L 765.14 414.56 Q 764.74 414.56 764.48 414.8 L 764.48 414.8 L 764.48 414.8 Q 764.22 415.04 764.22 415.42 L 764.22 415.42 L 764.22 415.42 Q 764.22 415.8 764.48 416.06 L 764.48 416.06 L 764.48 416.06 Q 764.74 416.32 765.12 416.32 L 765.12 416.32 L 765.12 416.32 Z  M 764.92 422.96 L 764.92 422.96 Q 766.56 422.96 767.81 422.44 L 767.81 422.44 L 767.81 422.44 Q 769.06 421.92 769.82 420.98 L 769.82 420.98 L 762.08 420.98 L 762.08 420.98 Q 761.42 420.98 761.42 421.48 L 761.42 421.48 L 761.42 421.48 Q 761.42 422.1 762.39 422.53 L 762.39 422.53 L 762.39 422.53 Q 763.36 422.96 764.92 422.96 L 764.92 422.96 L 764.92 422.96 Z  M 791.68 415.08 L 791.68 415.08 Q 792.88 415.08 793.8 415.73 L 793.8 415.73 L 793.8 415.73 Q 794.72 416.38 795.21 417.53 L 795.21 417.53 L 795.21 417.53 Q 795.7 418.68 795.7 420.12 L 795.7 420.12 L 795.7 420.12 Q 795.7 421.76 795.07 423.03 L 795.07 423.03 L 795.07 423.03 Q 794.44 424.3 793.25 425.02 L 793.25 425.02 L 793.25 425.02 Q 792.06 425.74 790.42 425.74 L 790.42 425.74 L 787.58 425.74 L 787.58 425.74 Q 784.86 425.74 784.08 426.86 L 784.08 426.86 L 782.2 425.68 L 782.2 425.68 Q 782.66 424.76 783.83 424.34 L 783.83 424.34 L 783.83 424.34 Q 785 423.92 787.3 423.92 L 787.3 423.92 L 790.42 423.92 L 790.42 423.92 Q 791.82 423.92 792.55 422.88 L 792.55 422.88 L 792.55 422.88 Q 793.28 421.84 793.28 420.12 L 793.28 420.12 L 793.28 420.12 Q 793.28 418.76 792.78 417.92 L 792.78 417.92 L 792.78 417.92 Q 792.28 417.08 791.4 417.08 L 791.4 417.08 L 791.4 417.08 Q 790.68 417.08 790.21 417.52 L 790.21 417.52 L 790.21 417.52 Q 789.74 417.96 789.74 418.62 L 789.74 418.62 L 789.74 422 L 787.42 422 L 787.42 413.56 L 784.52 413.56 L 784.52 422 L 782.2 422 L 782.2 411.74 L 793 411.74 L 793.36 413.58 L 789.74 413.58 L 789.74 415.58 L 789.74 415.58 Q 790.58 415.08 791.68 415.08 L 791.68 415.08 L 791.68 415.08 Z  M 793.02 406.06 L 793.02 406.06 Q 795.32 406.06 797.02 406.81 L 797.02 406.81 L 797.02 406.81 Q 798.72 407.56 799.62 408.89 L 799.62 408.89 L 799.62 408.89 Q 800.52 410.22 800.52 411.94 L 800.52 411.94 L 800.52 422 L 798.2 422 L 798.2 411.94 L 798.2 411.94 Q 798.2 410.14 796.85 409.06 L 796.85 409.06 L 796.85 409.06 Q 795.5 407.98 793.02 407.98 L 793.02 407.98 L 793.02 407.98 Q 791.12 407.98 790.1 408.56 L 790.1 408.56 L 790.1 408.56 Q 789.08 409.14 789.08 410.06 L 789.08 410.06 L 789.08 410.06 Q 789.08 411.74 790.78 411.74 L 790.78 411.74 L 790.78 413.36 L 790.78 413.36 Q 788.92 413.36 787.86 412.47 L 787.86 412.47 L 787.86 412.47 Q 786.8 411.58 786.78 410.06 L 786.78 410.06 L 786.78 410.06 Q 786.78 408.94 787.52 408.03 L 787.52 408.03 L 787.52 408.03 Q 788.26 407.12 789.67 406.59 L 789.67 406.59 L 789.67 406.59 Q 791.08 406.06 793.02 406.06 L 793.02 406.06 L 793.02 406.06 Z  M 820.8 415.08 L 820.8 415.08 Q 822 415.08 822.92 415.73 L 822.92 415.73 L 822.92 415.73 Q 823.84 416.38 824.34 417.53 L 824.34 417.53 L 824.34 417.53 Q 824.84 418.68 824.84 420.12 L 824.84 420.12 L 824.84 420.12 Q 824.84 422.44 823.6 424.1 L 823.6 424.1 L 823.6 424.1 Q 822.36 425.76 820.03 426.64 L 820.03 426.64 L 820.03 426.64 Q 817.7 427.52 814.48 427.52 L 814.48 427.52 L 814.48 427.52 Q 811.36 427.52 808.93 426.44 L 808.93 426.44 L 808.93 426.44 Q 806.5 425.36 805.15 423.34 L 805.15 423.34 L 805.15 423.34 Q 803.8 421.32 803.8 418.6 L 803.8 418.6 L 803.8 418.6 Q 803.8 416.7 804.62 414.7 L 804.62 414.7 L 804.62 414.7 Q 805.44 412.7 806.7 411.54 L 806.7 411.54 L 809.08 411.74 L 809.08 411.74 Q 807.84 412.78 807.03 414.71 L 807.03 414.71 L 807.03 414.71 Q 806.22 416.64 806.22 418.64 L 806.22 418.64 L 806.22 418.64 Q 806.22 420.78 807.26 422.33 L 807.26 422.33 L 807.26 422.33 Q 808.3 423.88 810.17 424.7 L 810.17 424.7 L 810.17 424.7 Q 812.04 425.52 814.48 425.52 L 814.48 425.52 L 814.48 425.52 Q 818.3 425.52 820.35 424.12 L 820.35 424.12 L 820.35 424.12 Q 822.4 422.72 822.4 420.12 L 822.4 420.12 L 822.4 420.12 Q 822.4 418.76 821.9 417.92 L 821.9 417.92 L 821.9 417.92 Q 821.4 417.08 820.54 417.08 L 820.54 417.08 L 820.54 417.08 Q 819.8 417.08 819.33 417.52 L 819.33 417.52 L 819.33 417.52 Q 818.86 417.96 818.86 418.62 L 818.86 418.62 L 818.86 422 L 816.54 422 L 816.54 413.56 L 813.02 413.56 L 813.02 422 L 810.7 422 L 810.7 411.74 L 822.12 411.74 L 822.48 413.56 L 818.86 413.56 L 818.86 415.58 L 818.86 415.58 Q 819.7 415.08 820.8 415.08 L 820.8 415.08 L 820.8 415.08 Z  M 835.74 415.78 L 835.74 415.78 Q 837.14 415.78 838.25 416.39 L 838.25 416.39 L 838.25 416.39 Q 839.36 417 839.98 418.08 L 839.98 418.08 L 839.98 418.08 Q 840.6 419.16 840.6 420.52 L 840.6 420.52 L 840.6 420.52 Q 840.6 422.02 839.84 423.21 L 839.84 423.21 L 839.84 423.21 Q 839.08 424.4 837.73 425.07 L 837.73 425.07 L 837.73 425.07 Q 836.38 425.74 834.7 425.74 L 834.7 425.74 L 831.58 425.74 L 831.58 425.74 Q 828.84 425.74 828.1 426.86 L 828.1 426.86 L 826.2 425.68 L 826.2 425.68 Q 826.58 424.88 827.91 424.4 L 827.91 424.4 L 827.91 424.4 Q 829.24 423.92 831.32 423.92 L 831.32 423.92 L 834.7 423.92 L 834.7 423.92 Q 835.7 423.92 836.49 423.48 L 836.49 423.48 L 836.49 423.48 Q 837.28 423.04 837.73 422.27 L 837.73 422.27 L 837.73 422.27 Q 838.18 421.5 838.18 420.52 L 838.18 420.52 L 838.18 420.52 Q 838.18 419.26 837.5 418.44 L 837.5 418.44 L 837.5 418.44 Q 836.82 417.62 835.76 417.62 L 835.76 417.62 L 835.56 417.62 L 835.56 417.9 L 835.56 417.9 Q 835.56 419.18 834.94 420.2 L 834.94 420.2 L 834.94 420.2 Q 834.32 421.22 833.19 421.79 L 833.19 421.79 L 833.19 421.79 Q 832.06 422.36 830.54 422.36 L 830.54 422.36 L 830.54 422.36 Q 829.22 422.36 828.24 421.93 L 828.24 421.93 L 828.24 421.93 Q 827.26 421.5 826.73 420.75 L 826.73 420.75 L 826.73 420.75 Q 826.2 420 826.2 419.02 L 826.2 419.02 L 826.2 419.02 Q 826.2 418.02 826.79 417.24 L 826.79 417.24 L 826.79 417.24 Q 827.38 416.46 828.46 416.08 L 828.46 416.08 L 828.46 411.74 L 838.9 411.74 L 839.26 413.56 L 835.56 413.56 L 835.56 415.78 L 835.74 415.78 L 835.74 415.78 Z  M 833.22 415.78 L 833.22 413.56 L 830.78 413.56 L 830.78 415.78 L 833.22 415.78 L 833.22 415.78 Z  M 833.22 417.9 L 833.22 417.62 L 830.48 417.62 L 830.48 417.62 Q 829.6 417.62 829.11 418 L 829.11 418 L 829.11 418 Q 828.62 418.38 828.62 419.02 L 828.62 419.02 L 828.62 419.02 Q 828.62 419.66 829.13 420.05 L 829.13 420.05 L 829.13 420.05 Q 829.64 420.44 830.54 420.44 L 830.54 420.44 L 830.54 420.44 Q 831.82 420.44 832.52 419.74 L 832.52 419.74 L 832.52 419.74 Q 833.22 419.04 833.22 417.9 L 833.22 417.9 L 833.22 417.9 Z  M 833.5 409.6 L 833.5 409.6 Q 834.12 409.6 834.52 409.2 L 834.52 409.2 L 834.52 409.2 Q 834.92 408.8 834.92 408.2 L 834.92 408.2 L 834.92 408.2 Q 834.92 407.58 834.52 407.18 L 834.52 407.18 L 834.52 407.18 Q 834.12 406.78 833.5 406.78 L 833.5 406.78 L 833.5 406.78 Q 832.9 406.78 832.51 407.18 L 832.51 407.18 L 832.51 407.18 Q 832.12 407.58 832.12 408.2 L 832.12 408.2 L 832.12 408.2 Q 832.12 408.8 832.51 409.2 L 832.51 409.2 L 832.51 409.2 Q 832.9 409.6 833.5 409.6 L 833.5 409.6 L 833.5 409.6 Z  M 851.74 415.78 L 851.74 415.78 Q 853.14 415.78 854.25 416.39 L 854.25 416.39 L 854.25 416.39 Q 855.36 417 855.98 418.08 L 855.98 418.08 L 855.98 418.08 Q 856.6 419.16 856.6 420.52 L 856.6 420.52 L 856.6 420.52 Q 856.6 422.02 855.84 423.21 L 855.84 423.21 L 855.84 423.21 Q 855.08 424.4 853.73 425.07 L 853.73 425.07 L 853.73 425.07 Q 852.38 425.74 850.7 425.74 L 850.7 425.74 L 847.58 425.74 L 847.58 425.74 Q 844.84 425.74 844.1 426.86 L 844.1 426.86 L 842.2 425.68 L 842.2 425.68 Q 842.58 424.88 843.91 424.4 L 843.91 424.4 L 843.91 424.4 Q 845.24 423.92 847.32 423.92 L 847.32 423.92 L 850.7 423.92 L 850.7 423.92 Q 851.7 423.92 852.49 423.48 L 852.49 423.48 L 852.49 423.48 Q 853.28 423.04 853.73 422.27 L 853.73 422.27 L 853.73 422.27 Q 854.18 421.5 854.18 420.52 L 854.18 420.52 L 854.18 420.52 Q 854.18 419.26 853.5 418.44 L 853.5 418.44 L 853.5 418.44 Q 852.82 417.62 851.76 417.62 L 851.76 417.62 L 851.56 417.62 L 851.56 417.9 L 851.56 417.9 Q 851.56 419.18 850.94 420.2 L 850.94 420.2 L 850.94 420.2 Q 850.32 421.22 849.19 421.79 L 849.19 421.79 L 849.19 421.79 Q 848.06 422.36 846.54 422.36 L 846.54 422.36 L 846.54 422.36 Q 845.22 422.36 844.24 421.93 L 844.24 421.93 L 844.24 421.93 Q 843.26 421.5 842.73 420.75 L 842.73 420.75 L 842.73 420.75 Q 842.2 420 842.2 419.02 L 842.2 419.02 L 842.2 419.02 Q 842.2 418.02 842.79 417.24 L 842.79 417.24 L 842.79 417.24 Q 843.38 416.46 844.46 416.08 L 844.46 416.08 L 844.46 411.74 L 854.9 411.74 L 855.26 413.56 L 851.56 413.56 L 851.56 415.78 L 851.74 415.78 L 851.74 415.78 Z  M 849.22 415.78 L 849.22 413.56 L 846.78 413.56 L 846.78 415.78 L 849.22 415.78 L 849.22 415.78 Z  M 849.22 417.9 L 849.22 417.62 L 846.48 417.62 L 846.48 417.62 Q 845.6 417.62 845.11 418 L 845.11 418 L 845.11 418 Q 844.62 418.38 844.62 419.02 L 844.62 419.02 L 844.62 419.02 Q 844.62 419.66 845.13 420.05 L 845.13 420.05 L 845.13 420.05 Q 845.64 420.44 846.54 420.44 L 846.54 420.44 L 846.54 420.44 Q 847.82 420.44 848.52 419.74 L 848.52 419.74 L 848.52 419.74 Q 849.22 419.04 849.22 417.9 L 849.22 417.9 L 849.22 417.9 Z  M 884.3 411.74 L 884.66 413.56 L 881.04 413.56 L 881.04 422 L 878.72 422 L 878.72 413.56 L 876.94 413.56 L 876.94 413.56 Q 875.66 413.56 874.5 414 L 874.5 414 L 874.5 414 Q 875.56 414.92 876.15 416.05 L 876.15 416.05 L 876.15 416.05 Q 876.74 417.18 876.74 418.4 L 876.74 418.4 L 876.74 418.4 Q 876.74 419.54 876.24 420.44 L 876.24 420.44 L 876.24 420.44 Q 875.74 421.34 874.86 421.85 L 874.86 421.85 L 874.86 421.85 Q 873.98 422.36 872.84 422.36 L 872.84 422.36 L 872.84 422.36 Q 871.7 422.36 870.82 421.85 L 870.82 421.85 L 870.82 421.85 Q 869.94 421.34 869.45 420.44 L 869.45 420.44 L 869.45 420.44 Q 868.96 419.54 868.96 418.4 L 868.96 418.4 L 868.96 418.4 Q 868.96 417.18 869.45 416.07 L 869.45 416.07 L 869.45 416.07 Q 869.94 414.96 870.84 414.08 L 870.84 414.08 L 870.84 414.08 Q 869.04 413.3 866.9 413.3 L 866.9 413.3 L 866.9 413.3 Q 865.04 413.3 863.66 413.82 L 863.66 413.82 L 863.66 413.82 Q 862.28 414.34 861.55 415.26 L 861.55 415.26 L 861.55 415.26 Q 860.82 416.18 860.82 417.34 L 860.82 417.34 L 860.82 417.34 Q 860.82 418.14 861.16 418.82 L 861.16 418.82 L 861.16 418.82 Q 861.26 417.5 862.22 416.65 L 862.22 416.65 L 862.22 416.65 Q 863.18 415.8 864.58 415.8 L 864.58 415.8 L 864.58 415.8 Q 865.64 415.8 866.49 416.23 L 866.49 416.23 L 866.49 416.23 Q 867.34 416.66 867.82 417.41 L 867.82 417.41 L 867.82 417.41 Q 868.3 418.16 868.3 419.1 L 868.3 419.1 L 868.3 419.1 Q 868.3 420.04 867.79 420.78 L 867.79 420.78 L 867.79 420.78 Q 867.28 421.52 866.37 421.94 L 866.37 421.94 L 866.37 421.94 Q 865.46 422.36 864.32 422.36 L 864.32 422.36 L 864.32 422.36 Q 862.62 422.36 861.27 421.72 L 861.27 421.72 L 861.27 421.72 Q 859.92 421.08 859.16 419.94 L 859.16 419.94 L 859.16 419.94 Q 858.4 418.8 858.4 417.34 L 858.4 417.34 L 858.4 417.34 Q 858.4 415.64 859.44 414.28 L 859.44 414.28 L 859.44 414.28 Q 860.48 412.92 862.41 412.15 L 862.41 412.15 L 862.41 412.15 Q 864.34 411.38 866.9 411.38 L 866.9 411.38 L 866.9 411.38 Q 868.48 411.38 869.95 411.74 L 869.95 411.74 L 869.95 411.74 Q 871.42 412.1 872.68 412.76 L 872.68 412.76 L 872.68 412.76 Q 874.6 411.74 876.94 411.74 L 876.94 411.74 L 884.3 411.74 L 884.3 411.74 Z  M 872.84 420.44 L 872.84 420.44 Q 873.54 420.44 873.92 419.87 L 873.92 419.87 L 873.92 419.87 Q 874.3 419.3 874.3 418.4 L 874.3 418.4 L 874.3 418.4 Q 874.3 417.5 873.88 416.68 L 873.88 416.68 L 873.88 416.68 Q 873.46 415.86 872.68 415.2 L 872.68 415.2 L 872.68 415.2 Q 872.06 415.84 871.72 416.65 L 871.72 416.65 L 871.72 416.65 Q 871.38 417.46 871.38 418.4 L 871.38 418.4 L 871.38 418.4 Q 871.38 419.28 871.77 419.86 L 871.77 419.86 L 871.77 419.86 Q 872.16 420.44 872.84 420.44 L 872.84 420.44 L 872.84 420.44 Z  M 864.62 417.64 L 864.62 417.64 Q 864 417.64 863.6 418.05 L 863.6 418.05 L 863.6 418.05 Q 863.2 418.46 863.2 419.1 L 863.2 419.1 L 863.2 419.1 Q 863.2 419.72 863.6 420.12 L 863.6 420.12 L 863.6 420.12 Q 864 420.52 864.62 420.52 L 864.62 420.52 L 864.62 420.52 Q 865.24 420.52 865.65 420.12 L 865.65 420.12 L 865.65 420.12 Q 866.06 419.72 866.06 419.1 L 866.06 419.1 L 866.06 419.1 Q 866.06 418.48 865.65 418.06 L 865.65 418.06 L 865.65 418.06 Q 865.24 417.64 864.62 417.64 L 864.62 417.64 L 864.62 417.64 Z  M 872.5 409.6 L 872.5 409.6 Q 873.12 409.6 873.52 409.2 L 873.52 409.2 L 873.52 409.2 Q 873.92 408.8 873.92 408.2 L 873.92 408.2 L 873.92 408.2 Q 873.92 407.58 873.52 407.18 L 873.52 407.18 L 873.52 407.18 Q 873.12 406.78 872.5 406.78 L 872.5 406.78 L 872.5 406.78 Q 871.9 406.78 871.51 407.18 L 871.51 407.18 L 871.51 407.18 Q 871.12 407.58 871.12 408.2 L 871.12 408.2 L 871.12 408.2 Q 871.12 408.8 871.51 409.2 L 871.51 409.2 L 871.51 409.2 Q 871.9 409.6 872.5 409.6 L 872.5 409.6 L 872.5 409.6 Z  M 749.44 415.08 L 749.44 415.08 Q 750.64 415.08 751.56 415.73 L 751.56 415.73 L 751.56 415.73 Q 752.48 416.38 752.98 417.53 L 752.98 417.53 L 752.98 417.53 Q 753.48 418.68 753.48 420.12 L 753.48 420.12 L 753.48 420.12 Q 753.48 422.44 752.19 424.15 L 752.19 424.15 L 752.19 424.15 Q 750.9 425.86 748.52 426.79 L 748.52 426.79 L 748.52 426.79 Q 746.14 427.72 742.92 427.72 L 742.92 427.72 L 727.78 427.72 L 727.78 427.72 Q 724.68 427.72 722.3 426.59 L 722.3 426.59 L 722.3 426.59 Q 719.92 425.46 718.61 423.39 L 718.61 423.39 L 718.61 423.39 Q 717.3 421.32 717.3 418.6 L 717.3 418.6 L 717.3 418.6 Q 717.3 416.7 718.12 414.7 L 718.12 414.7 L 718.12 414.7 Q 718.94 412.7 720.2 411.54 L 720.2 411.54 L 722.58 411.74 L 722.58 411.74 Q 721.34 412.78 720.53 414.71 L 720.53 414.71 L 720.53 414.71 Q 719.72 416.64 719.72 418.64 L 719.72 418.64 L 719.72 418.64 Q 719.72 420.78 720.72 422.41 L 720.72 422.41 L 720.72 422.41 Q 721.72 424.04 723.54 424.95 L 723.54 424.95 L 723.54 424.95 Q 725.36 425.86 727.78 425.88 L 727.78 425.88 L 742.92 425.88 L 742.92 425.88 Q 745.42 425.88 747.26 425.17 L 747.26 425.17 L 747.26 425.17 Q 749.1 424.46 750.07 423.16 L 750.07 423.16 L 750.07 423.16 Q 751.04 421.86 751.04 420.12 L 751.04 420.12 L 751.04 420.12 Q 751.04 418.76 750.54 417.92 L 750.54 417.92 L 750.54 417.92 Q 750.04 417.08 749.16 417.08 L 749.16 417.08 L 749.16 417.08 Q 748.44 417.08 747.97 417.52 L 747.97 417.52 L 747.97 417.52 Q 747.5 417.96 747.5 418.62 L 747.5 418.62 L 747.5 422 L 745.18 422 L 745.18 413.56 L 740.94 413.56 L 740.94 422 L 738.62 422 L 738.62 416.56 L 738.62 416.56 Q 738.62 415.06 738.03 414.18 L 738.03 414.18 L 738.03 414.18 Q 737.44 413.3 736.22 413.3 L 736.22 413.3 L 736.22 413.3 Q 735.14 413.3 734.68 414 L 734.68 414 L 734.68 414 Q 734.22 414.7 734.22 415.96 L 734.22 415.96 L 734.22 422 L 723.76 422 L 723.76 411.74 L 726.08 411.64 L 726.08 420.18 L 731.9 420.18 L 731.9 415.86 L 731.9 415.86 Q 731.9 413.82 732.96 412.6 L 732.96 412.6 L 732.96 412.6 Q 734.02 411.38 736.1 411.38 L 736.1 411.38 L 736.1 411.38 Q 737.56 411.38 738.62 412.38 L 738.62 412.38 L 738.62 411.74 L 743.7 411.74 L 743.7 411.74 Q 742.8 410.62 742.8 409.1 L 742.8 409.1 L 742.8 409.1 Q 742.8 407.76 743.49 406.7 L 743.49 406.7 L 743.49 406.7 Q 744.18 405.64 745.45 405.04 L 745.45 405.04 L 745.45 405.04 Q 746.72 404.44 748.4 404.44 L 748.4 404.44 L 748.4 404.44 Q 749.76 404.44 750.9 404.95 L 750.9 404.95 L 750.9 404.95 Q 752.04 405.46 752.71 406.35 L 752.71 406.35 L 752.71 406.35 Q 753.38 407.24 753.38 408.34 L 753.38 408.34 L 753.38 408.34 Q 753.38 409.48 752.58 410.22 L 752.58 410.22 L 752.58 410.22 Q 751.78 410.96 750.56 410.96 L 750.56 410.96 L 750.56 410.96 Q 749.36 410.96 748.56 410.23 L 748.56 410.23 L 748.56 410.23 Q 747.76 409.5 747.76 408.4 L 747.76 408.4 L 747.76 408.4 Q 747.76 407.76 748.02 407.25 L 748.02 407.25 L 748.02 407.25 Q 748.28 406.74 748.74 406.38 L 748.74 406.38 L 748.4 406.38 L 748.4 406.38 Q 746.92 406.38 746.07 407.13 L 746.07 407.13 L 746.07 407.13 Q 745.22 407.88 745.22 409.1 L 745.22 409.1 L 745.22 409.1 Q 745.22 410.28 745.96 411.01 L 745.96 411.01 L 745.96 411.01 Q 746.7 411.74 747.84 411.74 L 747.84 411.74 L 750.76 411.74 L 751.12 413.56 L 747.5 413.56 L 747.5 415.56 L 747.5 415.56 Q 748.4 415.08 749.44 415.08 L 749.44 415.08 L 749.44 415.08 Z  M 750.56 409.42 L 750.56 409.42 Q 751 409.42 751.29 409.13 L 751.29 409.13 L 751.29 409.13 Q 751.58 408.84 751.58 408.4 L 751.58 408.4 L 751.58 408.4 Q 751.58 407.98 751.29 407.69 L 751.29 407.69 L 751.29 407.69 Q 751 407.4 750.56 407.4 L 750.56 407.4 L 750.56 407.4 Q 750.12 407.4 749.83 407.69 L 749.83 407.69 L 749.83 407.69 Q 749.54 407.98 749.54 408.4 L 749.54 408.4 L 749.54 408.4 Q 749.54 408.84 749.83 409.13 L 749.83 409.13 L 749.83 409.13 Q 750.12 409.42 750.56 409.42 L 750.56 409.42 L 750.56 409.42 Z " fill="rgb(255,255,255)"/></svg>