<?xml version="1.0" encoding="UTF-8" standalone="no"?><!-- Generator: Gravit.io --><svg xmlns="http://www.w3.org/2000/svg" xmlns:xlink="http://www.w3.org/1999/xlink" style="isolation:isolate" viewBox="512 390 90.006 90" width="90.006pt" height="90pt"><g><path d=" M 599.645 459.432 L 581.427 447.283 C 579.115 445.754 576.016 446.257 574.307 448.439 L 569 455.262 C 568.318 456.161 567.079 456.422 566.092 455.874 L 565.083 455.318 C 561.736 453.494 557.573 451.223 549.184 442.831 C 540.795 434.439 538.52 430.273 536.696 426.932 L 536.142 425.923 C 535.587 424.937 535.843 423.692 536.742 423.004 L 543.561 417.699 C 545.742 415.99 546.246 412.892 544.719 410.579 L 532.57 392.362 C 531.004 390.007 527.863 389.3 525.439 390.757 L 517.821 395.333 C 515.428 396.74 513.672 399.019 512.921 401.692 C 510.178 411.687 512.242 428.938 537.653 454.352 C 557.867 474.564 572.915 480 583.258 480 C 585.639 480.01 588.01 479.7 590.308 479.079 C 592.982 478.329 595.261 476.573 596.667 474.179 L 601.248 466.565 C 602.707 464.141 602.001 460.998 599.645 459.432 Z  M 598.664 465.026 L 594.093 472.644 C 593.084 474.373 591.444 475.643 589.519 476.19 C 580.291 478.724 564.171 476.625 539.775 452.23 C 515.379 427.834 513.281 411.715 515.815 402.486 C 516.362 400.558 517.635 398.917 519.365 397.905 L 526.983 393.335 C 528.034 392.702 529.398 393.009 530.077 394.031 L 536.676 403.939 L 542.216 412.247 C 542.879 413.25 542.661 414.594 541.715 415.337 L 534.895 420.642 C 532.819 422.229 532.227 425.1 533.504 427.379 L 534.046 428.363 C 535.963 431.879 538.346 436.253 547.047 444.952 C 555.748 453.651 560.12 456.035 563.634 457.951 L 564.62 458.494 C 566.898 459.772 569.77 459.18 571.357 457.104 L 576.662 450.284 C 577.405 449.338 578.748 449.121 579.752 449.783 L 597.968 461.932 C 598.991 462.611 599.297 463.975 598.664 465.026 Z " fill="rgb(255,255,255)"/><path d=" M 563.001 405.006 C 577.077 405.021 588.483 416.428 588.499 430.504 C 588.499 431.332 589.17 432.004 589.999 432.004 C 590.827 432.004 591.499 431.332 591.499 430.504 C 591.481 414.772 578.733 402.023 563.001 402.006 C 562.172 402.006 561.501 402.677 561.501 403.506 C 561.501 404.334 562.172 405.006 563.001 405.006 Z " fill="rgb(255,255,255)"/><path d=" M 563.001 414.005 C 572.108 414.016 579.489 421.396 579.5 430.504 C 579.5 431.332 580.171 432.004 580.999 432.004 C 581.828 432.004 582.499 431.332 582.499 430.504 C 582.487 419.74 573.764 411.018 563.001 411.005 C 562.172 411.005 561.501 411.677 561.501 412.505 C 561.501 413.334 562.172 414.005 563.001 414.005 Z " fill="rgb(255,255,255)"/><path d=" M 563.001 423.004 C 567.141 423.009 570.495 426.364 570.5 430.504 C 570.5 431.332 571.172 432.004 572 432.004 C 572.828 432.004 573.5 431.332 573.5 430.504 C 573.493 424.708 568.797 420.011 563.001 420.005 C 562.172 420.005 561.501 420.676 561.501 421.504 C 561.501 422.333 562.172 423.004 563.001 423.004 Z " fill="rgb(255,255,255)"/></g></svg>