<?xml version="1.0" encoding="UTF-8" standalone="no"?><!-- Generator: Gravit.io --><svg xmlns="http://www.w3.org/2000/svg" xmlns:xlink="http://www.w3.org/1999/xlink" style="isolation:isolate" viewBox="489.5 392.481 227.824 33" width="227.824pt" height="33pt"><path d=" M 639.274 416.301 L 639.274 405.337 L 637.298 405.337 L 637.298 403.183 L 644.148 403.183 L 644.148 405.337 L 642.189 405.337 L 642.189 416.301 L 639.274 416.301 L 639.274 416.301 Z  M 647.146 416.301 L 647.146 403.183 L 650.045 403.183 L 650.045 408.495 L 652.069 408.495 L 652.069 403.183 L 654.984 403.183 L 654.984 416.301 L 652.069 416.301 L 652.069 410.568 L 650.045 410.568 L 650.045 416.301 L 647.146 416.301 L 647.146 416.301 Z  M 658.144 416.301 L 660.622 403.183 L 663.925 403.183 L 666.371 416.301 L 663.699 416.301 L 663.261 413.532 L 661.334 413.532 L 660.881 416.301 L 658.144 416.301 L 658.144 416.301 Z  M 661.593 411.799 L 662.986 411.799 L 662.29 406.681 L 661.593 411.799 L 661.593 411.799 Z  M 670.502 416.301 L 670.502 410.94 L 668.008 403.183 L 670.745 403.183 L 671.992 407.329 L 673.109 403.183 L 675.733 403.183 L 673.287 410.94 L 673.287 416.301 L 670.502 416.301 L 670.502 416.301 Z  M 677.354 416.301 L 679.832 403.183 L 683.135 403.183 L 685.581 416.301 L 682.909 416.301 L 682.471 413.532 L 680.544 413.532 L 680.091 416.301 L 677.354 416.301 L 677.354 416.301 Z  M 680.803 411.799 L 682.196 411.799 L 681.5 406.681 L 680.803 411.799 L 680.803 411.799 Z  M 688.076 416.301 L 690.554 403.183 L 693.858 403.183 L 696.303 416.301 L 693.631 416.301 L 693.194 413.532 L 691.267 413.532 L 690.813 416.301 L 688.076 416.301 L 688.076 416.301 Z  M 691.526 411.799 L 692.919 411.799 L 692.222 406.681 L 691.526 411.799 L 691.526 411.799 Z  M 699.43 416.301 L 699.43 403.183 L 703.042 403.183 L 703.042 403.183 Q 705.196 403.183 706.297 403.944 L 706.297 403.944 L 706.297 403.944 Q 707.398 404.706 707.398 406.649 L 707.398 406.649 L 707.398 406.649 Q 707.398 407.961 707.058 408.738 L 707.058 408.738 L 707.058 408.738 Q 706.718 409.515 705.795 409.953 L 705.795 409.953 L 707.592 416.301 L 704.596 416.301 L 703.155 410.422 L 702.329 410.422 L 702.329 416.301 L 699.43 416.301 L 699.43 416.301 Z  M 702.329 408.754 L 703.139 408.754 L 703.139 408.754 Q 704.013 408.754 704.362 408.293 L 704.362 408.293 L 704.362 408.293 Q 704.71 407.831 704.71 406.908 L 704.71 406.908 L 704.71 406.908 Q 704.71 406.017 704.386 405.572 L 704.386 405.572 L 704.386 405.572 Q 704.062 405.127 703.269 405.127 L 703.269 405.127 L 702.329 405.127 L 702.329 408.754 L 702.329 408.754 Z  M 529.23 416.301 L 529.23 403.183 L 533.635 403.183 L 533.635 403.183 Q 535.368 403.183 536.226 404.163 L 536.226 404.163 L 536.226 404.163 Q 537.084 405.143 537.084 406.989 L 537.084 406.989 L 537.084 406.989 Q 537.084 409.094 536.088 409.912 L 536.088 409.912 L 536.088 409.912 Q 535.092 410.73 533.295 410.73 L 533.295 410.73 L 532.129 410.73 L 532.129 416.301 L 529.23 416.301 L 529.23 416.301 Z  M 532.129 408.706 L 533.1 408.706 L 533.1 408.706 Q 533.861 408.706 534.112 408.301 L 534.112 408.301 L 534.112 408.301 Q 534.363 407.896 534.363 406.94 L 534.363 406.94 L 534.363 406.94 Q 534.363 406.066 534.121 405.645 L 534.121 405.645 L 534.121 405.645 Q 533.878 405.224 533.084 405.224 L 533.084 405.224 L 532.129 405.224 L 532.129 408.706 L 532.129 408.706 Z  M 538.883 416.301 L 541.361 403.183 L 544.665 403.183 L 547.11 416.301 L 544.438 416.301 L 544.001 413.532 L 542.074 413.532 L 541.62 416.301 L 538.883 416.301 L 538.883 416.301 Z  M 542.333 411.799 L 543.726 411.799 L 543.029 406.681 L 542.333 411.799 L 542.333 411.799 Z  M 550.238 416.301 L 550.238 403.183 L 553.557 403.183 L 553.557 403.183 Q 555.258 403.183 556.213 403.604 L 556.213 403.604 L 556.213 403.604 Q 557.169 404.025 557.565 404.924 L 557.565 404.924 L 557.565 404.924 Q 557.962 405.823 557.962 407.329 L 557.962 407.329 L 557.962 412.09 L 557.962 412.09 Q 557.962 413.612 557.565 414.519 L 557.565 414.519 L 557.565 414.519 Q 557.169 415.426 556.221 415.863 L 556.221 415.863 L 556.221 415.863 Q 555.274 416.301 553.59 416.301 L 553.59 416.301 L 550.238 416.301 L 550.238 416.301 Z  M 553.136 414.293 L 553.59 414.293 L 553.59 414.293 Q 554.221 414.293 554.521 414.106 L 554.521 414.106 L 554.521 414.106 Q 554.821 413.92 554.901 413.572 L 554.901 413.572 L 554.901 413.572 Q 554.982 413.224 554.982 412.544 L 554.982 412.544 L 554.982 406.827 L 554.982 406.827 Q 554.982 406.195 554.893 405.863 L 554.893 405.863 L 554.893 405.863 Q 554.804 405.532 554.505 405.37 L 554.505 405.37 L 554.505 405.37 Q 554.205 405.208 553.574 405.208 L 553.574 405.208 L 553.136 405.208 L 553.136 414.293 L 553.136 414.293 Z  M 561.478 416.301 L 561.705 403.183 L 564.814 403.183 L 566.256 410.811 L 567.81 403.183 L 570.806 403.183 L 571.033 416.301 L 568.976 416.301 L 568.733 407.572 L 567.211 416.301 L 565.381 416.301 L 563.762 407.507 L 563.567 416.301 L 561.478 416.301 L 561.478 416.301 Z  M 574.095 416.301 L 576.573 403.183 L 579.877 403.183 L 582.322 416.301 L 579.65 416.301 L 579.213 413.532 L 577.286 413.532 L 576.832 416.301 L 574.095 416.301 L 574.095 416.301 Z  M 577.545 411.799 L 578.937 411.799 L 578.241 406.681 L 577.545 411.799 L 577.545 411.799 Z  M 586.696 416.301 L 584.332 403.183 L 586.81 403.183 L 588.219 412.09 L 589.53 403.183 L 592.154 403.183 L 589.757 416.301 L 586.696 416.301 L 586.696 416.301 Z  M 594.131 416.301 L 596.609 403.183 L 599.913 403.183 L 602.358 416.301 L 599.686 416.301 L 599.249 413.532 L 597.322 413.532 L 596.868 416.301 L 594.131 416.301 L 594.131 416.301 Z  M 597.581 411.799 L 598.973 411.799 L 598.277 406.681 L 597.581 411.799 L 597.581 411.799 Z  M 605.971 416.301 L 605.971 405.337 L 603.996 405.337 L 603.996 403.183 L 610.846 403.183 L 610.846 405.337 L 608.886 405.337 L 608.886 416.301 L 605.971 416.301 L 605.971 416.301 Z  M 613.843 416.301 L 613.843 403.183 L 616.742 403.183 L 616.742 408.495 L 618.767 408.495 L 618.767 403.183 L 621.682 403.183 L 621.682 416.301 L 618.767 416.301 L 618.767 410.568 L 616.742 410.568 L 616.742 416.301 L 613.843 416.301 L 613.843 416.301 Z  M 625.489 416.301 L 625.489 403.183 L 628.388 403.183 L 628.388 416.301 L 625.489 416.301 L 625.489 416.301 Z  M 498.453 416.495 L 498.453 416.495 Q 496.575 416.495 495.66 415.499 L 495.66 415.499 L 495.66 415.499 Q 494.745 414.503 494.68 412.333 L 494.68 412.333 L 497.158 411.961 L 497.158 411.961 Q 497.174 413.208 497.457 413.75 L 497.457 413.75 L 497.457 413.75 Q 497.741 414.293 498.308 414.293 L 498.308 414.293 L 498.308 414.293 Q 499.036 414.293 499.036 413.337 L 499.036 413.337 L 499.036 413.337 Q 499.036 412.576 498.688 412.025 L 498.688 412.025 L 498.688 412.025 Q 498.34 411.475 497.595 410.843 L 497.595 410.843 L 496.462 409.855 L 496.462 409.855 Q 495.619 409.143 495.158 408.341 L 495.158 408.341 L 495.158 408.341 Q 494.696 407.54 494.696 406.438 L 494.696 406.438 L 494.696 406.438 Q 494.696 404.787 495.676 403.896 L 495.676 403.896 L 495.676 403.896 Q 496.656 403.005 498.372 403.005 L 498.372 403.005 L 498.372 403.005 Q 500.235 403.005 500.907 404.09 L 500.907 404.09 L 500.907 404.09 Q 501.579 405.175 501.628 406.73 L 501.628 406.73 L 499.134 407.038 L 499.134 407.038 Q 499.101 406.017 498.947 405.572 L 498.947 405.572 L 498.947 405.572 Q 498.794 405.127 498.275 405.127 L 498.275 405.127 L 498.275 405.127 Q 497.903 405.127 497.7 405.442 L 497.7 405.442 L 497.7 405.442 Q 497.498 405.758 497.498 406.147 L 497.498 406.147 L 497.498 406.147 Q 497.498 406.811 497.798 407.264 L 497.798 407.264 L 497.798 407.264 Q 498.097 407.718 498.761 408.301 L 498.761 408.301 L 499.846 409.256 L 499.846 409.256 Q 500.818 410.082 501.352 411.005 L 501.352 411.005 L 501.352 411.005 Q 501.887 411.928 501.887 413.191 L 501.887 413.191 L 501.887 413.191 Q 501.887 414.115 501.457 414.868 L 501.457 414.868 L 501.457 414.868 Q 501.028 415.621 500.251 416.058 L 500.251 416.058 L 500.251 416.058 Q 499.474 416.495 498.453 416.495 L 498.453 416.495 L 498.453 416.495 Z  M 505.095 416.301 L 505.095 403.183 L 508.706 403.183 L 508.706 403.183 Q 510.86 403.183 511.961 403.944 L 511.961 403.944 L 511.961 403.944 Q 513.063 404.706 513.063 406.649 L 513.063 406.649 L 513.063 406.649 Q 513.063 407.961 512.722 408.738 L 512.722 408.738 L 512.722 408.738 Q 512.382 409.515 511.459 409.953 L 511.459 409.953 L 513.257 416.301 L 510.261 416.301 L 508.82 410.422 L 507.994 410.422 L 507.994 416.301 L 505.095 416.301 L 505.095 416.301 Z  M 507.994 408.754 L 508.803 408.754 L 508.803 408.754 Q 509.678 408.754 510.026 408.293 L 510.026 408.293 L 510.026 408.293 Q 510.374 407.831 510.374 406.908 L 510.374 406.908 L 510.374 406.908 Q 510.374 406.017 510.05 405.572 L 510.05 405.572 L 510.05 405.572 Q 509.726 405.127 508.933 405.127 L 508.933 405.127 L 507.994 405.127 L 507.994 408.754 L 507.994 408.754 Z  M 516.627 416.301 L 516.627 403.183 L 519.526 403.183 L 519.526 416.301 L 516.627 416.301 L 516.627 416.301 Z " fill="rgb(255,255,255)" vector-effect="non-scaling-stroke" stroke-width="1" stroke="rgb(152,0,0)" stroke-linejoin="miter" stroke-linecap="square" stroke-miterlimit="3"/></svg>