<?xml version="1.0" encoding="UTF-8" standalone="no"?><!-- Generator: Gravit.io --><svg xmlns="http://www.w3.org/2000/svg" xmlns:xlink="http://www.w3.org/1999/xlink" style="isolation:isolate" viewBox="489.5 392.405 112.664 33" width="112.664pt" height="33pt"><path d=" M 532.647 416.419 L 532.647 416.419 Q 530.704 416.419 529.878 415.236 L 529.878 415.236 L 529.878 415.236 Q 529.052 414.054 529.052 411.884 L 529.052 411.884 L 529.052 407.479 L 529.052 407.479 Q 529.052 405.261 529.951 404.095 L 529.951 404.095 L 529.951 404.095 Q 530.849 402.929 532.987 402.929 L 532.987 402.929 L 532.987 402.929 Q 535.044 402.929 535.934 403.933 L 535.934 403.933 L 535.934 403.933 Q 536.825 404.937 536.825 406.767 L 536.825 406.767 L 536.825 407.609 L 533.991 407.609 L 533.991 406.54 L 533.991 406.54 Q 533.991 405.763 533.813 405.366 L 533.813 405.366 L 533.813 405.366 Q 533.635 404.969 533.019 404.969 L 533.019 404.969 L 533.019 404.969 Q 532.388 404.969 532.202 405.407 L 532.202 405.407 L 532.202 405.407 Q 532.015 405.844 532.015 406.621 L 532.015 406.621 L 532.015 412.694 L 532.015 412.694 Q 532.015 413.471 532.25 413.917 L 532.25 413.917 L 532.25 413.917 Q 532.485 414.362 533.1 414.362 L 533.1 414.362 L 533.1 414.362 Q 534.234 414.362 534.234 412.662 L 534.234 412.662 L 534.234 411.123 L 533.052 411.123 L 533.052 409.423 L 536.841 409.423 L 536.841 416.224 L 534.93 416.224 L 534.768 415.139 L 534.768 415.139 Q 534.153 416.419 532.647 416.419 L 532.647 416.419 L 532.647 416.419 Z  M 539.823 416.224 L 542.3 403.107 L 545.604 403.107 L 548.049 416.224 L 545.377 416.224 L 544.94 413.455 L 543.013 413.455 L 542.56 416.224 L 539.823 416.224 L 539.823 416.224 Z  M 543.272 411.722 L 544.665 411.722 L 543.969 406.605 L 543.272 411.722 L 543.272 411.722 Z  M 551.177 416.224 L 551.177 403.107 L 554.788 403.107 L 554.788 403.107 Q 556.942 403.107 558.043 403.868 L 558.043 403.868 L 558.043 403.868 Q 559.144 404.629 559.144 406.573 L 559.144 406.573 L 559.144 406.573 Q 559.144 407.884 558.804 408.662 L 558.804 408.662 L 558.804 408.662 Q 558.464 409.439 557.541 409.876 L 557.541 409.876 L 559.339 416.224 L 556.343 416.224 L 554.901 410.346 L 554.076 410.346 L 554.076 416.224 L 551.177 416.224 L 551.177 416.224 Z  M 554.076 408.678 L 554.885 408.678 L 554.885 408.678 Q 555.76 408.678 556.108 408.216 L 556.108 408.216 L 556.108 408.216 Q 556.456 407.755 556.456 406.832 L 556.456 406.832 L 556.456 406.832 Q 556.456 405.941 556.132 405.496 L 556.132 405.496 L 556.132 405.496 Q 555.808 405.05 555.015 405.05 L 555.015 405.05 L 554.076 405.05 L 554.076 408.678 L 554.076 408.678 Z  M 566.401 416.419 L 566.401 416.419 Q 564.928 416.419 564.069 415.941 L 564.069 415.941 L 564.069 415.941 Q 563.211 415.463 562.863 414.532 L 562.863 414.532 L 562.863 414.532 Q 562.515 413.601 562.515 412.16 L 562.515 412.16 L 562.515 403.107 L 565.381 403.107 L 565.381 412.597 L 565.381 412.597 Q 565.381 413.39 565.583 413.86 L 565.583 413.86 L 565.583 413.86 Q 565.786 414.33 566.401 414.33 L 566.401 414.33 L 566.401 414.33 Q 567.017 414.33 567.211 413.86 L 567.211 413.86 L 567.211 413.86 Q 567.405 413.39 567.405 412.597 L 567.405 412.597 L 567.405 403.107 L 570.288 403.107 L 570.288 412.16 L 570.288 412.16 Q 570.288 413.601 569.932 414.532 L 569.932 414.532 L 569.932 414.532 Q 569.575 415.463 568.725 415.941 L 568.725 415.941 L 568.725 415.941 Q 567.875 416.419 566.401 416.419 L 566.401 416.419 L 566.401 416.419 Z  M 573.933 416.224 L 573.933 403.107 L 577.253 403.107 L 577.253 403.107 Q 578.954 403.107 579.909 403.528 L 579.909 403.528 L 579.909 403.528 Q 580.865 403.949 581.261 404.848 L 581.261 404.848 L 581.261 404.848 Q 581.658 405.747 581.658 407.253 L 581.658 407.253 L 581.658 412.014 L 581.658 412.014 Q 581.658 413.536 581.261 414.443 L 581.261 414.443 L 581.261 414.443 Q 580.865 415.35 579.917 415.787 L 579.917 415.787 L 579.917 415.787 Q 578.97 416.224 577.286 416.224 L 577.286 416.224 L 573.933 416.224 L 573.933 416.224 Z  M 576.832 414.216 L 577.286 414.216 L 577.286 414.216 Q 577.917 414.216 578.217 414.03 L 578.217 414.03 L 578.217 414.03 Q 578.516 413.844 578.597 413.496 L 578.597 413.496 L 578.597 413.496 Q 578.678 413.147 578.678 412.467 L 578.678 412.467 L 578.678 406.751 L 578.678 406.751 Q 578.678 406.119 578.589 405.787 L 578.589 405.787 L 578.589 405.787 Q 578.5 405.455 578.201 405.293 L 578.201 405.293 L 578.201 405.293 Q 577.901 405.131 577.269 405.131 L 577.269 405.131 L 576.832 405.131 L 576.832 414.216 L 576.832 414.216 Z  M 584.397 416.224 L 586.874 403.107 L 590.178 403.107 L 592.623 416.224 L 589.951 416.224 L 589.514 413.455 L 587.587 413.455 L 587.134 416.224 L 584.397 416.224 L 584.397 416.224 Z  M 587.846 411.722 L 589.239 411.722 L 588.543 406.605 L 587.846 411.722 L 587.846 411.722 Z  M 498.453 416.419 L 498.453 416.419 Q 496.575 416.419 495.66 415.423 L 495.66 415.423 L 495.66 415.423 Q 494.745 414.427 494.68 412.257 L 494.68 412.257 L 497.158 411.884 L 497.158 411.884 Q 497.174 413.131 497.457 413.674 L 497.457 413.674 L 497.457 413.674 Q 497.741 414.216 498.308 414.216 L 498.308 414.216 L 498.308 414.216 Q 499.036 414.216 499.036 413.261 L 499.036 413.261 L 499.036 413.261 Q 499.036 412.5 498.688 411.949 L 498.688 411.949 L 498.688 411.949 Q 498.34 411.398 497.595 410.767 L 497.595 410.767 L 496.462 409.779 L 496.462 409.779 Q 495.619 409.066 495.158 408.265 L 495.158 408.265 L 495.158 408.265 Q 494.696 407.463 494.696 406.362 L 494.696 406.362 L 494.696 406.362 Q 494.696 404.71 495.676 403.819 L 495.676 403.819 L 495.676 403.819 Q 496.656 402.929 498.372 402.929 L 498.372 402.929 L 498.372 402.929 Q 500.235 402.929 500.907 404.014 L 500.907 404.014 L 500.907 404.014 Q 501.579 405.099 501.628 406.653 L 501.628 406.653 L 499.134 406.961 L 499.134 406.961 Q 499.101 405.941 498.947 405.496 L 498.947 405.496 L 498.947 405.496 Q 498.794 405.05 498.275 405.05 L 498.275 405.05 L 498.275 405.05 Q 497.903 405.05 497.7 405.366 L 497.7 405.366 L 497.7 405.366 Q 497.498 405.682 497.498 406.07 L 497.498 406.07 L 497.498 406.07 Q 497.498 406.734 497.798 407.188 L 497.798 407.188 L 497.798 407.188 Q 498.097 407.641 498.761 408.224 L 498.761 408.224 L 499.846 409.18 L 499.846 409.18 Q 500.818 410.006 501.352 410.929 L 501.352 410.929 L 501.352 410.929 Q 501.887 411.852 501.887 413.115 L 501.887 413.115 L 501.887 413.115 Q 501.887 414.038 501.457 414.791 L 501.457 414.791 L 501.457 414.791 Q 501.028 415.544 500.251 415.981 L 500.251 415.981 L 500.251 415.981 Q 499.474 416.419 498.453 416.419 L 498.453 416.419 L 498.453 416.419 Z  M 505.095 416.224 L 505.095 403.107 L 508.706 403.107 L 508.706 403.107 Q 510.86 403.107 511.961 403.868 L 511.961 403.868 L 511.961 403.868 Q 513.063 404.629 513.063 406.573 L 513.063 406.573 L 513.063 406.573 Q 513.063 407.884 512.722 408.662 L 512.722 408.662 L 512.722 408.662 Q 512.382 409.439 511.459 409.876 L 511.459 409.876 L 513.257 416.224 L 510.261 416.224 L 508.82 410.346 L 507.994 410.346 L 507.994 416.224 L 505.095 416.224 L 505.095 416.224 Z  M 507.994 408.678 L 508.803 408.678 L 508.803 408.678 Q 509.678 408.678 510.026 408.216 L 510.026 408.216 L 510.026 408.216 Q 510.374 407.755 510.374 406.832 L 510.374 406.832 L 510.374 406.832 Q 510.374 405.941 510.05 405.496 L 510.05 405.496 L 510.05 405.496 Q 509.726 405.05 508.933 405.05 L 508.933 405.05 L 507.994 405.05 L 507.994 408.678 L 507.994 408.678 Z  M 516.627 416.224 L 516.627 403.107 L 519.526 403.107 L 519.526 416.224 L 516.627 416.224 L 516.627 416.224 Z " fill="rgb(255,255,255)" vector-effect="non-scaling-stroke" stroke-width="1" stroke="rgb(152,0,0)" stroke-linejoin="miter" stroke-linecap="square" stroke-miterlimit="3"/></svg>